<svg width="3764" height="1862" viewBox="0 0 3764 1862" fill="none" xmlns="http://www.w3.org/2000/svg">
<g filter="url(#filter0_d)">
<path d="M2 5H3756V1857H2V5Z" fill="#8520D0"/>
</g>
<g opacity="0.1">
<path d="M411.137 907.219C455.762 892.507 501.795 909.686 513.55 945.757C525.305 981.828 498.314 1023.08 453.689 1037.79C443.628 1041.11 433.494 1042.82 423.717 1043.16C406.674 1071.37 377.87 1080.86 377.87 1080.86C390.579 1055.62 389.406 1041.81 388.216 1036.78C370.619 1029.66 356.94 1016.64 351.276 999.256C339.521 963.185 366.512 921.932 411.137 907.219ZM475.641 967.293L470.322 950.971L454.094 956.321L459.413 972.642L475.641 967.293ZM443.186 977.992L437.867 961.671L421.64 967.02L426.959 983.342L443.186 977.992ZM410.731 988.692L405.412 972.37L389.185 977.72L394.504 994.042L410.731 988.692Z" fill="white"/>
<path d="M1019.84 907.219C1064.47 892.507 1110.5 909.686 1122.26 945.757C1134.01 981.828 1107.02 1023.08 1062.39 1037.79C1052.33 1041.11 1042.2 1042.82 1032.42 1043.16C1015.38 1071.37 986.577 1080.86 986.577 1080.86C999.285 1055.62 998.112 1041.81 996.922 1036.78C979.325 1029.66 965.646 1016.64 959.982 999.256C948.227 963.185 975.218 921.932 1019.84 907.219ZM1084.35 967.293L1079.03 950.971L1062.8 956.321L1068.12 972.642L1084.35 967.293ZM1051.89 977.992L1046.57 961.671L1030.35 967.02L1035.66 983.342L1051.89 977.992ZM1019.44 988.692L1014.12 972.37L997.891 977.72L1003.21 994.042L1019.44 988.692Z" fill="white"/>
<path d="M1628.55 907.219C1673.17 892.507 1719.21 909.686 1730.96 945.757C1742.72 981.828 1715.73 1023.08 1671.1 1037.79C1661.04 1041.11 1650.91 1042.82 1641.13 1043.16C1624.09 1071.37 1595.28 1080.86 1595.28 1080.86C1607.99 1055.62 1606.82 1041.81 1605.63 1036.78C1588.03 1029.66 1574.35 1016.64 1568.69 999.256C1556.93 963.185 1583.92 921.932 1628.55 907.219ZM1693.05 967.293L1687.73 950.971L1671.51 956.321L1676.83 972.642L1693.05 967.293ZM1660.6 977.992L1655.28 961.671L1639.05 967.02L1644.37 983.342L1660.6 977.992ZM1628.14 988.692L1622.82 972.37L1606.6 977.72L1611.92 994.042L1628.14 988.692Z" fill="white"/>
<path d="M2237.26 907.219C2281.88 892.507 2327.91 909.686 2339.67 945.757C2351.42 981.828 2324.43 1023.08 2279.81 1037.79C2269.75 1041.11 2259.61 1042.82 2249.84 1043.16C2232.79 1071.37 2203.99 1080.86 2203.99 1080.86C2216.7 1055.62 2215.52 1041.81 2214.33 1036.78C2196.74 1029.66 2183.06 1016.64 2177.39 999.256C2165.64 963.185 2192.63 921.932 2237.26 907.219ZM2301.76 967.293L2296.44 950.971L2280.21 956.321L2285.53 972.642L2301.76 967.293ZM2269.3 977.992L2263.99 961.671L2247.76 967.02L2253.08 983.342L2269.3 977.992ZM2236.85 988.692L2231.53 972.37L2215.3 977.72L2220.62 994.042L2236.85 988.692Z" fill="white"/>
<path d="M2845.96 907.219C2890.59 892.507 2936.62 909.686 2948.37 945.757C2960.13 981.828 2933.14 1023.08 2888.51 1037.79C2878.45 1041.11 2868.32 1042.82 2858.54 1043.16C2841.5 1071.37 2812.69 1080.86 2812.69 1080.86C2825.4 1055.62 2824.23 1041.81 2823.04 1036.78C2805.44 1029.66 2791.76 1016.64 2786.1 999.256C2774.35 963.185 2801.34 921.932 2845.96 907.219ZM2910.46 967.293L2905.15 950.971L2888.92 956.321L2894.24 972.642L2910.46 967.293ZM2878.01 977.992L2872.69 961.671L2856.46 967.02L2861.78 983.342L2878.01 977.992ZM2845.56 988.692L2840.24 972.37L2824.01 977.72L2829.33 994.042L2845.56 988.692Z" fill="white"/>
<path d="M3454.67 907.219C3499.29 892.507 3545.33 909.686 3557.08 945.757C3568.83 981.828 3541.84 1023.08 3497.22 1037.79C3487.16 1041.11 3477.02 1042.82 3467.25 1043.16C3450.2 1071.37 3421.4 1080.86 3421.4 1080.86C3434.11 1055.62 3432.94 1041.81 3431.75 1036.78C3414.15 1029.66 3400.47 1016.64 3394.81 999.256C3383.05 963.185 3410.04 921.932 3454.67 907.219ZM3519.17 967.293L3513.85 950.971L3497.62 956.321L3502.94 972.642L3519.17 967.293ZM3486.72 977.992L3481.4 961.671L3465.17 967.02L3470.49 983.342L3486.72 977.992ZM3454.26 988.692L3448.94 972.37L3432.72 977.72L3438.03 994.042L3454.26 988.692Z" fill="white"/>
<path d="M183.14 1179.65C170.774 1191.81 150.963 1191.51 138.869 1179.06C126.737 1166.57 126.927 1146.68 139.293 1134.53C145.22 1128.7 153.214 1125.49 161.517 1125.6C169.819 1125.71 177.75 1129.14 183.565 1135.12C189.379 1141.11 192.601 1149.16 192.522 1157.51C192.442 1165.86 189.067 1173.83 183.14 1179.65ZM123.899 1201.13C122.911 1202.1 121.579 1202.63 120.195 1202.61C118.811 1202.6 117.49 1202.03 116.52 1201.03C115.551 1200.03 115.014 1198.69 115.028 1197.3C115.041 1195.9 115.603 1194.58 116.591 1193.61C117.579 1192.63 118.911 1192.1 120.295 1192.12C121.679 1192.14 123.001 1192.71 123.97 1193.7C124.939 1194.7 125.476 1196.04 125.463 1197.44C125.449 1198.83 124.887 1200.16 123.899 1201.13ZM154.404 1097.62L100.88 1150.23C98.422 1152.65 97.3937 1156.01 97.7687 1159.25L105.346 1212.01L157.584 1220.8C160.826 1221.29 164.193 1220.34 166.651 1217.92L220.175 1165.3C222.151 1163.36 223.275 1160.71 223.302 1157.92C223.329 1155.14 222.255 1152.45 220.316 1150.46L169.161 1097.81C167.223 1095.82 164.579 1094.68 161.812 1094.64C159.044 1094.6 156.38 1095.67 154.404 1097.62ZM150.113 1160.65C151.101 1159.68 151.664 1158.35 151.677 1156.96C151.69 1155.57 151.153 1154.23 150.184 1153.23C149.215 1152.23 147.893 1151.66 146.509 1151.64C145.126 1151.63 143.793 1152.16 142.805 1153.13C141.818 1154.1 141.255 1155.43 141.242 1156.82C141.229 1158.21 141.766 1159.56 142.735 1160.55C143.704 1161.55 145.026 1162.12 146.409 1162.14C147.793 1162.16 149.126 1161.62 150.113 1160.65ZM175.832 1172.13C182.76 1165.32 183.633 1155.05 179.024 1146.94L150.717 1174.76C158.678 1179.58 168.905 1178.94 175.832 1172.13ZM165.012 1146.01C166 1145.04 166.562 1143.71 166.576 1142.32C166.589 1140.92 166.052 1139.58 165.083 1138.59C164.114 1137.59 162.792 1137.02 161.408 1137C160.024 1136.98 158.692 1137.52 157.704 1138.49C156.716 1139.46 156.154 1140.78 156.141 1142.18C156.127 1143.57 156.664 1144.91 157.633 1145.91C158.603 1146.91 159.924 1147.48 161.308 1147.49C162.692 1147.51 164.024 1146.98 165.012 1146.01Z" fill="white"/>
<path d="M791.846 1179.65C779.48 1191.81 759.669 1191.51 747.575 1179.06C735.444 1166.57 735.633 1146.68 747.999 1134.53C753.926 1128.7 761.92 1125.49 770.223 1125.6C778.525 1125.71 786.456 1129.14 792.271 1135.12C798.085 1141.11 801.307 1149.16 801.228 1157.51C801.148 1165.86 797.773 1173.83 791.846 1179.65ZM732.605 1201.13C731.617 1202.1 730.285 1202.63 728.901 1202.61C727.517 1202.6 726.196 1202.03 725.227 1201.03C724.257 1200.03 723.72 1198.69 723.734 1197.3C723.747 1195.9 724.309 1194.58 725.297 1193.61C726.285 1192.63 727.617 1192.1 729.001 1192.12C730.385 1192.14 731.707 1192.71 732.676 1193.7C733.645 1194.7 734.182 1196.04 734.169 1197.44C734.155 1198.83 733.593 1200.16 732.605 1201.13ZM763.11 1097.62L709.586 1150.23C707.128 1152.65 706.1 1156.01 706.475 1159.25L714.052 1212.01L766.29 1220.8C769.532 1221.29 772.899 1220.34 775.357 1217.92L828.881 1165.3C830.857 1163.36 831.982 1160.71 832.008 1157.92C832.035 1155.14 830.961 1152.45 829.022 1150.46L777.867 1097.81C775.929 1095.82 773.286 1094.68 770.518 1094.64C767.75 1094.6 765.086 1095.67 763.11 1097.62ZM758.819 1160.65C759.807 1159.68 760.37 1158.35 760.383 1156.96C760.396 1155.57 759.859 1154.23 758.89 1153.23C757.921 1152.23 756.599 1151.66 755.216 1151.64C753.832 1151.63 752.499 1152.16 751.512 1153.13C750.524 1154.1 749.961 1155.43 749.948 1156.82C749.935 1158.21 750.472 1159.56 751.441 1160.55C752.41 1161.55 753.732 1162.12 755.115 1162.14C756.499 1162.16 757.832 1161.62 758.819 1160.65ZM784.539 1172.13C791.466 1165.32 792.339 1155.05 787.73 1146.94L759.423 1174.76C767.384 1179.58 777.611 1178.94 784.539 1172.13ZM773.718 1146.01C774.706 1145.04 775.268 1143.71 775.282 1142.32C775.295 1140.92 774.758 1139.58 773.789 1138.59C772.82 1137.59 771.498 1137.02 770.114 1137C768.73 1136.98 767.398 1137.52 766.41 1138.49C765.422 1139.46 764.86 1140.78 764.847 1142.18C764.833 1143.57 765.37 1144.91 766.34 1145.91C767.309 1146.91 768.63 1147.48 770.014 1147.49C771.398 1147.51 772.73 1146.98 773.718 1146.01Z" fill="white"/>
<path d="M1400.55 1179.65C1388.19 1191.81 1368.38 1191.51 1356.28 1179.06C1344.15 1166.57 1344.34 1146.68 1356.71 1134.53C1362.63 1128.7 1370.63 1125.49 1378.93 1125.6C1387.23 1125.71 1395.16 1129.14 1400.98 1135.12C1406.79 1141.11 1410.01 1149.16 1409.93 1157.51C1409.85 1165.86 1406.48 1173.83 1400.55 1179.65ZM1341.31 1201.13C1340.32 1202.1 1338.99 1202.63 1337.61 1202.61C1336.22 1202.6 1334.9 1202.03 1333.93 1201.03C1332.96 1200.03 1332.43 1198.69 1332.44 1197.3C1332.45 1195.9 1333.02 1194.58 1334 1193.61C1334.99 1192.63 1336.32 1192.1 1337.71 1192.12C1339.09 1192.14 1340.41 1192.71 1341.38 1193.7C1342.35 1194.7 1342.89 1196.04 1342.87 1197.44C1342.86 1198.83 1342.3 1200.16 1341.31 1201.13ZM1371.82 1097.62L1318.29 1150.23C1315.83 1152.65 1314.81 1156.01 1315.18 1159.25L1322.76 1212.01L1375 1220.8C1378.24 1221.29 1381.61 1220.34 1384.06 1217.92L1437.59 1165.3C1439.56 1163.36 1440.69 1160.71 1440.71 1157.92C1440.74 1155.14 1439.67 1152.45 1437.73 1150.46L1386.57 1097.81C1384.64 1095.82 1381.99 1094.68 1379.22 1094.64C1376.46 1094.6 1373.79 1095.67 1371.82 1097.62ZM1367.53 1160.65C1368.51 1159.68 1369.08 1158.35 1369.09 1156.96C1369.1 1155.57 1368.57 1154.23 1367.6 1153.23C1366.63 1152.23 1365.31 1151.66 1363.92 1151.64C1362.54 1151.63 1361.21 1152.16 1360.22 1153.13C1359.23 1154.1 1358.67 1155.43 1358.65 1156.82C1358.64 1158.21 1359.18 1159.56 1360.15 1160.55C1361.12 1161.55 1362.44 1162.12 1363.82 1162.14C1365.21 1162.16 1366.54 1161.62 1367.53 1160.65ZM1393.24 1172.13C1400.17 1165.32 1401.05 1155.05 1396.44 1146.94L1368.13 1174.76C1376.09 1179.58 1386.32 1178.94 1393.24 1172.13ZM1382.42 1146.01C1383.41 1145.04 1383.97 1143.71 1383.99 1142.32C1384 1140.92 1383.46 1139.58 1382.49 1138.59C1381.53 1137.59 1380.2 1137.02 1378.82 1137C1377.44 1136.98 1376.1 1137.52 1375.12 1138.49C1374.13 1139.46 1373.57 1140.78 1373.55 1142.18C1373.54 1143.57 1374.08 1144.91 1375.05 1145.91C1376.01 1146.91 1377.34 1147.48 1378.72 1147.49C1380.1 1147.51 1381.44 1146.98 1382.42 1146.01Z" fill="white"/>
<path d="M2009.26 1179.65C1996.89 1191.81 1977.08 1191.51 1964.99 1179.06C1952.86 1166.57 1953.05 1146.68 1965.41 1134.53C1971.34 1128.7 1979.33 1125.49 1987.63 1125.6C1995.94 1125.71 2003.87 1129.14 2009.68 1135.12C2015.5 1141.11 2018.72 1149.16 2018.64 1157.51C2018.56 1165.86 2015.19 1173.83 2009.26 1179.65ZM1950.02 1201.13C1949.03 1202.1 1947.7 1202.63 1946.31 1202.61C1944.93 1202.6 1943.61 1202.03 1942.64 1201.03C1941.67 1200.03 1941.13 1198.69 1941.15 1197.3C1941.16 1195.9 1941.72 1194.58 1942.71 1193.61C1943.7 1192.63 1945.03 1192.1 1946.41 1192.12C1947.8 1192.14 1949.12 1192.71 1950.09 1193.7C1951.06 1194.7 1951.59 1196.04 1951.58 1197.44C1951.57 1198.83 1951.01 1200.16 1950.02 1201.13ZM1980.52 1097.62L1927 1150.23C1924.54 1152.65 1923.51 1156.01 1923.89 1159.25L1931.46 1212.01L1983.7 1220.8C1986.94 1221.29 1990.31 1220.34 1992.77 1217.92L2046.29 1165.3C2048.27 1163.36 2049.39 1160.71 2049.42 1157.92C2049.45 1155.14 2048.37 1152.45 2046.43 1150.46L1995.28 1097.81C1993.34 1095.82 1990.7 1094.68 1987.93 1094.64C1985.16 1094.6 1982.5 1095.67 1980.52 1097.62ZM1976.23 1160.65C1977.22 1159.68 1977.78 1158.35 1977.8 1156.96C1977.81 1155.57 1977.27 1154.23 1976.3 1153.23C1975.33 1152.23 1974.01 1151.66 1972.63 1151.64C1971.24 1151.63 1969.91 1152.16 1968.92 1153.13C1967.94 1154.1 1967.37 1155.43 1967.36 1156.82C1967.35 1158.21 1967.88 1159.56 1968.85 1160.55C1969.82 1161.55 1971.14 1162.12 1972.53 1162.14C1973.91 1162.16 1975.24 1161.62 1976.23 1160.65ZM2001.95 1172.13C2008.88 1165.32 2009.75 1155.05 2005.14 1146.94L1976.83 1174.76C1984.8 1179.58 1995.02 1178.94 2001.95 1172.13ZM1991.13 1146.01C1992.12 1145.04 1992.68 1143.71 1992.69 1142.32C1992.71 1140.92 1992.17 1139.58 1991.2 1138.59C1990.23 1137.59 1988.91 1137.02 1987.53 1137C1986.14 1136.98 1984.81 1137.52 1983.82 1138.49C1982.83 1139.46 1982.27 1140.78 1982.26 1142.18C1982.25 1143.57 1982.78 1144.91 1983.75 1145.91C1984.72 1146.91 1986.04 1147.48 1987.43 1147.49C1988.81 1147.51 1990.14 1146.98 1991.13 1146.01Z" fill="white"/>
<path d="M2617.96 1179.65C2605.6 1191.81 2585.79 1191.51 2573.69 1179.06C2561.56 1166.57 2561.75 1146.68 2574.12 1134.53C2580.04 1128.7 2588.04 1125.49 2596.34 1125.6C2604.64 1125.71 2612.57 1129.14 2618.39 1135.12C2624.2 1141.11 2627.43 1149.16 2627.35 1157.51C2627.27 1165.86 2623.89 1173.83 2617.96 1179.65ZM2558.72 1201.13C2557.74 1202.1 2556.4 1202.63 2555.02 1202.61C2553.64 1202.6 2552.31 1202.03 2551.34 1201.03C2550.38 1200.03 2549.84 1198.69 2549.85 1197.3C2549.87 1195.9 2550.43 1194.58 2551.42 1193.61C2552.4 1192.63 2553.74 1192.1 2555.12 1192.12C2556.5 1192.14 2557.82 1192.71 2558.79 1193.7C2559.76 1194.7 2560.3 1196.04 2560.29 1197.44C2560.27 1198.83 2559.71 1200.16 2558.72 1201.13ZM2589.23 1097.62L2535.7 1150.23C2533.25 1152.65 2532.22 1156.01 2532.59 1159.25L2540.17 1212.01L2592.41 1220.8C2595.65 1221.29 2599.02 1220.34 2601.48 1217.92L2655 1165.3C2656.97 1163.36 2658.1 1160.71 2658.13 1157.92C2658.15 1155.14 2657.08 1152.45 2655.14 1150.46L2603.99 1097.81C2602.05 1095.82 2599.4 1094.68 2596.64 1094.64C2593.87 1094.6 2591.2 1095.67 2589.23 1097.62ZM2584.94 1160.65C2585.93 1159.68 2586.49 1158.35 2586.5 1156.96C2586.51 1155.57 2585.98 1154.23 2585.01 1153.23C2584.04 1152.23 2582.72 1151.66 2581.33 1151.64C2579.95 1151.63 2578.62 1152.16 2577.63 1153.13C2576.64 1154.1 2576.08 1155.43 2576.07 1156.82C2576.05 1158.21 2576.59 1159.56 2577.56 1160.55C2578.53 1161.55 2579.85 1162.12 2581.23 1162.14C2582.62 1162.16 2583.95 1161.62 2584.94 1160.65ZM2610.66 1172.13C2617.58 1165.32 2618.46 1155.05 2613.85 1146.94L2585.54 1174.76C2593.5 1179.58 2603.73 1178.94 2610.66 1172.13ZM2599.84 1146.01C2600.82 1145.04 2601.39 1143.71 2601.4 1142.32C2601.41 1140.92 2600.88 1139.58 2599.91 1138.59C2598.94 1137.59 2597.62 1137.02 2596.23 1137C2594.85 1136.98 2593.52 1137.52 2592.53 1138.49C2591.54 1139.46 2590.98 1140.78 2590.96 1142.18C2590.95 1143.57 2591.49 1144.91 2592.46 1145.91C2593.43 1146.91 2594.75 1147.48 2596.13 1147.49C2597.52 1147.51 2598.85 1146.98 2599.84 1146.01Z" fill="white"/>
<path d="M3226.67 1179.65C3214.3 1191.81 3194.49 1191.51 3182.4 1179.06C3170.27 1166.57 3170.46 1146.68 3182.82 1134.53C3188.75 1128.7 3196.74 1125.49 3205.05 1125.6C3213.35 1125.71 3221.28 1129.14 3227.1 1135.12C3232.91 1141.11 3236.13 1149.16 3236.05 1157.51C3235.97 1165.86 3232.6 1173.83 3226.67 1179.65ZM3167.43 1201.13C3166.44 1202.1 3165.11 1202.63 3163.73 1202.61C3162.34 1202.6 3161.02 1202.03 3160.05 1201.03C3159.08 1200.03 3158.54 1198.69 3158.56 1197.3C3158.57 1195.9 3159.13 1194.58 3160.12 1193.61C3161.11 1192.63 3162.44 1192.1 3163.83 1192.12C3165.21 1192.14 3166.53 1192.71 3167.5 1193.7C3168.47 1194.7 3169.01 1196.04 3168.99 1197.44C3168.98 1198.83 3168.42 1200.16 3167.43 1201.13ZM3197.93 1097.62L3144.41 1150.23C3141.95 1152.65 3140.92 1156.01 3141.3 1159.25L3148.88 1212.01L3201.11 1220.8C3204.36 1221.29 3207.72 1220.34 3210.18 1217.92L3263.71 1165.3C3265.68 1163.36 3266.81 1160.71 3266.83 1157.92C3266.86 1155.14 3265.78 1152.45 3263.85 1150.46L3212.69 1097.81C3210.75 1095.82 3208.11 1094.68 3205.34 1094.64C3202.57 1094.6 3199.91 1095.67 3197.93 1097.62ZM3193.64 1160.65C3194.63 1159.68 3195.19 1158.35 3195.21 1156.96C3195.22 1155.57 3194.68 1154.23 3193.71 1153.23C3192.75 1152.23 3191.42 1151.66 3190.04 1151.64C3188.66 1151.63 3187.32 1152.16 3186.34 1153.13C3185.35 1154.1 3184.79 1155.43 3184.77 1156.82C3184.76 1158.21 3185.3 1159.56 3186.27 1160.55C3187.23 1161.55 3188.56 1162.12 3189.94 1162.14C3191.32 1162.16 3192.66 1161.62 3193.64 1160.65ZM3219.36 1172.13C3226.29 1165.32 3227.16 1155.05 3222.55 1146.94L3194.25 1174.76C3202.21 1179.58 3212.43 1178.94 3219.36 1172.13ZM3208.54 1146.01C3209.53 1145.04 3210.09 1143.71 3210.11 1142.32C3210.12 1140.92 3209.58 1139.58 3208.61 1138.59C3207.64 1137.59 3206.32 1137.02 3204.94 1137C3203.55 1136.98 3202.22 1137.52 3201.23 1138.49C3200.25 1139.46 3199.68 1140.78 3199.67 1142.18C3199.66 1143.57 3200.19 1144.91 3201.16 1145.91C3202.13 1146.91 3203.45 1147.48 3204.84 1147.49C3206.22 1147.51 3207.55 1146.98 3208.54 1146.01Z" fill="white"/>
<path d="M143.261 1408.34L180.455 1524.78L141.167 1537.47L103.973 1421.04L143.261 1408.34ZM219.743 1512.08C214.533 1513.76 208.884 1513.33 204.037 1510.89C199.191 1508.44 195.544 1504.17 193.9 1499.02L162.905 1402C161.2 1396.66 161.811 1391.11 164.33 1386.44L208.533 1301.62L222.229 1308.54C225.718 1310.3 228.535 1313.35 229.806 1317.33L230.503 1320.53L235.337 1367.88L297.314 1347.85C302.524 1346.17 308.173 1346.6 313.02 1349.05C317.866 1351.5 321.513 1355.76 323.157 1360.91L329.356 1380.32C330.162 1382.84 330.414 1385.33 330.243 1387.84L322.433 1465.83C321.718 1473.77 316.294 1480.88 308.141 1483.51L219.743 1512.08ZM213.544 1492.67L302.237 1464.01L309.712 1386.67L303.513 1367.26L217.177 1395.16L211.787 1339.96L182.642 1395.94L213.544 1492.67Z" fill="white"/>
<path d="M751.967 1408.34L789.161 1524.78L749.873 1537.47L712.679 1421.04L751.967 1408.34ZM828.449 1512.08C823.239 1513.76 817.59 1513.33 812.743 1510.89C807.897 1508.44 804.25 1504.17 802.606 1499.02L771.611 1402C769.906 1396.66 770.517 1391.11 773.036 1386.44L817.239 1301.62L830.936 1308.54C834.424 1310.3 837.241 1313.35 838.512 1317.33L839.209 1320.53L844.043 1367.88L906.02 1347.85C911.23 1346.17 916.879 1346.6 921.726 1349.05C926.572 1351.5 930.219 1355.76 931.863 1360.91L938.062 1380.32C938.868 1382.84 939.121 1385.33 938.949 1387.84L931.139 1465.83C930.424 1473.77 925 1480.88 916.848 1483.51L828.449 1512.08ZM822.25 1492.67L910.943 1464.01L918.418 1386.67L912.219 1367.26L825.883 1395.16L820.493 1339.96L791.348 1395.94L822.25 1492.67Z" fill="white"/>
<path d="M1360.67 1408.34L1397.87 1524.78L1358.58 1537.47L1321.39 1421.04L1360.67 1408.34ZM1437.16 1512.08C1431.95 1513.76 1426.3 1513.33 1421.45 1510.89C1416.6 1508.44 1412.96 1504.17 1411.31 1499.02L1380.32 1402C1378.61 1396.66 1379.22 1391.11 1381.74 1386.44L1425.94 1301.62L1439.64 1308.54C1443.13 1310.3 1445.95 1313.35 1447.22 1317.33L1447.91 1320.53L1452.75 1367.88L1514.73 1347.85C1519.94 1346.17 1525.59 1346.6 1530.43 1349.05C1535.28 1351.5 1538.92 1355.76 1540.57 1360.91L1546.77 1380.32C1547.57 1382.84 1547.83 1385.33 1547.66 1387.84L1539.84 1465.83C1539.13 1473.77 1533.71 1480.88 1525.55 1483.51L1437.16 1512.08ZM1430.96 1492.67L1519.65 1464.01L1527.12 1386.67L1520.92 1367.26L1434.59 1395.16L1429.2 1339.96L1400.05 1395.94L1430.96 1492.67Z" fill="white"/>
<path d="M1969.38 1408.34L2006.57 1524.78L1967.29 1537.47L1930.09 1421.04L1969.38 1408.34ZM2045.86 1512.08C2040.65 1513.76 2035 1513.33 2030.16 1510.89C2025.31 1508.44 2021.66 1504.17 2020.02 1499.02L1989.02 1402C1987.32 1396.66 1987.93 1391.11 1990.45 1386.44L2034.65 1301.62L2048.35 1308.54C2051.84 1310.3 2054.65 1313.35 2055.92 1317.33L2056.62 1320.53L2061.45 1367.88L2123.43 1347.85C2128.64 1346.17 2134.29 1346.6 2139.14 1349.05C2143.98 1351.5 2147.63 1355.76 2149.27 1360.91L2155.47 1380.32C2156.28 1382.84 2156.53 1385.33 2156.36 1387.84L2148.55 1465.83C2147.84 1473.77 2142.41 1480.88 2134.26 1483.51L2045.86 1512.08ZM2039.66 1492.67L2128.36 1464.01L2135.83 1386.67L2129.63 1367.26L2043.3 1395.16L2037.9 1339.96L2008.76 1395.94L2039.66 1492.67Z" fill="white"/>
<path d="M2578.09 1408.34L2615.28 1524.78L2575.99 1537.47L2538.8 1421.04L2578.09 1408.34ZM2654.57 1512.08C2649.36 1513.76 2643.71 1513.33 2638.86 1510.89C2634.01 1508.44 2630.37 1504.17 2628.72 1499.02L2597.73 1402C2596.02 1396.66 2596.64 1391.11 2599.15 1386.44L2643.36 1301.62L2657.05 1308.54C2660.54 1310.3 2663.36 1313.35 2664.63 1317.33L2665.33 1320.53L2670.16 1367.88L2732.14 1347.85C2737.35 1346.17 2743 1346.6 2747.84 1349.05C2752.69 1351.5 2756.34 1355.76 2757.98 1360.91L2764.18 1380.32C2764.99 1382.84 2765.24 1385.33 2765.07 1387.84L2757.26 1465.83C2756.54 1473.77 2751.12 1480.88 2742.97 1483.51L2654.57 1512.08ZM2648.37 1492.67L2737.06 1464.01L2744.54 1386.67L2738.34 1367.26L2652 1395.16L2646.61 1339.96L2617.47 1395.94L2648.37 1492.67Z" fill="white"/>
<path d="M3186.79 1408.34L3223.99 1524.78L3184.7 1537.47L3147.5 1421.04L3186.79 1408.34ZM3263.27 1512.08C3258.06 1513.76 3252.41 1513.33 3247.57 1510.89C3242.72 1508.44 3239.07 1504.17 3237.43 1499.02L3206.44 1402C3204.73 1396.66 3205.34 1391.11 3207.86 1386.44L3252.06 1301.62L3265.76 1308.54C3269.25 1310.3 3272.07 1313.35 3273.34 1317.33L3274.03 1320.53L3278.87 1367.88L3340.84 1347.85C3346.05 1346.17 3351.7 1346.6 3356.55 1349.05C3361.4 1351.5 3365.04 1355.76 3366.69 1360.91L3372.89 1380.32C3373.69 1382.84 3373.94 1385.33 3373.77 1387.84L3365.96 1465.83C3365.25 1473.77 3359.82 1480.88 3351.67 1483.51L3263.27 1512.08ZM3257.07 1492.67L3345.77 1464.01L3353.24 1386.67L3347.04 1367.26L3260.71 1395.16L3255.32 1339.96L3226.17 1395.94L3257.07 1492.67Z" fill="white"/>
<path d="M203.167 903.121L193.866 898.023C160.856 880.011 139.054 868.083 134.319 848.25C130.438 831.994 140.167 816.235 156.401 812.314C165.573 810.099 175.392 812.234 182.733 817.528C186.883 809.459 194.668 803.072 203.839 800.856C220.074 796.935 235.856 806.533 239.737 822.789C244.472 842.622 230.432 863.207 209.152 894.331L203.167 903.121Z" fill="white"/>
<path d="M811.873 903.121L802.572 898.023C769.562 880.011 747.76 868.083 743.025 848.25C739.144 831.994 748.873 816.235 765.107 812.314C774.279 810.099 784.098 812.234 791.439 817.528C795.589 809.459 803.374 803.072 812.545 800.856C828.78 796.935 844.562 806.533 848.443 822.789C853.178 842.622 839.138 863.207 817.858 894.331L811.873 903.121Z" fill="white"/>
<path d="M1420.58 903.121L1411.28 898.023C1378.27 880.011 1356.47 868.083 1351.73 848.25C1347.85 831.994 1357.58 816.235 1373.81 812.314C1382.98 810.099 1392.8 812.234 1400.14 817.528C1404.29 809.459 1412.08 803.072 1421.25 800.856C1437.49 796.935 1453.27 806.533 1457.15 822.789C1461.88 842.622 1447.84 863.207 1426.56 894.331L1420.58 903.121Z" fill="white"/>
<path d="M2029.29 903.121L2019.98 898.023C1986.97 880.011 1965.17 868.083 1960.44 848.25C1956.56 831.994 1966.28 816.235 1982.52 812.314C1991.69 810.099 2001.51 812.234 2008.85 817.528C2013 809.459 2020.79 803.072 2029.96 800.856C2046.19 796.935 2061.97 806.533 2065.86 822.789C2070.59 842.622 2056.55 863.207 2035.27 894.331L2029.29 903.121Z" fill="white"/>
<path d="M2637.99 903.121L2628.69 898.023C2595.68 880.011 2573.88 868.083 2569.14 848.25C2565.26 831.994 2574.99 816.235 2591.23 812.314C2600.4 810.099 2610.22 812.234 2617.56 817.528C2621.71 809.459 2629.49 803.072 2638.66 800.856C2654.9 796.935 2670.68 806.533 2674.56 822.789C2679.3 842.622 2665.26 863.207 2643.98 894.331L2637.99 903.121Z" fill="white"/>
<path d="M3246.7 903.121L3237.4 898.023C3204.39 880.011 3182.58 868.083 3177.85 848.25C3173.97 831.994 3183.7 816.235 3199.93 812.314C3209.1 810.099 3218.92 812.234 3226.26 817.528C3230.41 809.459 3238.2 803.072 3247.37 800.856C3263.6 796.935 3279.39 806.533 3283.27 822.789C3288 842.622 3273.96 863.207 3252.68 894.331L3246.7 903.121Z" fill="white"/>
<path d="M507.544 1276.67C476.047 1289.93 461.244 1326.26 474.427 1357.94C487.61 1389.62 523.725 1404.5 555.222 1391.25C570.327 1384.89 582.303 1372.75 588.513 1357.51C594.724 1342.27 594.661 1325.17 588.339 1309.98C575.156 1278.3 538.87 1263.48 507.544 1276.67ZM550.454 1379.79C538.369 1384.88 524.771 1384.93 512.649 1379.93C500.527 1374.93 490.876 1365.29 485.818 1353.14C480.76 1340.99 480.71 1327.31 485.678 1315.12C490.647 1302.92 500.227 1293.22 512.312 1288.13C524.396 1283.04 537.995 1282.99 550.117 1287.99C562.238 1292.99 571.89 1302.62 576.948 1314.78C582.006 1326.93 582.056 1340.61 577.087 1352.8C572.119 1364.99 562.538 1374.7 550.454 1379.79ZM532.168 1319.76L540.732 1323.29L544.242 1314.68L552.806 1318.21L556.317 1309.59L539.188 1302.53L532.168 1319.76ZM508.702 1329.64L517.266 1333.17L520.776 1324.55L503.648 1317.49L496.627 1334.72L505.191 1338.25L508.702 1329.64ZM544.494 1365.47C557.765 1359.88 565.562 1346.77 565.255 1333.16L507.046 1357.67C516.466 1367.44 531.223 1371.05 544.494 1365.47Z" fill="white"/>
<path d="M1116.25 1276.67C1084.75 1289.93 1069.95 1326.26 1083.13 1357.94C1096.32 1389.62 1132.43 1404.5 1163.93 1391.25C1179.03 1384.89 1191.01 1372.75 1197.22 1357.51C1203.43 1342.27 1203.37 1325.17 1197.04 1309.98C1183.86 1278.3 1147.58 1263.48 1116.25 1276.67ZM1159.16 1379.79C1147.08 1384.88 1133.48 1384.93 1121.36 1379.93C1109.23 1374.93 1099.58 1365.29 1094.52 1353.14C1089.47 1340.99 1089.42 1327.31 1094.38 1315.12C1099.35 1302.92 1108.93 1293.22 1121.02 1288.13C1133.1 1283.04 1146.7 1282.99 1158.82 1287.99C1170.94 1292.99 1180.6 1302.62 1185.65 1314.78C1190.71 1326.93 1190.76 1340.61 1185.79 1352.8C1180.82 1364.99 1171.24 1374.7 1159.16 1379.79ZM1140.87 1319.76L1149.44 1323.29L1152.95 1314.68L1161.51 1318.21L1165.02 1309.59L1147.89 1302.53L1140.87 1319.76ZM1117.41 1329.64L1125.97 1333.17L1129.48 1324.55L1112.35 1317.49L1105.33 1334.72L1113.9 1338.25L1117.41 1329.64ZM1153.2 1365.47C1166.47 1359.88 1174.27 1346.77 1173.96 1333.16L1115.75 1357.67C1125.17 1367.44 1139.93 1371.05 1153.2 1365.47Z" fill="white"/>
<path d="M1724.96 1276.67C1693.46 1289.93 1678.66 1326.26 1691.84 1357.94C1705.02 1389.62 1741.14 1404.5 1772.63 1391.25C1787.74 1384.89 1799.71 1372.75 1805.93 1357.51C1812.14 1342.27 1812.07 1325.17 1805.75 1309.98C1792.57 1278.3 1756.28 1263.48 1724.96 1276.67ZM1767.87 1379.79C1755.78 1384.88 1742.18 1384.93 1730.06 1379.93C1717.94 1374.93 1708.29 1365.29 1703.23 1353.14C1698.17 1340.99 1698.12 1327.31 1703.09 1315.12C1708.06 1302.92 1717.64 1293.22 1729.72 1288.13C1741.81 1283.04 1755.41 1282.99 1767.53 1287.99C1779.65 1292.99 1789.3 1302.62 1794.36 1314.78C1799.42 1326.93 1799.47 1340.61 1794.5 1352.8C1789.53 1364.99 1779.95 1374.7 1767.87 1379.79ZM1749.58 1319.76L1758.14 1323.29L1761.65 1314.68L1770.22 1318.21L1773.73 1309.59L1756.6 1302.53L1749.58 1319.76ZM1726.11 1329.64L1734.68 1333.17L1738.19 1324.55L1721.06 1317.49L1714.04 1334.72L1722.6 1338.25L1726.11 1329.64ZM1761.91 1365.47C1775.18 1359.88 1782.97 1346.77 1782.67 1333.16L1724.46 1357.67C1733.88 1367.44 1748.64 1371.05 1761.91 1365.47Z" fill="white"/>
<path d="M2333.66 1276.67C2302.17 1289.93 2287.36 1326.26 2300.55 1357.94C2313.73 1389.62 2349.84 1404.5 2381.34 1391.25C2396.45 1384.89 2408.42 1372.75 2414.63 1357.51C2420.84 1342.27 2420.78 1325.17 2414.46 1309.98C2401.27 1278.3 2364.99 1263.48 2333.66 1276.67ZM2376.57 1379.79C2364.49 1384.88 2350.89 1384.93 2338.77 1379.93C2326.65 1374.93 2316.99 1365.29 2311.94 1353.14C2306.88 1340.99 2306.83 1327.31 2311.8 1315.12C2316.76 1302.92 2326.35 1293.22 2338.43 1288.13C2350.51 1283.04 2364.11 1282.99 2376.23 1287.99C2388.36 1292.99 2398.01 1302.62 2403.07 1314.78C2408.12 1326.93 2408.17 1340.61 2403.21 1352.8C2398.24 1364.99 2388.66 1374.7 2376.57 1379.79ZM2358.29 1319.76L2366.85 1323.29L2370.36 1314.68L2378.92 1318.21L2382.44 1309.59L2365.31 1302.53L2358.29 1319.76ZM2334.82 1329.64L2343.38 1333.17L2346.89 1324.55L2329.77 1317.49L2322.75 1334.72L2331.31 1338.25L2334.82 1329.64ZM2370.61 1365.47C2383.88 1359.88 2391.68 1346.77 2391.37 1333.16L2333.16 1357.67C2342.58 1367.44 2357.34 1371.05 2370.61 1365.47Z" fill="white"/>
<path d="M2942.37 1276.67C2910.87 1289.93 2896.07 1326.26 2909.25 1357.94C2922.43 1389.62 2958.55 1404.5 2990.05 1391.25C3005.15 1384.89 3017.13 1372.75 3023.34 1357.51C3029.55 1342.27 3029.49 1325.17 3023.16 1309.98C3009.98 1278.3 2973.69 1263.48 2942.37 1276.67ZM2985.28 1379.79C2973.19 1384.88 2959.59 1384.93 2947.47 1379.93C2935.35 1374.93 2925.7 1365.29 2920.64 1353.14C2915.58 1340.99 2915.53 1327.31 2920.5 1315.12C2925.47 1302.92 2935.05 1293.22 2947.14 1288.13C2959.22 1283.04 2972.82 1282.99 2984.94 1287.99C2997.06 1292.99 3006.71 1302.62 3011.77 1314.78C3016.83 1326.93 3016.88 1340.61 3011.91 1352.8C3006.94 1364.99 2997.36 1374.7 2985.28 1379.79ZM2966.99 1319.76L2975.56 1323.29L2979.07 1314.68L2987.63 1318.21L2991.14 1309.59L2974.01 1302.53L2966.99 1319.76ZM2943.53 1329.64L2952.09 1333.17L2955.6 1324.55L2938.47 1317.49L2931.45 1334.72L2940.02 1338.25L2943.53 1329.64ZM2979.32 1365.47C2992.59 1359.88 3000.39 1346.77 3000.08 1333.16L2941.87 1357.67C2951.29 1367.44 2966.05 1371.05 2979.32 1365.47Z" fill="white"/>
<path d="M3551.07 1276.67C3519.58 1289.93 3504.77 1326.26 3517.96 1357.94C3531.14 1389.62 3567.26 1404.5 3598.75 1391.25C3613.86 1384.89 3625.83 1372.75 3632.04 1357.51C3638.25 1342.27 3638.19 1325.17 3631.87 1309.98C3618.69 1278.3 3582.4 1263.48 3551.07 1276.67ZM3593.98 1379.79C3581.9 1384.88 3568.3 1384.93 3556.18 1379.93C3544.06 1374.93 3534.41 1365.29 3529.35 1353.14C3524.29 1340.99 3524.24 1327.31 3529.21 1315.12C3534.18 1302.92 3543.76 1293.22 3555.84 1288.13C3567.93 1283.04 3581.53 1282.99 3593.65 1287.99C3605.77 1292.99 3615.42 1302.62 3620.48 1314.78C3625.54 1326.93 3625.59 1340.61 3620.62 1352.8C3615.65 1364.99 3606.07 1374.7 3593.98 1379.79ZM3575.7 1319.76L3584.26 1323.29L3587.77 1314.68L3596.34 1318.21L3599.85 1309.59L3582.72 1302.53L3575.7 1319.76ZM3552.23 1329.64L3560.8 1333.17L3564.31 1324.55L3547.18 1317.49L3540.16 1334.72L3548.72 1338.25L3552.23 1329.64ZM3588.02 1365.47C3601.3 1359.88 3609.09 1346.77 3608.79 1333.16L3550.58 1357.67C3560 1367.44 3574.75 1371.05 3588.02 1365.47Z" fill="white"/>
<path d="M225.834 125.869L217.661 122.246L227.321 100.452C228.602 97.5616 228.683 94.281 227.545 91.3315C226.407 88.3821 224.144 86.0055 221.254 84.7245L199.46 75.0645L203.082 66.8916C204.684 63.279 204.784 59.1782 203.362 55.4914C201.94 51.8047 199.111 48.8339 195.499 47.2326C191.886 45.6314 187.785 45.5308 184.098 46.9531C180.412 48.3754 177.441 51.2039 175.84 54.8166L172.217 62.9894L150.423 53.3294C147.533 52.0484 144.252 51.968 141.303 53.1058C138.353 54.2436 135.977 56.5065 134.696 59.3966L125.518 80.1012L133.691 83.7237C141.864 87.3462 145.505 96.7825 141.882 104.955C138.26 113.128 128.823 116.769 120.65 113.146L112.477 109.524L103.3 130.228C102.019 133.118 101.939 136.399 103.077 139.348C104.215 142.298 106.477 144.674 109.368 145.955L130.072 155.132L133.695 146.959C137.317 138.787 146.754 135.146 154.926 138.769C163.099 142.391 166.74 151.828 163.117 160.001L159.495 168.173L180.199 177.35C183.089 178.631 186.37 178.712 189.319 177.574C192.269 176.436 194.645 174.173 195.926 171.283L205.586 149.489L213.759 153.111C217.372 154.713 221.473 154.813 225.159 153.391C228.846 151.969 231.817 149.14 233.418 145.527C235.019 141.915 235.12 137.814 233.698 134.127C232.276 130.441 229.447 127.47 225.834 125.869Z" fill="white"/>
<path d="M834.54 125.869L826.367 122.246L836.027 100.452C837.308 97.5616 837.389 94.281 836.251 91.3315C835.113 88.3821 832.85 86.0055 829.96 84.7245L808.166 75.0645L811.789 66.8916C813.39 63.279 813.49 59.1782 812.068 55.4914C810.646 51.8047 807.817 48.8339 804.205 47.2326C800.592 45.6314 796.491 45.5308 792.804 46.9531C789.118 48.3754 786.147 51.2039 784.546 54.8166L780.923 62.9894L759.129 53.3294C756.239 52.0484 752.958 51.968 750.009 53.1058C747.059 54.2436 744.683 56.5065 743.402 59.3966L734.225 80.1012L742.397 83.7237C750.57 87.3462 754.211 96.7825 750.588 104.955C746.966 113.128 737.529 116.769 729.356 113.146L721.184 109.524L712.006 130.228C710.725 133.118 710.645 136.399 711.783 139.348C712.921 142.298 715.184 144.674 718.074 145.955L738.778 155.132L742.401 146.959C746.023 138.787 755.46 135.146 763.632 138.769C771.805 142.391 775.446 151.828 771.823 160.001L768.201 168.173L788.905 177.35C791.795 178.631 795.076 178.712 798.025 177.574C800.975 176.436 803.351 174.173 804.632 171.283L814.292 149.489L822.465 153.111C826.078 154.713 830.179 154.813 833.865 153.391C837.552 151.969 840.523 149.14 842.124 145.527C843.726 141.915 843.826 137.814 842.404 134.127C840.982 130.441 838.153 127.47 834.54 125.869Z" fill="white"/>
<path d="M1443.25 125.869L1435.07 122.246L1444.73 100.452C1446.01 97.5616 1446.09 94.281 1444.96 91.3315C1443.82 88.3821 1441.56 86.0055 1438.67 84.7245L1416.87 75.0645L1420.49 66.8916C1422.1 63.279 1422.2 59.1782 1420.77 55.4914C1419.35 51.8047 1416.52 48.8339 1412.91 47.2326C1409.3 45.6314 1405.2 45.5308 1401.51 46.9531C1397.82 48.3754 1394.85 51.2039 1393.25 54.8166L1389.63 62.9894L1367.83 53.3294C1364.94 52.0484 1361.66 51.968 1358.71 53.1058C1355.77 54.2436 1353.39 56.5065 1352.11 59.3966L1342.93 80.1012L1351.1 83.7237C1359.28 87.3462 1362.92 96.7825 1359.29 104.955C1355.67 113.128 1346.24 116.769 1338.06 113.146L1329.89 109.524L1320.71 130.228C1319.43 133.118 1319.35 136.399 1320.49 139.348C1321.63 142.298 1323.89 144.674 1326.78 145.955L1347.48 155.132L1351.11 146.959C1354.73 138.787 1364.17 135.146 1372.34 138.769C1380.51 142.391 1384.15 151.828 1380.53 160.001L1376.91 168.173L1397.61 177.35C1400.5 178.631 1403.78 178.712 1406.73 177.574C1409.68 176.436 1412.06 174.173 1413.34 171.283L1423 149.489L1431.17 153.111C1434.78 154.713 1438.88 154.813 1442.57 153.391C1446.26 151.969 1449.23 149.14 1450.83 145.527C1452.43 141.915 1452.53 137.814 1451.11 134.127C1449.69 130.441 1446.86 127.47 1443.25 125.869Z" fill="white"/>
<path d="M2051.95 125.869L2043.78 122.246L2053.44 100.452C2054.72 97.5616 2054.8 94.281 2053.66 91.3315C2052.53 88.3821 2050.26 86.0055 2047.37 84.7245L2025.58 75.0645L2029.2 66.8916C2030.8 63.279 2030.9 59.1782 2029.48 55.4914C2028.06 51.8047 2025.23 48.8339 2021.62 47.2326C2018 45.6314 2013.9 45.5308 2010.22 46.9531C2006.53 48.3754 2003.56 51.2039 2001.96 54.8166L1998.34 62.9894L1976.54 53.3294C1973.65 52.0484 1970.37 51.968 1967.42 53.1058C1964.47 54.2436 1962.09 56.5065 1960.81 59.3966L1951.64 80.1012L1959.81 83.7237C1967.98 87.3462 1971.62 96.7825 1968 104.955C1964.38 113.128 1954.94 116.769 1946.77 113.146L1938.6 109.524L1929.42 130.228C1928.14 133.118 1928.06 136.399 1929.19 139.348C1930.33 142.298 1932.6 144.674 1935.49 145.955L1956.19 155.132L1959.81 146.959C1963.44 138.787 1972.87 135.146 1981.04 138.769C1989.22 142.391 1992.86 151.828 1989.24 160.001L1985.61 168.173L2006.32 177.35C2009.21 178.631 2012.49 178.712 2015.44 177.574C2018.39 176.436 2020.76 174.173 2022.04 171.283L2031.7 149.489L2039.88 153.111C2043.49 154.713 2047.59 154.813 2051.28 153.391C2054.96 151.969 2057.94 149.14 2059.54 145.527C2061.14 141.915 2061.24 137.814 2059.82 134.127C2058.39 130.441 2055.57 127.47 2051.95 125.869Z" fill="white"/>
<path d="M2660.66 125.869L2652.49 122.246L2662.15 100.452C2663.43 97.5616 2663.51 94.281 2662.37 91.3315C2661.23 88.3821 2658.97 86.0055 2656.08 84.7245L2634.28 75.0645L2637.91 66.8916C2639.51 63.279 2639.61 59.1782 2638.19 55.4914C2636.76 51.8047 2633.94 48.8339 2630.32 47.2326C2626.71 45.6314 2622.61 45.5308 2618.92 46.9531C2615.24 48.3754 2612.27 51.2039 2610.66 54.8166L2607.04 62.9894L2585.25 53.3294C2582.36 52.0484 2579.08 51.968 2576.13 53.1058C2573.18 54.2436 2570.8 56.5065 2569.52 59.3966L2560.34 80.1012L2568.52 83.7237C2576.69 87.3462 2580.33 96.7825 2576.71 104.955C2573.08 113.128 2563.65 116.769 2555.47 113.146L2547.3 109.524L2538.12 130.228C2536.84 133.118 2536.76 136.399 2537.9 139.348C2539.04 142.298 2541.3 144.674 2544.19 145.955L2564.9 155.132L2568.52 146.959C2572.14 138.787 2581.58 135.146 2589.75 138.769C2597.92 142.391 2601.56 151.828 2597.94 160.001L2594.32 168.173L2615.02 177.35C2617.91 178.631 2621.19 178.712 2624.14 177.574C2627.09 176.436 2629.47 174.173 2630.75 171.283L2640.41 149.489L2648.58 153.111C2652.2 154.713 2656.3 154.813 2659.98 153.391C2663.67 151.969 2666.64 149.14 2668.24 145.527C2669.84 141.915 2669.94 137.814 2668.52 134.127C2667.1 130.441 2664.27 127.47 2660.66 125.869Z" fill="white"/>
<path d="M3269.36 125.869L3261.19 122.246L3270.85 100.452C3272.13 97.5616 3272.21 94.281 3271.08 91.3315C3269.94 88.3821 3267.67 86.0055 3264.78 84.7245L3242.99 75.0645L3246.61 66.8916C3248.21 63.279 3248.31 59.1782 3246.89 55.4914C3245.47 51.8047 3242.64 48.8339 3239.03 47.2326C3235.42 45.6314 3231.32 45.5308 3227.63 46.9531C3223.94 48.3754 3220.97 51.2039 3219.37 54.8166L3215.75 62.9894L3193.95 53.3294C3191.06 52.0484 3187.78 51.968 3184.83 53.1058C3181.88 54.2436 3179.51 56.5065 3178.23 59.3966L3169.05 80.1012L3177.22 83.7237C3185.39 87.3462 3189.03 96.7825 3185.41 104.955C3181.79 113.128 3172.35 116.769 3164.18 113.146L3156.01 109.524L3146.83 130.228C3145.55 133.118 3145.47 136.399 3146.61 139.348C3147.74 142.298 3150.01 144.674 3152.9 145.955L3173.6 155.132L3177.23 146.959C3180.85 138.787 3190.28 135.146 3198.46 138.769C3206.63 142.391 3210.27 151.828 3206.65 160.001L3203.02 168.173L3223.73 177.35C3226.62 178.631 3229.9 178.712 3232.85 177.574C3235.8 176.436 3238.18 174.173 3239.46 171.283L3249.12 149.489L3257.29 153.111C3260.9 154.713 3265 154.813 3268.69 153.391C3272.38 151.969 3275.35 149.14 3276.95 145.527C3278.55 141.915 3278.65 137.814 3277.23 134.127C3275.81 130.441 3272.98 127.47 3269.36 125.869Z" fill="white"/>
<path d="M505.646 1747.95L480.33 1704.12C492.673 1695.06 501.238 1680.95 503.001 1664.83H553.758C552.718 1681.46 547.831 1697.63 539.482 1712.05C531.134 1726.48 519.551 1738.77 505.646 1747.95ZM465.594 1589.64V1538.88C519.752 1542.16 563.078 1585.48 566.352 1639.64H515.596C514.189 1626.86 508.469 1614.94 499.379 1605.85C490.289 1596.76 478.372 1591.04 465.594 1589.64ZM390.026 1658.53C390.026 1666.59 391.663 1674.27 394.812 1681.2L350.982 1706.52C343.486 1691.63 339.603 1675.19 339.647 1658.53C339.647 1601.48 384.232 1554.88 440.405 1551.48V1602.23C412.067 1605.38 390.026 1629.31 390.026 1658.53ZM446.702 1765.59C409.296 1765.59 376.424 1746.69 357.28 1717.47L401.109 1692.16C406.353 1699.32 413.217 1705.15 421.141 1709.15C429.065 1713.16 437.824 1715.23 446.702 1715.21C454.763 1715.21 462.446 1713.57 469.373 1710.42L494.688 1754.25C480.204 1761.56 463.957 1765.59 446.702 1765.59Z" fill="white"/>
<path d="M1114.35 1747.95L1089.04 1704.12C1101.38 1695.06 1109.94 1680.95 1111.71 1664.83H1162.46C1161.42 1681.46 1156.54 1697.63 1148.19 1712.05C1139.84 1726.48 1128.26 1738.77 1114.35 1747.95ZM1074.3 1589.64V1538.88C1128.46 1542.16 1171.78 1585.48 1175.06 1639.64H1124.3C1122.9 1626.86 1117.18 1614.94 1108.09 1605.85C1099 1596.76 1087.08 1591.04 1074.3 1589.64ZM998.732 1658.53C998.732 1666.59 1000.37 1674.27 1003.52 1681.2L959.688 1706.52C952.192 1691.63 948.309 1675.19 948.353 1658.53C948.353 1601.48 992.938 1554.88 1049.11 1551.48V1602.23C1020.77 1605.38 998.732 1629.31 998.732 1658.53ZM1055.41 1765.59C1018 1765.59 985.13 1746.69 965.986 1717.47L1009.82 1692.16C1015.06 1699.32 1021.92 1705.15 1029.85 1709.15C1037.77 1713.16 1046.53 1715.23 1055.41 1715.21C1063.47 1715.21 1071.15 1713.57 1078.08 1710.42L1103.39 1754.25C1088.91 1761.56 1072.66 1765.59 1055.41 1765.59Z" fill="white"/>
<path d="M1723.06 1747.95L1697.74 1704.12C1710.09 1695.06 1718.65 1680.95 1720.41 1664.83H1771.17C1770.13 1681.46 1765.24 1697.63 1756.89 1712.05C1748.55 1726.48 1736.96 1738.77 1723.06 1747.95ZM1683.01 1589.64V1538.88C1737.16 1542.16 1780.49 1585.48 1783.76 1639.64H1733.01C1731.6 1626.86 1725.88 1614.94 1716.79 1605.85C1707.7 1596.76 1695.78 1591.04 1683.01 1589.64ZM1607.44 1658.53C1607.44 1666.59 1609.08 1674.27 1612.22 1681.2L1568.39 1706.52C1560.9 1691.63 1557.01 1675.19 1557.06 1658.53C1557.06 1601.48 1601.64 1554.88 1657.82 1551.48V1602.23C1629.48 1605.38 1607.44 1629.31 1607.44 1658.53ZM1664.11 1765.59C1626.71 1765.59 1593.84 1746.69 1574.69 1717.47L1618.52 1692.16C1623.77 1699.32 1630.63 1705.15 1638.55 1709.15C1646.48 1713.16 1655.24 1715.23 1664.11 1715.21C1672.17 1715.21 1679.86 1713.57 1686.78 1710.42L1712.1 1754.25C1697.62 1761.56 1681.37 1765.59 1664.11 1765.59Z" fill="white"/>
<path d="M2331.76 1747.95L2306.45 1704.12C2318.79 1695.06 2327.36 1680.95 2329.12 1664.83H2379.88C2378.84 1681.46 2373.95 1697.63 2365.6 1712.05C2357.25 1726.48 2345.67 1738.77 2331.76 1747.95ZM2291.71 1589.64V1538.88C2345.87 1542.16 2389.2 1585.48 2392.47 1639.64H2341.71C2340.31 1626.86 2334.59 1614.94 2325.5 1605.85C2316.41 1596.76 2304.49 1591.04 2291.71 1589.64ZM2216.14 1658.53C2216.14 1666.59 2217.78 1674.27 2220.93 1681.2L2177.1 1706.52C2169.6 1691.63 2165.72 1675.19 2165.77 1658.53C2165.77 1601.48 2210.35 1554.88 2266.52 1551.48V1602.23C2238.18 1605.38 2216.14 1629.31 2216.14 1658.53ZM2272.82 1765.59C2235.41 1765.59 2202.54 1746.69 2183.4 1717.47L2227.23 1692.16C2232.47 1699.32 2239.34 1705.15 2247.26 1709.15C2255.18 1713.16 2263.94 1715.23 2272.82 1715.21C2280.88 1715.21 2288.56 1713.57 2295.49 1710.42L2320.81 1754.25C2306.32 1761.56 2290.08 1765.59 2272.82 1765.59Z" fill="white"/>
<path d="M2940.47 1747.95L2915.15 1704.12C2927.5 1695.06 2936.06 1680.95 2937.82 1664.83H2988.58C2987.54 1681.46 2982.66 1697.63 2974.31 1712.05C2965.96 1726.48 2954.38 1738.77 2940.47 1747.95ZM2900.42 1589.64V1538.88C2954.58 1542.16 2997.9 1585.48 3001.18 1639.64H2950.42C2949.01 1626.86 2943.29 1614.94 2934.2 1605.85C2925.11 1596.76 2913.2 1591.04 2900.42 1589.64ZM2824.85 1658.53C2824.85 1666.59 2826.49 1674.27 2829.64 1681.2L2785.81 1706.52C2778.31 1691.63 2774.43 1675.19 2774.47 1658.53C2774.47 1601.48 2819.06 1554.88 2875.23 1551.48V1602.23C2846.89 1605.38 2824.85 1629.31 2824.85 1658.53ZM2881.53 1765.59C2844.12 1765.59 2811.25 1746.69 2792.1 1717.47L2835.93 1692.16C2841.18 1699.32 2848.04 1705.15 2855.97 1709.15C2863.89 1713.16 2872.65 1715.23 2881.53 1715.21C2889.59 1715.21 2897.27 1713.57 2904.2 1710.42L2929.51 1754.25C2915.03 1761.56 2898.78 1765.59 2881.53 1765.59Z" fill="white"/>
<path d="M3549.18 1747.95L3523.86 1704.12C3536.2 1695.06 3544.77 1680.95 3546.53 1664.83H3597.29C3596.25 1681.46 3591.36 1697.63 3583.01 1712.05C3574.66 1726.48 3563.08 1738.77 3549.18 1747.95ZM3509.12 1589.64V1538.88C3563.28 1542.16 3606.61 1585.48 3609.88 1639.64H3559.13C3557.72 1626.86 3552 1614.94 3542.91 1605.85C3533.82 1596.76 3521.9 1591.04 3509.12 1589.64ZM3433.56 1658.53C3433.56 1666.59 3435.19 1674.27 3438.34 1681.2L3394.51 1706.52C3387.02 1691.63 3383.13 1675.19 3383.18 1658.53C3383.18 1601.48 3427.76 1554.88 3483.94 1551.48V1602.23C3455.6 1605.38 3433.56 1629.31 3433.56 1658.53ZM3490.23 1765.59C3452.83 1765.59 3419.95 1746.69 3400.81 1717.47L3444.64 1692.16C3449.88 1699.32 3456.75 1705.15 3464.67 1709.15C3472.59 1713.16 3481.35 1715.23 3490.23 1715.21C3498.29 1715.21 3505.98 1713.57 3512.9 1710.42L3538.22 1754.25C3523.73 1761.56 3507.49 1765.59 3490.23 1765.59Z" fill="white"/>
<path d="M233.847 441.589L242.607 471.843C245.038 480.238 240.314 488.902 231.992 491.312L201.251 500.213L181.635 536.307C180.53 538.102 178.971 539.455 177.022 540.02L173.273 541.105C171.284 541.681 169.147 541.437 167.33 540.425C165.513 539.414 164.166 537.719 163.585 535.713L157.015 513.023L127.024 521.707C123.047 522.858 118.771 522.369 115.138 520.347C111.504 518.324 108.81 514.934 107.648 510.922L85.7471 435.287C84.5854 431.275 85.0511 426.97 87.0419 423.319C89.0326 419.668 92.3853 416.97 96.3623 415.818L137.6 403.877C134.943 410.139 133.212 416.788 132.331 423.848L131.799 430.15L135.616 435.193C152.274 456.52 179.804 465.435 206.046 457.837C216.843 454.71 226.229 448.959 233.847 441.589ZM190.715 404.892C194.914 403.676 199.176 406.049 200.403 410.285C201.629 414.52 199.294 418.803 195.095 420.019C190.897 421.235 186.634 418.862 185.407 414.627C184.181 410.391 186.516 406.108 190.715 404.892ZM184.145 382.202C204.614 376.275 225.719 383.772 237.892 399.429C235.969 419.169 222.134 436.783 201.666 442.71C181.197 448.637 160.092 441.14 147.919 425.482C149.842 405.743 163.676 388.129 184.145 382.202ZM187.43 393.547C182.459 394.987 178.268 398.359 175.779 402.923C173.291 407.487 172.709 412.868 174.161 417.883C175.613 422.898 178.981 427.136 183.523 429.664C188.065 432.192 193.409 432.804 198.38 431.364C203.352 429.925 207.543 426.552 210.031 421.988C212.519 417.424 213.102 412.043 211.649 407.028C210.197 402.013 206.83 397.775 202.288 395.247C197.746 392.719 192.401 392.107 187.43 393.547Z" fill="white"/>
<path d="M842.553 441.589L851.313 471.843C853.744 480.238 849.02 488.902 840.698 491.312L809.957 500.213L790.341 536.307C789.236 538.102 787.677 539.455 785.728 540.02L781.979 541.105C779.99 541.681 777.853 541.437 776.036 540.425C774.219 539.414 772.872 537.719 772.291 535.713L765.721 513.023L735.73 521.707C731.753 522.858 727.477 522.369 723.844 520.347C720.21 518.324 717.516 514.934 716.354 510.922L694.453 435.287C693.291 431.275 693.757 426.97 695.748 423.319C697.739 419.668 701.091 416.97 705.068 415.818L746.306 403.877C743.649 410.139 741.918 416.788 741.037 423.848L740.505 430.15L744.322 435.193C760.98 456.52 788.51 465.435 814.752 457.837C825.549 454.71 834.935 448.959 842.553 441.589ZM799.421 404.892C803.62 403.676 807.883 406.049 809.109 410.285C810.335 414.52 808 418.803 803.801 420.019C799.603 421.235 795.34 418.862 794.114 414.627C792.887 410.391 795.222 406.108 799.421 404.892ZM792.851 382.202C813.32 376.275 834.425 383.772 846.598 399.429C844.675 419.169 830.84 436.783 810.372 442.71C789.903 448.637 768.798 441.14 756.625 425.482C758.548 405.743 772.382 388.129 792.851 382.202ZM796.136 393.547C791.165 394.987 786.974 398.359 784.485 402.923C781.997 407.487 781.415 412.868 782.867 417.883C784.319 422.898 787.687 427.136 792.229 429.664C796.771 432.192 802.115 432.804 807.087 431.364C812.058 429.925 816.249 426.552 818.737 421.988C821.226 417.424 821.808 412.043 820.356 407.028C818.903 402.013 815.536 397.775 810.994 395.247C806.452 392.719 801.107 392.107 796.136 393.547Z" fill="white"/>
<path d="M1451.26 441.589L1460.02 471.843C1462.45 480.238 1457.73 488.902 1449.4 491.312L1418.66 500.213L1399.05 536.307C1397.94 538.102 1396.38 539.455 1394.43 540.02L1390.68 541.105C1388.7 541.681 1386.56 541.437 1384.74 540.425C1382.92 539.414 1381.58 537.719 1381 535.713L1374.43 513.023L1344.44 521.707C1340.46 522.858 1336.18 522.369 1332.55 520.347C1328.92 518.324 1326.22 514.934 1325.06 510.922L1303.16 435.287C1302 431.275 1302.46 426.97 1304.45 423.319C1306.44 419.668 1309.8 416.97 1313.77 415.818L1355.01 403.877C1352.36 410.139 1350.62 416.788 1349.74 423.848L1349.21 430.15L1353.03 435.193C1369.69 456.52 1397.22 465.435 1423.46 457.837C1434.25 454.71 1443.64 448.959 1451.26 441.589ZM1408.13 404.892C1412.33 403.676 1416.59 406.049 1417.82 410.285C1419.04 414.52 1416.71 418.803 1412.51 420.019C1408.31 421.235 1404.05 418.862 1402.82 414.627C1401.59 410.391 1403.93 406.108 1408.13 404.892ZM1401.56 382.202C1422.03 376.275 1443.13 383.772 1455.3 399.429C1453.38 419.169 1439.55 436.783 1419.08 442.71C1398.61 448.637 1377.5 441.14 1365.33 425.482C1367.25 405.743 1381.09 388.129 1401.56 382.202ZM1404.84 393.547C1399.87 394.987 1395.68 398.359 1393.19 402.923C1390.7 407.487 1390.12 412.868 1391.57 417.883C1393.03 422.898 1396.39 427.136 1400.93 429.664C1405.48 432.192 1410.82 432.804 1415.79 431.364C1420.76 429.925 1424.95 426.552 1427.44 421.988C1429.93 417.424 1430.51 412.043 1429.06 407.028C1427.61 402.013 1424.24 397.775 1419.7 395.247C1415.16 392.719 1409.81 392.107 1404.84 393.547Z" fill="white"/>
<path d="M2059.96 441.589L2068.73 471.843C2071.16 480.238 2066.43 488.902 2058.11 491.312L2027.37 500.213L2007.75 536.307C2006.65 538.102 2005.09 539.455 2003.14 540.02L1999.39 541.105C1997.4 541.681 1995.26 541.437 1993.45 540.425C1991.63 539.414 1990.28 537.719 1989.7 535.713L1983.13 513.023L1953.14 521.707C1949.16 522.858 1944.89 522.369 1941.26 520.347C1937.62 518.324 1934.93 514.934 1933.77 510.922L1911.87 435.287C1910.7 431.275 1911.17 426.97 1913.16 423.319C1915.15 419.668 1918.5 416.97 1922.48 415.818L1963.72 403.877C1961.06 410.139 1959.33 416.788 1958.45 423.848L1957.92 430.15L1961.73 435.193C1978.39 456.52 2005.92 465.435 2032.16 457.837C2042.96 454.71 2052.35 448.959 2059.96 441.589ZM2016.83 404.892C2021.03 403.676 2025.29 406.049 2026.52 410.285C2027.75 414.52 2025.41 418.803 2021.21 420.019C2017.01 421.235 2012.75 418.862 2011.53 414.627C2010.3 410.391 2012.63 406.108 2016.83 404.892ZM2010.26 382.202C2030.73 376.275 2051.84 383.772 2064.01 399.429C2062.09 419.169 2048.25 436.783 2027.78 442.71C2007.32 448.637 1986.21 441.14 1974.04 425.482C1975.96 405.743 1989.79 388.129 2010.26 382.202ZM2013.55 393.547C2008.58 394.987 2004.39 398.359 2001.9 402.923C1999.41 407.487 1998.83 412.868 2000.28 417.883C2001.73 422.898 2005.1 427.136 2009.64 429.664C2014.18 432.192 2019.53 432.804 2024.5 431.364C2029.47 429.925 2033.66 426.552 2036.15 421.988C2038.64 417.424 2039.22 412.043 2037.77 407.028C2036.32 402.013 2032.95 397.775 2028.41 395.247C2023.86 392.719 2018.52 392.107 2013.55 393.547Z" fill="white"/>
<path d="M2668.67 441.589L2677.43 471.843C2679.86 480.238 2675.14 488.902 2666.82 491.312L2636.08 500.213L2616.46 536.307C2615.35 538.102 2613.8 539.455 2611.85 540.02L2608.1 541.105C2606.11 541.681 2603.97 541.437 2602.15 540.425C2600.34 539.414 2598.99 537.719 2598.41 535.713L2591.84 513.023L2561.85 521.707C2557.87 522.858 2553.6 522.369 2549.96 520.347C2546.33 518.324 2543.63 514.934 2542.47 510.922L2520.57 435.287C2519.41 431.275 2519.88 426.97 2521.87 423.319C2523.86 419.668 2527.21 416.97 2531.19 415.818L2572.42 403.877C2569.77 410.139 2568.04 416.788 2567.15 423.848L2566.62 430.15L2570.44 435.193C2587.1 456.52 2614.63 465.435 2640.87 457.837C2651.67 454.71 2661.05 448.959 2668.67 441.589ZM2625.54 404.892C2629.74 403.676 2634 406.049 2635.23 410.285C2636.45 414.52 2634.12 418.803 2629.92 420.019C2625.72 421.235 2621.46 418.862 2620.23 414.627C2619.01 410.391 2621.34 406.108 2625.54 404.892ZM2618.97 382.202C2639.44 376.275 2660.54 383.772 2672.72 399.429C2670.79 419.169 2656.96 436.783 2636.49 442.71C2616.02 448.637 2594.92 441.14 2582.74 425.482C2584.67 405.743 2598.5 388.129 2618.97 382.202ZM2622.25 393.547C2617.28 394.987 2613.09 398.359 2610.6 402.923C2608.12 407.487 2607.53 412.868 2608.99 417.883C2610.44 422.898 2613.8 427.136 2618.35 429.664C2622.89 432.192 2628.23 432.804 2633.2 431.364C2638.18 429.925 2642.37 426.552 2644.86 421.988C2647.34 417.424 2647.93 412.043 2646.47 407.028C2645.02 402.013 2641.65 397.775 2637.11 395.247C2632.57 392.719 2627.23 392.107 2622.25 393.547Z" fill="white"/>
<path d="M3277.38 441.589L3286.14 471.843C3288.57 480.238 3283.84 488.902 3275.52 491.312L3244.78 500.213L3225.17 536.307C3224.06 538.102 3222.5 539.455 3220.55 540.02L3216.8 541.105C3214.81 541.681 3212.68 541.437 3210.86 540.425C3209.04 539.414 3207.7 537.719 3207.12 535.713L3200.54 513.023L3170.55 521.707C3166.58 522.858 3162.3 522.369 3158.67 520.347C3155.03 518.324 3152.34 514.934 3151.18 510.922L3129.28 435.287C3128.12 431.275 3128.58 426.97 3130.57 423.319C3132.56 419.668 3135.92 416.97 3139.89 415.818L3181.13 403.877C3178.47 410.139 3176.74 416.788 3175.86 423.848L3175.33 430.15L3179.15 435.193C3195.8 456.52 3223.33 465.435 3249.58 457.837C3260.37 454.71 3269.76 448.959 3277.38 441.589ZM3234.25 404.892C3238.44 403.676 3242.71 406.049 3243.93 410.285C3245.16 414.52 3242.82 418.803 3238.63 420.019C3234.43 421.235 3230.16 418.862 3228.94 414.627C3227.71 410.391 3230.05 406.108 3234.25 404.892ZM3227.68 382.202C3248.14 376.275 3269.25 383.772 3281.42 399.429C3279.5 419.169 3265.66 436.783 3245.2 442.71C3224.73 448.637 3203.62 441.14 3191.45 425.482C3193.37 405.743 3207.21 388.129 3227.68 382.202ZM3230.96 393.547C3225.99 394.987 3221.8 398.359 3219.31 402.923C3216.82 407.487 3216.24 412.868 3217.69 417.883C3219.14 422.898 3222.51 427.136 3227.05 429.664C3231.59 432.192 3236.94 432.804 3241.91 431.364C3246.88 429.925 3251.07 426.552 3253.56 421.988C3256.05 417.424 3256.63 412.043 3255.18 407.028C3253.73 402.013 3250.36 397.775 3245.82 395.247C3241.28 392.719 3235.93 392.107 3230.96 393.547Z" fill="white"/>
<path d="M420.441 494.587C375.808 494.587 339.646 530.749 339.646 575.381C339.646 620.013 375.808 656.175 420.441 656.175C465.073 656.175 501.235 620.013 501.235 575.381C501.235 530.749 465.073 494.587 420.441 494.587ZM460.121 549.937L446.862 612.423C445.884 616.853 443.245 617.928 439.564 615.843L419.366 600.955L409.625 610.338C408.55 611.413 407.637 612.325 405.552 612.325L406.986 591.768L444.418 557.952C446.047 556.518 444.06 555.704 441.91 557.137L395.649 586.262L375.711 580.04C371.378 578.671 371.28 575.707 376.623 573.622L454.517 543.585C458.134 542.281 461.294 544.464 460.121 549.937Z" fill="white"/>
<path d="M1029.15 494.587C984.514 494.587 948.353 530.749 948.353 575.381C948.353 620.013 984.514 656.175 1029.15 656.175C1073.78 656.175 1109.94 620.013 1109.94 575.381C1109.94 530.749 1073.78 494.587 1029.15 494.587ZM1068.83 549.937L1055.57 612.423C1054.59 616.853 1051.95 617.928 1048.27 615.843L1028.07 600.955L1018.33 610.338C1017.26 611.413 1016.34 612.325 1014.26 612.325L1015.69 591.768L1053.12 557.952C1054.75 556.518 1052.77 555.704 1050.62 557.137L1004.35 586.262L984.417 580.04C980.084 578.671 979.986 575.707 985.329 573.622L1063.22 543.585C1066.84 542.281 1070 544.464 1068.83 549.937Z" fill="white"/>
<path d="M1637.85 494.587C1593.22 494.587 1557.06 530.749 1557.06 575.381C1557.06 620.013 1593.22 656.175 1637.85 656.175C1682.48 656.175 1718.65 620.013 1718.65 575.381C1718.65 530.749 1682.48 494.587 1637.85 494.587ZM1677.53 549.937L1664.27 612.423C1663.3 616.853 1660.66 617.928 1656.98 615.843L1636.78 600.955L1627.04 610.338C1625.96 611.413 1625.05 612.325 1622.96 612.325L1624.4 591.768L1661.83 557.952C1663.46 556.518 1661.47 555.704 1659.32 557.137L1613.06 586.262L1593.12 580.04C1588.79 578.671 1588.69 575.707 1594.03 573.622L1671.93 543.585C1675.55 542.281 1678.71 544.464 1677.53 549.937Z" fill="white"/>
<path d="M2246.56 494.587C2201.93 494.587 2165.76 530.749 2165.76 575.381C2165.76 620.013 2201.93 656.175 2246.56 656.175C2291.19 656.175 2327.35 620.013 2327.35 575.381C2327.35 530.749 2291.19 494.587 2246.56 494.587ZM2286.24 549.937L2272.98 612.423C2272 616.853 2269.36 617.928 2265.68 615.843L2245.48 600.955L2235.74 610.338C2234.67 611.413 2233.76 612.325 2231.67 612.325L2233.1 591.768L2270.54 557.952C2272.17 556.518 2270.18 555.704 2268.03 557.137L2221.77 586.262L2201.83 580.04C2197.5 578.671 2197.4 575.707 2202.74 573.622L2280.64 543.585C2284.25 542.281 2287.41 544.464 2286.24 549.937Z" fill="white"/>
<path d="M2855.26 494.587C2810.63 494.587 2774.47 530.749 2774.47 575.381C2774.47 620.013 2810.63 656.175 2855.26 656.175C2899.9 656.175 2936.06 620.013 2936.06 575.381C2936.06 530.749 2899.9 494.587 2855.26 494.587ZM2894.95 549.937L2881.69 612.423C2880.71 616.853 2878.07 617.928 2874.39 615.843L2854.19 600.955L2844.45 610.338C2843.37 611.413 2842.46 612.325 2840.38 612.325L2841.81 591.768L2879.24 557.952C2880.87 556.518 2878.88 555.704 2876.73 557.137L2830.47 586.262L2810.53 580.04C2806.2 578.671 2806.1 575.707 2811.45 573.622L2889.34 543.585C2892.96 542.281 2896.12 544.464 2894.95 549.937Z" fill="white"/>
<path d="M3463.97 494.587C3419.34 494.587 3383.18 530.749 3383.18 575.381C3383.18 620.013 3419.34 656.175 3463.97 656.175C3508.6 656.175 3544.76 620.013 3544.76 575.381C3544.76 530.749 3508.6 494.587 3463.97 494.587ZM3503.65 549.937L3490.39 612.423C3489.41 616.853 3486.78 617.928 3483.09 615.843L3462.9 600.955L3453.15 610.338C3452.08 611.413 3451.17 612.325 3449.08 612.325L3450.52 591.768L3487.95 557.952C3489.58 556.518 3487.59 555.704 3485.44 557.137L3439.18 586.262L3419.24 580.04C3414.91 578.671 3414.81 575.707 3420.15 573.622L3498.05 543.585C3501.66 542.281 3504.82 544.464 3503.65 549.937Z" fill="white"/>
<path d="M146.366 1719.66C137.118 1710.39 124.802 1705.29 111.713 1705.29C84.697 1705.29 62.7133 1727.28 62.7133 1754.29C62.7133 1762.92 64.9647 1771.35 69.2466 1778.79L62.2939 1804.18L88.2726 1797.36C95.424 1801.26 103.48 1803.31 111.691 1803.31H111.713C138.707 1803.31 161.176 1781.33 161.176 1754.31C161.176 1741.23 155.614 1728.93 146.366 1719.66ZM111.713 1795.06C104.385 1795.06 97.2118 1793.1 90.9654 1789.39L89.4866 1788.5L74.0804 1792.54L78.1858 1777.51L77.2146 1775.97C73.1313 1769.48 70.9903 1762 70.9903 1754.29C70.9903 1731.85 89.2659 1713.57 111.735 1713.57C122.617 1713.57 132.836 1717.81 140.517 1725.51C148.198 1733.21 152.921 1743.43 152.899 1754.31C152.899 1776.78 134.16 1795.06 111.713 1795.06ZM134.05 1764.56C132.836 1763.94 126.81 1760.98 125.685 1760.58C124.559 1760.16 123.742 1759.97 122.926 1761.2C122.109 1762.44 119.769 1765.17 119.041 1766.01C118.335 1766.83 117.606 1766.94 116.392 1766.32C109.197 1762.72 104.473 1759.9 99.728 1751.75C98.4699 1749.59 100.986 1749.75 103.326 1745.07C103.723 1744.25 103.524 1743.54 103.215 1742.93C102.906 1742.31 100.456 1736.28 99.441 1733.83C98.4478 1731.45 97.4325 1731.78 96.6821 1731.74C95.9757 1731.69 95.1591 1731.69 94.3424 1731.69C93.5258 1731.69 92.2014 1732 91.0758 1733.21C89.9501 1734.45 86.7938 1737.41 86.7938 1743.43C86.7938 1749.46 91.1861 1755.29 91.7821 1756.1C92.4001 1756.92 100.412 1769.28 112.706 1774.6C120.476 1777.95 123.522 1778.24 127.406 1777.67C129.768 1777.31 134.646 1774.71 135.661 1771.84C136.676 1768.97 136.676 1766.52 136.367 1766.01C136.08 1765.46 135.264 1765.15 134.05 1764.56Z" fill="white"/>
<path d="M755.072 1719.66C745.824 1710.39 733.508 1705.29 720.419 1705.29C693.403 1705.29 671.419 1727.28 671.419 1754.29C671.419 1762.92 673.671 1771.35 677.953 1778.79L671 1804.18L696.979 1797.36C704.13 1801.26 712.186 1803.31 720.397 1803.31H720.419C747.413 1803.31 769.882 1781.33 769.882 1754.31C769.882 1741.23 764.32 1728.93 755.072 1719.66ZM720.419 1795.06C713.091 1795.06 705.918 1793.1 699.671 1789.39L698.193 1788.5L682.786 1792.54L686.892 1777.51L685.921 1775.97C681.837 1769.48 679.696 1762 679.696 1754.29C679.696 1731.85 697.972 1713.57 720.441 1713.57C731.323 1713.57 741.542 1717.81 749.223 1725.51C756.904 1733.21 761.627 1743.43 761.605 1754.31C761.605 1776.78 742.866 1795.06 720.419 1795.06ZM742.756 1764.56C741.542 1763.94 735.516 1760.98 734.391 1760.58C733.265 1760.16 732.448 1759.97 731.632 1761.2C730.815 1762.44 728.475 1765.17 727.747 1766.01C727.041 1766.83 726.312 1766.94 725.098 1766.32C717.903 1762.72 713.18 1759.9 708.434 1751.75C707.176 1749.59 709.692 1749.75 712.032 1745.07C712.429 1744.25 712.23 1743.54 711.921 1742.93C711.612 1742.31 709.162 1736.28 708.147 1733.83C707.154 1731.45 706.139 1731.78 705.388 1731.74C704.682 1731.69 703.865 1731.69 703.048 1731.69C702.232 1731.69 700.907 1732 699.782 1733.21C698.656 1734.45 695.5 1737.41 695.5 1743.43C695.5 1749.46 699.892 1755.29 700.488 1756.1C701.106 1756.92 709.118 1769.28 721.412 1774.6C729.182 1777.95 732.228 1778.24 736.112 1777.67C738.474 1777.31 743.352 1774.71 744.367 1771.84C745.382 1768.97 745.382 1766.52 745.073 1766.01C744.787 1765.46 743.97 1765.15 742.756 1764.56Z" fill="white"/>
<path d="M1363.78 1719.66C1354.53 1710.39 1342.21 1705.29 1329.13 1705.29C1302.11 1705.29 1280.13 1727.28 1280.13 1754.29C1280.13 1762.92 1282.38 1771.35 1286.66 1778.79L1279.71 1804.18L1305.68 1797.36C1312.84 1801.26 1320.89 1803.31 1329.1 1803.31H1329.13C1356.12 1803.31 1378.59 1781.33 1378.59 1754.31C1378.59 1741.23 1373.03 1728.93 1363.78 1719.66ZM1329.13 1795.06C1321.8 1795.06 1314.62 1793.1 1308.38 1789.39L1306.9 1788.5L1291.49 1792.54L1295.6 1777.51L1294.63 1775.97C1290.54 1769.48 1288.4 1762 1288.4 1754.29C1288.4 1731.85 1306.68 1713.57 1329.15 1713.57C1340.03 1713.57 1350.25 1717.81 1357.93 1725.51C1365.61 1733.21 1370.33 1743.43 1370.31 1754.31C1370.31 1776.78 1351.57 1795.06 1329.13 1795.06ZM1351.46 1764.56C1350.25 1763.94 1344.22 1760.98 1343.1 1760.58C1341.97 1760.16 1341.15 1759.97 1340.34 1761.2C1339.52 1762.44 1337.18 1765.17 1336.45 1766.01C1335.75 1766.83 1335.02 1766.94 1333.8 1766.32C1326.61 1762.72 1321.89 1759.9 1317.14 1751.75C1315.88 1749.59 1318.4 1749.75 1320.74 1745.07C1321.14 1744.25 1320.94 1743.54 1320.63 1742.93C1320.32 1742.31 1317.87 1736.28 1316.85 1733.83C1315.86 1731.45 1314.84 1731.78 1314.09 1731.74C1313.39 1731.69 1312.57 1731.69 1311.75 1731.69C1310.94 1731.69 1309.61 1732 1308.49 1733.21C1307.36 1734.45 1304.21 1737.41 1304.21 1743.43C1304.21 1749.46 1308.6 1755.29 1309.19 1756.1C1309.81 1756.92 1317.82 1769.28 1330.12 1774.6C1337.89 1777.95 1340.93 1778.24 1344.82 1777.67C1347.18 1777.31 1352.06 1774.71 1353.07 1771.84C1354.09 1768.97 1354.09 1766.52 1353.78 1766.01C1353.49 1765.46 1352.68 1765.15 1351.46 1764.56Z" fill="white"/>
<path d="M1972.48 1719.66C1963.24 1710.39 1950.92 1705.29 1937.83 1705.29C1910.82 1705.29 1888.83 1727.28 1888.83 1754.29C1888.83 1762.92 1891.08 1771.35 1895.36 1778.79L1888.41 1804.18L1914.39 1797.36C1921.54 1801.26 1929.6 1803.31 1937.81 1803.31H1937.83C1964.83 1803.31 1987.29 1781.33 1987.29 1754.31C1987.29 1741.23 1981.73 1728.93 1972.48 1719.66ZM1937.83 1795.06C1930.5 1795.06 1923.33 1793.1 1917.08 1789.39L1915.6 1788.5L1900.2 1792.54L1904.3 1777.51L1903.33 1775.97C1899.25 1769.48 1897.11 1762 1897.11 1754.29C1897.11 1731.85 1915.38 1713.57 1937.85 1713.57C1948.73 1713.57 1958.95 1717.81 1966.64 1725.51C1974.32 1733.21 1979.04 1743.43 1979.02 1754.31C1979.02 1776.78 1960.28 1795.06 1937.83 1795.06ZM1960.17 1764.56C1958.95 1763.94 1952.93 1760.98 1951.8 1760.58C1950.68 1760.16 1949.86 1759.97 1949.04 1761.2C1948.23 1762.44 1945.89 1765.17 1945.16 1766.01C1944.45 1766.83 1943.72 1766.94 1942.51 1766.32C1935.32 1762.72 1930.59 1759.9 1925.85 1751.75C1924.59 1749.59 1927.1 1749.75 1929.44 1745.07C1929.84 1744.25 1929.64 1743.54 1929.33 1742.93C1929.02 1742.31 1926.57 1736.28 1925.56 1733.83C1924.57 1731.45 1923.55 1731.78 1922.8 1731.74C1922.09 1731.69 1921.28 1731.69 1920.46 1731.69C1919.64 1731.69 1918.32 1732 1917.19 1733.21C1916.07 1734.45 1912.91 1737.41 1912.91 1743.43C1912.91 1749.46 1917.3 1755.29 1917.9 1756.1C1918.52 1756.92 1926.53 1769.28 1938.82 1774.6C1946.59 1777.95 1949.64 1778.24 1953.52 1777.67C1955.89 1777.31 1960.76 1774.71 1961.78 1771.84C1962.79 1768.97 1962.79 1766.52 1962.49 1766.01C1962.2 1765.46 1961.38 1765.15 1960.17 1764.56Z" fill="white"/>
<path d="M2581.19 1719.66C2571.94 1710.39 2559.63 1705.29 2546.54 1705.29C2519.52 1705.29 2497.54 1727.28 2497.54 1754.29C2497.54 1762.92 2499.79 1771.35 2504.07 1778.79L2497.12 1804.18L2523.1 1797.36C2530.25 1801.26 2538.3 1803.31 2546.52 1803.31H2546.54C2573.53 1803.31 2596 1781.33 2596 1754.31C2596 1741.23 2590.44 1728.93 2581.19 1719.66ZM2546.54 1795.06C2539.21 1795.06 2532.04 1793.1 2525.79 1789.39L2524.31 1788.5L2508.9 1792.54L2513.01 1777.51L2512.04 1775.97C2507.96 1769.48 2505.81 1762 2505.81 1754.29C2505.81 1731.85 2524.09 1713.57 2546.56 1713.57C2557.44 1713.57 2567.66 1717.81 2575.34 1725.51C2583.02 1733.21 2587.75 1743.43 2587.72 1754.31C2587.72 1776.78 2568.98 1795.06 2546.54 1795.06ZM2568.87 1764.56C2567.66 1763.94 2561.63 1760.98 2560.51 1760.58C2559.38 1760.16 2558.57 1759.97 2557.75 1761.2C2556.93 1762.44 2554.59 1765.17 2553.87 1766.01C2553.16 1766.83 2552.43 1766.94 2551.22 1766.32C2544.02 1762.72 2539.3 1759.9 2534.55 1751.75C2533.29 1749.59 2535.81 1749.75 2538.15 1745.07C2538.55 1744.25 2538.35 1743.54 2538.04 1742.93C2537.73 1742.31 2535.28 1736.28 2534.27 1733.83C2533.27 1731.45 2532.26 1731.78 2531.51 1731.74C2530.8 1731.69 2529.98 1731.69 2529.17 1731.69C2528.35 1731.69 2527.03 1732 2525.9 1733.21C2524.77 1734.45 2521.62 1737.41 2521.62 1743.43C2521.62 1749.46 2526.01 1755.29 2526.61 1756.1C2527.22 1756.92 2535.24 1769.28 2547.53 1774.6C2555.3 1777.95 2558.35 1778.24 2562.23 1777.67C2564.59 1777.31 2569.47 1774.71 2570.49 1771.84C2571.5 1768.97 2571.5 1766.52 2571.19 1766.01C2570.9 1765.46 2570.09 1765.15 2568.87 1764.56Z" fill="white"/>
<path d="M3189.9 1719.66C3180.65 1710.39 3168.33 1705.29 3155.24 1705.29C3128.23 1705.29 3106.24 1727.28 3106.24 1754.29C3106.24 1762.92 3108.49 1771.35 3112.78 1778.79L3105.82 1804.18L3131.8 1797.36C3138.95 1801.26 3147.01 1803.31 3155.22 1803.31H3155.24C3182.24 1803.31 3204.71 1781.33 3204.71 1754.31C3204.71 1741.23 3199.14 1728.93 3189.9 1719.66ZM3155.24 1795.06C3147.92 1795.06 3140.74 1793.1 3134.5 1789.39L3133.02 1788.5L3117.61 1792.54L3121.72 1777.51L3120.74 1775.97C3116.66 1769.48 3114.52 1762 3114.52 1754.29C3114.52 1731.85 3132.8 1713.57 3155.27 1713.57C3166.15 1713.57 3176.37 1717.81 3184.05 1725.51C3191.73 1733.21 3196.45 1743.43 3196.43 1754.31C3196.43 1776.78 3177.69 1795.06 3155.24 1795.06ZM3177.58 1764.56C3176.37 1763.94 3170.34 1760.98 3169.21 1760.58C3168.09 1760.16 3167.27 1759.97 3166.46 1761.2C3165.64 1762.44 3163.3 1765.17 3162.57 1766.01C3161.86 1766.83 3161.14 1766.94 3159.92 1766.32C3152.73 1762.72 3148 1759.9 3143.26 1751.75C3142 1749.59 3144.52 1749.75 3146.86 1745.07C3147.25 1744.25 3147.05 1743.54 3146.75 1742.93C3146.44 1742.31 3143.99 1736.28 3142.97 1733.83C3141.98 1731.45 3140.96 1731.78 3140.21 1731.74C3139.51 1731.69 3138.69 1731.69 3137.87 1731.69C3137.06 1731.69 3135.73 1732 3134.61 1733.21C3133.48 1734.45 3130.32 1737.41 3130.32 1743.43C3130.32 1749.46 3134.72 1755.29 3135.31 1756.1C3135.93 1756.92 3143.94 1769.28 3156.24 1774.6C3164.01 1777.95 3167.05 1778.24 3170.94 1777.67C3173.3 1777.31 3178.18 1774.71 3179.19 1771.84C3180.21 1768.97 3180.21 1766.52 3179.9 1766.01C3179.61 1765.46 3178.79 1765.15 3177.58 1764.56Z" fill="white"/>
<path d="M420.663 357.722C428.874 363.564 440.229 361.706 446.021 353.565L416.278 332.402C410.486 340.543 412.452 351.879 420.663 357.722ZM495.267 358.875C494.177 350.899 490.89 337.727 507.652 314.169C520.384 296.276 517.911 272.941 503.333 257.275L506.748 252.476C509.644 248.407 508.663 242.738 504.557 239.817C500.452 236.896 494.774 237.827 491.879 241.896L488.464 246.695C468.886 238.058 446.029 243.369 433.298 261.262C416.535 284.82 403.014 286.032 395.121 287.617C392.669 288.11 390.787 289.445 389.562 291.192C386.9 294.987 387.336 300.709 391.781 303.871L481.005 367.358C485.45 370.521 491 369.059 493.711 365.299C494.96 363.568 495.606 361.351 495.267 358.875Z" fill="white"/>
<path d="M1029.37 357.722C1037.58 363.564 1048.93 361.706 1054.73 353.565L1024.98 332.402C1019.19 340.543 1021.16 351.879 1029.37 357.722ZM1103.97 358.875C1102.88 350.899 1099.6 337.727 1116.36 314.169C1129.09 296.276 1126.62 272.941 1112.04 257.275L1115.45 252.476C1118.35 248.407 1117.37 242.738 1113.26 239.817C1109.16 236.896 1103.48 237.827 1100.59 241.896L1097.17 246.695C1077.59 238.058 1054.74 243.369 1042 261.262C1025.24 284.82 1011.72 286.032 1003.83 287.617C1001.38 288.11 999.493 289.445 998.268 291.192C995.606 294.987 996.042 300.709 1000.49 303.871L1089.71 367.358C1094.16 370.521 1099.71 369.059 1102.42 365.299C1103.67 363.568 1104.31 361.351 1103.97 358.875Z" fill="white"/>
<path d="M1638.07 357.722C1646.29 363.564 1657.64 361.706 1663.43 353.565L1633.69 332.402C1627.9 340.543 1629.86 351.879 1638.07 357.722ZM1712.68 358.875C1711.59 350.899 1708.3 337.727 1725.06 314.169C1737.8 296.276 1735.32 272.941 1720.75 257.275L1724.16 252.476C1727.06 248.407 1726.07 242.738 1721.97 239.817C1717.86 236.896 1712.19 237.827 1709.29 241.896L1705.88 246.695C1686.3 238.058 1663.44 243.369 1650.71 261.262C1633.95 284.82 1620.43 286.032 1612.53 287.617C1610.08 288.11 1608.2 289.445 1606.97 291.192C1604.31 294.987 1604.75 300.709 1609.19 303.871L1698.42 367.358C1702.86 370.521 1708.41 369.059 1711.12 365.299C1712.37 363.568 1713.02 361.351 1712.68 358.875Z" fill="white"/>
<path d="M2246.78 357.722C2254.99 363.564 2266.35 361.706 2272.14 353.565L2242.4 332.402C2236.6 340.543 2238.57 351.879 2246.78 357.722ZM2321.38 358.875C2320.29 350.899 2317.01 337.727 2333.77 314.169C2346.5 296.276 2344.03 272.941 2329.45 257.275L2332.87 252.476C2335.76 248.407 2334.78 242.738 2330.68 239.817C2326.57 236.896 2320.89 237.827 2318 241.896L2314.58 246.695C2295 238.058 2272.15 243.369 2259.42 261.262C2242.65 284.82 2229.13 286.032 2221.24 287.617C2218.79 288.11 2216.91 289.445 2215.68 291.192C2213.02 294.987 2213.45 300.709 2217.9 303.871L2307.12 367.358C2311.57 370.521 2317.12 369.059 2319.83 365.299C2321.08 363.568 2321.72 361.351 2321.38 358.875Z" fill="white"/>
<path d="M2855.49 357.722C2863.7 363.564 2875.05 361.706 2880.85 353.565L2851.1 332.402C2845.31 340.543 2847.28 351.879 2855.49 357.722ZM2930.09 358.875C2929 350.899 2925.71 337.727 2942.48 314.169C2955.21 296.276 2952.73 272.941 2938.16 257.275L2941.57 252.476C2944.47 248.407 2943.49 242.738 2939.38 239.817C2935.28 236.896 2929.6 237.827 2926.7 241.896L2923.29 246.695C2903.71 238.058 2880.85 243.369 2868.12 261.262C2851.36 284.82 2837.84 286.032 2829.95 287.617C2827.49 288.11 2825.61 289.445 2824.39 291.192C2821.72 294.987 2822.16 300.709 2826.61 303.871L2915.83 367.358C2920.27 370.521 2925.82 369.059 2928.54 365.299C2929.78 363.568 2930.43 361.351 2930.09 358.875Z" fill="white"/>
<path d="M3464.19 357.722C3472.4 363.564 3483.76 361.706 3489.55 353.565L3459.81 332.402C3454.02 340.543 3455.98 351.879 3464.19 357.722ZM3538.8 358.875C3537.71 350.899 3534.42 337.727 3551.18 314.169C3563.91 296.276 3561.44 272.941 3546.86 257.275L3550.28 252.476C3553.17 248.407 3552.19 242.738 3548.09 239.817C3543.98 236.896 3538.3 237.827 3535.41 241.896L3531.99 246.695C3512.42 238.058 3489.56 243.369 3476.83 261.262C3460.07 284.82 3446.54 286.032 3438.65 287.617C3436.2 288.11 3434.32 289.445 3433.09 291.192C3430.43 294.987 3430.87 300.709 3435.31 303.871L3524.54 367.358C3528.98 370.521 3534.53 369.059 3537.24 365.299C3538.49 363.568 3539.14 361.351 3538.8 358.875Z" fill="white"/>
</g>
<defs>
<filter id="filter0_d" x="0" y="0" width="3764" height="1862" filterUnits="userSpaceOnUse" color-interpolation-filters="sRGB">
<feFlood flood-opacity="0" result="BackgroundImageFix"/>
<feColorMatrix in="SourceAlpha" type="matrix" values="0 0 0 0 0 0 0 0 0 0 0 0 0 0 0 0 0 0 127 0"/>
<feOffset dx="3"/>
<feGaussianBlur stdDeviation="2.5"/>
<feColorMatrix type="matrix" values="0 0 0 0 0 0 0 0 0 0 0 0 0 0 0 0 0 0 0.25 0"/>
<feBlend mode="normal" in2="BackgroundImageFix" result="effect1_dropShadow"/>
<feBlend mode="normal" in="SourceGraphic" in2="effect1_dropShadow" result="shape"/>
</filter>
</defs>
</svg>
