
<svg width="666" height="1863" viewBox="0 0 666 1863" fill="none" xmlns="http://www.w3.org/2000/svg">
<g filter="url(#filter0_d)">
<path d="M2 5H658V1857.24H2V5Z" fill="#8520D0"/>
</g>
<g opacity="0.1">
<path d="M411.137 907.219C455.762 892.507 501.795 909.686 513.55 945.757C525.305 981.828 498.314 1023.08 453.689 1037.79C443.628 1041.11 433.494 1042.82 423.717 1043.16C406.674 1071.37 377.87 1080.86 377.87 1080.86C390.579 1055.62 389.406 1041.81 388.216 1036.78C370.619 1029.66 356.94 1016.64 351.276 999.256C339.521 963.185 366.512 921.932 411.137 907.219ZM475.641 967.293L470.322 950.971L454.094 956.321L459.413 972.642L475.641 967.293ZM443.186 977.992L437.867 961.671L421.64 967.02L426.959 983.342L443.186 977.992ZM410.731 988.692L405.412 972.37L389.185 977.72L394.504 994.042L410.731 988.692Z" fill="white"/>
<path d="M183.14 1179.65C170.774 1191.81 150.963 1191.51 138.869 1179.06C126.737 1166.57 126.927 1146.68 139.293 1134.53C145.22 1128.7 153.214 1125.49 161.517 1125.6C169.819 1125.71 177.75 1129.14 183.565 1135.12C189.379 1141.1 192.601 1149.16 192.522 1157.51C192.442 1165.86 189.067 1173.83 183.14 1179.65ZM123.899 1201.13C122.911 1202.1 121.579 1202.63 120.195 1202.61C118.811 1202.6 117.49 1202.02 116.52 1201.03C115.551 1200.03 115.014 1198.69 115.028 1197.3C115.041 1195.9 115.603 1194.58 116.591 1193.61C117.579 1192.63 118.911 1192.1 120.295 1192.12C121.679 1192.14 123.001 1192.71 123.97 1193.7C124.939 1194.7 125.476 1196.04 125.463 1197.44C125.449 1198.83 124.887 1200.16 123.899 1201.13ZM154.404 1097.62L100.88 1150.23C98.422 1152.65 97.3937 1156.01 97.7687 1159.25L105.346 1212.01L157.584 1220.8C160.826 1221.29 164.193 1220.33 166.651 1217.92L220.175 1165.3C222.151 1163.36 223.275 1160.71 223.302 1157.92C223.329 1155.14 222.255 1152.45 220.316 1150.46L169.161 1097.81C167.223 1095.82 164.579 1094.68 161.812 1094.64C159.044 1094.6 156.38 1095.67 154.404 1097.62ZM150.113 1160.65C151.101 1159.68 151.664 1158.35 151.677 1156.96C151.69 1155.57 151.153 1154.23 150.184 1153.23C149.215 1152.23 147.893 1151.66 146.509 1151.64C145.126 1151.63 143.793 1152.16 142.805 1153.13C141.818 1154.1 141.255 1155.43 141.242 1156.82C141.229 1158.21 141.766 1159.56 142.735 1160.55C143.704 1161.55 145.026 1162.12 146.409 1162.14C147.793 1162.16 149.126 1161.62 150.113 1160.65ZM175.832 1172.13C182.76 1165.32 183.633 1155.05 179.024 1146.94L150.717 1174.76C158.678 1179.58 168.905 1178.94 175.832 1172.13ZM165.012 1146.01C166 1145.04 166.562 1143.71 166.576 1142.32C166.589 1140.92 166.052 1139.58 165.083 1138.58C164.114 1137.59 162.792 1137.02 161.408 1137C160.024 1136.98 158.692 1137.51 157.704 1138.49C156.716 1139.46 156.154 1140.78 156.141 1142.18C156.127 1143.57 156.664 1144.91 157.633 1145.91C158.603 1146.9 159.924 1147.48 161.308 1147.49C162.692 1147.51 164.024 1146.98 165.012 1146.01Z" fill="white"/>
<path d="M143.261 1408.34L180.455 1524.78L141.167 1537.47L103.973 1421.04L143.261 1408.34ZM219.743 1512.08C214.533 1513.76 208.884 1513.33 204.037 1510.89C199.191 1508.44 195.544 1504.17 193.9 1499.02L162.905 1402C161.2 1396.66 161.811 1391.11 164.33 1386.44L208.533 1301.62L222.229 1308.54C225.718 1310.3 228.535 1313.35 229.806 1317.33L230.503 1320.53L235.337 1367.88L297.314 1347.85C302.524 1346.17 308.173 1346.6 313.02 1349.05C317.866 1351.5 321.513 1355.76 323.157 1360.91L329.356 1380.32C330.162 1382.84 330.414 1385.33 330.243 1387.84L322.433 1465.83C321.718 1473.77 316.294 1480.88 308.141 1483.51L219.743 1512.08ZM213.544 1492.67L302.237 1464.01L309.712 1386.67L303.513 1367.26L217.177 1395.16L211.787 1339.96L182.642 1395.94L213.544 1492.67Z" fill="white"/>
<path d="M203.167 903.121L193.866 898.023C160.856 880.011 139.054 868.084 134.319 848.25C130.438 831.994 140.167 816.235 156.401 812.314C165.573 810.099 175.392 812.234 182.733 817.528C186.883 809.459 194.668 803.072 203.839 800.857C220.074 796.936 235.856 806.534 239.737 822.79C244.472 842.623 230.432 863.207 209.152 894.331L203.167 903.121Z" fill="white"/>
<path d="M507.544 1276.67C476.047 1289.93 461.244 1326.26 474.427 1357.94C487.61 1389.62 523.725 1404.51 555.222 1391.25C570.327 1384.89 582.303 1372.75 588.513 1357.51C594.724 1342.27 594.661 1325.17 588.339 1309.98C575.156 1278.3 538.87 1263.48 507.544 1276.67ZM550.454 1379.79C538.369 1384.88 524.771 1384.93 512.649 1379.93C500.527 1374.93 490.876 1365.3 485.818 1353.14C480.76 1340.99 480.71 1327.31 485.678 1315.12C490.647 1302.92 500.227 1293.22 512.312 1288.13C524.396 1283.04 537.995 1282.99 550.117 1287.99C562.238 1292.99 571.89 1302.62 576.948 1314.78C582.006 1326.93 582.056 1340.61 577.087 1352.8C572.119 1364.99 562.538 1374.7 550.454 1379.79V1379.79ZM532.168 1319.76L540.732 1323.29L544.242 1314.68L552.806 1318.21L556.317 1309.59L539.188 1302.53L532.168 1319.76ZM508.702 1329.64L517.266 1333.17L520.776 1324.56L503.648 1317.49L496.627 1334.72L505.191 1338.25L508.702 1329.64V1329.64ZM544.494 1365.47C557.765 1359.88 565.562 1346.77 565.255 1333.16L507.046 1357.67C516.466 1367.44 531.223 1371.05 544.494 1365.47Z" fill="white"/>
<path d="M225.834 125.869L217.661 122.246L227.321 100.452C228.602 97.5616 228.683 94.281 227.545 91.3315C226.407 88.3821 224.144 86.0055 221.254 84.7245L199.46 75.0645L203.082 66.8916C204.684 63.279 204.784 59.1782 203.362 55.4914C201.94 51.8047 199.111 48.8339 195.499 47.2326C191.886 45.6314 187.785 45.5308 184.098 46.9531C180.412 48.3754 177.441 51.2039 175.84 54.8166L172.217 62.9894L150.423 53.3294C147.533 52.0484 144.252 51.968 141.303 53.1058C138.353 54.2436 135.977 56.5065 134.696 59.3966L125.518 80.1012L133.691 83.7237C141.864 87.3462 145.505 96.7825 141.882 104.955C138.26 113.128 128.823 116.769 120.65 113.146L112.477 109.524L103.3 130.228C102.019 133.118 101.939 136.399 103.077 139.348C104.215 142.298 106.477 144.674 109.368 145.955L130.072 155.132L133.695 146.959C137.317 138.787 146.754 135.146 154.926 138.769C163.099 142.391 166.74 151.828 163.117 160.001L159.495 168.173L180.199 177.35C183.089 178.631 186.37 178.712 189.319 177.574C192.269 176.436 194.645 174.173 195.926 171.283L205.586 149.489L213.759 153.111C217.372 154.713 221.473 154.813 225.159 153.391C228.846 151.969 231.817 149.14 233.418 145.527C235.019 141.915 235.12 137.814 233.698 134.127C232.276 130.441 229.447 127.47 225.834 125.869V125.869Z" fill="white"/>
<path d="M505.646 1747.95L480.33 1704.12C492.673 1695.06 501.238 1680.95 503.001 1664.83H553.758C552.718 1681.46 547.831 1697.63 539.482 1712.05C531.134 1726.48 519.551 1738.77 505.646 1747.95ZM465.594 1589.64V1538.88C519.752 1542.16 563.078 1585.48 566.352 1639.64H515.596C514.189 1626.86 508.469 1614.94 499.379 1605.85C490.289 1596.76 478.372 1591.04 465.594 1589.64ZM390.026 1658.53C390.026 1666.59 391.663 1674.27 394.812 1681.2L350.982 1706.52C343.486 1691.63 339.603 1675.19 339.647 1658.53C339.647 1601.48 384.232 1554.88 440.405 1551.48V1602.23C412.067 1605.38 390.026 1629.31 390.026 1658.53ZM446.702 1765.59C409.296 1765.59 376.424 1746.69 357.28 1717.47L401.109 1692.16C406.353 1699.32 413.217 1705.15 421.141 1709.15C429.065 1713.16 437.824 1715.23 446.702 1715.21C454.763 1715.21 462.446 1713.57 469.373 1710.42L494.688 1754.25C480.204 1761.56 463.957 1765.59 446.702 1765.59Z" fill="white"/>
<path d="M233.847 441.589L242.607 471.843C245.038 480.238 240.314 488.902 231.992 491.312L201.251 500.213L181.635 536.307C180.53 538.102 178.971 539.455 177.022 540.02L173.273 541.105C171.284 541.681 169.147 541.437 167.33 540.425C165.513 539.414 164.166 537.719 163.585 535.713L157.015 513.023L127.024 521.707C123.047 522.858 118.771 522.369 115.138 520.347C111.504 518.324 108.81 514.934 107.648 510.922L85.7471 435.287C84.5854 431.275 85.0511 426.97 87.0419 423.319C89.0326 419.668 92.3853 416.97 96.3623 415.818L137.6 403.877C134.943 410.139 133.212 416.788 132.331 423.848L131.799 430.15L135.616 435.193C152.274 456.52 179.804 465.435 206.046 457.837C216.843 454.71 226.229 448.959 233.847 441.589ZM190.715 404.892C194.914 403.676 199.176 406.049 200.403 410.285C201.629 414.52 199.294 418.803 195.095 420.019C190.897 421.235 186.634 418.862 185.407 414.627C184.181 410.391 186.516 406.108 190.715 404.892ZM184.145 382.202C204.614 376.275 225.719 383.772 237.892 399.429C235.969 419.169 222.134 436.783 201.666 442.71C181.197 448.637 160.092 441.14 147.919 425.482C149.842 405.743 163.676 388.129 184.145 382.202ZM187.43 393.547C182.459 394.987 178.268 398.359 175.779 402.923C173.291 407.487 172.709 412.868 174.161 417.883C175.613 422.898 178.981 427.136 183.523 429.664C188.065 432.192 193.409 432.804 198.38 431.364C203.352 429.925 207.543 426.552 210.031 421.988C212.519 417.424 213.102 412.043 211.649 407.028C210.197 402.013 206.83 397.775 202.288 395.247C197.746 392.719 192.401 392.107 187.43 393.547" fill="white"/>
<path d="M420.441 494.587C375.808 494.587 339.646 530.749 339.646 575.382C339.646 620.014 375.808 656.176 420.441 656.176C465.073 656.176 501.235 620.014 501.235 575.382C501.235 530.749 465.073 494.587 420.441 494.587ZM460.121 549.938L446.862 612.423C445.884 616.854 443.245 617.929 439.564 615.844L419.366 600.955L409.625 610.338C408.55 611.413 407.637 612.325 405.552 612.325L406.986 591.768L444.418 557.952C446.047 556.519 444.06 555.704 441.91 557.138L395.649 586.263L375.711 580.04C371.378 578.672 371.28 575.707 376.623 573.622L454.517 543.585C458.134 542.282 461.294 544.465 460.121 549.938Z" fill="white"/>
<path d="M146.366 1719.66C137.118 1710.39 124.802 1705.29 111.713 1705.29C84.697 1705.29 62.7133 1727.28 62.7133 1754.29C62.7133 1762.92 64.9647 1771.35 69.2466 1778.79L62.2939 1804.18L88.2726 1797.36C95.424 1801.26 103.48 1803.32 111.691 1803.32H111.713C138.707 1803.32 161.176 1781.33 161.176 1754.32C161.176 1741.23 155.614 1728.93 146.366 1719.66V1719.66ZM111.713 1795.06C104.385 1795.06 97.2118 1793.1 90.9654 1789.39L89.4866 1788.5L74.0804 1792.54L78.1858 1777.51L77.2146 1775.97C73.1313 1769.48 70.9903 1762 70.9903 1754.29C70.9903 1731.85 89.2659 1713.57 111.735 1713.57C122.617 1713.57 132.836 1717.81 140.517 1725.51C148.198 1733.21 152.921 1743.43 152.899 1754.32C152.899 1776.78 134.16 1795.06 111.713 1795.06V1795.06ZM134.05 1764.56C132.836 1763.94 126.81 1760.98 125.685 1760.58C124.559 1760.16 123.742 1759.97 122.926 1761.2C122.109 1762.44 119.769 1765.17 119.041 1766.01C118.335 1766.83 117.606 1766.94 116.392 1766.32C109.197 1762.72 104.473 1759.9 99.728 1751.75C98.4699 1749.59 100.986 1749.75 103.326 1745.07C103.723 1744.25 103.524 1743.54 103.215 1742.93C102.906 1742.31 100.456 1736.28 99.441 1733.83C98.4478 1731.45 97.4325 1731.78 96.6821 1731.74C95.9758 1731.69 95.1591 1731.69 94.3424 1731.69C93.5258 1731.69 92.2014 1732 91.0758 1733.21C89.9501 1734.45 86.7938 1737.41 86.7938 1743.43C86.7938 1749.46 91.1861 1755.29 91.7821 1756.1C92.4001 1756.92 100.412 1769.28 112.706 1774.6C120.476 1777.95 123.522 1778.24 127.406 1777.67C129.768 1777.31 134.646 1774.71 135.661 1771.84C136.676 1768.97 136.676 1766.52 136.367 1766.01C136.08 1765.46 135.264 1765.15 134.05 1764.56Z" fill="white"/>
<path d="M420.663 357.722C428.874 363.564 440.229 361.706 446.021 353.565L416.278 332.402C410.486 340.543 412.452 351.879 420.663 357.722ZM495.267 358.875C494.177 350.899 490.89 337.727 507.652 314.169C520.384 296.276 517.911 272.941 503.333 257.275L506.748 252.476C509.644 248.407 508.663 242.738 504.557 239.817C500.452 236.896 494.774 237.827 491.879 241.896L488.464 246.695C468.886 238.058 446.029 243.369 433.298 261.262C416.535 284.82 403.014 286.032 395.121 287.617C392.669 288.11 390.787 289.445 389.562 291.192C386.9 294.987 387.336 300.709 391.781 303.871L481.005 367.358C485.45 370.521 491 369.059 493.711 365.299C494.96 363.568 495.606 361.351 495.267 358.875V358.875Z" fill="white"/>
</g>
<defs>
<filter id="filter0_d" x="0" y="0" width="666" height="1862.24" filterUnits="userSpaceOnUse" color-interpolation-filters="sRGB">
<feFlood flood-opacity="0" result="BackgroundImageFix"/>
<feColorMatrix in="SourceAlpha" type="matrix" values="0 0 0 0 0 0 0 0 0 0 0 0 0 0 0 0 0 0 127 0"/>
<feOffset dx="3"/>
<feGaussianBlur stdDeviation="2.5"/>
<feColorMatrix type="matrix" values="0 0 0 0 0 0 0 0 0 0 0 0 0 0 0 0 0 0 0.25 0"/>
<feBlend mode="normal" in2="BackgroundImageFix" result="effect1_dropShadow"/>
<feBlend mode="normal" in="SourceGraphic" in2="effect1_dropShadow" result="shape"/>
</filter>
</defs>
</svg>

