<svg width="240" height="383" viewBox="0 0 240 383" fill="none" xmlns="http://www.w3.org/2000/svg">
<path d="M0 0H240V383H0V0Z" fill="#8520D0"/>
<g opacity="0.1">
<path d="M104.102 280.905C117.358 276.557 131.032 281.634 134.524 292.293C138.015 302.952 129.998 315.143 116.742 319.49C113.753 320.47 110.743 320.977 107.839 321.075C102.776 329.412 94.22 332.218 94.22 332.218C97.995 324.757 97.6465 320.679 97.293 319.192C92.066 317.087 88.0027 313.239 86.32 308.102C82.8282 297.443 90.8458 285.252 104.102 280.905ZM123.263 298.657L121.683 293.834L116.862 295.414L118.442 300.238L123.263 298.657ZM113.622 301.819L112.042 296.995L107.222 298.576L108.802 303.4L113.622 301.819ZM103.981 304.98L102.401 300.157L97.5809 301.738L99.1609 306.561L103.981 304.98Z" fill="white"/>
<path d="M35.898 340.706C32.2247 344.298 26.3397 344.208 22.747 340.53C19.1434 336.841 19.1997 330.963 22.8731 327.371C24.6337 325.649 27.0084 324.7 29.4747 324.733C31.941 324.766 34.2968 325.778 36.0241 327.546C37.7513 329.315 38.7083 331.695 38.6847 334.162C38.661 336.63 37.6586 338.984 35.898 340.706ZM18.3003 347.052C18.0068 347.339 17.6111 347.497 17.2 347.491C16.789 347.486 16.3963 347.317 16.1085 347.022C15.8206 346.728 15.6611 346.331 15.665 345.92C15.669 345.508 15.836 345.116 16.1295 344.829C16.4229 344.542 16.8187 344.384 17.2297 344.389C17.6408 344.395 18.0334 344.564 18.3213 344.858C18.6092 345.153 18.7687 345.55 18.7647 345.961C18.7608 346.372 18.5937 346.765 18.3003 347.052ZM27.3618 316.463L11.4625 332.012C10.7323 332.726 10.4268 333.72 10.5382 334.675L12.7892 350.268L28.3064 352.866C29.2695 353.011 30.2696 352.728 30.9999 352.014L46.8992 336.465C47.486 335.891 47.8202 335.107 47.8281 334.284C47.8359 333.462 47.5169 332.668 46.9412 332.079L31.7455 316.522C31.1697 315.932 30.3844 315.595 29.5623 315.584C28.7402 315.573 27.9487 315.89 27.3618 316.463ZM26.0873 335.091C26.3807 334.804 26.5478 334.412 26.5517 334.001C26.5557 333.589 26.3962 333.193 26.1083 332.898C25.8204 332.603 25.4278 332.435 25.0167 332.429C24.6057 332.424 24.2099 332.582 23.9165 332.869C23.623 333.156 23.4559 333.548 23.452 333.959C23.4481 334.371 23.6076 334.767 23.8954 335.062C24.1833 335.357 24.576 335.525 24.987 335.531C25.398 335.536 25.7938 335.378 26.0873 335.091ZM33.7272 338.483C35.7851 336.471 36.0443 333.436 34.6753 331.038L26.2665 339.261C28.6313 340.686 31.6692 340.496 33.7272 338.483ZM30.513 330.763C30.8064 330.476 30.9735 330.084 30.9774 329.673C30.9814 329.261 30.8218 328.865 30.534 328.57C30.2461 328.275 29.8535 328.107 29.4424 328.101C29.0314 328.096 28.6356 328.254 28.3421 328.541C28.0487 328.828 27.8816 329.22 27.8777 329.631C27.8737 330.043 28.0333 330.439 28.3211 330.734C28.609 331.029 29.0016 331.197 29.4127 331.203C29.8237 331.208 30.2195 331.05 30.513 330.763Z" fill="white"/>
<path d="M166.036 240.822L177.085 275.229L165.414 278.981L154.366 244.574L166.036 240.822ZM188.755 271.477C187.208 271.974 185.53 271.847 184.09 271.124C182.65 270.4 181.567 269.139 181.079 267.618L171.872 238.946C171.365 237.369 171.547 235.729 172.295 234.35L185.425 209.283L189.494 211.328C190.53 211.848 191.367 212.75 191.745 213.925L191.952 214.871L193.388 228.865L211.798 222.947C213.345 222.449 215.024 222.576 216.463 223.3C217.903 224.023 218.986 225.284 219.475 226.805L221.316 232.54C221.555 233.285 221.63 234.02 221.58 234.764L219.259 257.811C219.047 260.156 217.436 262.256 215.014 263.035L188.755 271.477ZM186.914 265.742L213.26 257.272L215.481 234.416L213.639 228.681L187.993 236.926L186.392 220.613L177.734 237.156L186.914 265.742Z" fill="white"/>
<path d="M41.8471 258.989L39.0843 257.482C29.2785 252.159 22.8022 248.635 21.3957 242.774C20.2429 237.97 23.1328 233.313 27.9553 232.154C30.6796 231.5 33.5966 232.131 35.7771 233.695C37.0099 231.311 39.3225 229.423 42.0469 228.769C46.8693 227.61 51.5575 230.446 52.7103 235.25C54.1168 241.111 49.9462 247.194 43.6249 256.391L41.8471 258.989Z" fill="white"/>
<path d="M171.919 337.361C162.563 341.279 158.165 352.013 162.081 361.375C165.997 370.737 176.726 375.137 186.082 371.218C190.569 369.339 194.126 365.753 195.971 361.25C197.816 356.746 197.797 351.694 195.919 347.204C192.003 337.842 181.224 333.464 171.919 337.361ZM184.665 367.832C181.076 369.336 177.036 369.351 173.435 367.874C169.835 366.397 166.968 363.55 165.465 359.958C163.963 356.366 163.948 352.324 165.424 348.721C166.9 345.118 169.745 342.25 173.335 340.746C176.925 339.243 180.964 339.228 184.565 340.705C188.166 342.182 191.033 345.029 192.535 348.621C194.038 352.213 194.053 356.255 192.577 359.858C191.101 363.46 188.255 366.329 184.665 367.832ZM179.233 350.094L181.777 351.137L182.82 348.591L185.364 349.635L186.407 347.089L181.319 345.003L179.233 350.094ZM172.263 353.013L174.807 354.056L175.85 351.511L170.762 349.424L168.676 354.515L171.22 355.558L172.263 353.013ZM182.895 363.6C186.837 361.949 189.153 358.075 189.062 354.054L171.771 361.296C174.569 364.183 178.953 365.251 182.895 363.6Z" fill="white"/>
<path d="M48.5772 29.2677L46.1484 28.1996L49.0242 21.762C49.4055 20.9083 49.4301 19.9396 49.0924 19.0688C48.7548 18.1981 48.0826 17.4967 47.2237 17.119L40.7469 14.2706L41.8253 11.8565C42.302 10.7894 42.3327 9.57847 41.9106 8.49006C41.4885 7.40165 40.6483 6.52494 39.5747 6.05279C38.5011 5.58064 37.2821 5.55174 36.1859 5.97243C35.0897 6.39313 34.206 7.22896 33.7293 8.29606L32.6509 10.7102L26.1741 7.8618C25.3153 7.48408 24.3401 7.46095 23.4631 7.79751C22.5861 8.13407 21.8792 8.80274 21.4978 9.65642L18.7658 15.7721L21.1946 16.8403C23.6234 17.9084 24.7037 20.6942 23.6253 23.1083C22.5469 25.5224 19.7411 26.5992 17.3123 25.5311L14.8835 24.4629L12.1515 30.5786C11.7702 31.4323 11.7456 32.4011 12.0833 33.2718C12.421 34.1426 13.0932 34.8439 13.952 35.2216L20.105 37.9276L21.1834 35.5135C22.2618 33.0994 25.0676 32.0226 27.4964 33.0908C29.9252 34.1589 31.0055 36.9447 29.9271 39.3588L28.8486 41.7729L35.0016 44.4788C35.8605 44.8566 36.8357 44.8797 37.7126 44.5431C38.5896 44.2066 39.2965 43.5379 39.6779 42.6842L42.5537 36.2466L44.9825 37.3148C46.0561 37.7869 47.275 37.8158 48.3713 37.3951C49.4675 36.9744 50.3511 36.1386 50.8278 35.0715C51.3045 34.0044 51.3352 32.7934 50.9131 31.705C50.491 30.6166 49.6508 29.7399 48.5772 29.2677Z" fill="white"/>
<path d="M201.31 74.7829L193.79 61.8308C197.457 59.1511 200.001 54.9826 200.525 50.2186H215.602C215.293 55.134 213.841 59.911 211.361 64.1736C208.882 68.4361 205.441 72.0678 201.31 74.7829ZM189.413 27.9991V13C205.501 13.9677 218.371 26.7709 219.343 42.7749H204.266C203.848 38.9989 202.149 35.4774 199.449 32.7912C196.749 30.1051 193.209 28.4147 189.413 27.9991ZM166.965 48.3577C166.965 50.7396 167.452 53.01 168.387 55.057L155.367 62.5379C153.141 58.14 151.987 53.2819 152 48.3577C152 31.4976 165.244 17.7268 181.93 16.7219V31.7209C173.513 32.6514 166.965 39.7229 166.965 48.3577ZM183.801 79.9935C172.689 79.9935 162.925 74.4107 157.238 65.776L170.258 58.295C171.815 60.4123 173.854 62.133 176.208 63.3167C178.562 64.5005 181.164 65.1136 183.801 65.106C186.195 65.106 188.478 64.6222 190.535 63.6917L198.055 76.6438C193.753 78.8025 188.927 79.9935 183.801 79.9935Z" fill="white"/>
<path d="M50.9605 122.602L53.5628 131.542C54.2849 134.023 52.8817 136.583 50.4095 137.296L41.278 139.926L35.451 150.592C35.1226 151.123 34.6597 151.522 34.0806 151.689L32.967 152.01C32.3763 152.18 31.7413 152.108 31.2016 151.809C30.6619 151.51 30.2617 151.009 30.0892 150.416L28.1375 143.711L19.2287 146.277C18.0473 146.618 16.7772 146.473 15.6978 145.876C14.6184 145.278 13.8182 144.276 13.4731 143.09L6.96735 120.74C6.62226 119.554 6.76061 118.282 7.35196 117.203C7.94332 116.124 8.93923 115.327 10.1206 114.986L22.3702 111.458C21.5812 113.308 21.0669 115.273 20.805 117.359L20.6471 119.222L21.7809 120.712C26.7293 127.014 34.907 129.649 42.7023 127.403C45.9094 126.479 48.6977 124.78 50.9605 122.602ZM38.1482 111.758C39.3955 111.399 40.6617 112.1 41.026 113.351C41.3903 114.603 40.6966 115.869 39.4494 116.228C38.2021 116.587 36.9359 115.886 36.5716 114.634C36.2073 113.383 36.901 112.117 38.1482 111.758ZM36.1965 105.053C42.2768 103.301 48.5461 105.516 52.162 110.143C51.5908 115.977 47.4814 121.182 41.4011 122.933C35.3208 124.685 29.0515 122.469 25.4356 117.842C26.0068 112.009 30.1162 106.804 36.1965 105.053ZM37.1724 108.405C35.6956 108.831 34.4508 109.827 33.7116 111.176C32.9724 112.525 32.7994 114.115 33.2308 115.597C33.6622 117.079 34.6625 118.331 36.0117 119.078C37.3609 119.825 38.9485 120.006 40.4252 119.581C41.902 119.155 43.1469 118.159 43.8861 116.81C44.6252 115.461 44.7982 113.871 44.3668 112.389C43.9355 110.907 42.9351 109.655 41.5859 108.908C40.2367 108.161 38.6491 107.98 37.1724 108.405Z" fill="white"/>
<path d="M112 152C98.7419 152 88 162.686 88 175.875C88 189.065 98.7419 199.751 112 199.751C125.258 199.751 136 189.065 136 175.875C136 162.686 125.258 152 112 152ZM123.787 168.357L119.848 186.821C119.558 188.131 118.774 188.448 117.681 187.832L111.681 183.433L108.787 186.205C108.468 186.523 108.197 186.793 107.577 186.793L108.003 180.718L119.123 170.725C119.606 170.301 119.016 170.061 118.377 170.484L104.635 179.091L98.7129 177.252C97.4258 176.848 97.3968 175.972 98.9839 175.355L122.123 166.479C123.197 166.094 124.135 166.739 123.787 168.357Z" fill="white"/>
<path d="M208.974 151.477C206.227 148.738 202.568 147.231 198.68 147.231C190.655 147.231 184.125 153.727 184.125 161.711C184.125 164.261 184.793 166.753 186.065 168.951L184 176.452L191.717 174.436C193.841 175.591 196.234 176.197 198.673 176.197H198.68C206.699 176.197 213.373 169.701 213.373 161.717C213.373 157.85 211.721 154.217 208.974 151.477ZM198.68 173.758C196.503 173.758 194.372 173.177 192.517 172.082L192.078 171.821L187.501 173.014L188.721 168.573L188.432 168.116C187.219 166.198 186.583 163.987 186.583 161.711C186.583 155.078 192.012 149.677 198.687 149.677C201.919 149.677 204.955 150.929 207.236 153.206C209.518 155.482 210.921 158.502 210.914 161.717C210.914 168.357 205.348 173.758 198.68 173.758ZM205.315 164.744C204.955 164.561 203.165 163.687 202.83 163.57C202.496 163.446 202.253 163.387 202.011 163.752C201.768 164.118 201.073 164.926 200.857 165.174C200.647 165.416 200.431 165.448 200.07 165.266C197.933 164.202 196.529 163.368 195.12 160.961C194.746 160.322 195.494 160.367 196.189 158.985C196.307 158.743 196.248 158.534 196.156 158.352C196.064 158.169 195.336 156.389 195.035 155.665C194.74 154.96 194.438 155.058 194.215 155.045C194.005 155.032 193.763 155.032 193.52 155.032C193.277 155.032 192.884 155.123 192.55 155.482C192.215 155.847 191.278 156.721 191.278 158.502C191.278 160.283 192.582 162.004 192.759 162.246C192.943 162.487 195.323 166.14 198.975 167.712C201.283 168.703 202.188 168.788 203.342 168.618C204.043 168.514 205.492 167.744 205.794 166.896C206.095 166.048 206.095 165.324 206.004 165.174C205.918 165.011 205.676 164.92 205.315 164.744Z" fill="white"/>
<path d="M106.454 97.8179C108.893 99.5444 112.266 98.9952 113.987 96.5896L105.152 90.3357C103.431 92.7412 104.015 96.0914 106.454 97.8179ZM128.615 98.1587C128.292 95.8015 127.315 91.9092 132.295 84.9477C136.077 79.6602 135.342 72.7643 131.012 68.135L132.026 66.7169C132.886 65.5144 132.595 63.8393 131.375 62.976C130.156 62.1128 128.469 62.3879 127.609 63.5904L126.595 65.0086C120.779 62.4562 113.989 64.0258 110.207 69.3133C105.228 76.2749 101.212 76.633 98.8669 77.1014C98.1386 77.247 97.5797 77.6417 97.2156 78.1579C96.425 79.2793 96.5544 80.97 97.8748 81.9046L124.379 100.665C125.699 101.6 127.348 101.168 128.153 100.057C128.524 99.5456 128.716 98.8902 128.615 98.1587Z" fill="white"/>
</g>
</svg>
