<svg width="1366" height="776" viewBox="0 0 1366 776" fill="none" xmlns="http://www.w3.org/2000/svg">
<g opacity="0.3">
<mask id="mask0" mask-type="alpha" maskUnits="userSpaceOnUse" x="0" y="4" width="1366" height="768">
<path d="M0 24C0 12.9543 8.95431 4 20 4H1346C1357.05 4 1366 12.9543 1366 24V752C1366 763.046 1357.05 772 1346 772H20C8.9543 772 0 763.046 0 752V24Z" fill="white"/>
</mask>
<g mask="url(#mask0)">
<g opacity="0.2">
<path d="M381.876 122.395C400.596 127.563 412.563 144.066 408.428 159.221C407.348 162.841 405.488 166.177 402.981 168.99C400.473 171.803 397.38 174.025 393.923 175.495C393.361 177.553 393.322 183.33 399.073 193.508C391.109 190.905 384.215 185.72 379.39 178.858C375.201 178.918 370.958 178.374 366.907 177.256C348.187 172.088 336.22 155.585 340.356 140.43C344.491 125.275 363.156 117.228 381.876 122.395ZM368.779 170.398C383.823 174.551 398.524 168.691 401.621 157.342C404.718 145.992 395.049 133.406 380.005 129.253C364.961 125.1 350.26 130.96 347.163 142.309C344.066 153.659 353.734 166.245 368.779 170.398ZM356.438 148.557L358.309 141.699L365.117 143.578L363.245 150.436L356.438 148.557ZM370.053 152.315L371.924 145.457L378.731 147.336L376.86 154.194L370.053 152.315ZM383.667 156.073L385.538 149.215L392.346 151.094L390.474 157.952L383.667 156.073Z" fill="white"/>
<path d="M292.514 122.016C315.897 114.307 340.017 123.309 346.177 142.209C352.336 161.11 338.193 182.726 314.811 190.435C309.539 192.173 304.229 193.071 299.106 193.244C290.176 208.027 275.083 213.003 275.083 213.003C281.742 199.774 281.127 192.542 280.504 189.906C271.284 186.174 264.116 179.35 261.148 170.242C254.989 151.341 269.131 129.725 292.514 122.016ZM326.313 153.493L323.526 144.941L315.023 147.744L317.81 156.297L326.313 153.493ZM309.307 159.1L306.52 150.548L298.018 153.351L300.805 161.903L309.307 159.1ZM292.302 164.706L289.515 156.154L281.012 158.957L283.799 167.51L292.302 164.706Z" fill="white"/>
<path d="M520.9 536.937C511.96 535.497 501.912 542.835 504.229 554.248L489.222 551.913C486.711 551.522 484.148 552.154 482.096 553.669C480.045 555.184 478.674 557.459 478.284 559.992L476.815 569.545C476.62 570.811 476.932 572.104 477.682 573.138C478.432 574.172 479.559 574.862 480.815 575.057L523.421 581.687L525.625 567.358L535.093 568.831L532.889 583.16L575.495 589.789C576.751 589.985 578.032 589.669 579.058 588.911C580.083 588.154 580.769 587.016 580.964 585.75L582.433 576.197C582.823 573.664 582.199 571.079 580.699 569.011C579.199 566.943 576.945 565.562 574.434 565.171L559.427 562.836C567.368 548.08 548.235 533.806 536.554 545.78L533.297 548.99L531.172 544.844C528.843 540.129 525.011 537.626 520.9 536.937ZM519.095 546.78C523.308 547.435 524.645 552.925 521.2 555.47C517.755 558.015 512.973 555.07 513.626 550.819C513.821 549.553 514.507 548.415 515.532 547.658C516.558 546.9 517.839 546.584 519.095 546.78ZM547.499 551.199C551.712 551.855 553.049 557.345 549.604 559.89C546.159 562.435 541.377 559.49 542.031 555.239C542.225 553.972 542.911 552.835 543.937 552.077C544.962 551.32 546.244 551.004 547.499 551.199ZM480.08 579.834L474.203 618.044C473.814 620.577 474.437 623.162 475.937 625.23C477.438 627.298 479.691 628.679 482.202 629.07L557.946 640.855C560.457 641.246 563.021 640.614 565.072 639.099C567.123 637.584 568.494 635.309 568.884 632.776L574.76 594.566L532.154 587.936L526.277 626.146L516.809 624.673L522.686 586.463L480.08 579.834Z" fill="white"/>
<path d="M114.351 496.258C105.597 504.863 91.5721 504.649 83.0103 495.838C74.4227 487 74.5569 472.919 83.3108 464.314C87.5066 460.189 93.1657 457.916 99.0431 457.995C104.921 458.074 110.535 460.498 114.651 464.734C118.767 468.97 121.048 474.671 120.992 480.583C120.935 486.495 118.546 492.133 114.351 496.258ZM72.4134 511.459C71.7141 512.147 70.7709 512.526 69.7913 512.513C68.8117 512.499 67.876 512.095 67.19 511.389C66.504 510.683 66.1238 509.733 66.1332 508.748C66.1426 507.763 66.5408 506.823 67.2401 506.135C67.9394 505.448 68.8825 505.069 69.8621 505.082C70.8417 505.095 71.7774 505.499 72.4634 506.205C73.1495 506.911 73.5296 507.862 73.5202 508.847C73.5108 509.832 73.1127 510.772 72.4134 511.459ZM94.0079 438.184L56.1182 475.431C54.378 477.141 53.65 479.522 53.9155 481.812L59.2798 519.165L96.2589 525.389C98.5542 525.735 100.938 525.057 102.678 523.346L140.568 486.1C141.966 484.725 142.762 482.845 142.781 480.875C142.8 478.904 142.04 477.004 140.668 475.592L104.455 438.324C103.083 436.912 101.211 436.104 99.2521 436.078C97.2929 436.051 95.4065 436.809 94.0079 438.184ZM90.9706 482.808C91.6699 482.12 92.068 481.18 92.0774 480.195C92.0868 479.21 91.7067 478.26 91.0207 477.554C90.3346 476.848 89.3989 476.444 88.4194 476.431C87.4398 476.417 86.4966 476.796 85.7973 477.484C85.098 478.171 84.6999 479.111 84.6905 480.096C84.6811 481.081 85.0612 482.032 85.7472 482.738C86.4332 483.444 87.369 483.848 88.3485 483.861C89.3281 483.874 90.2713 483.495 90.9706 482.808ZM109.177 490.934C114.082 486.113 114.699 478.843 111.437 473.098L91.3978 492.797C97.0333 496.209 104.273 495.755 109.177 490.934ZM101.517 472.44C102.217 471.752 102.615 470.813 102.624 469.827C102.634 468.842 102.254 467.892 101.568 467.186C100.882 466.48 99.9458 466.076 98.9663 466.063C97.9867 466.049 97.0435 466.428 96.3442 467.116C95.6449 467.803 95.2467 468.743 95.2374 469.728C95.228 470.714 95.6081 471.664 96.2941 472.37C96.9801 473.076 97.9159 473.48 98.8954 473.493C99.875 473.506 100.818 473.127 101.517 472.44Z" fill="white"/>
<path d="M596.676 393.716L581.75 410.124L559.72 412.03L570.567 431.49L565.536 453.245L587.195 448.779L606.099 460.311L608.635 438.121L625.356 423.463L605.247 414.217L596.676 393.716ZM583.506 418.771C585.54 419.125 586.896 421.071 586.536 423.162C586.452 423.65 586.273 424.117 586.011 424.535C585.748 424.954 585.407 425.317 585.006 425.603C584.606 425.888 584.153 426.092 583.675 426.201C583.197 426.31 582.703 426.323 582.22 426.239C580.152 425.879 578.797 423.933 579.152 421.875C579.512 419.784 581.438 418.411 583.506 418.771ZM600.735 421.772C602.77 422.126 604.125 424.072 603.765 426.163C603.595 427.149 603.045 428.027 602.236 428.604C601.426 429.181 600.424 429.41 599.449 429.24C597.382 428.88 596.027 426.934 596.381 424.877C596.741 422.786 598.668 421.412 600.735 421.772ZM579.687 433.489L599.378 436.919C598.23 438.745 596.574 440.188 594.619 441.065C592.663 441.942 590.495 442.214 588.389 441.848C586.282 441.481 584.332 440.491 582.783 439.003C581.234 437.516 580.157 435.597 579.687 433.489Z" fill="white"/>
<path d="M557.282 29.3194C553.172 28.0321 548.853 30.3095 547.575 34.4371L536.06 71.6227C535.449 73.5951 535.644 75.7312 536.6 77.5609C537.557 79.3906 539.198 80.7641 541.161 81.3792L570.778 90.6569L565.021 109.25L579.581 101.573L587.233 116.208L592.99 97.6152L600.394 99.9346C602.358 100.55 604.484 100.356 606.304 99.3964C608.125 98.4366 609.491 96.7894 610.101 94.8169L621.616 57.6313C622.227 55.6589 622.032 53.5228 621.076 51.6931C620.119 49.8634 618.478 48.4899 616.515 47.8748L557.282 29.3194ZM584.595 46.0342L593.399 56.9505L606.808 52.9925L602.778 66.0074L612.157 75.0644L599.323 77.1631L595.293 90.1781L586.49 79.2618L573.081 83.2198L577.111 70.2049L567.732 61.1479L580.565 59.0492L584.595 46.0342ZM554.979 36.7565L573.489 42.5551L571.186 49.9922L552.676 44.1937L554.979 36.7565ZM550.373 51.6308L561.479 55.1099L559.176 62.547L548.07 59.0679L550.373 51.6308ZM545.767 66.505L564.277 72.3036L561.975 79.7407L543.464 73.9421L545.767 66.505Z" fill="white"/>
<path d="M562.572 254.875L577.994 303.152L561.703 308.417L546.281 260.14L562.572 254.875ZM594.284 297.887C592.124 298.586 589.781 298.407 587.771 297.392C585.762 296.377 584.25 294.608 583.568 292.474L570.717 252.243C570.01 250.03 570.263 247.729 571.307 245.794L589.635 210.622L595.315 213.491C596.761 214.222 597.929 215.487 598.456 217.136L598.745 218.463L600.749 238.099L626.447 229.794C628.607 229.096 630.95 229.274 632.959 230.289C634.969 231.304 636.481 233.074 637.162 235.208L639.733 243.254C640.067 244.3 640.172 245.331 640.101 246.375L636.862 278.712C636.566 282.004 634.317 284.95 630.937 286.042L594.284 297.887ZM591.713 289.841L628.488 277.957L631.588 245.886L629.017 237.84L593.22 249.409L590.985 226.519L578.9 249.731L591.713 289.841Z" fill="white"/>
<path d="M95.5462 277.136L89.8316 274.003C69.5492 262.936 56.1535 255.608 53.2443 243.422C50.8598 233.434 56.8374 223.751 66.8122 221.342C72.4473 219.981 78.4808 221.293 82.9909 224.545C85.5409 219.587 90.3242 215.663 95.9594 214.302C105.934 211.893 115.631 217.79 118.016 227.778C120.925 239.964 112.298 252.612 99.2235 271.735L95.5462 277.136Z" fill="white"/>
<path d="M858.941 285.278L856.333 279.306C847.046 258.149 840.924 244.161 846.071 232.738C850.289 223.376 860.939 219.366 870.306 223.557C875.597 225.924 879.57 230.651 881.152 235.982C886.2 233.617 892.385 233.435 897.676 235.803C907.043 239.993 911.113 250.588 906.895 259.95C901.748 271.373 887.19 276.109 865.153 283.251L858.941 285.278Z" fill="white"/>
<path d="M311.954 498.328C295.39 505.302 287.604 524.406 294.537 541.067C301.47 557.728 320.464 565.558 337.029 558.585C344.973 555.24 351.271 548.859 354.538 540.844C357.804 532.829 357.771 523.837 354.446 515.846C347.513 499.185 328.429 491.393 311.954 498.328ZM334.521 552.559C328.166 555.235 321.014 555.261 314.639 552.633C308.264 550.005 303.188 544.937 300.528 538.545C297.868 532.152 297.842 524.959 300.455 518.547C303.068 512.135 308.106 507.029 314.462 504.354C320.817 501.678 327.969 501.652 334.344 504.28C340.719 506.908 345.795 511.976 348.455 518.368C351.115 524.761 351.141 531.954 348.528 538.366C345.915 544.778 340.877 549.884 334.521 552.559ZM324.904 520.989L329.408 522.846L331.255 518.316L335.759 520.173L337.605 515.642L328.597 511.928L324.904 520.989ZM312.563 526.184L317.067 528.041L318.913 523.511L309.905 519.797L306.213 528.858L310.717 530.715L312.563 526.184ZM331.387 545.027C338.366 542.089 342.467 535.193 342.306 528.038L311.692 540.926C316.646 546.063 324.408 547.965 331.387 545.027Z" fill="white"/>
<path d="M941.724 61.7027C923.377 49.6245 899.709 53.4438 888.774 70.2472C877.839 87.0506 883.83 110.396 902.176 122.474C910.975 128.267 921.497 130.621 931.427 129.019C941.357 127.416 949.882 121.989 955.126 113.93C966.061 97.1265 959.97 73.7154 941.724 61.7027ZM906.131 116.397C899.092 111.763 894.008 104.758 891.997 96.922C889.986 89.0864 891.213 81.0625 895.409 74.6155C899.604 68.1684 906.424 63.8263 914.368 62.5444C922.312 61.2625 930.73 63.1457 937.769 67.7799C944.808 72.414 949.892 79.4194 951.903 87.255C953.914 95.0906 952.686 103.115 948.491 109.562C944.295 116.009 937.475 120.351 929.531 121.633C921.587 122.915 913.17 121.031 906.131 116.397ZM929.341 88.0132L930.762 93.5492L936.374 92.6435L937.795 98.1796L943.408 97.2739L940.566 86.2017L929.341 88.0132ZM915.672 79.0145L917.093 84.5506L922.706 83.6449L919.864 72.5728L908.639 74.3842L910.06 79.9203L915.672 79.0145ZM911.074 108.801C918.804 113.89 928.26 113.778 934.948 109.327L901.042 87.0048C899.662 94.9508 903.344 103.712 911.074 108.801Z" fill="white"/>
<path d="M432.111 260.213L401.701 250L400.432 253.823L408.707 265.867C404.987 265.853 401.413 267.325 398.772 269.96C396.13 272.595 394.637 276.177 394.62 279.919C394.611 281.772 394.966 283.609 395.663 285.325C396.36 287.041 397.387 288.601 398.685 289.917C399.983 291.233 401.525 292.279 403.225 292.994C404.925 293.71 406.748 294.082 408.591 294.088C411.545 294.102 414.428 293.178 416.829 291.447C419.23 289.716 421.026 287.267 421.961 284.448C422.897 281.63 422.924 278.587 422.039 275.752C421.154 272.918 419.401 270.437 417.032 268.663L430.841 264.037L432.111 260.213ZM411.387 290.437L406.891 285.273L400.212 286.684L403.808 280.816L400.307 274.881L406.972 276.503L411.511 271.356L412.065 278.214L418.362 280.945L412.018 283.574L411.387 290.437Z" fill="white"/>
<path d="M916.138 449.048L863.175 461.42L864.752 468.066L887.422 478.061C882.044 481.356 878.202 486.665 876.74 492.819C875.279 498.974 876.318 505.471 879.628 510.883C881.267 513.565 883.416 515.898 885.951 517.751C888.486 519.604 891.357 520.939 894.402 521.681C897.446 522.422 900.603 522.555 903.693 522.073C906.782 521.59 909.744 520.501 912.407 518.867C916.68 516.255 920.014 512.352 921.934 507.716C923.854 503.08 924.262 497.946 923.1 493.048C921.937 488.149 919.264 483.736 915.461 480.436C911.658 477.137 906.919 475.12 901.92 474.674L917.715 455.694L916.138 449.048ZM913.186 511.11L902.098 507.668L893.723 515.657L893.679 503.989L883.339 498.548L894.399 494.948L896.358 483.478L903.27 492.876L914.786 491.202L907.979 500.648L913.186 511.11Z" fill="white"/>
<path d="M353.129 34.7084L348.95 32.856L353.89 21.7112C354.545 20.2333 354.586 18.5557 354.004 17.0475C353.422 15.5393 352.265 14.324 350.787 13.6689L339.642 8.72915L341.495 4.54986C342.313 2.70249 342.365 0.605517 341.638 -1.27976C340.91 -3.16503 339.464 -4.68418 337.617 -5.50299C335.769 -6.32181 333.672 -6.37323 331.787 -5.64594C329.902 -4.91864 328.382 -3.47222 327.564 -1.62485L325.711 2.55444L314.566 -2.38532C313.089 -3.04038 311.411 -3.08151 309.903 -2.49968C308.395 -1.91784 307.179 -0.760702 306.524 0.71719L301.831 11.3047L306.011 13.1572C310.19 15.0096 312.052 19.8349 310.199 24.0142C308.347 28.1935 303.521 30.055 299.342 28.2026L295.163 26.3502L290.47 36.9378C289.815 38.4157 289.774 40.0932 290.356 41.6015C290.937 43.1097 292.095 44.325 293.572 44.98L304.16 49.6728L306.012 45.4935C307.865 41.3142 312.69 39.4527 316.87 41.3051C321.049 43.1575 322.91 47.9829 321.058 52.1622L319.205 56.3415L329.793 61.0343C331.271 61.6893 332.949 61.7305 334.457 61.1486C335.965 60.5668 337.18 59.4097 337.835 57.9318L342.775 46.787L346.954 48.6394C348.802 49.4582 350.899 49.5096 352.784 48.7823C354.669 48.055 356.188 46.6086 357.007 44.7613C357.826 42.9139 357.877 40.8169 357.15 38.9316C356.423 37.0464 354.976 35.5272 353.129 34.7084Z" fill="white"/>
<path d="M695.422 699.018L689.656 703.564L677.534 688.187C675.927 686.148 673.575 684.831 670.997 684.526C668.418 684.22 665.824 684.952 663.785 686.559L648.408 698.681L643.862 692.915C641.853 690.366 638.913 688.72 635.69 688.338C632.467 687.957 629.225 688.871 626.676 690.881C624.127 692.89 622.481 695.829 622.099 699.053C621.718 702.276 622.632 705.518 624.641 708.067L629.187 713.834L613.81 725.955C611.771 727.563 610.454 729.914 610.149 732.493C609.844 735.071 610.575 737.666 612.183 739.705L623.698 754.313L629.465 749.767C635.231 745.221 643.481 746.198 648.026 751.964C652.572 757.73 651.595 765.98 645.829 770.526L640.063 775.071L651.579 789.679C653.186 791.718 655.538 793.035 658.116 793.341C660.695 793.646 663.289 792.914 665.328 791.307L679.936 779.791L675.39 774.025C670.844 768.258 671.821 760.009 677.587 755.463C683.354 750.917 691.603 751.894 696.149 757.66L700.694 763.427L715.302 751.911C717.342 750.303 718.659 747.952 718.964 745.373C719.269 742.795 718.537 740.201 716.93 738.162L704.808 722.785L710.574 718.239C713.123 716.23 714.77 713.29 715.151 710.067C715.533 706.844 714.618 703.601 712.609 701.052C710.6 698.504 707.66 696.857 704.437 696.476C701.214 696.094 697.971 697.009 695.422 699.018Z" fill="white"/>
<path d="M1070.78 423.823L980 408.901L993.462 327L1002.54 328.492L990.574 401.293L999.652 402.785L1006.38 361.835L1024.54 364.819L1017.81 405.77L1026.89 407.262L1036.61 348.111L1054.77 351.096L1045.04 410.246L1054.12 411.739L1057.86 388.988L1076.02 391.973L1070.78 423.823Z" fill="white"/>
<path d="M1003.62 644.6L985.7 648.835C982.724 644.287 977.157 641.8 971.584 643.117C966.011 644.434 962.146 649.149 961.52 654.548L943.6 658.782C941.326 659.32 939.359 660.738 938.131 662.726C936.903 664.714 936.515 667.109 937.052 669.383L951.234 729.402C951.772 731.676 953.19 733.644 955.178 734.872C957.166 736.1 959.56 736.488 961.834 735.95L1021.85 721.768C1024.13 721.231 1026.1 719.812 1027.32 717.824C1028.55 715.836 1028.94 713.442 1028.4 711.168L1014.22 651.148C1013.68 648.874 1012.26 646.907 1010.28 645.679C1008.29 644.451 1005.89 644.063 1003.62 644.6ZM973.61 651.691C974.747 651.423 975.944 651.617 976.938 652.231C977.932 652.845 978.642 653.828 978.91 654.965C979.179 656.102 978.985 657.3 978.371 658.294C977.757 659.288 976.773 659.997 975.636 660.266C974.499 660.534 973.302 660.34 972.308 659.726C971.314 659.112 970.605 658.128 970.336 656.991C970.067 655.854 970.261 654.657 970.875 653.663C971.489 652.669 972.473 651.96 973.61 651.691ZM956.227 673.905L999.098 663.775L997.072 655.2L1005.65 653.174L1019.83 713.194L959.808 727.376L945.626 667.357L954.201 665.331L956.227 673.905ZM964.955 701.265L969.866 693.314L980.466 699.863L995.2 676.012L1003.15 680.923L983.505 712.724L964.955 701.265Z" fill="white"/>
<path d="M364.725 720.044L350.431 695.298C357.4 690.178 362.236 682.213 363.231 673.111H391.889C391.302 682.503 388.543 691.63 383.829 699.774C379.115 707.918 372.575 714.857 364.725 720.044ZM342.111 630.658V602C372.689 603.849 397.151 628.311 399 658.889H370.342C369.548 651.674 366.319 644.946 361.186 639.814C356.054 634.681 349.326 631.452 342.111 630.658ZM299.445 669.556C299.445 674.107 300.369 678.444 302.147 682.356L277.4 696.649C273.168 688.246 270.975 678.964 271 669.556C271 637.342 296.174 611.031 327.889 609.111V637.769C311.889 639.547 299.445 653.058 299.445 669.556ZM331.445 730C310.325 730 291.765 719.333 280.956 702.836L305.702 688.542C308.663 692.588 312.539 695.875 317.012 698.137C321.486 700.399 326.432 701.57 331.445 701.556C335.996 701.556 340.333 700.631 344.245 698.853L358.538 723.6C350.36 727.724 341.187 730 331.445 730Z" fill="white"/>
<path d="M1165.27 350.111L1167 358.943L1158.17 360.671L1156.44 351.838L1165.27 350.111ZM1182.94 346.656L1184.66 355.489L1175.83 357.216L1174.1 348.383L1182.94 346.656ZM1200.6 343.202L1202.33 352.034L1193.5 353.762L1191.77 344.929L1200.6 343.202ZM1203.39 310.56C1205.73 310.102 1208.16 310.593 1210.14 311.926C1212.12 313.258 1213.49 315.323 1213.95 317.665L1226.04 379.494C1226.5 381.837 1226.01 384.265 1224.67 386.246C1223.34 388.226 1221.28 389.596 1218.93 390.054L1157.11 402.145C1154.76 402.603 1152.33 402.112 1150.35 400.779C1148.37 399.447 1147 397.382 1146.55 395.04L1134.45 333.211C1134 330.868 1134.49 328.44 1135.82 326.459C1137.15 324.479 1139.22 323.109 1141.56 322.651L1145.98 321.787L1144.25 312.954L1153.08 311.227L1154.81 320.06L1190.14 313.151L1188.41 304.318L1197.25 302.591L1198.97 311.424L1203.39 310.56ZM1217.21 381.222L1207.71 332.642L1145.88 344.732L1155.38 393.312L1217.21 381.222ZM1168.73 367.776L1170.45 376.609L1161.62 378.336L1159.89 369.503L1168.73 367.776ZM1186.39 364.322L1188.12 373.154L1179.29 374.882L1177.56 366.049L1186.39 364.322ZM1204.06 360.867L1205.78 369.7L1196.95 371.427L1195.22 362.594L1204.06 360.867Z" fill="white"/>
<path d="M795.128 399.705L799.326 414.205C800.491 418.228 798.227 422.381 794.239 423.536L779.506 427.802L770.104 445.1C769.575 445.961 768.828 446.609 767.894 446.88L766.097 447.4C765.144 447.676 764.119 447.559 763.248 447.074C762.378 446.589 761.732 445.777 761.454 444.815L758.305 433.941L743.931 438.103C742.025 438.655 739.976 438.42 738.235 437.451C736.493 436.482 735.202 434.857 734.645 432.934L724.149 396.685C723.592 394.762 723.815 392.699 724.769 390.949C725.724 389.199 727.33 387.906 729.236 387.354L749 381.631C747.727 384.632 746.897 387.819 746.475 391.202L746.22 394.223L748.049 396.64C756.033 406.861 769.227 411.134 781.804 407.492C786.978 405.994 791.477 403.237 795.128 399.705ZM774.456 382.118C776.469 381.535 778.512 382.672 779.099 384.702C779.687 386.732 778.568 388.785 776.556 389.368C774.543 389.95 772.5 388.813 771.913 386.783C771.325 384.753 772.444 382.7 774.456 382.118ZM771.307 371.243C781.117 368.402 791.232 371.995 797.066 379.5C796.145 388.96 789.514 397.402 779.704 400.242C769.895 403.083 759.78 399.49 753.946 391.986C754.867 382.525 761.497 374.084 771.307 371.243ZM772.882 376.68C770.499 377.37 768.491 378.987 767.298 381.174C766.106 383.361 765.827 385.941 766.522 388.344C767.218 390.747 768.832 392.778 771.009 393.99C773.186 395.202 775.747 395.495 778.13 394.805C780.513 394.115 782.521 392.499 783.714 390.311C784.906 388.124 785.185 385.545 784.489 383.141C783.793 380.738 782.18 378.707 780.003 377.495C777.826 376.284 775.264 375.991 772.882 376.68Z" fill="white"/>
<path d="M154.131 86.0251L157.764 98.5694C158.772 102.05 156.813 105.643 153.362 106.642L140.616 110.333L132.483 125.298C132.024 126.043 131.378 126.604 130.57 126.838L129.015 127.288C128.191 127.527 127.305 127.425 126.551 127.006C125.798 126.587 125.239 125.884 124.999 125.052L122.274 115.644L109.839 119.245C108.19 119.722 106.417 119.519 104.911 118.681C103.404 117.842 102.287 116.436 101.805 114.773L92.7243 83.4122C92.2426 81.7487 92.4357 79.9637 93.2611 78.4498C94.0866 76.9359 95.4767 75.8171 97.1257 75.3397L114.224 70.3886C113.123 72.9848 112.405 75.742 112.039 78.669L111.819 81.2821L113.402 83.3731C120.309 92.216 131.723 95.9127 142.604 92.762C147.081 91.4657 150.973 89.0811 154.131 86.0251ZM136.248 70.8094C137.989 70.3053 139.756 71.2891 140.265 73.0453C140.773 74.8015 139.805 76.5775 138.064 77.0816C136.323 77.5857 134.555 76.6019 134.047 74.8457C133.538 73.0895 134.507 71.3135 136.248 70.8094ZM133.523 61.4012C142.01 58.9437 150.761 62.0521 155.809 68.5443C155.011 76.7289 149.275 84.0323 140.788 86.4898C132.301 88.9474 123.55 85.8389 118.503 79.3467C119.3 71.1621 125.036 63.8587 133.523 61.4012ZM134.885 66.1053C132.824 66.7022 131.087 68.1006 130.055 69.993C129.023 71.8854 128.782 74.1167 129.384 76.196C129.986 78.2754 131.382 80.0324 133.265 81.0807C135.149 82.129 137.365 82.3826 139.426 81.7857C141.487 81.1888 143.225 79.7904 144.257 77.898C145.288 76.0057 145.53 73.7744 144.928 71.695C144.326 69.6157 142.929 67.8586 141.046 66.8103C139.163 65.762 136.947 65.5085 134.885 66.1053Z" fill="white"/>
<path d="M1300.43 97.3317C1294.11 95.1024 1288.93 90.4711 1286.02 84.4569C1283.12 78.4426 1282.73 71.538 1284.95 65.2619C1287.16 58.9859 1291.79 53.8525 1297.83 50.9911C1303.86 48.1296 1310.8 47.7746 1317.12 50.0039C1323.44 52.2333 1328.62 56.8646 1331.53 62.8788C1334.43 68.8931 1334.82 75.7977 1332.6 82.0738C1330.39 88.3498 1325.76 93.4832 1319.72 96.3446C1313.69 99.2061 1306.75 99.5611 1300.43 97.3317ZM1319.51 43.2428C1311.38 40.3765 1302.46 40.833 1294.7 44.512C1286.94 48.191 1280.98 54.791 1278.14 62.8603C1275.29 70.9295 1275.79 79.8068 1279.52 87.5395C1283.25 95.2721 1289.92 101.227 1298.04 104.093C1306.17 106.959 1315.09 106.503 1322.85 102.824C1330.61 99.1447 1336.57 92.5447 1339.41 84.4754C1342.26 76.4062 1341.76 67.5288 1338.03 59.7962C1334.29 52.0636 1327.63 46.1092 1319.51 43.2428ZM1316.44 57.3655L1311.33 55.5642L1304.18 75.8476L1316.95 91.1862L1320.97 87.9287L1310.18 75.1134L1316.44 57.3655ZM1306.21 36.2332L1303.68 29.5239L1283.43 37.0151L1285.99 43.7365L1306.21 36.2332ZM1351.5 61.0658L1340.44 42.493L1334.23 46.1162L1345.28 64.689L1351.5 61.0658Z" fill="white"/>
<path d="M700.058 568.691C695.523 570.655 690.4 570.749 685.815 568.953C681.229 567.157 677.558 563.619 675.608 559.116C673.659 554.612 673.59 549.514 675.418 544.941C677.246 540.369 680.82 536.697 685.355 534.734C689.889 532.77 695.013 532.676 699.598 534.472C704.183 536.268 707.854 539.806 709.804 544.309C711.754 548.812 711.822 553.911 709.994 558.484C708.167 563.056 704.592 566.728 700.058 568.691ZM683.254 529.882C677.424 532.407 672.828 537.128 670.478 543.007C668.128 548.886 668.216 555.441 670.723 561.231C673.23 567.02 677.95 571.57 683.846 573.879C689.741 576.188 696.328 576.067 702.158 573.542C707.988 571.018 712.584 566.297 714.934 560.418C717.284 554.539 717.196 547.984 714.689 542.194C712.182 536.405 707.462 531.855 701.567 529.546C695.671 527.237 689.084 527.358 683.254 529.882ZM688.676 539.056L685.012 540.642L691.314 555.196L705.909 557.085L706.449 553.308L694.19 551.79L688.676 539.056ZM672.55 532.76L667.817 530.403L660.625 544.606L665.382 546.953L672.55 532.76ZM709.486 523.479L694.196 518.981L692.652 524.056L707.942 528.554L709.486 523.479Z" fill="white"/>
<path d="M1099.37 122.803L1098.22 120.276L1080.39 128.415L1085 138.523C1086.28 141.328 1089.58 142.542 1092.4 141.251L1128.06 124.974C1130.89 123.683 1132.13 120.399 1130.85 117.594L1126.24 107.486L1108.41 115.625L1109.56 118.152L1099.37 122.803ZM1114.46 88.4333L1104.27 93.084L1101.97 88.0301L1094.57 85.3015L1084.38 89.9523L1081.59 97.3316L1083.9 102.386L1073.71 107.036C1070.91 108.315 1069.65 111.636 1070.92 114.416L1074.38 121.997C1075.66 124.801 1078.96 126.016 1081.78 124.725L1097.07 117.749L1094.76 112.695L1104.95 108.044L1107.25 113.098L1122.54 106.122C1125.34 104.843 1126.59 101.522 1125.32 98.7427L1121.86 91.1618C1120.6 88.3821 1117.27 87.1543 1114.46 88.4333ZM1099.18 95.4094L1088.99 100.06L1086.68 95.0062L1096.87 90.3554L1099.18 95.4094Z" fill="white"/>
<path d="M1308.93 416.74C1307.77 420.263 1305.26 423.182 1301.95 424.855C1298.64 426.528 1294.81 426.818 1291.28 425.662C1287.76 424.505 1284.84 421.997 1283.17 418.688C1281.49 415.379 1281.2 411.541 1282.36 408.018L1290.69 382.66C1291.53 380.098 1293.35 377.975 1295.76 376.758C1298.16 375.541 1300.96 375.33 1303.52 376.172C1306.08 377.013 1308.2 378.837 1309.42 381.244C1310.64 383.65 1310.85 386.441 1310.01 389.003L1303.27 409.531C1302.74 411.133 1301.6 412.459 1300.1 413.22C1298.59 413.98 1296.85 414.112 1295.25 413.587C1293.65 413.061 1292.32 411.921 1291.56 410.417C1290.8 408.913 1290.67 407.168 1291.19 405.567L1297.14 387.454L1300.76 388.643L1294.81 406.756C1294.6 407.397 1294.66 408.094 1294.96 408.696C1295.27 409.298 1295.8 409.754 1296.44 409.964C1297.08 410.174 1297.77 410.122 1298.38 409.817C1298.98 409.513 1299.43 408.982 1299.64 408.342L1306.38 387.814C1306.64 387.021 1306.75 386.185 1306.68 385.353C1306.62 384.521 1306.39 383.709 1306.02 382.964C1305.64 382.219 1305.12 381.556 1304.49 381.012C1303.86 380.468 1303.12 380.054 1302.33 379.794C1301.54 379.534 1300.7 379.432 1299.87 379.495C1299.04 379.558 1298.22 379.784 1297.48 380.161C1296.73 380.537 1296.07 381.057 1295.53 381.69C1294.98 382.323 1294.57 383.057 1294.31 383.85L1285.98 409.207C1285.14 411.77 1285.35 414.561 1286.57 416.967C1287.79 419.374 1289.91 421.198 1292.47 422.039C1295.03 422.88 1297.83 422.669 1300.23 421.453C1302.64 420.236 1304.46 418.113 1305.3 415.551L1312.84 392.608L1316.46 393.797L1308.93 416.74Z" fill="white"/>
<path d="M450.141 427.579C447.929 434.316 443.132 439.898 436.804 443.098C430.477 446.297 423.137 446.852 416.401 444.64C409.664 442.429 404.082 437.631 400.882 431.304C397.683 424.976 397.128 417.637 399.339 410.9L415.26 362.408C416.869 357.509 420.358 353.449 424.96 351.122C429.562 348.795 434.899 348.391 439.799 350C444.698 351.608 448.758 355.097 451.085 359.699C453.412 364.301 453.815 369.639 452.207 374.538L439.318 413.794C438.313 416.856 436.133 419.393 433.256 420.848C430.38 422.302 427.044 422.554 423.982 421.549C420.92 420.543 418.383 418.363 416.928 415.487C415.474 412.611 415.222 409.275 416.227 406.212L427.599 371.575L434.526 373.85L423.154 408.487C422.752 409.712 422.853 411.046 423.435 412.197C424.017 413.347 425.032 414.219 426.256 414.621C427.481 415.024 428.816 414.923 429.966 414.341C431.117 413.759 431.989 412.744 432.391 411.519L445.279 372.264C445.777 370.748 445.971 369.148 445.851 367.557C445.731 365.966 445.298 364.414 444.578 362.989C443.858 361.565 442.864 360.297 441.654 359.257C440.444 358.217 439.04 357.425 437.524 356.927C436.008 356.43 434.409 356.235 432.817 356.356C431.226 356.476 429.674 356.908 428.25 357.629C426.826 358.349 425.557 359.342 424.517 360.553C423.477 361.763 422.686 363.166 422.188 364.682L406.267 413.175C404.658 418.074 405.062 423.412 407.389 428.014C409.716 432.615 413.776 436.104 418.675 437.713C423.574 439.321 428.912 438.918 433.514 436.591C438.116 434.264 441.605 430.204 443.213 425.305L457.618 381.431L464.545 383.705L450.141 427.579Z" fill="white"/>
<path d="M981 521.872L1020.98 509L1023.84 517.884L983.86 530.756L981 521.872ZM986.797 532.262L1022.33 520.82L1031.63 549.694L996.093 561.136L986.797 532.262ZM1001.16 534.992C1000.86 535.087 1000.62 535.295 1000.48 535.57C1000.34 535.846 1000.31 536.166 1000.4 536.46L1001.48 539.792L1014.8 535.501L1013.73 532.17C1013.64 531.875 1013.43 531.63 1013.15 531.489C1012.88 531.348 1012.56 531.322 1012.26 531.417L1001.16 534.992Z" fill="white"/>
<path d="M809.697 608.227L799.818 613.76L805.35 603.88L799.818 594L809.697 599.533L819.577 594L814.044 603.88L819.577 613.76L809.697 608.227ZM857.12 646.956L867 641.423L861.467 651.303L867 661.182L857.12 655.65L847.24 661.182L852.773 651.303L847.24 641.423L857.12 646.956ZM867 594L861.467 603.88L867 613.76L857.12 608.227L847.24 613.76L852.773 603.88L847.24 594L857.12 599.533L867 594ZM832.776 636.602L842.419 626.959L834.041 618.581L824.398 628.224L832.776 636.602ZM836.847 614.906L846.094 624.153C847.636 625.615 847.636 628.184 846.094 629.725L799.976 675.844C798.434 677.385 795.866 677.385 794.403 675.844L785.156 666.597C783.615 665.134 783.615 662.566 785.156 661.024L831.275 614.906C832.816 613.364 835.385 613.364 836.847 614.906Z" fill="white"/>
<path d="M1189.94 197.926C1188.34 194.788 1184.5 193.542 1181.36 195.142L1178.52 196.592C1172.24 199.794 1169.75 207.477 1172.95 213.755L1177.3 222.279C1180.5 228.557 1188.18 231.049 1194.46 227.847L1197.3 226.398C1200.44 224.797 1201.69 220.954 1200.08 217.816L1189.94 197.926ZM1234.24 207.555C1240.52 204.353 1243.01 196.67 1239.81 190.392L1235.46 181.868C1232.26 175.59 1224.57 173.098 1218.3 176.3L1215.45 177.749C1212.32 179.35 1211.07 183.193 1212.67 186.331L1222.82 206.221C1224.42 209.359 1228.26 210.605 1231.4 209.005L1234.24 207.555ZM1182.46 155.191C1157.1 168.129 1148.58 199.069 1160.19 223.843L1161.64 226.685C1162.44 228.255 1164.36 228.878 1165.93 228.077L1168.77 226.627C1170.34 225.827 1170.97 223.906 1170.16 222.337L1168.71 219.495C1158.33 199.128 1166.44 174.104 1186.81 163.715C1207.18 153.325 1232.2 161.443 1242.59 181.81L1242.57 181.821C1242.8 182.245 1257.6 211.24 1257.6 211.24C1259.72 215.387 1258.07 220.463 1253.92 222.578L1235.86 231.793C1233.46 227.085 1227.7 225.216 1222.99 227.617L1217.31 230.516C1212.6 232.917 1210.73 238.681 1213.13 243.388C1215.53 248.096 1221.29 249.966 1226 247.564L1258.27 231.102C1267.13 226.586 1270.64 215.746 1266.13 206.892L1251.11 177.462C1237.88 153.517 1207.82 142.253 1182.46 155.191Z" fill="white"/>
<path d="M1137.56 539.918L1145.55 543.631L1123.18 591.807L1115.18 588.094C1114.13 587.608 1113.19 586.918 1112.4 586.064C1111.62 585.211 1111.01 584.21 1110.62 583.119C1110.22 582.028 1110.04 580.869 1110.1 579.708C1110.15 578.547 1110.43 577.406 1110.92 576.352L1125.83 544.235C1126.32 543.179 1127.01 542.23 1127.87 541.442C1128.72 540.654 1129.72 540.042 1130.81 539.641C1131.9 539.24 1133.06 539.058 1134.21 539.105C1135.37 539.153 1136.51 539.429 1137.56 539.918ZM1271.05 587.279L1239.35 655.528C1237.37 659.784 1233.79 663.083 1229.39 664.702C1225 666.32 1220.15 666.126 1215.91 664.162L1135.97 627.034C1131.73 625.061 1128.45 621.48 1126.86 617.077C1125.26 612.674 1125.47 607.809 1127.44 603.549L1159.14 535.3C1160.36 532.663 1162.09 530.292 1164.23 528.323C1166.36 526.353 1168.86 524.824 1171.58 523.822C1174.31 522.819 1177.2 522.364 1180.09 522.482C1182.98 522.6 1185.82 523.289 1188.45 524.508L1216.42 537.503L1223.88 521.444C1224.87 519.315 1226.66 517.664 1228.86 516.854C1231.06 516.045 1233.49 516.143 1235.61 517.128C1237.73 518.113 1239.37 519.903 1240.17 522.105C1240.97 524.307 1240.86 526.74 1239.87 528.87L1232.41 544.929L1260.39 557.923C1263.01 559.142 1265.37 560.867 1267.33 563.002C1269.29 565.137 1270.8 567.639 1271.79 570.365C1272.78 573.091 1273.23 575.988 1273.1 578.89C1272.97 581.792 1272.28 584.643 1271.05 587.279ZM1191.78 574.865C1192.7 572.88 1193.02 570.668 1192.69 568.507C1192.36 566.347 1191.39 564.335 1189.92 562.728C1188.45 561.12 1186.53 559.988 1184.41 559.475C1182.3 558.962 1180.07 559.091 1178.02 559.846C1175.97 560.6 1174.19 561.947 1172.9 563.714C1171.61 565.482 1170.87 567.592 1170.78 569.778C1170.68 571.963 1171.23 574.125 1172.36 575.991C1173.49 577.857 1175.15 579.343 1177.13 580.261C1178.44 580.871 1179.86 581.215 1181.31 581.273C1182.75 581.332 1184.2 581.104 1185.56 580.603C1186.92 580.102 1188.17 579.338 1189.24 578.353C1190.31 577.369 1191.17 576.183 1191.78 574.865ZM1174.87 606.055L1158.88 598.629L1155.15 606.658L1171.14 614.084L1174.87 606.055ZM1198.85 617.193L1182.86 609.767L1179.13 617.797L1195.12 625.222L1198.85 617.193ZM1239.74 597.142C1240.67 595.157 1240.98 592.944 1240.65 590.784C1240.32 588.623 1239.36 586.612 1237.88 585.004C1236.41 583.397 1234.49 582.265 1232.38 581.752C1230.26 581.239 1228.03 581.368 1225.98 582.122C1223.93 582.877 1222.15 584.223 1220.86 585.991C1219.57 587.759 1218.83 589.869 1218.74 592.054C1218.64 594.239 1219.19 596.402 1220.33 598.268C1221.46 600.134 1223.11 601.62 1225.09 602.538C1226.4 603.147 1227.82 603.491 1229.27 603.55C1230.72 603.609 1232.16 603.381 1233.52 602.88C1234.88 602.379 1236.13 601.614 1237.2 600.63C1238.27 599.645 1239.13 598.46 1239.74 597.142ZM1222.83 628.331L1206.84 620.906L1203.11 628.935L1219.1 636.361L1222.83 628.331ZM1285.71 618.491L1270.79 650.608C1270.3 651.663 1269.61 652.612 1268.76 653.401C1267.9 654.189 1266.9 654.801 1265.81 655.202C1264.73 655.603 1263.57 655.785 1262.41 655.737C1261.25 655.69 1260.12 655.414 1259.07 654.925L1251.07 651.212L1273.45 603.036L1281.44 606.748C1282.49 607.235 1283.44 607.925 1284.22 608.779C1285.01 609.632 1285.61 610.633 1286.01 611.724C1286.4 612.815 1286.58 613.974 1286.53 615.135C1286.48 616.296 1286.2 617.436 1285.71 618.491Z" fill="white"/>
<path d="M232.5 320C201.288 320 176 345.288 176 376.5C176 407.712 201.288 433 232.5 433C263.712 433 289 407.712 289 376.5C289 345.288 263.712 320 232.5 320ZM260.249 358.707L250.976 402.403C250.293 405.502 248.448 406.254 245.873 404.796L231.748 394.384L224.936 400.945C224.184 401.697 223.547 402.335 222.089 402.335L223.091 387.959L249.268 364.311C250.407 363.309 249.017 362.74 247.514 363.742L215.163 384.109L201.22 379.758C198.19 378.801 198.122 376.728 201.858 375.27L256.33 354.265C258.859 353.353 261.069 354.88 260.249 358.707Z" fill="white"/>
<path d="M125.269 644.352C117.319 636.383 106.732 632 95.481 632C72.2578 632 53.3605 650.897 53.3605 674.121C53.3605 681.539 55.2958 688.787 58.9766 695.181L53 717L75.3315 711.137C81.4788 714.496 88.404 716.26 95.4621 716.26H95.481C118.685 716.26 138 697.363 138 674.14C138 662.888 133.219 652.32 125.269 644.352ZM95.481 709.164C89.1819 709.164 83.0156 707.475 77.6462 704.288L76.375 703.529L63.1317 707.001L66.6607 694.08L65.8259 692.752C62.3158 687.174 60.4754 680.742 60.4754 674.121C60.4754 654.825 76.1853 639.115 95.5 639.115C104.854 639.115 113.638 642.758 120.241 649.379C126.844 656.001 130.904 664.786 130.885 674.14C130.885 693.454 114.777 709.164 95.481 709.164ZM114.682 682.943C113.638 682.412 108.459 679.869 107.491 679.528C106.523 679.167 105.821 678.997 105.119 680.059C104.417 681.122 102.406 683.474 101.78 684.195C101.173 684.897 100.547 684.992 99.5034 684.461C93.3181 681.368 89.2578 678.94 85.1786 671.939C84.0971 670.079 86.26 670.212 88.2712 666.19C88.6127 665.488 88.442 664.881 88.1763 664.349C87.9107 663.818 85.8047 658.638 84.9319 656.532C84.0781 654.483 83.2054 654.768 82.5603 654.73C81.9531 654.692 81.2511 654.692 80.5491 654.692C79.8471 654.692 78.7087 654.958 77.7411 656.001C76.7734 657.064 74.0603 659.606 74.0603 664.786C74.0603 669.965 77.8359 674.974 78.3482 675.676C78.8795 676.378 85.7667 687.003 96.3348 691.576C103.013 694.46 105.632 694.706 108.971 694.213C111.001 693.91 115.194 691.671 116.067 689.204C116.94 686.738 116.94 684.632 116.674 684.195C116.427 683.721 115.725 683.455 114.682 682.943Z" fill="white"/>
<path d="M774.109 132.632C771.792 125.032 766.644 118.793 759.63 115.068C745.153 107.377 727.115 112.9 719.424 127.377C716.968 132.001 715.774 137.16 715.951 142.365L705 153.988L720.863 157.728C723.583 161.857 727.315 165.251 731.715 167.588L731.727 167.594C746.192 175.278 764.491 169.894 772.181 155.417C775.907 148.403 776.426 140.232 774.109 132.632ZM734.077 163.171C730.15 161.085 726.865 157.99 724.574 154.225L724.033 153.331L714.627 151.11L721.106 144.224L721.025 143.119C720.684 138.48 721.667 133.861 723.86 129.733C730.249 117.704 745.245 113.113 757.286 119.509C763.117 122.607 767.386 127.787 769.31 134.101C771.233 140.415 770.855 147.236 767.746 153.061C761.35 165.101 746.106 169.56 734.077 163.171ZM754.73 153.183C754.255 152.506 751.868 149.206 751.378 148.673C750.894 148.128 750.513 147.789 749.723 148.219C748.934 148.649 746.901 149.449 746.272 149.691C745.661 149.928 745.239 149.78 744.765 149.103C741.933 145.127 740.206 142.268 739.982 136.553C739.923 135.036 741.228 135.835 743.813 133.993C744.259 133.669 744.353 133.234 744.364 132.815C744.374 132.396 744.776 128.469 744.93 126.867C745.076 125.307 744.438 125.196 744.048 124.958C743.682 124.734 743.245 124.501 742.807 124.269C742.369 124.036 741.572 123.825 740.623 124.155C739.668 124.497 737.135 125.183 735.419 128.412C733.704 131.641 734.399 136.014 734.486 136.621C734.585 137.235 735.36 146.139 740.433 152.489C743.642 156.498 745.192 157.519 747.437 158.318C748.803 158.801 752.159 158.794 753.52 157.545C754.88 156.296 755.578 154.984 755.557 154.624C755.56 154.246 755.21 153.848 754.73 153.183Z" fill="white"/>
<path d="M1031.59 252.251C1035 254.673 1039.7 253.903 1042.11 250.528L1029.77 241.752C1027.37 245.128 1028.19 249.828 1031.59 252.251ZM1062.53 252.729C1062.07 249.422 1060.71 243.96 1067.66 234.193C1072.94 226.773 1071.91 217.098 1065.87 210.602L1067.29 208.612C1068.49 206.925 1068.08 204.575 1066.38 203.364C1064.68 202.152 1062.32 202.538 1061.12 204.226L1059.7 206.215C1051.59 202.634 1042.11 204.837 1036.83 212.256C1029.88 222.024 1024.27 222.526 1021 223.183C1019.98 223.388 1019.2 223.941 1018.7 224.666C1017.59 226.239 1017.77 228.611 1019.62 229.923L1056.61 256.246C1058.45 257.558 1060.76 256.952 1061.88 255.393C1062.4 254.675 1062.67 253.756 1062.53 252.729Z" fill="white"/>
</g>
</g>
</g>
</svg>
