<svg width="3225" height="323" viewBox="0 0 3225 323" fill="none" xmlns="http://www.w3.org/2000/svg">
<g filter="url(#filter0_d)">
<g filter="url(#filter1_d)">
<path d="M8 5H3216.5V312H8V5Z" fill="#8520D0"/>
</g>
<g opacity="0.1">
<path d="M1649.43 157.126C1680.13 147.091 1711.78 158.808 1719.87 183.413C1727.95 208.017 1709.39 236.157 1678.7 246.192C1671.78 248.455 1664.81 249.624 1658.09 249.85C1646.36 269.094 1626.55 275.571 1626.55 275.571C1635.29 258.35 1634.49 248.935 1633.67 245.504C1621.57 240.645 1612.16 231.762 1608.26 219.905C1600.18 195.301 1618.74 167.161 1649.43 157.126ZM1693.8 198.103L1690.14 186.969L1678.98 190.619L1682.64 201.752L1693.8 198.103ZM1671.48 205.401L1667.82 194.268L1656.66 197.917L1660.32 209.05L1671.48 205.401ZM1649.15 212.699L1645.5 201.566L1634.34 205.215L1637.99 216.349L1649.15 212.699Z" fill="white"/>
<path d="M3112.69 127.118C3143.38 117.083 3175.04 128.801 3183.12 153.405C3191.21 178.01 3172.64 206.149 3141.95 216.184C3135.03 218.447 3128.06 219.616 3121.34 219.842C3109.62 239.086 3089.81 245.564 3089.81 245.564C3098.55 228.342 3097.74 218.928 3096.92 215.496C3084.82 210.638 3075.41 201.754 3071.52 189.897C3063.43 165.293 3082 137.154 3112.69 127.118ZM3157.05 168.095L3153.39 156.962L3142.23 160.611L3145.89 171.744L3157.05 168.095ZM3134.73 175.393L3131.07 164.26L3119.91 167.909L3123.57 179.043L3134.73 175.393ZM3112.41 182.692L3108.75 171.559L3097.59 175.208L3101.25 186.341L3112.41 182.692Z" fill="white"/>
<path d="M267.062 191.559L292.643 270.979L265.622 279.64L240.041 200.22L267.062 191.559ZM319.663 262.318C316.08 263.467 312.194 263.174 308.861 261.504C305.528 259.833 303.02 256.923 301.889 253.412L280.572 187.229C279.4 183.589 279.82 179.803 281.552 176.619L311.953 118.758L321.373 123.478C323.773 124.68 325.71 126.761 326.584 129.475L327.063 131.657L330.388 163.96L373.013 150.298C376.596 149.149 380.481 149.442 383.815 151.113C387.148 152.783 389.656 155.694 390.786 159.204L395.05 172.441C395.604 174.162 395.778 175.858 395.66 177.575L390.288 230.773C389.797 236.188 386.066 241.035 380.46 242.832L319.663 262.318ZM315.4 249.082L376.399 229.53L381.54 176.771L377.276 163.535L317.898 182.566L314.191 144.91L294.147 183.097L315.4 249.082Z" fill="white"/>
<path d="M2399.43 96.92L2425.01 176.34L2397.99 185.001L2372.41 105.581L2399.43 96.92ZM2452.03 167.679C2448.45 168.828 2444.56 168.535 2441.23 166.864C2437.9 165.194 2435.39 162.284 2434.26 158.773L2412.94 92.5897C2411.77 88.9496 2412.19 85.1641 2413.92 81.9804L2444.32 24.1186L2453.74 28.8389C2456.14 30.0413 2458.08 32.122 2458.95 34.8355L2459.43 37.0183L2462.76 69.3211L2505.38 55.6588C2508.96 54.5103 2512.85 54.8034 2516.18 56.4737C2519.52 58.144 2522.02 61.0545 2523.16 64.5651L2527.42 77.8018C2527.97 79.5226 2528.15 81.2192 2528.03 82.9363L2522.66 136.134C2522.17 141.549 2518.44 146.396 2512.83 148.193L2452.03 167.679ZM2447.77 154.443L2508.77 134.891L2513.91 82.1321L2509.65 68.8955L2450.27 87.9274L2446.56 50.2712L2426.52 88.4579L2447.77 154.443Z" fill="white"/>
<path d="M1293.56 145.528L1284.76 140.749C1253.56 123.862 1232.95 112.68 1228.48 94.0858C1224.81 78.8456 1234 64.071 1249.35 60.395C1258.02 58.3183 1267.3 60.3202 1274.24 65.2831C1278.16 57.7184 1285.52 51.7303 1294.19 49.6536C1309.54 45.9776 1324.46 54.9757 1328.12 70.2159C1332.6 88.81 1319.33 108.108 1299.21 137.287L1293.56 145.528Z" fill="white"/>
<path d="M1841.18 92.9119C1819.52 101.956 1809.33 126.734 1818.4 148.344C1827.47 169.953 1852.31 180.109 1873.97 171.064C1884.36 166.727 1892.59 158.45 1896.87 148.054C1901.14 137.659 1901.09 125.996 1896.74 115.633C1887.68 94.0236 1862.72 83.9165 1841.18 92.9119ZM1870.69 163.249C1862.38 166.719 1853.03 166.754 1844.69 163.345C1836.35 159.936 1829.71 153.363 1826.24 145.073C1822.76 136.782 1822.72 127.452 1826.14 119.135C1829.56 110.819 1836.15 104.197 1844.46 100.727C1852.77 97.257 1862.12 97.2225 1870.46 100.631C1878.79 104.04 1885.43 110.613 1888.91 118.904C1892.39 127.195 1892.42 136.525 1889.01 144.841C1885.59 153.157 1879 159.779 1870.69 163.249V163.249ZM1858.11 122.303L1864 124.711L1866.42 118.836L1872.31 121.244L1874.72 115.368L1862.94 110.551L1858.11 122.303ZM1841.97 129.041L1847.86 131.45L1850.28 125.574L1838.5 120.757L1833.67 132.509L1839.56 134.917L1841.97 129.041V129.041ZM1866.59 153.48C1875.72 149.669 1881.08 140.726 1880.87 131.446L1840.84 148.161C1847.31 154.824 1857.46 157.291 1866.59 153.48Z" fill="white"/>
<path d="M1148.34 223.399L1140.67 220.034L1149.75 199.755C1150.96 197.066 1151.03 194.014 1149.97 191.271C1148.9 188.529 1146.78 186.319 1144.06 185.129L1123.6 176.157L1127.01 168.552C1128.51 165.191 1128.61 161.376 1127.28 157.947C1125.94 154.519 1123.29 151.757 1119.89 150.27C1116.5 148.783 1112.65 148.692 1109.19 150.017C1105.72 151.342 1102.93 153.975 1101.43 157.336L1098.02 164.941L1077.55 155.968C1074.84 154.779 1071.76 154.706 1068.99 155.766C1066.22 156.826 1063.98 158.932 1062.78 161.622L1054.15 180.887L1061.82 184.251C1069.49 187.616 1072.91 196.392 1069.5 203.996C1066.09 211.601 1057.23 214.993 1049.55 211.628L1041.88 208.263L1033.25 227.528C1032.04 230.217 1031.96 233.269 1033.03 236.012C1034.1 238.755 1036.22 240.964 1038.94 242.154L1058.38 250.678L1061.78 243.073C1065.19 235.469 1074.06 232.077 1081.73 235.442C1089.41 238.806 1092.82 247.582 1089.41 255.186L1086 262.791L1105.45 271.315C1108.16 272.505 1111.24 272.578 1114.01 271.517C1116.78 270.457 1119.02 268.351 1120.22 265.662L1129.31 245.383L1136.98 248.748C1140.37 250.235 1144.22 250.326 1147.69 249.001C1151.15 247.675 1153.94 245.043 1155.45 241.681C1156.96 238.32 1157.05 234.505 1155.72 231.076C1154.39 227.648 1151.73 224.886 1148.34 223.399V223.399Z" fill="white"/>
<path d="M2079.89 129.211L2069.29 110.914C2074.46 107.128 2078.04 101.24 2078.78 94.5097H2100.03C2099.6 101.453 2097.55 108.202 2094.06 114.223C2090.56 120.245 2085.71 125.375 2079.89 129.211ZM2063.12 63.121V41.9324C2085.79 43.2994 2103.94 61.386 2105.31 83.9942H2084.05C2083.47 78.66 2081.07 73.6853 2077.26 69.8907C2073.46 66.096 2068.47 63.7082 2063.12 63.121ZM2031.48 91.8808C2031.48 95.2457 2032.16 98.453 2033.48 101.345L2015.13 111.913C2011.99 105.7 2010.36 98.8371 2010.38 91.8808C2010.38 68.0633 2029.05 48.6097 2052.57 47.1901V68.3787C2040.7 69.6932 2031.48 79.6829 2031.48 91.8808ZM2055.21 136.571C2039.54 136.571 2025.78 128.685 2017.76 116.487L2036.12 105.919C2038.31 108.91 2041.19 111.341 2044.5 113.013C2047.82 114.685 2051.49 115.551 2055.21 115.541C2058.58 115.541 2061.8 114.857 2064.7 113.543L2075.3 131.84C2069.24 134.889 2062.43 136.571 2055.21 136.571Z" fill="white"/>
<path d="M949.857 107.484L955.882 128.121C957.554 133.848 954.305 139.757 948.581 141.401L927.439 147.473L913.948 172.093C913.188 173.317 912.116 174.24 910.775 174.625L908.197 175.366C906.829 175.759 905.359 175.592 904.109 174.902C902.86 174.212 901.933 173.056 901.534 171.688L897.015 156.21L876.389 162.134C873.654 162.919 870.713 162.586 868.214 161.206C865.715 159.826 863.862 157.514 863.063 154.777L848.001 103.186C847.202 100.449 847.522 97.5127 848.891 95.0222C850.26 92.5317 852.566 90.6912 855.301 89.9057L883.662 81.7607C881.836 86.0318 880.645 90.5676 880.039 95.3828L879.673 99.6816L882.298 103.122C893.755 117.669 912.689 123.75 930.737 118.567C938.162 116.435 944.618 112.512 949.857 107.484ZM920.193 82.4531C923.081 81.6238 926.012 83.2422 926.856 86.1313C927.699 89.0204 926.093 91.9421 923.205 92.7714C920.318 93.6007 917.386 91.9822 916.543 89.0931C915.699 86.204 917.305 83.2824 920.193 82.4531ZM915.674 66.9756C929.752 62.9327 944.267 68.0464 952.639 78.7267C951.316 92.1912 941.802 104.206 927.724 108.249C913.647 112.292 899.131 107.178 890.76 96.4977C892.082 83.0332 901.597 71.0185 915.674 66.9756ZM917.933 74.7143C914.514 75.6962 911.632 77.9968 909.921 81.1099C908.209 84.2231 907.809 87.8938 908.808 91.3145C909.806 94.7352 912.122 97.6258 915.246 99.3503C918.37 101.075 922.046 101.492 925.465 100.51C928.884 99.5282 931.766 97.2276 933.477 94.1145C935.189 91.0013 935.589 87.3307 934.591 83.9099C933.592 80.4892 931.276 77.5986 928.152 75.8741C925.028 74.1496 921.353 73.7324 917.933 74.7143" fill="white"/>
<path d="M2915.53 89.0181L2921.55 109.655C2923.22 115.381 2919.97 121.291 2914.25 122.935L2893.11 129.007L2879.62 153.626C2878.86 154.851 2877.79 155.774 2876.44 156.159L2873.87 156.9C2872.5 157.292 2871.03 157.126 2869.78 156.436C2868.53 155.746 2867.6 154.59 2867.2 153.221L2862.68 137.744L2842.06 143.668C2839.32 144.453 2836.38 144.119 2833.88 142.74C2831.38 141.36 2829.53 139.048 2828.73 136.311L2813.67 84.7196C2812.87 81.9831 2813.19 79.0465 2814.56 76.556C2815.93 74.0655 2818.24 72.225 2820.97 71.4395L2849.33 63.2945C2847.5 67.5656 2846.31 72.1014 2845.71 76.9166L2845.34 81.2155L2847.97 84.6554C2859.42 99.2027 2878.36 105.284 2896.41 100.101C2903.83 97.9684 2910.29 94.0455 2915.53 89.0181ZM2885.86 63.9869C2888.75 63.1576 2891.68 64.776 2892.53 67.6651C2893.37 70.5542 2891.76 73.4759 2888.87 74.3052C2885.99 75.1345 2883.06 73.5161 2882.21 70.6269C2881.37 67.7378 2882.97 64.8162 2885.86 63.9869ZM2881.34 48.5094C2895.42 44.4665 2909.94 49.5802 2918.31 60.2606C2916.99 73.725 2907.47 85.7397 2893.39 89.7826C2879.32 93.8255 2864.8 88.7119 2856.43 78.0315C2857.75 64.567 2867.27 52.5523 2881.34 48.5094ZM2883.6 56.2482C2880.18 57.2301 2877.3 59.5306 2875.59 62.6438C2873.88 65.7569 2873.48 69.4276 2874.48 72.8483C2875.48 76.269 2877.79 79.1596 2880.92 80.8841C2884.04 82.6086 2887.72 83.0258 2891.13 82.0439C2894.55 81.062 2897.44 78.7614 2899.15 75.6483C2900.86 72.5352 2901.26 68.8645 2900.26 65.4438C2899.26 62.023 2896.95 59.1325 2893.82 57.4079C2890.7 55.6834 2887.02 55.2662 2883.6 56.2482" fill="white"/>
<path d="M114.17 39.624C83.4737 39.624 58.6032 64.2905 58.6032 94.7347C58.6032 125.179 83.4737 149.845 114.17 149.845C144.866 149.845 169.736 125.179 169.736 94.7347C169.736 64.2905 144.866 39.624 114.17 39.624ZM141.46 77.3793L132.341 120.001C131.669 123.023 129.854 123.757 127.322 122.335L113.43 112.179L106.731 118.579C105.992 119.312 105.364 119.935 103.93 119.935L104.916 105.912L130.661 82.8459C131.781 81.8682 130.414 81.3126 128.935 82.2904L97.1189 102.157L83.4065 97.9125C80.4265 96.9792 80.3593 94.957 84.0339 93.5347L137.606 73.046C140.093 72.1571 142.267 73.646 141.46 77.3793Z" fill="white"/>
<path d="M2190.97 159.654C2160.28 159.654 2135.41 184.321 2135.41 214.765C2135.41 245.209 2160.28 269.875 2190.97 269.875C2221.67 269.875 2246.54 245.209 2246.54 214.765C2246.54 184.321 2221.67 159.654 2190.97 159.654ZM2218.26 197.409L2209.14 240.031C2208.47 243.053 2206.66 243.787 2204.12 242.365L2190.23 232.209L2183.53 238.609C2182.79 239.342 2182.17 239.965 2180.73 239.965L2181.72 225.942L2207.46 202.876C2208.58 201.898 2207.22 201.343 2205.74 202.32L2173.92 222.187L2160.21 217.943C2157.23 217.009 2157.16 214.987 2160.84 213.565L2214.41 193.076C2216.9 192.187 2219.07 193.676 2218.26 197.409Z" fill="white"/>
<path d="M593.687 80.4444C583.726 70.4899 570.461 65.015 556.364 65.015C527.266 65.015 503.588 88.6212 503.588 117.631C503.588 126.898 506.013 135.952 510.625 143.939L503.136 171.195L531.117 163.872C538.819 168.067 547.496 170.271 556.34 170.271H556.364C585.438 170.271 609.639 146.665 609.639 117.655C609.639 103.6 603.648 90.3988 593.687 80.4444ZM556.364 161.407C548.471 161.407 540.745 159.298 534.017 155.316L532.424 154.368L515.831 158.705L520.253 142.565L519.207 140.906C514.809 133.938 512.503 125.903 512.503 117.631C512.503 93.5273 532.187 73.9029 556.388 73.9029C568.108 73.9029 579.114 78.4535 587.387 86.7251C595.66 94.9968 600.748 105.97 600.724 117.655C600.724 141.783 580.541 161.407 556.364 161.407ZM580.422 128.652C579.114 127.989 572.624 124.813 571.412 124.386C570.2 123.936 569.32 123.722 568.44 125.05C567.561 126.377 565.041 129.316 564.256 130.216C563.496 131.093 562.711 131.212 561.404 130.548C553.654 126.685 548.566 123.651 543.455 114.906C542.1 112.583 544.81 112.749 547.33 107.724C547.758 106.847 547.544 106.089 547.211 105.425C546.878 104.762 544.24 98.2912 543.146 95.6604C542.076 93.1007 540.983 93.4562 540.174 93.4088C539.414 93.3614 538.534 93.3614 537.654 93.3614C536.775 93.3614 535.348 93.6932 534.136 94.9968C532.924 96.324 529.524 99.5 529.524 105.97C529.524 112.441 534.255 118.698 534.897 119.575C535.562 120.452 544.192 133.724 557.434 139.436C565.802 143.039 569.082 143.347 573.266 142.731C575.81 142.351 581.064 139.555 582.157 136.474C583.251 133.392 583.251 130.762 582.918 130.216C582.609 129.624 581.729 129.292 580.422 128.652Z" fill="white"/>
<path d="M2702.9 128.918C2692.94 118.964 2679.68 113.489 2665.58 113.489C2636.48 113.489 2612.8 137.095 2612.8 166.105C2612.8 175.372 2615.23 184.426 2619.84 192.413L2612.35 219.669L2640.33 212.346C2648.04 216.541 2656.71 218.745 2665.56 218.745H2665.58C2694.65 218.745 2718.86 195.139 2718.86 166.129C2718.86 152.074 2712.86 138.872 2702.9 128.918ZM2665.58 209.881C2657.69 209.881 2649.96 207.771 2643.23 203.789L2641.64 202.841L2625.05 207.179L2629.47 191.038L2628.42 189.379C2624.03 182.411 2621.72 174.377 2621.72 166.105C2621.72 142.001 2641.4 122.377 2665.6 122.377C2677.32 122.377 2688.33 126.927 2696.6 135.199C2704.88 143.47 2709.96 154.444 2709.94 166.129C2709.94 190.256 2689.76 209.881 2665.58 209.881ZM2689.64 177.126C2688.33 176.462 2681.84 173.286 2680.63 172.86C2679.42 172.409 2678.54 172.196 2677.66 173.523C2676.78 174.851 2674.26 177.789 2673.47 178.69C2672.71 179.567 2671.93 179.686 2670.62 179.022C2662.87 175.159 2657.78 172.125 2652.67 163.379C2651.32 161.057 2654.03 161.222 2656.55 156.198C2656.97 155.321 2656.76 154.562 2656.43 153.899C2656.09 153.235 2653.46 146.765 2652.36 144.134C2651.29 141.574 2650.2 141.93 2649.39 141.882C2648.63 141.835 2647.75 141.835 2646.87 141.835C2645.99 141.835 2644.56 142.167 2643.35 143.47C2642.14 144.798 2638.74 147.974 2638.74 154.444C2638.74 160.914 2643.47 167.171 2644.11 168.048C2644.78 168.925 2653.41 182.198 2666.65 187.91C2675.02 191.512 2678.3 191.82 2682.48 191.204C2685.03 190.825 2690.28 188.028 2691.37 184.947C2692.47 181.866 2692.47 179.235 2692.13 178.69C2691.83 178.098 2690.95 177.766 2689.64 177.126Z" fill="white"/>
<path d="M1437.28 191.488C1442.93 195.474 1450.73 194.206 1454.72 188.653L1434.26 174.217C1430.28 179.77 1431.63 187.503 1437.28 191.488ZM1488.59 192.275C1487.84 186.834 1485.58 177.85 1497.11 161.781C1505.86 149.575 1504.16 133.658 1494.14 122.972L1496.48 119.699C1498.48 116.923 1497.8 113.057 1494.98 111.064C1492.15 109.071 1488.25 109.707 1486.26 112.482L1483.91 115.756C1470.44 109.864 1454.72 113.487 1445.97 125.692C1434.44 141.761 1425.14 142.588 1419.71 143.669C1418.03 144.005 1416.73 144.916 1415.89 146.108C1414.06 148.696 1414.36 152.599 1417.41 154.756L1478.78 198.061C1481.84 200.219 1485.65 199.222 1487.52 196.657C1488.38 195.476 1488.82 193.964 1488.59 192.275V192.275Z" fill="white"/>
<path d="M747.16 219.254C737.233 228.932 721.33 228.691 711.622 218.781C701.884 208.842 702.036 193.007 711.963 183.329C716.72 178.69 723.137 176.134 729.802 176.223C736.467 176.311 742.833 179.037 747.5 183.801C752.168 188.565 754.754 194.977 754.69 201.625C754.626 208.274 751.917 214.615 747.16 219.254ZM699.606 236.35C698.813 237.123 697.743 237.549 696.633 237.534C695.522 237.52 694.461 237.065 693.683 236.271C692.905 235.477 692.474 234.409 692.485 233.301C692.495 232.193 692.947 231.136 693.74 230.363C694.533 229.59 695.602 229.163 696.713 229.178C697.824 229.193 698.885 229.647 699.663 230.441C700.44 231.235 700.872 232.304 700.861 233.412C700.85 234.52 700.399 235.577 699.606 236.35ZM724.092 153.943L681.128 195.831C679.155 197.755 678.33 200.433 678.631 203.008L684.713 245.016L726.645 252.015C729.248 252.404 731.95 251.642 733.924 249.719L776.888 207.83C778.474 206.284 779.377 204.17 779.398 201.954C779.419 199.738 778.557 197.601 777.001 196.013L735.938 154.1C734.383 152.512 732.26 151.604 730.039 151.574C727.817 151.545 725.678 152.397 724.092 153.943ZM720.648 204.128C721.441 203.355 721.893 202.298 721.903 201.19C721.914 200.081 721.483 199.013 720.705 198.219C719.927 197.425 718.866 196.971 717.755 196.956C716.645 196.941 715.575 197.367 714.782 198.14C713.989 198.913 713.538 199.97 713.527 201.078C713.516 202.186 713.948 203.255 714.725 204.049C715.503 204.843 716.564 205.297 717.675 205.312C718.786 205.327 719.855 204.901 720.648 204.128ZM741.293 213.266C746.855 207.844 747.555 199.669 743.856 193.208L721.133 215.362C727.523 219.2 735.732 218.688 741.293 213.266ZM732.608 192.468C733.401 191.695 733.852 190.638 733.863 189.53C733.873 188.421 733.442 187.353 732.665 186.559C731.887 185.765 730.826 185.311 729.715 185.296C728.604 185.281 727.535 185.707 726.742 186.48C725.949 187.253 725.497 188.31 725.487 189.418C725.476 190.526 725.907 191.595 726.685 192.389C727.463 193.183 728.524 193.637 729.635 193.652C730.745 193.667 731.815 193.241 732.608 192.468Z" fill="white"/>
</g>
</g>
<defs>
<filter id="filter0_d" x="4" y="5" width="3216.5" height="315" filterUnits="userSpaceOnUse" color-interpolation-filters="sRGB">
<feFlood flood-opacity="0" result="BackgroundImageFix"/>
<feColorMatrix in="SourceAlpha" type="matrix" values="0 0 0 0 0 0 0 0 0 0 0 0 0 0 0 0 0 0 127 0"/>
<feOffset dy="4"/>
<feGaussianBlur stdDeviation="2"/>
<feColorMatrix type="matrix" values="0 0 0 0 0 0 0 0 0 0 0 0 0 0 0 0 0 0 0.25 0"/>
<feBlend mode="normal" in2="BackgroundImageFix" result="effect1_dropShadow"/>
<feBlend mode="normal" in="SourceGraphic" in2="effect1_dropShadow" result="shape"/>
</filter>
<filter id="filter1_d" x="0" y="0" width="3224.5" height="323" filterUnits="userSpaceOnUse" color-interpolation-filters="sRGB">
<feFlood flood-opacity="0" result="BackgroundImageFix"/>
<feColorMatrix in="SourceAlpha" type="matrix" values="0 0 0 0 0 0 0 0 0 0 0 0 0 0 0 0 0 0 127 0"/>
<feOffset dy="3"/>
<feGaussianBlur stdDeviation="4"/>
<feColorMatrix type="matrix" values="0 0 0 0 0 0 0 0 0 0 0 0 0 0 0 0 0 0 0.2 0"/>
<feBlend mode="normal" in2="BackgroundImageFix" result="effect1_dropShadow"/>
<feBlend mode="normal" in="SourceGraphic" in2="effect1_dropShadow" result="shape"/>
</filter>
</defs>
</svg>
