<?xml version="1.0" encoding="utf-8"?>
<!-- Generator: Adobe Illustrator 24.0.1, SVG Export Plug-In . SVG Version: 6.00 Build 0)  -->
<svg version="1.1" id="Capa_1" xmlns="http://www.w3.org/2000/svg" xmlns:xlink="http://www.w3.org/1999/xlink" x="0px" y="0px"
	 viewBox="0 0 567.25 522.9" style="enable-background:new 0 0 567.25 522.9;" xml:space="preserve">
<style type="text/css">
	.st0{fill:#E9E9F4;}
	.st1{fill:#172AC2;}
	.st2{fill:url(#SVGID_1_);}
	.st3{fill:url(#SVGID_2_);}
	.st4{fill:url(#SVGID_3_);}
	.st5{fill:url(#SVGID_4_);}
	.st6{fill:url(#SVGID_5_);}
	.st7{fill:url(#SVGID_6_);}
	.st8{fill:url(#SVGID_7_);}
	.st9{fill:url(#SVGID_8_);}
	.st10{fill:url(#SVGID_9_);}
	.st11{fill:url(#SVGID_10_);}
	.st12{fill:url(#SVGID_11_);}
	.st13{fill:url(#SVGID_12_);}
	.st14{fill:url(#SVGID_13_);}
	.st15{fill:url(#SVGID_14_);}
	.st16{fill:url(#SVGID_15_);}
	.st17{fill:url(#SVGID_16_);}
	.st18{fill:url(#SVGID_17_);}
	.st19{fill:url(#SVGID_18_);}
	.st20{fill:url(#SVGID_19_);}
	.st21{fill:url(#SVGID_20_);}
	.st22{fill:url(#SVGID_21_);}
	.st23{fill:#FFFFFF;}
	.st24{fill:url(#SVGID_22_);}
	.st25{fill:url(#SVGID_23_);}
	.st26{fill:url(#SVGID_24_);}
	.st27{fill:url(#SVGID_25_);}
	.st28{fill:url(#SVGID_26_);}
	.st29{fill:url(#SVGID_27_);}
	.st30{fill:url(#SVGID_28_);}
	.st31{fill:url(#SVGID_29_);}
	.st32{fill:url(#SVGID_30_);}
	.st33{fill:url(#SVGID_31_);}
	.st34{fill:url(#SVGID_32_);}
	.st35{fill:url(#SVGID_33_);}
	.st36{fill:url(#SVGID_34_);}
	.st37{fill:url(#SVGID_35_);}
	.st38{fill:url(#SVGID_36_);}
	.st39{fill:url(#SVGID_37_);}
	.st40{fill:url(#SVGID_38_);}
	.st41{fill:url(#SVGID_39_);}
	.st42{fill:url(#SVGID_40_);}
	.st43{fill:url(#SVGID_41_);}
	.st44{fill:url(#SVGID_42_);}
	.st45{fill:url(#SVGID_43_);}
	.st46{fill:url(#SVGID_44_);}
	.st47{fill:url(#SVGID_45_);}
	.st48{fill:url(#SVGID_46_);}
	.st49{fill:url(#SVGID_47_);}
	.st50{fill:url(#SVGID_48_);}
	.st51{fill:url(#SVGID_49_);}
	.st52{fill:url(#SVGID_50_);}
	.st53{fill:url(#SVGID_51_);}
	.st54{fill:url(#SVGID_52_);}
	.st55{fill:url(#SVGID_53_);}
	.st56{fill:url(#SVGID_54_);}
	.st57{fill:url(#SVGID_55_);}
	.st58{fill:url(#SVGID_56_);}
	.st59{fill:url(#SVGID_57_);}
	.st60{fill:url(#SVGID_58_);}
	.st61{fill:url(#SVGID_59_);}
	.st62{fill:url(#SVGID_60_);}
	.st63{fill:url(#SVGID_61_);}
	.st64{fill:url(#SVGID_62_);}
	.st65{fill:url(#SVGID_63_);}
	.st66{fill:#606060;}
	.st67{fill:url(#SVGID_64_);}
	.st68{fill:url(#SVGID_65_);}
	.st69{fill:url(#SVGID_66_);}
	.st70{fill:url(#SVGID_67_);}
	.st71{fill:url(#SVGID_68_);}
	.st72{fill:url(#SVGID_69_);}
	.st73{fill:url(#SVGID_70_);}
	.st74{fill:url(#SVGID_71_);}
	.st75{fill:url(#SVGID_72_);}
	.st76{fill:url(#SVGID_73_);}
	.st77{fill:url(#SVGID_74_);}
	.st78{fill:url(#SVGID_75_);}
	.st79{fill:url(#SVGID_76_);}
	.st80{fill:url(#SVGID_77_);}
	.st81{fill:url(#SVGID_78_);}
	.st82{fill:url(#SVGID_79_);}
	.st83{fill:url(#SVGID_80_);}
	.st84{fill:url(#SVGID_81_);}
	.st85{fill:url(#SVGID_82_);}
	.st86{fill:url(#SVGID_83_);}
	.st87{fill:url(#SVGID_84_);}
	.st88{fill:#00194E;}
	.st89{fill:url(#SVGID_85_);}
	.st90{fill:url(#SVGID_86_);}
	.st91{fill:url(#SVGID_87_);}
	.st92{fill:url(#SVGID_88_);}
	.st93{fill:url(#SVGID_89_);}
	.st94{fill:url(#SVGID_90_);}
	.st95{fill:url(#SVGID_91_);}
	.st96{fill:url(#SVGID_92_);}
	.st97{fill:url(#SVGID_93_);}
	.st98{fill:url(#SVGID_94_);}
	.st99{fill:url(#SVGID_95_);}
	.st100{fill:url(#SVGID_96_);}
	.st101{fill:url(#SVGID_97_);}
	.st102{fill:url(#SVGID_98_);}
	.st103{fill:url(#SVGID_99_);}
	.st104{fill:url(#SVGID_100_);}
	.st105{fill:url(#SVGID_101_);}
	.st106{fill:url(#SVGID_102_);}
	.st107{fill:url(#SVGID_103_);}
	.st108{fill:url(#SVGID_104_);}
	.st109{fill:url(#SVGID_105_);}
	.st110{fill:url(#SVGID_106_);}
	.st111{fill:url(#SVGID_107_);}
	.st112{fill:url(#SVGID_108_);}
	.st113{fill:url(#SVGID_109_);}
	.st114{fill:url(#SVGID_110_);}
	.st115{fill:url(#SVGID_111_);}
	.st116{fill:url(#SVGID_112_);}
	.st117{fill:url(#SVGID_113_);}
	.st118{fill:url(#SVGID_114_);}
	.st119{fill:url(#SVGID_115_);}
	.st120{fill:url(#SVGID_116_);}
	.st121{fill:url(#SVGID_117_);}
	.st122{fill:url(#SVGID_118_);}
	.st123{fill:url(#SVGID_119_);}
	.st124{fill:url(#SVGID_120_);}
	.st125{fill:url(#SVGID_121_);}
	.st126{fill:url(#SVGID_122_);}
	.st127{fill:url(#SVGID_123_);}
	.st128{fill:url(#SVGID_124_);}
	.st129{fill:url(#SVGID_125_);}
	.st130{fill:url(#SVGID_126_);}
	.st131{fill:url(#SVGID_127_);}
	.st132{fill:url(#SVGID_128_);}
	.st133{fill:url(#SVGID_129_);}
	.st134{fill:url(#SVGID_130_);}
	.st135{fill:url(#SVGID_131_);}
	.st136{fill:url(#SVGID_132_);}
	.st137{fill:url(#SVGID_133_);}
	.st138{fill:url(#SVGID_134_);}
	.st139{fill:url(#SVGID_135_);}
	.st140{fill:url(#SVGID_136_);}
	.st141{fill:url(#SVGID_137_);}
	.st142{fill:url(#SVGID_138_);}
	.st143{fill:url(#SVGID_139_);}
	.st144{fill:url(#SVGID_140_);}
	.st145{fill:url(#SVGID_141_);}
	.st146{fill:url(#SVGID_142_);}
	.st147{fill:url(#SVGID_143_);}
	.st148{fill:url(#SVGID_144_);}
	.st149{fill:url(#SVGID_145_);}
	.st150{fill:url(#SVGID_146_);}
	.st151{fill:url(#SVGID_147_);}
	.st152{fill:url(#SVGID_148_);}
	.st153{fill:url(#SVGID_149_);}
	.st154{fill:url(#SVGID_150_);}
	.st155{fill:url(#SVGID_151_);}
	.st156{fill:url(#SVGID_152_);}
	.st157{fill:url(#SVGID_153_);}
	.st158{fill:url(#SVGID_154_);}
	.st159{fill:url(#SVGID_155_);}
	.st160{fill:url(#SVGID_156_);}
	.st161{fill:url(#SVGID_157_);}
	.st162{fill:url(#SVGID_158_);}
	.st163{fill:url(#SVGID_159_);}
	.st164{fill:url(#SVGID_160_);}
	.st165{fill:url(#SVGID_161_);}
	.st166{fill:url(#SVGID_162_);}
	.st167{fill:url(#SVGID_163_);}
	.st168{fill:url(#SVGID_164_);}
	.st169{fill:url(#SVGID_165_);}
	.st170{fill:url(#SVGID_166_);}
	.st171{fill:url(#SVGID_167_);}
	.st172{fill:url(#SVGID_168_);}
	.st173{fill:url(#SVGID_169_);}
	.st174{fill:url(#SVGID_170_);}
	.st175{fill:url(#SVGID_171_);}
	.st176{fill:url(#SVGID_172_);}
	.st177{fill:url(#SVGID_173_);}
	.st178{fill:url(#SVGID_174_);}
	.st179{fill:url(#SVGID_175_);}
	.st180{fill:url(#SVGID_176_);}
	.st181{fill:url(#SVGID_177_);}
	.st182{fill:url(#SVGID_178_);}
	.st183{fill:url(#SVGID_179_);}
	.st184{fill:url(#SVGID_180_);}
	.st185{fill:url(#SVGID_181_);}
	.st186{fill:url(#SVGID_182_);}
	.st187{fill:url(#SVGID_183_);}
	.st188{fill:url(#SVGID_184_);}
	.st189{fill:url(#SVGID_185_);}
	.st190{fill:url(#SVGID_186_);}
	.st191{fill:url(#SVGID_187_);}
	.st192{fill:url(#SVGID_188_);}
	.st193{fill:url(#SVGID_189_);}
	.st194{fill:url(#SVGID_190_);}
	.st195{fill:url(#SVGID_191_);}
	.st196{fill:url(#SVGID_192_);}
	.st197{fill:url(#SVGID_193_);}
	.st198{fill:url(#SVGID_194_);}
	.st199{fill:url(#SVGID_195_);}
	.st200{fill:url(#SVGID_196_);}
	.st201{fill:url(#SVGID_197_);}
	.st202{fill:url(#SVGID_198_);}
	.st203{fill:url(#SVGID_199_);}
	.st204{fill:url(#SVGID_200_);}
	.st205{fill:url(#SVGID_201_);}
	.st206{fill:url(#SVGID_202_);}
	.st207{fill:url(#SVGID_203_);}
	.st208{fill:url(#SVGID_204_);}
	.st209{fill:url(#SVGID_205_);}
	.st210{fill:url(#SVGID_206_);}
	.st211{fill:url(#SVGID_207_);}
	.st212{fill:url(#SVGID_208_);}
	.st213{fill:url(#SVGID_209_);}
	.st214{fill:url(#SVGID_210_);}
	.st215{fill:url(#SVGID_211_);}
	.st216{fill:url(#SVGID_212_);}
	.st217{fill:url(#SVGID_213_);}
	.st218{fill:url(#SVGID_214_);}
	.st219{fill:url(#SVGID_215_);}
	.st220{fill:url(#SVGID_216_);}
	.st221{fill:url(#SVGID_217_);}
	.st222{fill:url(#SVGID_218_);}
	.st223{fill:url(#SVGID_219_);}
	.st224{fill:url(#SVGID_220_);}
	.st225{fill:url(#SVGID_221_);}
	.st226{fill:url(#SVGID_222_);}
	.st227{fill:url(#SVGID_223_);}
	.st228{fill:url(#SVGID_224_);}
	.st229{fill:url(#SVGID_225_);}
	.st230{fill:url(#SVGID_226_);}
	.st231{fill:url(#SVGID_227_);}
	.st232{fill:url(#SVGID_228_);}
	.st233{fill:url(#SVGID_229_);}
	.st234{fill:url(#SVGID_230_);}
	.st235{fill:url(#SVGID_231_);}
	.st236{fill:url(#SVGID_232_);}
	.st237{fill:url(#SVGID_233_);}
	.st238{fill:url(#SVGID_234_);}
	.st239{fill:url(#SVGID_235_);}
	.st240{fill:url(#SVGID_236_);}
	.st241{fill:url(#SVGID_237_);}
	.st242{fill:url(#SVGID_238_);}
	.st243{fill:url(#SVGID_239_);}
	.st244{fill:url(#SVGID_240_);}
	.st245{fill:url(#SVGID_241_);}
	.st246{fill:url(#SVGID_242_);}
	.st247{fill:url(#SVGID_243_);}
	.st248{fill:url(#SVGID_244_);}
	.st249{fill:url(#SVGID_245_);}
	.st250{fill:url(#SVGID_246_);}
	.st251{fill:url(#SVGID_247_);}
	.st252{fill:url(#SVGID_248_);}
	.st253{fill:url(#SVGID_249_);}
	.st254{fill:url(#SVGID_250_);}
	.st255{fill:url(#SVGID_251_);}
	.st256{fill:url(#SVGID_252_);}
	.st257{fill:url(#SVGID_253_);}
	.st258{fill:url(#SVGID_254_);}
	.st259{fill:url(#SVGID_255_);}
	.st260{fill:url(#SVGID_256_);}
	.st261{fill:url(#SVGID_257_);}
	.st262{fill:url(#SVGID_258_);}
	.st263{fill:url(#SVGID_259_);}
	.st264{fill:url(#SVGID_260_);}
	.st265{fill:url(#SVGID_261_);}
	.st266{fill:url(#SVGID_262_);}
	.st267{fill:url(#SVGID_263_);}
	.st268{fill:url(#SVGID_264_);}
	.st269{fill:url(#SVGID_265_);}
	.st270{fill:url(#SVGID_266_);}
	.st271{fill:url(#SVGID_267_);}
	.st272{fill:url(#SVGID_268_);}
	.st273{fill:url(#SVGID_269_);}
	.st274{fill:url(#SVGID_270_);}
	.st275{fill:url(#SVGID_271_);}
	.st276{fill:url(#SVGID_272_);}
	.st277{fill:url(#SVGID_273_);}
</style>
<g>
	<g>
		<g>
			<g>

					<linearGradient id="SVGID_1_" gradientUnits="userSpaceOnUse" x1="1184.4553" y1="7487.6772" x2="1211.1876" y2="7336.0708" gradientTransform="matrix(0.7071 0.7071 -0.7071 0.7071 4655.4199 -5826.5229)">
					<stop  offset="0" style="stop-color:#FFFFFF"/>
					<stop  offset="1" style="stop-color:#FFFFFF;stop-opacity:0"/>
				</linearGradient>
				<path class="st2" d="M114.78,152.74c0-9.99,2.79-17.94,8.39-23.43c13.76-13.48,43.44-10.57,81.42,7.98
					c74.13,36.21,160.13,121.16,191.72,189.38c14.42,31.15,15.62,54.91,3.36,66.92c-13.76,13.48-43.44,10.57-81.42-7.98
					c-74.13-36.21-160.13-121.16-191.72-189.38C118.71,179.33,114.78,164.6,114.78,152.74z M395.61,326.99l-0.7,0.32
					c-31.46-67.95-117.14-152.57-191-188.65c-37.36-18.25-66.4-21.26-79.67-8.26c-11.75,11.52-10.45,34.66,3.68,65.18
					c31.46,67.94,117.14,152.57,191,188.65c37.36,18.25,66.4,21.26,79.67,8.26c11.75-11.51,10.45-34.66-3.68-65.18L395.61,326.99z"
					/>
			</g>
		</g>
		<g>
			<g>

					<linearGradient id="SVGID_2_" gradientUnits="userSpaceOnUse" x1="1184.339" y1="7488.3374" x2="1211.3041" y2="7335.4106" gradientTransform="matrix(0.7071 0.7071 -0.7071 0.7071 4655.4199 -5826.5229)">
					<stop  offset="0" style="stop-color:#FFFFFF"/>
					<stop  offset="1" style="stop-color:#FFFFFF;stop-opacity:0"/>
				</linearGradient>
				<path class="st3" d="M112.78,145.57c0-11.68,3.36-20.75,10.06-26.62c15.68-13.74,48.02-8.69,88.75,13.85
					c76.83,42.53,161.91,134.65,189.65,205.36c12.19,31.06,11.75,54.43-1.22,65.8c-15.68,13.74-48.02,8.69-88.75-13.85
					c-76.83-42.53-161.91-134.65-189.65-205.36C115.72,169.72,112.78,156.5,112.78,145.57z M408.55,377.34
					c0-10.72-2.91-23.75-8.74-38.62c-27.63-70.43-112.4-162.2-188.96-204.58c-40.13-22.21-71.84-27.33-87-14.04
					c-12.45,10.91-12.74,33.67-0.81,64.08c27.63,70.43,112.4,162.2,188.96,204.58c40.13,22.21,71.84,27.33,87,14.04
					C405.36,397.23,408.55,388.55,408.55,377.34z"/>
			</g>
		</g>
		<g>
			<g>

					<linearGradient id="SVGID_3_" gradientUnits="userSpaceOnUse" x1="1184.1299" y1="7489.522" x2="1211.5127" y2="7334.2261" gradientTransform="matrix(0.7071 0.7071 -0.7071 0.7071 4655.4199 -5826.5229)">
					<stop  offset="0" style="stop-color:#FFFFFF"/>
					<stop  offset="1" style="stop-color:#FFFFFF;stop-opacity:0"/>
				</linearGradient>
				<path class="st4" d="M111.26,139c0-13.76,4.05-24.19,12.08-30.46c17.81-13.91,52.89-6.48,96.24,20.39
					c79.16,49.06,162.55,148.25,185.89,221.11c9.86,30.77,7.74,53.62-5.97,64.33c-17.81,13.91-52.89,6.48-96.24-20.39
					c-79.16-49.06-162.55-148.25-185.89-221.11C113.28,160.12,111.26,148.73,111.26,139z M410.07,383.93
					c0-9.56-2.01-20.8-6.05-33.42c-23.25-72.57-106.35-171.38-185.24-220.28c-42.78-26.51-77.22-33.98-94.49-20.49
					c-13.17,10.28-15.1,32.54-5.46,62.65c23.25,72.57,106.35,171.38,185.24,220.28c42.78,26.51,77.22,33.98,94.49,20.49
					C406.21,407.19,410.07,397.17,410.07,383.93z"/>
			</g>
		</g>
		<g>
			<g>

					<linearGradient id="SVGID_4_" gradientUnits="userSpaceOnUse" x1="1183.797" y1="7491.4097" x2="1211.8455" y2="7332.3379" gradientTransform="matrix(0.7071 0.7071 -0.7071 0.7071 4655.4199 -5826.5229)">
					<stop  offset="0" style="stop-color:#FFFFFF"/>
					<stop  offset="1" style="stop-color:#FFFFFF;stop-opacity:0"/>
				</linearGradient>
				<path class="st5" d="M110.09,132.84c0-16.16,4.93-27.96,14.68-34.7c20.18-13.95,58.03-3.89,103.83,27.62
					c81.07,55.77,161.97,161.85,180.34,236.48c7.57,30.74,3.81,52.36-10.88,62.51c-20.18,13.95-58.03,3.89-103.83-27.62
					c-81.07-55.77-161.97-161.85-180.34-236.48C111.35,150.33,110.09,141.02,110.09,132.84z M411.23,390.07
					c0-8.05-1.25-17.23-3.77-27.46c-18.3-74.31-98.92-180-179.72-235.58c-45.25-31.13-82.46-41.2-102.09-27.62
					c-14.12,9.76-17.66,30.81-10.26,60.89c18.3,74.31,98.92,179.99,179.72,235.58c45.25,31.13,82.46,41.2,102.09,27.62
					C406.51,417.06,411.23,405.7,411.23,390.07z"/>
			</g>
		</g>
		<g>
			<g>

					<linearGradient id="SVGID_5_" gradientUnits="userSpaceOnUse" x1="1183.3103" y1="7494.1714" x2="1212.3329" y2="7329.5767" gradientTransform="matrix(0.7071 0.7071 -0.7071 0.7071 4655.4199 -5826.5229)">
					<stop  offset="0" style="stop-color:#FFFFFF"/>
					<stop  offset="1" style="stop-color:#FFFFFF;stop-opacity:0"/>
				</linearGradient>
				<path class="st6" d="M109.46,128.03c0-19.35,6.01-33.07,17.77-40.19c22.83-13.83,63.45-0.86,111.44,35.57
					c82.5,62.62,160.05,175.36,172.88,251.31l-0.76,0.13l0.76-0.13c5.08,30.1-0.43,50.97-15.93,60.36
					c-22.83,13.83-63.45,0.86-111.44-35.57c-82.5-62.62-160.05-175.36-172.88-251.31C110.07,140.92,109.46,134.19,109.46,128.03z
					 M411.86,394.89c0-6.08-0.6-12.73-1.82-19.92c-12.77-75.62-90.06-187.92-172.29-250.34c-46.77-35.5-87.79-48.77-109.72-35.48
					c-14.92,9.04-20.18,29.37-15.22,58.8c12.77,75.62,90.06,187.92,172.29,250.34c46.77,35.5,87.79,48.77,109.72,35.48
					C406.1,426.93,411.86,413.66,411.86,394.89z"/>
			</g>
		</g>
		<g>
			<g>

					<linearGradient id="SVGID_6_" gradientUnits="userSpaceOnUse" x1="1182.6438" y1="7497.9507" x2="1212.999" y2="7325.7974" gradientTransform="matrix(0.7071 0.7071 -0.7071 0.7071 4655.4199 -5826.5229)">
					<stop  offset="0" style="stop-color:#FFFFFF"/>
					<stop  offset="1" style="stop-color:#FFFFFF;stop-opacity:0"/>
				</linearGradient>
				<path class="st7" d="M109.16,124.58c0-23.36,7.39-39.47,21.65-46.92c25.39-13.26,69.87,3.29,118.99,44.26
					c83.4,69.57,156.7,188.65,163.39,265.43c2.56,29.3-4.76,49.32-21.15,57.88c-25.39,13.26-69.87-3.29-118.99-44.26
					c-83.4-69.58-156.7-188.65-163.39-265.44C109.32,131.73,109.16,128.07,109.16,124.58z M412.42,387.43l-0.76,0.07
					c-6.67-76.44-79.72-195.04-162.85-264.39c-48.63-40.57-92.48-57.05-117.3-44.08c-15.8,8.25-22.83,27.75-20.33,56.39
					c6.67,76.44,79.72,195.04,162.85,264.39c48.63,40.57,92.48,57.05,117.3,44.08c15.8-8.25,22.83-27.75,20.33-56.39L412.42,387.43z
					"/>
			</g>
		</g>
		<g>
			<g>

					<linearGradient id="SVGID_7_" gradientUnits="userSpaceOnUse" x1="1181.7805" y1="7502.8457" x2="1213.8622" y2="7320.9014" gradientTransform="matrix(0.7071 0.7071 -0.7071 0.7071 4655.4199 -5826.5229)">
					<stop  offset="0" style="stop-color:#FFFFFF"/>
					<stop  offset="1" style="stop-color:#FFFFFF;stop-opacity:0"/>
				</linearGradient>
				<path class="st8" d="M109.08,122.83c0-0.01,0-0.02,0-0.04c0.01-28.39,9.19-47.43,26.56-55.08
					c28.58-12.59,75.82,7.49,126.34,53.71c83.7,76.57,151.78,201.56,151.78,278.65c0,0.01,0,0.02,0,0.04
					c-0.01,28.39-9.19,47.43-26.56,55.08c-28.58,12.59-75.82-7.49-126.34-53.71C177.16,324.91,109.08,199.92,109.08,122.83z
					 M412.23,400.07c0-76.72-67.85-201.2-151.29-277.52c-50.07-45.8-96.68-65.77-124.69-53.44c-16.77,7.38-25.63,25.95-25.64,53.68
					c0,0.01,0,0.03,0,0.04c-0.01,76.72,67.85,201.2,151.29,277.52c50.06,45.8,96.68,65.77,124.69,53.44
					c16.77-7.39,25.64-25.95,25.64-53.68C412.23,400.1,412.23,400.08,412.23,400.07z"/>
			</g>
		</g>
		<g>
			<g>

					<linearGradient id="SVGID_8_" gradientUnits="userSpaceOnUse" x1="1180.7118" y1="7508.9077" x2="1214.931" y2="7314.8408" gradientTransform="matrix(0.7071 0.7071 -0.7071 0.7071 4655.4199 -5826.5229)">
					<stop  offset="0" style="stop-color:#FFFFFF"/>
					<stop  offset="1" style="stop-color:#FFFFFF;stop-opacity:0"/>
				</linearGradient>
				<path class="st9" d="M109.07,122.92c0-4.44,0.19-8.74,0.59-12.88c2.61-27.38,13.75-45.35,32.2-51.97
					c32.08-11.52,81.93,12.38,133.35,63.91c83.4,83.59,145.28,214.08,137.96,290.89c-2.61,27.38-13.75,45.35-32.2,51.97
					c-32.08,11.52-81.93-12.38-133.35-63.91C168.73,321.84,109.08,200.78,109.07,122.92z M412.24,399.93
					c0-77.47-59.46-198.04-138.11-276.87C223.14,71.95,173.89,48.2,142.38,59.51c-17.86,6.41-28.64,23.93-31.2,50.68
					c-7.29,76.4,54.4,206.35,137.52,289.66c50.99,51.11,100.24,74.86,131.75,63.55c17.86-6.41,28.64-23.93,31.2-50.68
					C412.05,408.61,412.24,404.34,412.24,399.93z"/>
			</g>
		</g>
		<g>
			<g>

					<linearGradient id="SVGID_9_" gradientUnits="userSpaceOnUse" x1="1179.4362" y1="7516.1416" x2="1216.2067" y2="7307.606" gradientTransform="matrix(0.7071 0.7071 -0.7071 0.7071 4655.4199 -5826.5229)">
					<stop  offset="0" style="stop-color:#FFFFFF"/>
					<stop  offset="1" style="stop-color:#FFFFFF;stop-opacity:0"/>
				</linearGradient>
				<path class="st10" d="M108.96,125.15c0-9.92,0.83-19.22,2.54-27.77c5.27-26.3,18.47-43.09,38.17-48.55
					c35.86-9.94,88.13,18.05,139.82,74.86c82.39,90.55,137.05,225.96,121.84,301.84c-5.27,26.3-18.47,43.09-38.17,48.55
					c-35.86,9.93-88.13-18.05-139.82-74.86C160.24,318.87,108.97,203.21,108.96,125.15z M412.36,397.66
					c0-77.66-51.12-192.85-123.99-272.94c-51.3-56.38-102.99-84.19-138.28-74.42c-19.1,5.29-31.93,21.67-37.08,47.37
					c-1.7,8.48-2.52,17.73-2.52,27.57c0,77.66,51.12,192.85,123.99,272.94c51.3,56.38,102.99,84.2,138.28,74.42
					c19.1-5.29,31.93-21.67,37.08-47.37C411.54,416.74,412.36,407.5,412.36,397.66z"/>
			</g>
		</g>
		<g>
			<g>

					<linearGradient id="SVGID_10_" gradientUnits="userSpaceOnUse" x1="1177.9584" y1="7524.522" x2="1217.6841" y2="7299.2261" gradientTransform="matrix(0.7071 0.7071 -0.7071 0.7071 4655.4199 -5826.5229)">
					<stop  offset="0" style="stop-color:#FFFFFF"/>
					<stop  offset="1" style="stop-color:#FFFFFF;stop-opacity:0"/>
				</linearGradient>
				<path class="st11" d="M108.52,129.9c0-16.65,1.99-31.84,6.18-44.99c8.03-25.2,23.44-40.68,44.59-44.78
					c39.86-7.73,94.26,24.61,145.52,86.51c80.65,97.39,127.01,237.07,103.34,311.35c-8.03,25.2-23.44,40.68-44.58,44.78
					c-39.86,7.73-94.26-24.61-145.52-86.51C151.67,316.11,108.52,207.31,108.52,129.9z M412.82,392.9
					c0-77.01-43.03-185.38-109.19-265.28c-50.9-61.46-104.74-93.61-144.05-85.98c-20.56,3.99-35.57,19.12-43.42,43.74
					c-23.52,73.85,22.71,212.88,103.06,309.91c50.9,61.46,104.74,93.61,144.05,85.98c20.56-3.99,35.57-19.11,43.42-43.74
					C410.84,424.48,412.82,409.41,412.82,392.9z"/>
			</g>
		</g>
		<g>
			<g>

					<linearGradient id="SVGID_11_" gradientUnits="userSpaceOnUse" x1="1176.288" y1="7533.9971" x2="1219.3551" y2="7289.751" gradientTransform="matrix(0.7071 0.7071 -0.7071 0.7071 4655.4199 -5826.5229)">
					<stop  offset="0" style="stop-color:#FFFFFF"/>
					<stop  offset="1" style="stop-color:#FFFFFF;stop-opacity:0"/>
				</linearGradient>
				<path class="st12" d="M107.45,137.49c0-24.81,3.82-46.94,11.89-64.71c10.93-24.08,28.78-38.12,51.61-40.62
					c43.99-4.81,100.12,32.11,150.14,98.75c78.11,104.06,115.08,247.27,82.41,319.22c-10.93,24.08-28.78,38.12-51.61,40.62
					c-43.99,4.81-100.12-32.11-150.14-98.75C142.94,313.64,107.45,213.1,107.45,137.49z M413.89,385.33
					c0-75.22-35.4-175.39-94.03-253.5c-49.69-66.21-105.3-102.9-148.75-98.15c-22.27,2.43-39.69,16.17-50.39,39.73
					c-32.46,71.5,4.43,214.01,82.24,317.67c49.69,66.21,105.3,102.9,148.75,98.15c22.27-2.43,39.69-16.17,50.39-39.73
					C410.11,431.87,413.89,409.93,413.89,385.33z"/>
			</g>
		</g>
		<g>
			<g>

					<linearGradient id="SVGID_12_" gradientUnits="userSpaceOnUse" x1="1174.4342" y1="7544.5098" x2="1221.2087" y2="7279.2383" gradientTransform="matrix(0.7071 0.7071 -0.7071 0.7071 4655.4199 -5826.5229)">
					<stop  offset="0" style="stop-color:#FFFFFF"/>
					<stop  offset="1" style="stop-color:#FFFFFF;stop-opacity:0"/>
				</linearGradient>
				<path class="st13" d="M105.43,148.05c0-34.5,6.47-64.74,20.09-86.97c14.07-22.95,34.63-35.38,59.47-35.94
					c48.09-1.08,105.42,40.58,153.34,111.43c74.73,110.49,101.19,256.39,58.99,325.24c-14.07,22.95-34.63,35.38-59.47,35.94
					c-48.09,1.08-105.42-40.58-153.34-111.43C133.91,311.5,105.43,220.42,105.43,148.05z M415.92,374.81
					c0-72.02-28.41-162.77-78.86-237.37C289.43,67.02,232.59,25.61,185.02,26.68c-24.29,0.54-44.41,12.72-58.2,35.21
					c-41.92,68.39-15.47,213.54,58.96,323.58c47.63,70.42,104.47,111.83,152.04,110.76c24.29-0.54,44.41-12.72,58.2-35.21
					C409.51,439,415.92,409.01,415.92,374.81z"/>
			</g>
		</g>
		<g>
			<g>

					<linearGradient id="SVGID_13_" gradientUnits="userSpaceOnUse" x1="1172.41" y1="7555.9893" x2="1223.2329" y2="7267.7583" gradientTransform="matrix(0.7071 0.7071 -0.7071 0.7071 4655.4199 -5826.5229)">
					<stop  offset="0" style="stop-color:#FFFFFF"/>
					<stop  offset="1" style="stop-color:#FFFFFF;stop-opacity:0"/>
				</linearGradient>
				<path class="st14" d="M102.1,161.42c0-45.63,10.15-85.26,31.21-111.44c17.54-21.81,41.19-32.37,68.38-30.55
					c51.97,3.48,109.82,49.95,154.75,124.31c70.46,116.6,85.3,264.27,33.07,329.19c-17.54,21.81-41.19,32.37-68.38,30.55
					c-51.97-3.48-109.82-49.95-154.75-124.31C124.34,309.59,102.1,228.94,102.1,161.42z M419.26,361.49
					c0-67.21-22.19-147.58-64.11-216.97C310.47,70.6,253.07,24.4,201.6,20.95c-26.67-1.79-49.87,8.58-67.09,29.98
					C82.66,115.4,97.54,262.29,167.7,378.38c44.68,73.93,102.08,120.12,153.55,123.57c26.67,1.79,49.87-8.58,67.09-29.98
					C409.2,446.03,419.26,406.74,419.26,361.49z"/>
			</g>
		</g>
		<g>
			<g>

					<linearGradient id="SVGID_14_" gradientUnits="userSpaceOnUse" x1="1170.2357" y1="7568.3213" x2="1225.4076" y2="7255.4268" gradientTransform="matrix(0.7071 0.7071 -0.7071 0.7071 4655.4199 -5826.5229)">
					<stop  offset="0" style="stop-color:#FFFFFF"/>
					<stop  offset="1" style="stop-color:#FFFFFF;stop-opacity:0"/>
				</linearGradient>
				<path class="st15" d="M97.1,177.02c0-57.94,15.17-108.15,45.71-137.42c21.48-20.6,48.66-28.96,78.59-24.19
					c55.36,8.83,112.93,60.06,154,137.04c65.26,122.31,67.34,270.74,4.63,330.87c-21.48,20.6-48.66,28.96-78.59,24.19
					c-55.36-8.83-112.93-60.06-154-137.04C113.96,307.71,97.1,238.07,97.1,177.02z M424.25,345.95c0-60.79-16.81-130.2-50.2-192.78
					C333.2,76.6,276.05,25.67,221.16,16.91c-29.44-4.7-56.17,3.53-77.29,23.78c-62.25,59.69-60.04,207.29,4.92,329.04
					c40.85,76.56,98.01,127.5,152.89,136.25c29.44,4.7,56.17-3.53,77.29-23.78C409.22,453.2,424.25,403.42,424.25,345.95z"/>
			</g>
		</g>
		<g>
			<g>

					<linearGradient id="SVGID_15_" gradientUnits="userSpaceOnUse" x1="1167.933" y1="7581.3789" x2="1227.7095" y2="7242.3696" gradientTransform="matrix(0.7071 0.7071 -0.7071 0.7071 4655.4199 -5826.5229)">
					<stop  offset="0" style="stop-color:#FFFFFF"/>
					<stop  offset="1" style="stop-color:#FFFFFF;stop-opacity:0"/>
				</linearGradient>
				<path class="st16" d="M90.12,193.84c0-70.97,21.88-132.65,63.95-163.77c26.01-19.24,57.23-24.95,90.28-16.51
					c57.98,14.81,114.34,70.59,150.75,149.2c59.09,127.55,47.28,275.61-26.32,330.05l0,0c-26.01,19.24-57.23,24.95-90.28,16.51
					c-57.98-14.81-114.34-70.59-150.75-149.2C102.43,305.48,90.12,247.05,90.12,193.84z M431.22,329.15
					c0-53-12.27-111.23-37.51-165.73c-36.23-78.2-92.2-133.66-149.74-148.36c-32.59-8.32-63.36-2.7-88.99,16.25
					c-73.05,54.03-84.64,201.25-25.84,328.18c36.23,78.2,92.2,133.66,149.74,148.36c32.59,8.32,63.36,2.7,88.99-16.25
					C409.55,460.76,431.22,399.58,431.22,329.15z"/>
			</g>
		</g>
		<g>
			<g>

					<linearGradient id="SVGID_16_" gradientUnits="userSpaceOnUse" x1="1165.5243" y1="7595.0396" x2="1230.1184" y2="7228.708" gradientTransform="matrix(0.7071 0.7071 -0.7071 0.7071 4655.4199 -5826.5229)">
					<stop  offset="0" style="stop-color:#FFFFFF"/>
					<stop  offset="1" style="stop-color:#FFFFFF;stop-opacity:0"/>
				</linearGradient>
				<path class="st17" d="M80.93,210.66c0-84.2,30.67-157.77,86.22-189.08c31.27-17.62,67.07-20.08,103.53-7.1
					c59.57,21.19,113.68,81.12,144.77,160.3c51.91,132.24,25.1,278.72-59.76,326.54c-31.27,17.62-67.07,20.08-103.53,7.1
					c-59.57-21.19-113.69-81.12-144.77-160.3C89.47,302.46,80.93,255.08,80.93,210.66z M440.4,312.32
					c0-44.25-8.51-91.46-26.38-136.99C383.1,96.57,329.32,36.97,270.17,15.93c-36.03-12.82-71.39-10.4-102.27,6.99
					C83.69,70.38,57.18,216.01,108.82,347.56c30.92,78.77,84.7,138.37,143.85,159.41c36.03,12.82,71.39,10.4,102.26-7l0,0
					C410.01,468.95,440.4,395.93,440.4,312.32z"/>
			</g>
		</g>
		<g>
			<g>

					<linearGradient id="SVGID_17_" gradientUnits="userSpaceOnUse" x1="1163.0275" y1="7609.1978" x2="1232.6145" y2="7214.5498" gradientTransform="matrix(0.7071 0.7071 -0.7071 0.7071 4655.4199 -5826.5229)">
					<stop  offset="0" style="stop-color:#FFFFFF"/>
					<stop  offset="1" style="stop-color:#FFFFFF;stop-opacity:0"/>
				</linearGradient>
				<path class="st18" d="M69.39,226.25c0-97.18,41.93-182.44,112.72-211.98c37.36-15.59,78.26-14.06,118.29,4.42
					c59.9,27.66,110.72,91.15,135.94,169.82c43.69,136.27,0.79,279.88-95.62,320.11c-37.36,15.59-78.26,14.06-118.29-4.42
					c-59.9-27.66-110.72-91.15-135.94-169.82C74.89,298.17,69.39,261.43,69.39,226.25z M451.93,296.71
					c0-35.04-5.47-71.63-17.04-107.72c-25.09-78.27-75.61-141.41-135.13-168.9c-39.63-18.3-80.1-19.82-117.05-4.4
					C112.49,44.99,70.92,129.65,70.91,226.19c0,35.04,5.47,71.63,17.04,107.72c25.09,78.27,75.61,141.41,135.13,168.9
					c39.62,18.3,80.1,19.82,117.05,4.4C410.35,477.91,451.93,393.25,451.93,296.71z"/>
			</g>
		</g>
		<g>
			<g>

					<linearGradient id="SVGID_18_" gradientUnits="userSpaceOnUse" x1="1160.4031" y1="7624.0801" x2="1235.2385" y2="7199.6675" gradientTransform="matrix(0.7071 0.7071 -0.7071 0.7071 4655.4199 -5826.5229)">
					<stop  offset="0" style="stop-color:#FFFFFF"/>
					<stop  offset="1" style="stop-color:#FFFFFF;stop-opacity:0"/>
				</linearGradient>
				<path class="st19" d="M55.47,239.64c0-109.66,56-205.72,143.52-231.34c44.36-12.99,90.8-6.62,134.31,18.42
					c59.74,34.38,105.07,99.01,124.37,177.31c34.4,139.58-25.64,278.9-133.83,310.58c-44.36,12.99-90.8,6.62-134.31-18.42
					C129.8,461.81,84.47,397.18,65.17,318.87C58.6,292.21,55.47,265.54,55.47,239.64z M465.84,283.29c0-25.8-3.11-52.33-9.66-78.9
					c-19.2-77.9-64.27-142.18-123.64-176.35C289.41,3.22,243.38-3.1,199.43,9.77C112.57,35.19,57.01,130.63,57,239.61
					c0,25.8,3.11,52.33,9.66,78.9c19.2,77.9,64.27,142.18,123.64,176.35c43.13,24.82,89.16,31.14,133.11,18.28
					C410.27,487.71,465.84,392.27,465.84,283.29z"/>
			</g>
		</g>
		<g>
			<g>

					<linearGradient id="SVGID_19_" gradientUnits="userSpaceOnUse" x1="1157.7802" y1="7638.9536" x2="1237.8608" y2="7184.7935" gradientTransform="matrix(0.7071 0.7071 -0.7071 0.7071 4655.4199 -5826.5229)">
					<stop  offset="0" style="stop-color:#FFFFFF"/>
					<stop  offset="1" style="stop-color:#FFFFFF;stop-opacity:0"/>
				</linearGradient>
				<path class="st20" d="M39.2,250.16C39.2,128.58,112.34,23.24,217.83,3.81c51.56-9.49,105.24,2.98,151.16,35.12
					c57.27,40.08,97.47,106.57,110.3,182.41c24.03,142.06-54.16,275.62-174.29,297.74c-51.56,9.49-105.24-2.98-151.16-35.12
					C96.58,443.89,56.37,377.4,43.54,301.56C40.62,284.24,39.21,267.04,39.2,250.16z M482.11,272.75c0-16.8-1.4-33.91-4.32-51.15
					c-12.76-75.44-52.74-141.57-109.67-181.41C322.53,8.28,269.26-4.1,218.11,5.32C113.36,24.61,40.74,129.31,40.74,250.15
					c0,16.8,1.4,33.91,4.32,51.15c12.76,75.44,52.74,141.57,109.67,181.41c45.58,31.9,98.86,44.28,150.01,34.86l0,0
					C409.48,498.29,482.11,393.59,482.11,272.75z"/>
			</g>
		</g>
		<g>
			<g>

					<linearGradient id="SVGID_20_" gradientUnits="userSpaceOnUse" x1="1155.1716" y1="7654.1978" x2="1240.5967" y2="7169.728" gradientTransform="matrix(0.7071 0.7071 -0.7071 0.7071 4655.4199 -5826.5229)">
					<stop  offset="0" style="stop-color:#FFFFFF"/>
					<stop  offset="1" style="stop-color:#FFFFFF;stop-opacity:0"/>
				</linearGradient>
				<path class="st21" d="M20.68,257.48C20.66,124.45,114.19,11.88,238.64,0.99c132.15-11.56,249.87,95.87,262.44,239.49
					c6.08,69.56-13.11,137.14-54.06,190.29c-40.96,53.17-98.78,85.54-162.81,91.14c-64.03,5.6-126.59-16.23-176.16-61.48
					C58.49,415.2,27.85,351.98,21.77,282.42C21.04,274.05,20.68,265.71,20.68,257.48z M500.65,265.7c0-8.32-0.36-16.68-1.1-25.08
					C487.06,97.84,370.07-8.97,238.77,2.52C115.14,13.34,22.21,125.26,22.21,257.48c0,8.2,0.36,16.47,1.09,24.81
					c6.05,69.17,36.52,132.04,85.79,177.01c49.25,44.96,111.4,66.65,174.99,61.08s121.03-37.72,161.73-90.55
					C481.57,383.4,500.65,325.89,500.65,265.7z"/>
			</g>
		</g>
		<g>
			<g>

					<linearGradient id="SVGID_21_" gradientUnits="userSpaceOnUse" x1="1152.4396" y1="7669.2476" x2="1243.2035" y2="7154.5005" gradientTransform="matrix(0.7071 0.7071 -0.7071 0.7071 4655.4199 -5826.5229)">
					<stop  offset="0" style="stop-color:#FFFFFF"/>
					<stop  offset="1" style="stop-color:#FFFFFF;stop-opacity:0"/>
				</linearGradient>
				<path class="st22" d="M0,261.45C0,117.29,117.27,0,261.42,0c144.15,0,261.42,117.29,261.42,261.45
					c0,144.17-117.27,261.45-261.42,261.45C117.27,522.9,0,405.62,0,261.45z M521.31,261.45c0-143.32-116.59-259.92-259.89-259.92
					c-143.3,0-259.89,116.6-259.89,259.92s116.59,259.92,259.89,259.92C404.72,521.37,521.31,404.77,521.31,261.45z"/>
			</g>
		</g>
	</g>
	<g>
		<path class="st23" d="M232.59,192.17c4.35-7.88,10.3-14.02,17.84-18.42c7.54-4.4,15.96-6.6,25.24-6.6
			c11.32,0,21.01,2.68,29.09,8.05c8.07,5.37,13.95,12.93,17.62,22.7h-11.9c-2.9-6.87-7.32-12.23-13.27-16.1
			c-5.95-3.87-13.13-5.8-21.54-5.8c-7.45,0-14.14,1.74-20.09,5.22s-10.62,8.49-14,15.01c-3.39,6.53-5.08,14.1-5.08,22.7
			c0,8.61,1.69,16.15,5.08,22.63c3.38,6.48,8.05,11.46,14,14.94s12.64,5.22,20.09,5.22c8.41,0,15.59-1.91,21.54-5.73
			c5.95-3.82,10.37-9.12,13.27-15.88h11.9c-3.68,9.67-9.57,17.17-17.7,22.49c-8.12,5.32-17.8,7.98-29.01,7.98
			c-9.28,0-17.7-2.2-25.24-6.6c-7.54-4.4-13.49-10.52-17.84-18.35c-4.35-7.83-6.53-16.73-6.53-26.69
			C226.06,208.97,228.23,200.05,232.59,192.17z"/>
		<path class="st23" d="M396.44,192.82c4.79,2.52,8.56,6.36,11.32,11.53c2.76,5.17,4.13,11.49,4.13,18.93v46.42h-10.01v-45.26
			c0-8.6-2.15-15.18-6.45-19.73c-4.3-4.55-10.18-6.82-17.63-6.82c-7.64,0-13.73,2.42-18.28,7.25c-4.55,4.84-6.82,11.95-6.82,21.33
			v43.23h-10.15V162.36h10.15v41.63c2.51-4.74,6.21-8.41,11.1-11.02c4.88-2.61,10.37-3.92,16.47-3.92
			C386.26,189.05,391.65,190.31,396.44,192.82z"/>
		<path class="st23" d="M434.59,208.56c3.24-6.14,7.74-10.88,13.49-14.22c5.75-3.34,12.26-5.01,19.51-5.01
			c7.54,0,14.05,1.74,19.51,5.22c5.46,3.48,9.4,7.93,11.82,13.35V190.5h10.15v79.2h-10.15v-17.55c-2.52,5.42-6.5,9.89-11.97,13.42
			c-5.46,3.53-11.97,5.3-19.51,5.3c-7.16,0-13.61-1.69-19.37-5.08c-5.76-3.38-10.25-8.17-13.49-14.36
			c-3.24-6.19-4.86-13.35-4.86-21.47C429.73,221.83,431.35,214.7,434.59,208.56z M495.01,213.27c-2.61-4.83-6.16-8.56-10.66-11.17
			c-4.5-2.61-9.45-3.92-14.87-3.92c-5.61,0-10.64,1.26-15.09,3.77c-4.45,2.52-7.96,6.16-10.52,10.95
			c-2.56,4.79-3.84,10.47-3.84,17.05c0,6.48,1.28,12.16,3.84,17.04c2.56,4.88,6.07,8.61,10.52,11.17c4.45,2.56,9.48,3.84,15.09,3.84
			c5.42,0,10.37-1.31,14.87-3.92c4.5-2.61,8.05-6.33,10.66-11.17c2.61-4.83,3.92-10.44,3.92-16.83
			C498.92,223.72,497.62,218.11,495.01,213.27z"/>
		<path class="st23" d="M545.49,199.06v49.18c0,4.84,0.92,8.17,2.76,10.01c1.84,1.84,5.08,2.76,9.72,2.76h9.28v8.7h-10.88
			c-7.16,0-12.48-1.67-15.96-5c-3.48-3.34-5.22-8.83-5.22-16.47v-49.18h-11.02v-8.56h11.02v-19.87h10.3v19.87h21.76v8.56H545.49z"/>
	</g>
	<g>
		<path class="st23" d="M241.41,136.52c-0.55,1.24-1.38,3.18-1.59,3.59c-0.35,0.62-1.11,1.31-2.7,1.31h-11.06V94.42
			c0.07-0.76,0.69-1.38,1.52-1.38h12.93l-1.66,3.59c-0.28,0.62-1.04,1.38-2.63,1.38h-4.01c-0.69,0-1.18,0.48-1.18,1.18v14.38h7.47
			c-0.55,1.24-1.38,3.25-1.59,3.66c-0.35,0.62-1.04,1.31-2.63,1.31h-2.07c-0.62,0-1.18,0.55-1.18,1.18v16.8H241.41z"/>
		<path class="st23" d="M283.03,136.52c-0.55,1.24-1.38,3.18-1.59,3.59c-0.35,0.62-1.11,1.31-2.7,1.31h-11.89V93.04h3.46
			c0.83,0.07,1.52,0.69,1.52,1.52v41.96H283.03z"/>
		<path class="st23" d="M307.94,93.04c1.45,0,2,1.11,2,1.94v46.45h-3.53c-1.17,0-1.38-0.69-1.45-1.04V93.04H307.94z"/>
		<path class="st23" d="M347.72,93.04c3.32,0,6.29,2.7,6.29,6.08v12.51c0,4.7-2.28,8.09-7.05,8.09h-2.97v21.71h-3.53
			c-1.18,0-1.38-0.69-1.38-1.04V93.04H347.72z M349.24,100.02c-0.14-1.31-1.25-2.35-2.63-2.35h-2.63v17.42h2.63
			c1.38,0,2.49-1.04,2.63-2.35V100.02z"/>
		<path class="st23" d="M389.41,105.44v-5.49c0-1.49-1.15-2.64-2.58-2.64c-1.42,0-2.57,1.15-2.57,2.64v4.54
			c0,2.78,2.1,6.37,2.1,6.37l5.83,10.98c2.37,4.34,2.17,7.52,2.17,7.52v6.03c0,3.32-2.71,6.03-6.1,6.03h-3.05
			c-3.25-0.14-5.83-2.78-5.9-6.03v-4.88c0-1.56,0.74-2.3,1.36-2.64c0.41-0.14,2.37-1.02,3.59-1.56v8.27c0,1.42,1.15,2.58,2.57,2.58
			c1.42,0,2.58-1.15,2.58-2.64v-5.42c0-2.78-2.1-6.44-2.1-6.44l-5.83-10.91c-2.37-4.34-2.17-7.52-2.17-7.52v-4.88
			c0-3.32,2.71-6.3,6.1-6.3h3.05c3.25,0.07,5.9,3.05,5.9,6.3v1.83c0,1.56-0.74,2.3-1.36,2.64
			C392.6,104.02,390.7,104.9,389.41,105.44z"/>
		<path class="st23" d="M437.81,136.52c-0.55,1.24-1.38,3.18-1.59,3.59c-0.35,0.62-1.11,1.31-2.7,1.31h-11.06V94.42
			c0.07-0.76,0.69-1.38,1.52-1.38h12.93l-1.66,3.59c-0.28,0.62-1.04,1.38-2.63,1.38h-4.01c-0.69,0-1.18,0.48-1.18,1.18v14.38h7.47
			c-0.55,1.24-1.38,3.25-1.59,3.66c-0.35,0.62-1.04,1.31-2.63,1.31h-2.07c-0.62,0-1.18,0.55-1.18,1.18v16.8H437.81z"/>
	</g>
</g>
</svg>
