<svg width="92" height="24" viewBox="0 0 92 24" fill="none" xmlns="http://www.w3.org/2000/svg">
<path d="M7.6571 24C6.20145 24 4.89536 23.6361 3.73882 22.9083C2.58228 22.1805 1.67 21.1934 1.002 19.9472C0.334001 18.7009 0 17.2901 0 15.7148C0 14.1395 0.363911 12.7238 1.09173 11.4675C1.79916 10.2318 2.82072 9.20506 4.05288 8.49142C5.29915 7.7636 6.69996 7.39969 8.25531 7.39969C9.81065 7.39969 11.2065 7.7636 12.4428 8.49142C13.6684 9.20846 14.6843 10.2347 15.389 11.4675C16.1168 12.7238 16.4807 14.1395 16.4807 15.7148H15.3142C15.3142 17.2901 14.9802 18.7009 14.3122 19.9472C13.6442 21.1934 12.7319 22.1805 11.5754 22.9083C10.4188 23.6361 9.11274 24 7.6571 24ZM8.25531 21.3081C9.27226 21.3081 10.1796 21.0638 10.9772 20.5753C11.7735 20.0881 12.4243 19.396 12.8615 18.5713C13.3202 17.7238 13.5495 16.7717 13.5495 15.7148C13.5495 14.638 13.3202 13.6759 12.8615 12.8284C12.4243 12.0037 11.7735 11.3116 10.9772 10.8244C10.1796 10.3359 9.27226 10.0916 8.25531 10.0916C7.25829 10.0916 6.35599 10.3359 5.5484 10.8244C4.7434 11.3103 4.08259 12.002 3.63413 12.8284C3.16553 13.6759 2.93123 14.638 2.93123 15.7148C2.93123 16.7717 3.16553 17.7238 3.63413 18.5713C4.08259 19.3977 4.7434 20.0895 5.5484 20.5753C6.35599 21.0638 7.25829 21.3081 8.25531 21.3081ZM14.9553 23.9103C14.5166 23.9103 14.1527 23.7657 13.8635 23.4766C13.5744 23.1875 13.4298 22.8235 13.4298 22.3849V17.8086L13.9981 14.638L16.4807 15.7148V22.3849C16.4807 22.8235 16.3361 23.1875 16.047 23.4766C15.7579 23.7657 15.394 23.9103 14.9553 23.9103ZM22.8516 23.8804C22.413 23.8804 22.049 23.7358 21.7599 23.4467C21.4708 23.1576 21.3262 22.7936 21.3262 22.355V9.04476C21.3262 8.58614 21.4708 8.21724 21.7599 7.93807C22.049 7.65891 22.413 7.51933 22.8516 7.51933C23.3103 7.51933 23.6792 7.65891 23.9583 7.93807C24.2375 8.21724 24.3771 8.58614 24.3771 9.04476V22.355C24.3771 22.7936 24.2375 23.1576 23.9583 23.4467C23.6792 23.7358 23.3103 23.8804 22.8516 23.8804ZM22.8516 4.85729C22.3295 4.85271 21.83 4.64326 21.4608 4.27403C21.0916 3.9048 20.8821 3.40534 20.8775 2.8832C20.8746 2.62382 20.9248 2.36659 21.0252 2.12738C21.1255 1.88817 21.2737 1.67205 21.4608 1.49236C21.6423 1.30766 21.8588 1.16095 22.0975 1.06081C22.3363 0.960668 22.5927 0.909092 22.8516 0.909092C23.1106 0.909092 23.3669 0.960668 23.6057 1.06081C23.8445 1.16095 24.061 1.30766 24.2425 1.49236C24.4272 1.67384 24.5739 1.8903 24.674 2.1291C24.7742 2.3679 24.8257 2.62425 24.8257 2.8832C24.8257 3.14214 24.7742 3.39849 24.674 3.63729C24.5739 3.87609 24.4272 4.09255 24.2425 4.27403C24.0628 4.4611 23.8467 4.60936 23.6075 4.70968C23.3682 4.80999 23.111 4.86023 22.8516 4.85729ZM33.9484 23.8804C33.0711 23.8804 32.2934 23.6411 31.6154 23.1625C30.9375 22.684 30.409 22.0309 30.0302 21.2034C29.6513 20.3759 29.4619 19.4237 29.4619 18.3469V2.01579C29.4619 1.5771 29.6015 1.21818 29.8806 0.939011C30.1598 0.659846 30.5187 0.520264 30.9574 0.520264C31.3961 0.520264 31.755 0.659846 32.0342 0.939011C32.3133 1.21818 32.4529 1.5771 32.4529 2.01579V18.3469C32.4529 19.0847 32.5925 19.6929 32.8717 20.1715C33.1508 20.6501 33.5098 20.8893 33.9484 20.8893H34.6962C35.095 20.8893 35.4191 21.0289 35.6683 21.3081C35.9176 21.5872 36.0422 21.9462 36.0422 22.3849C36.0422 22.8235 35.8528 23.1825 35.4739 23.4616C35.095 23.7408 34.6065 23.8804 34.0083 23.8804H33.9484ZM44.9555 24C43.4999 24 42.1938 23.6361 41.0372 22.9083C39.8807 22.1805 38.9684 21.1934 38.3004 19.9472C37.6324 18.7009 37.2984 17.2901 37.2984 15.7148C37.2984 14.1395 37.6623 12.7238 38.3902 11.4675C39.0976 10.2318 40.1192 9.20506 41.3513 8.49142C42.5976 7.7636 43.9984 7.39969 45.5537 7.39969C47.1091 7.39969 48.5049 7.7636 49.7412 8.49142C50.9668 9.20846 51.9828 10.2347 52.6874 11.4675C53.4152 12.7238 53.7791 14.1395 53.7791 15.7148H52.6126C52.6126 17.2901 52.2786 18.7009 51.6106 19.9472C50.9426 21.1934 50.0303 22.1805 48.8738 22.9083C47.7173 23.6361 46.4112 24 44.9555 24ZM45.5537 21.3081C46.5707 21.3081 47.478 21.0638 48.2756 20.5753C49.0719 20.0881 49.7227 19.396 50.16 18.5713C50.6186 17.7238 50.8479 16.7717 50.8479 15.7148C50.8479 14.638 50.6186 13.6759 50.16 12.8284C49.7227 12.0037 49.0719 11.3116 48.2756 10.8244C47.478 10.3359 46.5707 10.0916 45.5537 10.0916C44.5567 10.0916 43.6544 10.3359 42.8468 10.8244C42.0418 11.3103 41.381 12.002 40.9326 12.8284C40.464 13.6759 40.2297 14.638 40.2297 15.7148C40.2297 16.7717 40.464 17.7238 40.9326 18.5713C41.381 19.3977 42.0418 20.0895 42.8468 20.5753C43.6544 21.0638 44.5567 21.3081 45.5537 21.3081ZM52.2537 23.9103C51.815 23.9103 51.4511 23.7657 51.162 23.4766C50.8728 23.1875 50.7283 22.8235 50.7283 22.3849V17.8086L51.2966 14.638L53.7791 15.7148V22.3849C53.7791 22.8235 53.6346 23.1875 53.3454 23.4766C53.0563 23.7657 52.6924 23.9103 52.2537 23.9103ZM62.2139 23.8804C61.3365 23.8804 60.5589 23.6411 59.8809 23.1625C59.2029 22.684 58.6745 22.0309 58.2956 21.2034C57.9168 20.3759 57.7273 19.4237 57.7273 18.3469V2.01579C57.7273 1.5771 57.8669 1.21818 58.1461 0.939011C58.4252 0.659846 58.7842 0.520264 59.2228 0.520264C59.6615 0.520264 60.0205 0.659846 60.2996 0.939011C60.5788 1.21818 60.7184 1.5771 60.7184 2.01579V18.3469C60.7184 19.0847 60.858 19.6929 61.1371 20.1715C61.4163 20.6501 61.7752 20.8893 62.2139 20.8893H62.9617C63.3605 20.8893 63.6845 21.0289 63.9338 21.3081C64.183 21.5872 64.3076 21.9462 64.3076 22.3849C64.3076 22.8235 64.1182 23.1825 63.7393 23.4616C63.3605 23.7408 62.8719 23.8804 62.2737 23.8804H62.2139ZM69.1232 23.8804C68.6845 23.8804 68.3206 23.7358 68.0315 23.4467C67.7424 23.1576 67.5978 22.7936 67.5978 22.355V9.04476C67.5978 8.58614 67.7424 8.21724 68.0315 7.93807C68.3206 7.65891 68.6845 7.51933 69.1232 7.51933C69.5819 7.51933 69.9508 7.65891 70.2299 7.93807C70.5091 8.21724 70.6487 8.58614 70.6487 9.04476V22.355C70.6487 22.7936 70.5091 23.1576 70.2299 23.4467C69.9508 23.7358 69.5819 23.8804 69.1232 23.8804ZM69.1232 4.85729C68.6011 4.85272 68.1016 4.64327 67.7324 4.27404C67.3632 3.90481 67.1537 3.40534 67.1491 2.8832C67.1462 2.62382 67.1964 2.36659 67.2968 2.12738C67.3971 1.88817 67.5453 1.67205 67.7324 1.49236C67.9139 1.30766 68.1303 1.16095 68.3691 1.06081C68.6079 0.960668 68.8643 0.909092 69.1232 0.909092C69.3822 0.909092 69.6385 0.960668 69.8773 1.06081C70.1161 1.16095 70.3326 1.30766 70.5141 1.49236C70.6988 1.67385 70.8455 1.89031 70.9456 2.12911C71.0457 2.3679 71.0973 2.62425 71.0973 2.8832C71.0973 3.14214 71.0457 3.39849 70.9456 3.63729C70.8455 3.87608 70.6988 4.09254 70.5141 4.27403C70.3344 4.4611 70.1183 4.60936 69.879 4.70968C69.6398 4.80999 69.3826 4.86023 69.1232 4.85729ZM83.1513 24C81.6956 24 80.3895 23.6361 79.233 22.9083C78.0765 22.1805 77.1642 21.1934 76.4962 19.9472C75.8282 18.7009 75.4942 17.2901 75.4942 15.7148C75.4942 14.1395 75.8581 12.7238 76.5859 11.4675C77.2933 10.2318 78.3149 9.20506 79.5471 8.49142C80.7933 7.7636 82.1941 7.39969 83.7495 7.39969C85.3048 7.39969 86.7007 7.7636 87.937 8.49142C89.1626 9.20846 90.1785 10.2347 90.8831 11.4675C91.611 12.7238 91.9749 14.1395 91.9749 15.7148H90.8084C90.8084 17.2901 90.4744 18.7009 89.8064 19.9472C89.1384 21.1934 88.2261 22.1805 87.0696 22.9083C85.913 23.6361 84.6069 24 83.1513 24ZM83.7495 21.3081C84.7664 21.3081 85.6737 21.0638 86.4713 20.5753C87.2677 20.0881 87.9184 19.396 88.3557 18.5713C88.8143 17.7238 89.0436 16.7717 89.0436 15.7148C89.0436 14.638 88.8143 13.6759 88.3557 12.8284C87.9184 12.0037 87.2677 11.3116 86.4713 10.8244C85.6737 10.3359 84.7664 10.0916 83.7495 10.0916C82.7525 10.0916 81.8502 10.3359 81.0426 10.8244C80.2376 11.3103 79.5768 12.002 79.1283 12.8284C78.6597 13.6759 78.4254 14.638 78.4254 15.7148C78.4254 16.7717 78.6597 17.7238 79.1283 18.5713C79.5768 19.3977 80.2376 20.0895 81.0426 20.5753C81.8502 21.0638 82.7525 21.3081 83.7495 21.3081ZM90.4494 23.9103C90.0107 23.9103 89.6468 23.7657 89.3577 23.4766C89.0686 23.1875 88.924 22.8235 88.924 22.3849V17.8086L89.4923 14.638L91.9749 15.7148V22.3849C91.9749 22.8235 91.8303 23.1875 91.5412 23.4766C91.252 23.7657 90.8881 23.9103 90.4494 23.9103Z" fill="white"/>
</svg>
