<svg id="Capa_1" data-name="Capa 1" xmlns="http://www.w3.org/2000/svg" xmlns:xlink="http://www.w3.org/1999/xlink" width="92" height="24" viewBox="0 0 92 24"><defs><linearGradient id="Degradado_sin_nombre_62" x1="1184.46" y1="7487.68" x2="1211.19" y2="7336.07" gradientTransform="translate(4655.42 -5826.52) rotate(45)" gradientUnits="userSpaceOnUse"><stop offset="0" stop-color="#fff"/><stop offset="0.28" stop-color="#fff" stop-opacity="0.66"/><stop offset="0.54" stop-color="#fff" stop-opacity="0.38"/><stop offset="0.75" stop-color="#fff" stop-opacity="0.17"/><stop offset="0.91" stop-color="#fff" stop-opacity="0.05"/><stop offset="1" stop-color="#fff" stop-opacity="0"/></linearGradient><linearGradient id="Degradado_sin_nombre_62-2" x1="1184.34" y1="7488.34" x2="1211.3" y2="7335.41" xlink:href="#Degradado_sin_nombre_62"/><linearGradient id="Degradado_sin_nombre_62-3" x1="1184.13" y1="7489.52" x2="1211.51" y2="7334.23" xlink:href="#Degradado_sin_nombre_62"/><linearGradient id="Degradado_sin_nombre_62-4" x1="1183.8" y1="7491.41" x2="1211.85" y2="7332.34" xlink:href="#Degradado_sin_nombre_62"/><linearGradient id="Degradado_sin_nombre_62-5" x1="1183.31" y1="7494.17" x2="1212.33" y2="7329.58" xlink:href="#Degradado_sin_nombre_62"/><linearGradient id="Degradado_sin_nombre_62-6" x1="1182.64" y1="7497.95" x2="1213" y2="7325.8" xlink:href="#Degradado_sin_nombre_62"/><linearGradient id="Degradado_sin_nombre_62-7" x1="1181.78" y1="7502.85" x2="1213.86" y2="7320.9" xlink:href="#Degradado_sin_nombre_62"/><linearGradient id="Degradado_sin_nombre_62-8" x1="1180.71" y1="7508.91" x2="1214.93" y2="7314.84" xlink:href="#Degradado_sin_nombre_62"/><linearGradient id="Degradado_sin_nombre_62-9" x1="1179.44" y1="7516.14" x2="1216.21" y2="7307.61" xlink:href="#Degradado_sin_nombre_62"/><linearGradient id="Degradado_sin_nombre_62-10" x1="1177.96" y1="7524.52" x2="1217.68" y2="7299.23" xlink:href="#Degradado_sin_nombre_62"/><linearGradient id="Degradado_sin_nombre_62-11" x1="1176.29" y1="7534" x2="1219.36" y2="7289.75" xlink:href="#Degradado_sin_nombre_62"/><linearGradient id="Degradado_sin_nombre_62-12" x1="1174.43" y1="7544.51" x2="1221.21" y2="7279.24" xlink:href="#Degradado_sin_nombre_62"/><linearGradient id="Degradado_sin_nombre_62-13" x1="1172.41" y1="7555.99" x2="1223.23" y2="7267.76" xlink:href="#Degradado_sin_nombre_62"/><linearGradient id="Degradado_sin_nombre_62-14" x1="1170.24" y1="7568.32" x2="1225.41" y2="7255.43" xlink:href="#Degradado_sin_nombre_62"/><linearGradient id="Degradado_sin_nombre_62-15" x1="1167.93" y1="7581.38" x2="1227.71" y2="7242.37" xlink:href="#Degradado_sin_nombre_62"/><linearGradient id="Degradado_sin_nombre_62-16" x1="1165.52" y1="7595.04" x2="1230.12" y2="7228.71" xlink:href="#Degradado_sin_nombre_62"/><linearGradient id="Degradado_sin_nombre_62-17" x1="1163.03" y1="7609.2" x2="1232.61" y2="7214.55" xlink:href="#Degradado_sin_nombre_62"/><linearGradient id="Degradado_sin_nombre_62-18" x1="1160.4" y1="7624.08" x2="1235.24" y2="7199.67" xlink:href="#Degradado_sin_nombre_62"/><linearGradient id="Degradado_sin_nombre_62-19" x1="1157.78" y1="7638.95" x2="1237.86" y2="7184.79" xlink:href="#Degradado_sin_nombre_62"/><linearGradient id="Degradado_sin_nombre_62-20" x1="1155.17" y1="7654.2" x2="1240.6" y2="7169.73" xlink:href="#Degradado_sin_nombre_62"/><linearGradient id="Degradado_sin_nombre_62-21" x1="1152.44" y1="7669.25" x2="1243.2" y2="7154.5" xlink:href="#Degradado_sin_nombre_62"/></defs><title>Elipse Chat Logo</title><path d="M114.78,152.74c0-10,2.79-17.94,8.39-23.43,13.76-13.48,43.44-10.57,81.42,8,74.13,36.21,160.13,121.16,191.72,189.38,14.42,31.15,15.61,54.91,3.36,66.92-13.76,13.48-43.43,10.57-81.41-8C244.13,349.4,158.12,264.45,126.54,196.23,118.71,179.33,114.78,164.6,114.78,152.74ZM395.61,327l-.69.33c-31.46-67.95-117.15-152.58-191-188.65-37.37-18.25-66.41-21.26-79.68-8.26-11.75,11.52-10.44,34.66,3.69,65.18,31.46,67.94,117.14,152.57,191,188.64,37.36,18.25,66.4,21.26,79.67,8.26,11.75-11.51,10.45-34.66-3.68-65.17Z" fill="url(#Degradado_sin_nombre_62)"/><path d="M112.78,145.57c0-11.68,3.35-20.75,10-26.63,15.68-13.73,48-8.69,88.75,13.86,76.83,42.52,161.91,134.65,189.65,205.36C413.42,369.22,413,392.59,400,404c-15.68,13.74-48,8.69-88.75-13.86-76.83-42.52-161.91-134.65-189.65-205.36C115.72,169.72,112.78,156.5,112.78,145.57ZM408.55,377.34c0-10.72-2.91-23.75-8.75-38.62-27.62-70.43-112.39-162.2-189-204.58-40.13-22.21-71.84-27.33-87-14-12.45,10.91-12.73,33.67-.8,64.08,27.63,70.43,112.4,162.21,189,204.58,40.13,22.22,71.84,27.33,87,14.05C405.36,397.23,408.55,388.55,408.55,377.34Z" fill="url(#Degradado_sin_nombre_62-2)"/><path d="M111.26,139c0-13.76,4-24.19,12.08-30.46,17.81-13.91,52.89-6.48,96.24,20.39C298.74,178,382.13,277.18,405.47,350c9.86,30.77,7.74,53.62-6,64.33-17.8,13.91-52.88,6.47-96.24-20.39C224.1,344.92,140.71,245.73,117.37,172.86,113.28,160.12,111.26,148.73,111.26,139ZM410.07,383.93c0-9.56-2-20.8-6.05-33.42-23.25-72.57-106.35-171.39-185.25-220.28-42.77-26.51-77.21-34-94.49-20.49-13.16,10.29-15.1,32.54-5.45,62.66C142.07,245,225.17,343.78,304.07,392.67c42.78,26.51,77.22,34,94.49,20.49C406.21,407.19,410.07,397.17,410.07,383.93Z" fill="url(#Degradado_sin_nombre_62-3)"/><path d="M110.09,132.84c0-16.16,4.93-27.95,14.68-34.7,20.19-14,58-3.88,103.83,27.63,81.07,55.77,162,161.85,180.35,236.47,7.56,30.75,3.8,52.37-10.88,62.52-20.18,13.95-58,3.88-103.83-27.62-81.07-55.77-162-161.86-180.34-236.48A117.52,117.52,0,0,1,110.09,132.84ZM411.23,390.07a116.28,116.28,0,0,0-3.77-27.46c-18.3-74.31-98.92-180-179.72-235.58-45.25-31.13-82.46-41.2-102.1-27.63-14.11,9.76-17.66,30.82-10.25,60.89,18.29,74.31,98.91,180,179.72,235.58,45.25,31.13,82.46,41.2,102.09,27.63C406.51,417.06,411.23,405.7,411.23,390.07Z" fill="url(#Degradado_sin_nombre_62-4)"/><path d="M109.46,128c0-19.35,6-33.08,17.77-40.2C150.06,74,190.68,87,238.67,123.4,321.17,186,398.72,298.76,411.55,374.71l-.76.13.76-.13c5.08,30.1-.43,51-15.93,60.36-22.83,13.83-63.45.86-111.45-35.57-82.5-62.62-160-175.36-172.88-251.31A122.5,122.5,0,0,1,109.46,128Zm302.4,266.86A120.77,120.77,0,0,0,410,375C397.27,299.35,320,187,237.75,124.62,191,89.12,150,75.86,128,89.14c-14.92,9-20.18,29.37-15.22,58.8,12.78,75.62,90.07,187.92,172.3,250.34,46.77,35.5,87.79,48.76,109.72,35.48C406.1,426.93,411.86,413.66,411.86,394.89Z" fill="url(#Degradado_sin_nombre_62-5)"/><path d="M109.16,124.58c0-23.36,7.39-39.47,21.65-46.92,25.39-13.26,69.87,3.29,119,44.26,83.39,69.58,156.69,188.65,163.39,265.44,2.55,29.3-4.76,49.32-21.15,57.88-25.39,13.26-69.87-3.29-119-44.26-83.4-69.58-156.7-188.65-163.39-265.44C109.32,131.73,109.16,128.07,109.16,124.58ZM412.42,387.43l-.76.06c-6.67-76.43-79.72-195-162.85-264.39-48.62-40.56-92.47-57-117.29-44.08-15.8,8.25-22.84,27.75-20.34,56.39,6.67,76.44,79.72,195,162.85,264.39,48.63,40.57,92.47,57.05,117.3,44.08,15.8-8.25,22.83-27.75,20.33-56.39Z" fill="url(#Degradado_sin_nombre_62-6)"/><path d="M109.08,122.83v0c0-28.38,9.19-47.43,26.56-55.08C164.22,55.12,211.45,75.2,262,121.42,345.68,198,413.76,323,413.76,400.07v0c0,28.39-9.19,47.43-26.55,55.08-28.59,12.59-75.82-7.49-126.35-53.71C177.16,324.91,109.08,199.92,109.08,122.83ZM412.23,400.07c0-76.72-67.85-201.2-151.29-277.52-50.06-45.8-96.67-65.77-124.69-53.44-16.76,7.39-25.63,26-25.64,53.68v0c0,76.72,67.86,201.2,151.29,277.52,50.06,45.8,96.68,65.78,124.69,53.44,16.77-7.39,25.63-26,25.64-53.68Z" fill="url(#Degradado_sin_nombre_62-7)"/><path d="M109.07,122.92q0-6.67.59-12.88c2.62-27.38,13.75-45.35,32.21-52C174,46.55,223.8,70.44,275.22,122c83.4,83.59,145.28,214.08,138,290.89-2.61,27.37-13.75,45.34-32.2,52-32.09,11.51-81.94-12.38-133.36-63.92C168.73,321.84,109.08,200.78,109.07,122.92Zm303.17,277c0-77.47-59.46-198-138.11-276.87C223.14,72,173.89,48.2,142.38,59.51c-17.85,6.41-28.64,23.93-31.19,50.67-7.29,76.4,54.4,206.35,137.52,289.66C299.7,451,349,474.71,380.46,463.4c17.86-6.41,28.64-23.94,31.19-50.68Q412.25,406.56,412.24,399.93Z" fill="url(#Degradado_sin_nombre_62-8)"/><path d="M109,125.15a141.4,141.4,0,0,1,2.55-27.78c5.27-26.3,18.47-43.09,38.17-48.55,35.85-9.93,88.13,18.06,139.82,74.87,82.39,90.55,137.05,226,121.84,301.84-5.28,26.3-18.47,43.09-38.17,48.55C337.31,484,285,456,233.34,399.21,160.24,318.87,109,203.21,109,125.15Zm303.4,272.51c0-77.66-51.12-192.85-124-272.94-51.3-56.38-103-84.2-138.29-74.42C131,55.59,118.16,72,113,97.67a140.89,140.89,0,0,0-2.52,27.57c0,77.66,51.11,192.86,124,272.94,51.29,56.38,103,84.2,138.28,74.42,19.1-5.29,31.92-21.67,37.08-47.37A140.89,140.89,0,0,0,412.36,397.66Z" fill="url(#Degradado_sin_nombre_62-9)"/><path d="M108.52,129.9c0-16.65,2-31.84,6.18-45,8-25.19,23.44-40.68,44.59-44.78,39.86-7.74,94.25,24.6,145.51,86.5C385.45,224,431.81,363.71,408.14,438c-8,25.2-23.44,40.68-44.58,44.78-39.86,7.74-94.26-24.6-145.52-86.5C151.67,316.11,108.52,207.31,108.52,129.9Zm304.3,263c0-77-43-185.38-109.2-265.29-50.89-61.46-104.74-93.6-144-86C139,45.62,124,60.75,116.16,85.38c-23.52,73.85,22.71,212.87,103.06,309.91,50.9,61.46,104.74,93.61,144,86,20.55-4,35.57-19.12,43.41-43.75C410.84,424.48,412.82,409.41,412.82,392.9Z" fill="url(#Degradado_sin_nombre_62-10)"/><path d="M107.45,137.49c0-24.81,3.82-46.94,11.89-64.72C130.27,48.7,148.12,34.65,171,32.15c44-4.8,100.11,32.11,150.13,98.76C399.2,235,436.17,378.17,403.5,450.13c-10.93,24.08-28.78,38.12-51.61,40.62-44,4.81-100.12-32.11-150.14-98.75C142.94,313.64,107.45,213.1,107.45,137.49ZM413.89,385.33c0-75.23-35.39-175.39-94-253.5-49.7-66.21-105.3-102.9-148.75-98.15-22.26,2.43-39.69,16.17-50.38,39.73-32.46,71.5,4.43,214,82.23,317.67,49.7,66.2,105.3,102.89,148.75,98.14,22.27-2.43,39.69-16.17,50.39-39.72C410.11,431.87,413.89,409.93,413.89,385.33Z" fill="url(#Degradado_sin_nombre_62-11)"/><path d="M105.43,148.05c0-34.5,6.47-64.74,20.09-87C139.59,38.13,160.15,25.7,185,25.15c48.09-1.08,105.42,40.57,153.34,111.43,74.73,110.49,101.19,256.39,59,325.24-14.07,22.95-34.63,35.38-59.47,35.94-48.09,1.08-105.41-40.58-153.34-111.44C133.91,311.5,105.43,220.42,105.43,148.05ZM415.92,374.81c0-72-28.4-162.77-78.86-237.37C289.43,67,232.59,25.61,185,26.68c-24.29.54-44.41,12.72-58.19,35.2-41.92,68.39-15.47,213.55,59,323.59,47.63,70.42,104.47,111.82,152,110.76,24.29-.55,44.41-12.72,58.2-35.21C409.51,439,415.92,409,415.92,374.81Z" fill="url(#Degradado_sin_nombre_62-12)"/><path d="M102.1,161.42c0-45.63,10.16-85.26,31.22-111.45,17.54-21.8,41.19-32.37,68.38-30.55,52,3.49,109.82,50,154.75,124.31,70.47,116.6,85.3,264.27,33.08,329.2-17.55,21.81-41.19,32.37-68.39,30.55-52-3.49-109.82-50-154.75-124.31C124.34,309.59,102.1,228.94,102.1,161.42ZM419.26,361.49c0-67.21-22.19-147.58-64.12-217C310.47,70.6,253.07,24.4,201.6,21c-26.67-1.78-49.87,8.58-67.09,30-51.85,64.46-37,211.35,33.19,327.44C212.37,452.3,269.77,498.5,321.25,502c26.67,1.79,49.87-8.58,67.08-30C409.2,446,419.26,406.74,419.26,361.49Z" fill="url(#Degradado_sin_nombre_62-13)"/><path d="M97.1,177c0-58,15.17-108.15,45.71-137.43,21.48-20.6,48.66-29,78.59-24.19,55.36,8.83,112.93,60.06,154,137,65.27,122.31,67.34,270.74,4.63,330.87-21.48,20.6-48.65,29-78.59,24.19-55.35-8.83-112.93-60.06-154-137C114,307.71,97.1,238.07,97.1,177ZM424.25,346c0-60.8-16.81-130.2-50.2-192.79C333.2,76.6,276.05,25.67,221.16,16.91,191.72,12.22,165,20.44,143.87,40.7c-62.25,59.68-60,207.29,4.92,329,40.85,76.56,98,127.5,152.89,136.25,29.44,4.69,56.17-3.53,77.29-23.78C409.22,453.2,424.25,403.42,424.25,346Z" fill="url(#Degradado_sin_nombre_62-14)"/><path d="M90.12,193.84c0-71,21.88-132.65,63.95-163.76,26-19.24,57.23-24.95,90.28-16.51,58,14.81,114.33,70.59,150.75,149.2,59.09,127.55,47.28,275.62-26.32,330h0c-26,19.25-57.24,24.95-90.28,16.51-58-14.81-114.34-70.58-150.76-149.2C102.43,305.48,90.12,247.05,90.12,193.84Zm341.1,135.31c0-53-12.26-111.23-37.51-165.73C357.48,85.22,301.5,29.75,244,15.06c-32.59-8.33-63.36-2.71-89,16.25-73,54-84.65,201.25-25.85,328.18,36.23,78.2,92.21,133.66,149.75,148.36,32.58,8.32,63.35,2.7,89-16.26C409.55,460.76,431.22,399.58,431.22,329.15Z" fill="url(#Degradado_sin_nombre_62-15)"/><path d="M80.93,210.66c0-84.2,30.67-157.77,86.22-189.07C198.42,4,234.22,1.51,270.68,14.48c59.57,21.2,113.69,81.12,144.77,160.3C467.36,307,440.55,453.5,355.69,501.32c-31.27,17.62-67.07,20.07-103.53,7.1-59.57-21.19-113.68-81.12-144.77-160.3C89.47,302.46,80.93,255.08,80.93,210.66ZM440.4,312.32c0-44.24-8.51-91.46-26.38-137C383.1,96.57,329.32,37,270.17,15.93c-36-12.82-71.39-10.41-102.27,7C83.69,70.38,57.18,216,108.82,347.56c30.92,78.78,84.7,138.37,143.85,159.42,36,12.82,71.4,10.4,102.27-7h0C410,469,440.4,395.93,440.4,312.32Z" fill="url(#Degradado_sin_nombre_62-16)"/><path d="M69.39,226.25c0-97.18,41.94-182.43,112.72-212C219.47-1.32,260.38.21,300.4,18.69c59.9,27.67,110.72,91.15,135.94,169.83,43.69,136.27.8,279.87-95.61,320.11-37.36,15.59-78.26,14.06-118.29-4.42-59.9-27.67-110.72-91.15-135.94-169.82A355.44,355.44,0,0,1,69.39,226.25Zm382.54,70.46a354.07,354.07,0,0,0-17-107.73c-25.1-78.27-75.61-141.41-135.13-168.89C260.13,1.79,219.66.26,182.7,15.69,112.49,45,70.92,129.65,70.91,226.19A354.09,354.09,0,0,0,88,333.92c25.09,78.27,75.6,141.41,135.12,168.9,39.63,18.3,80.11,19.82,117.06,4.4C410.35,477.91,451.93,393.25,451.93,296.71Z" fill="url(#Degradado_sin_nombre_62-17)"/><path d="M55.47,239.64C55.47,130,111.47,33.92,199,8.29c44.36-13,90.8-6.61,134.31,18.42C393,61.1,438.37,125.72,457.67,204c34.4,139.58-25.63,278.9-133.82,310.58-44.36,13-90.81,6.62-134.31-18.42-59.74-34.38-105.07-99-124.37-177.32A331.49,331.49,0,0,1,55.47,239.64Zm410.37,43.65a329.88,329.88,0,0,0-9.66-78.9C437,126.49,391.92,62.22,332.54,28,289.41,3.22,243.38-3.1,199.43,9.77,112.57,35.19,57,130.63,57,239.61a329.88,329.88,0,0,0,9.66,78.9c19.2,77.9,64.26,142.18,123.64,176.35,43.14,24.82,89.17,31.14,133.12,18.28C410.27,487.71,465.84,392.27,465.84,283.29Z" fill="url(#Degradado_sin_nombre_62-18)"/><path d="M39.2,250.16c0-121.58,73.14-226.92,178.63-246.35,51.56-9.49,105.24,3,151.16,35.12C426.26,79,466.47,145.5,479.3,221.34,503.33,363.4,425.14,497,305,519.09c-51.55,9.49-105.24-3-151.16-35.12C96.58,443.89,56.37,377.4,43.54,301.56A310.33,310.33,0,0,1,39.2,250.16Zm442.91,22.59a307.33,307.33,0,0,0-4.32-51.15C465,146.16,425.05,80,368.12,40.19,322.53,8.28,269.26-4.1,218.11,5.32,113.36,24.61,40.74,129.31,40.74,250.15a306.18,306.18,0,0,0,4.32,51.15c12.76,75.45,52.73,141.57,109.67,181.42,45.58,31.9,98.85,44.28,150,34.86h0C409.48,498.29,482.11,393.59,482.11,272.75Z" fill="url(#Degradado_sin_nombre_62-19)"/><path d="M20.68,257.48c0-133,93.51-245.6,218-256.49C370.78-10.57,488.51,96.87,501.07,240.48,507.16,310,488,377.62,447,430.77s-98.78,85.54-162.8,91.14-126.59-16.23-176.16-61.48S27.85,352,21.77,282.42C21,274.05,20.68,265.71,20.68,257.48Zm480,8.22q0-12.48-1.1-25.08C487.06,97.84,370.07-9,238.77,2.52,115.14,13.34,22.21,125.26,22.21,257.48q0,12.3,1.08,24.81c6.06,69.17,36.52,132,85.79,177s111.4,66.65,175,61.08,121-37.72,161.73-90.55C481.57,383.4,500.65,325.89,500.65,265.7Z" fill="url(#Degradado_sin_nombre_62-20)"/><path d="M0,261.45C0,117.29,117.27,0,261.42,0S522.84,117.29,522.84,261.45,405.57,522.9,261.42,522.9,0,405.62,0,261.45Zm521.31,0c0-143.32-116.59-259.92-259.89-259.92S1.53,118.13,1.53,261.45,118.12,521.37,261.42,521.37,521.31,404.77,521.31,261.45Z" fill="url(#Degradado_sin_nombre_62-21)"/><path d="M232.59,192.17a47.42,47.42,0,0,1,17.84-18.43,49.17,49.17,0,0,1,25.24-6.6q17,0,29.09,8.05a45.75,45.75,0,0,1,17.62,22.71H310.49a34.89,34.89,0,0,0-13.28-16.11Q288.3,176,275.67,176a39,39,0,0,0-20.09,5.22,36.28,36.28,0,0,0-14,15q-5.09,9.79-5.08,22.7t5.08,22.63a36.31,36.31,0,0,0,14,14.94,39,39,0,0,0,20.09,5.22q12.61,0,21.54-5.73a34.54,34.54,0,0,0,13.28-15.88h11.89a45.15,45.15,0,0,1-17.7,22.48q-12.18,8-29,8a49.17,49.17,0,0,1-25.24-6.6,47.54,47.54,0,0,1-17.84-18.35,58,58,0,0,1,0-53.45Z" fill="#fff"/><path d="M396.44,192.82a26.92,26.92,0,0,1,11.31,11.53q4.14,7.77,4.13,18.93V269.7h-10V224.44q0-12.9-6.46-19.73t-17.63-6.81q-11.46,0-18.27,7.25t-6.82,21.32V269.7H342.54V162.36H352.7V204a26.25,26.25,0,0,1,11.1-11,36.6,36.6,0,0,1,32.64-.14Z" fill="#fff"/><path d="M434.59,208.56a34.8,34.8,0,0,1,13.49-14.22,38.23,38.23,0,0,1,19.51-5q11.31,0,19.51,5.22a30.43,30.43,0,0,1,11.82,13.34V190.5h10.16v79.2H498.92V252.15a31.72,31.72,0,0,1-12,13.42q-8.19,5.3-19.51,5.29a37.5,37.5,0,0,1-19.36-5.07,35.13,35.13,0,0,1-13.49-14.37,49.68,49.68,0,0,1,0-42.86ZM495,213.27a28,28,0,0,0-10.67-11.17,29.06,29.06,0,0,0-14.87-3.91A30,30,0,0,0,454.39,202a26.66,26.66,0,0,0-10.52,10.95A35.68,35.68,0,0,0,440,230a36.2,36.2,0,0,0,3.84,17,27,27,0,0,0,10.52,11.17A29.67,29.67,0,0,0,469.47,262a29.06,29.06,0,0,0,14.87-3.91A28,28,0,0,0,495,246.93a38.18,38.18,0,0,0,0-33.66Z" fill="#fff"/><path d="M545.49,199.06v49.17q0,7.26,2.75,10T558,261h9.29v8.7H556.36q-10.73,0-16-5t-5.22-16.47V199.06h-11V190.5h11V170.62h10.3V190.5h21.76v8.56Z" fill="#fff"/><path d="M241.41,136.52c-.56,1.24-1.39,3.18-1.59,3.59a2.83,2.83,0,0,1-2.7,1.31H226.06v-47A1.51,1.51,0,0,1,227.58,93h12.93l-1.66,3.59A2.65,2.65,0,0,1,236.22,98h-4A1.13,1.13,0,0,0,231,99.19v14.38h7.46c-.55,1.24-1.38,3.25-1.59,3.66a2.68,2.68,0,0,1-2.62,1.31h-2.08a1.21,1.21,0,0,0-1.17,1.18v16.8Z" fill="#fff"/><path d="M283,136.52c-.55,1.24-1.38,3.18-1.59,3.59a2.83,2.83,0,0,1-2.7,1.31H266.85V93h3.46a1.58,1.58,0,0,1,1.52,1.52v42Z" fill="#fff"/><path d="M307.94,93A1.89,1.89,0,0,1,310,95v46.45h-3.53c-1.17,0-1.38-.69-1.45-1V93Z" fill="#fff"/><path d="M347.72,93A6.27,6.27,0,0,1,354,99.12v12.51c0,4.7-2.28,8.09-7.05,8.09h-3v21.7h-3.52c-1.18,0-1.38-.69-1.38-1V93Zm1.52,7a2.63,2.63,0,0,0-2.63-2.35H344v17.42h2.63a2.64,2.64,0,0,0,2.63-2.35Z" fill="#fff"/><path d="M389.41,105.44V100a2.58,2.58,0,1,0-5.15,0v4.54c0,2.78,2.1,6.37,2.1,6.37l5.83,11a15.26,15.26,0,0,1,2.17,7.52v6a6.06,6.06,0,0,1-6.1,6h-3.05a6.15,6.15,0,0,1-5.9-6v-4.88a2.78,2.78,0,0,1,1.36-2.64c.4-.14,2.37-1,3.59-1.56v8.27a2.58,2.58,0,1,0,5.15-.07v-5.42c0-2.78-2.1-6.44-2.1-6.44l-5.83-10.91a15.26,15.26,0,0,1-2.17-7.52V99.34a6.29,6.29,0,0,1,6.1-6.3h3a6.31,6.31,0,0,1,5.9,6.3v1.83a2.78,2.78,0,0,1-1.36,2.64C392.6,104,390.7,104.9,389.41,105.44Z" fill="#fff"/><path d="M437.81,136.52c-.56,1.24-1.39,3.18-1.59,3.59a2.83,2.83,0,0,1-2.7,1.31H422.46v-47A1.51,1.51,0,0,1,424,93h12.93l-1.66,3.59A2.65,2.65,0,0,1,432.62,98h-4a1.13,1.13,0,0,0-1.17,1.18v14.38h7.46c-.55,1.24-1.38,3.25-1.59,3.66a2.68,2.68,0,0,1-2.62,1.31h-2.08a1.21,1.21,0,0,0-1.17,1.18v16.8Z" fill="#fff"/></svg>
