<svg width="20" height="23" viewBox="0 0 20 23" fill="none" xmlns="http://www.w3.org/2000/svg">
<path d="M10 23C11.5768 23 12.8558 21.713 12.8558 20.125H7.14421C7.14421 21.713 8.42322 23 10 23ZM19.6156 16.2747C18.7531 15.3422 17.1393 13.9393 17.1393 9.34375C17.1393 5.85332 14.7071 3.05918 11.4277 2.37367V1.4375C11.4277 0.64373 10.7884 0 10 0C9.21161 0 8.57233 0.64373 8.57233 1.4375V2.37367C5.29287 3.05918 2.86074 5.85332 2.86074 9.34375C2.86074 13.9393 1.2469 15.3422 0.384405 16.2747C0.116548 16.5645 -0.00220127 16.9108 3.08654e-05 17.25C0.00494156 17.9867 0.579493 18.6875 1.43306 18.6875H18.5669C19.4205 18.6875 19.9955 17.9867 20 17.25C20.0022 16.9108 19.8835 16.564 19.6156 16.2747Z" fill="#8769FF"/>
</svg>
