<svg width="18" height="16" viewBox="0 0 18 16" fill="none" xmlns="http://www.w3.org/2000/svg">
<path d="M17.75 4.25V13.8929C17.75 14.7801 17.0151 15.5 16.1094 15.5H1.89062C0.984863 15.5 0.25 14.7801 0.25 13.8929V4.25C0.25 3.36272 0.984863 2.64286 1.89062 2.64286H4.89844L5.31885 1.54129C5.55811 0.915178 6.16992 0.5 6.85352 0.5H11.1431C11.8267 0.5 12.4385 0.915178 12.6777 1.54129L13.1016 2.64286H16.1094C17.0151 2.64286 17.75 3.36272 17.75 4.25ZM13.1016 9.07143C13.1016 6.85491 11.2627 5.05357 9 5.05357C6.7373 5.05357 4.89844 6.85491 4.89844 9.07143C4.89844 11.2879 6.7373 13.0893 9 13.0893C11.2627 13.0893 13.1016 11.2879 13.1016 9.07143ZM12.0078 9.07143C12.0078 10.6953 10.6577 12.0179 9 12.0179C7.34229 12.0179 5.99219 10.6953 5.99219 9.07143C5.99219 7.44754 7.34229 6.125 9 6.125C10.6577 6.125 12.0078 7.44754 12.0078 9.07143Z" fill="white"/>
</svg>
