<svg width="19" height="14" viewBox="0 0 19 14" fill="none" xmlns="http://www.w3.org/2000/svg">
<path d="M18.737 7.6193L12.4034 13.7433C11.8379 14.2901 10.8577 13.9073 10.8577 13.1236V9.62418H5.73044C5.22903 9.62418 4.82564 9.23414 4.82564 8.74932V5.2499C4.82564 4.76509 5.22903 4.37505 5.73044 4.37505H10.8577V0.87563C10.8577 0.0955512 11.8341 -0.290843 12.4034 0.255941L18.737 6.37992C19.0877 6.72258 19.0877 7.27665 18.737 7.6193ZM7.23845 13.561V12.1029C7.23845 11.8623 7.03487 11.6655 6.78605 11.6655H3.61923C2.95193 11.6655 2.41282 11.1442 2.41282 10.499V3.50019C2.41282 2.85499 2.95193 2.33372 3.61923 2.33372H6.78605C7.03487 2.33372 7.23845 2.13688 7.23845 1.89629V0.438203C7.23845 0.197618 7.03487 0.000775288 6.78605 0.000775288H3.61923C1.62111 0.000775288 0 1.56822 0 3.50019V10.499C0 12.431 1.62111 13.9985 3.61923 13.9985H6.78605C7.03487 13.9985 7.23845 13.8016 7.23845 13.561Z" fill="white"/>
</svg>
