<svg width="13" height="13" viewBox="0 0 13 13" fill="none" xmlns="http://www.w3.org/2000/svg">
<path d="M12.5938 6.29688C12.5938 9.77455 9.77455 12.5938 6.29688 12.5938C2.8192 12.5938 0 9.77455 0 6.29688C0 2.8192 2.8192 0 6.29688 0C9.77455 0 12.5938 2.8192 12.5938 6.29688ZM5.56852 9.63102L10.2404 4.95914C10.399 4.8005 10.399 4.54327 10.2404 4.38463L9.66588 3.81012C9.50724 3.65145 9.25001 3.65145 9.09134 3.81012L5.28125 7.62018L3.50241 5.84134C3.34377 5.6827 3.08654 5.6827 2.92787 5.84134L2.35336 6.41586C2.19471 6.5745 2.19471 6.83173 2.35336 6.99037L4.99398 9.63099C5.15265 9.78966 5.40985 9.78966 5.56852 9.63102Z" fill="#B2B2B2"/>
</svg>
