<svg width="19" height="22" viewBox="0 0 19 22" fill="none" xmlns="http://www.w3.org/2000/svg">
<path d="M2.17952 19.4139C-0.159964 17 -0.116361 13.1073 2.23501 10.7022L10.6336 2.11135C12.408 0.296298 15.2922 0.296138 17.0667 2.11135C18.824 3.90886 18.8262 6.80908 17.0667 8.60872L9.74562 16.0901C8.55025 17.3128 6.59723 17.2957 5.42212 16.0501C4.29002 14.8502 4.32633 12.9482 5.48026 11.7678L11.2356 5.88871C11.4831 5.6359 11.8887 5.63158 12.1415 5.87906L13.0568 6.77509C13.3097 7.02261 13.314 7.42821 13.0665 7.68101L7.31176 13.5596C7.11429 13.7616 7.10212 14.0972 7.28582 14.292C7.46087 14.4775 7.73606 14.4806 7.91395 14.2986L15.2351 6.81725C16.0203 6.01399 16.0203 4.70619 15.2346 3.90249C14.4663 3.11665 13.2344 3.11625 12.4657 3.90249L4.06712 12.4933C2.67524 13.917 2.65378 16.2217 4.01943 17.6308C5.38116 19.0359 7.58231 19.0376 8.94656 17.6422L15.8357 10.5954C16.083 10.3424 16.4886 10.3378 16.7416 10.5852L17.6576 11.4806C17.9106 11.7279 17.9152 12.1335 17.6678 12.3865L10.7787 19.4333C8.39334 21.8732 4.53489 21.8443 2.17952 19.4139Z" fill="#B2B2B2"/>
</svg>
