<svg width="16" height="17" viewBox="0 0 16 17" fill="none" xmlns="http://www.w3.org/2000/svg">
<path d="M9.19719 1.13865L8.40442 0.274445C8.06874 -0.0914816 7.52595 -0.0914816 7.19384 0.274445L0.251758 7.83822C-0.0839195 8.20415 -0.0839195 8.79586 0.251758 9.15789L7.19384 16.7256C7.52952 17.0915 8.07231 17.0915 8.40442 16.7256L9.19719 15.8613C9.53644 15.4915 9.52929 14.8881 9.1829 14.5261L4.87981 10.0571H15.143C15.6179 10.0571 16 9.6406 16 9.12285V7.87715C16 7.3594 15.6179 6.94287 15.143 6.94287H4.87981L9.1829 2.47389C9.53286 2.11186 9.54001 1.50847 9.19719 1.13865Z" fill="white"/>
</svg>
