<svg width="16" height="17" viewBox="0 0 16 17" fill="none" xmlns="http://www.w3.org/2000/svg">
<path d="M6.80281 1.13865L7.59558 0.274445C7.93126 -0.0914816 8.47405 -0.0914816 8.80616 0.274445L15.7482 7.83822C16.0839 8.20415 16.0839 8.79586 15.7482 9.15789L8.80616 16.7256C8.47048 17.0915 7.92769 17.0915 7.59558 16.7256L6.80281 15.8613C6.46356 15.4915 6.47071 14.8881 6.8171 14.5261L11.1202 10.0571H0.857047C0.3821 10.0571 0 9.6406 0 9.12285V7.87715C0 7.3594 0.3821 6.94287 0.857047 6.94287H11.1202L6.8171 2.47389C6.46714 2.11186 6.45999 1.50847 6.80281 1.13865Z" fill="white"/>
</svg>
