<svg width="35" height="36" viewBox="0 0 35 36" fill="none" xmlns="http://www.w3.org/2000/svg">
<path d="M0 17.2706C0 7.7323 7.7323 0 17.2706 0C26.8088 0 34.5411 7.7323 34.5411 17.2706V18.3286C34.5411 27.8668 26.8088 35.5991 17.2706 35.5991C7.7323 35.5991 0 27.8668 0 18.3286V17.2706Z" fill="#8769FF"/>
<path d="M21.5368 16.9785H18.0672V13.4027C18.0672 12.9639 17.722 12.608 17.2962 12.608H16.5252C16.0995 12.608 15.7542 12.9639 15.7542 13.4027V16.9785H12.2847C11.8589 16.9785 11.5137 17.3343 11.5137 17.7731V18.5677C11.5137 19.0065 11.8589 19.3623 12.2847 19.3623H15.7542V22.9381C15.7542 23.3769 16.0995 23.7328 16.5252 23.7328H17.2962C17.722 23.7328 18.0672 23.3769 18.0672 22.9381V19.3623H21.5368C21.9625 19.3623 22.3078 19.0065 22.3078 18.5677V17.7731C22.3078 17.3343 21.9625 16.9785 21.5368 16.9785Z" fill="white"/>
</svg>
