<svg width="19" height="16" viewBox="0 0 19 16" fill="none" xmlns="http://www.w3.org/2000/svg">
<path d="M18.3957 6.59375H16.5957V4.71875C16.5957 4.46094 16.3932 4.25 16.1457 4.25H15.2457C14.9982 4.25 14.7957 4.46094 14.7957 4.71875V6.59375H12.9957C12.7482 6.59375 12.5457 6.80469 12.5457 7.0625V8C12.5457 8.25781 12.7482 8.46875 12.9957 8.46875H14.7957V10.3438C14.7957 10.6016 14.9982 10.8125 15.2457 10.8125H16.1457C16.3932 10.8125 16.5957 10.6016 16.5957 10.3438V8.46875H18.3957C18.6432 8.46875 18.8457 8.25781 18.8457 8V7.0625C18.8457 6.80469 18.6432 6.59375 18.3957 6.59375ZM7.1457 8C9.13414 8 10.7457 6.32129 10.7457 4.25C10.7457 2.17871 9.13414 0.5 7.1457 0.5C5.15727 0.5 3.5457 2.17871 3.5457 4.25C3.5457 6.32129 5.15727 8 7.1457 8ZM9.6657 8.9375H9.19602C8.57164 9.23633 7.87695 9.40625 7.1457 9.40625C6.41445 9.40625 5.72258 9.23633 5.09539 8.9375H4.6257C2.53883 8.9375 0.845703 10.7012 0.845703 12.875V14.0938C0.845703 14.8701 1.45039 15.5 2.1957 15.5H12.0957C12.841 15.5 13.4457 14.8701 13.4457 14.0938V12.875C13.4457 10.7012 11.7526 8.9375 9.6657 8.9375Z" fill="white"/>
</svg>
