<svg width="11" height="13" viewBox="0 0 11 13" fill="none" xmlns="http://www.w3.org/2000/svg">
<path d="M0.785714 11.7812C0.785714 12.1045 0.909885 12.4145 1.13091 12.643C1.35193 12.8716 1.65171 13 1.96429 13H9.03571C9.34829 13 9.64807 12.8716 9.86909 12.643C10.0901 12.4145 10.2143 12.1045 10.2143 11.7812V3.25H0.785714V11.7812ZM7.46429 5.28125C7.46429 5.17351 7.50568 5.07018 7.57935 4.99399C7.65303 4.9178 7.75295 4.875 7.85714 4.875C7.96134 4.875 8.06126 4.9178 8.13493 4.99399C8.20861 5.07018 8.25 5.17351 8.25 5.28125V10.9688C8.25 11.0765 8.20861 11.1798 8.13493 11.256C8.06126 11.3322 7.96134 11.375 7.85714 11.375C7.75295 11.375 7.65303 11.3322 7.57935 11.256C7.50568 11.1798 7.46429 11.0765 7.46429 10.9688V5.28125ZM5.10714 5.28125C5.10714 5.17351 5.14853 5.07018 5.22221 4.99399C5.29588 4.9178 5.39581 4.875 5.5 4.875C5.60419 4.875 5.70412 4.9178 5.77779 4.99399C5.85147 5.07018 5.89286 5.17351 5.89286 5.28125V10.9688C5.89286 11.0765 5.85147 11.1798 5.77779 11.256C5.70412 11.3322 5.60419 11.375 5.5 11.375C5.39581 11.375 5.29588 11.3322 5.22221 11.256C5.14853 11.1798 5.10714 11.0765 5.10714 10.9688V5.28125ZM2.75 5.28125C2.75 5.17351 2.79139 5.07018 2.86507 4.99399C2.93874 4.9178 3.03866 4.875 3.14286 4.875C3.24705 4.875 3.34697 4.9178 3.42065 4.99399C3.49432 5.07018 3.53571 5.17351 3.53571 5.28125V10.9688C3.53571 11.0765 3.49432 11.1798 3.42065 11.256C3.34697 11.3322 3.24705 11.375 3.14286 11.375C3.03866 11.375 2.93874 11.3322 2.86507 11.256C2.79139 11.1798 2.75 11.0765 2.75 10.9688V5.28125ZM10.6071 0.812504H7.66071L7.42991 0.3377C7.38102 0.236192 7.30571 0.150805 7.21244 0.0911462C7.11918 0.0314873 7.01167 -7.68819e-05 6.90201 4.45167e-06H4.09554C3.98612 -0.000430503 3.8788 0.031016 3.78587 0.0907413C3.69294 0.150466 3.61815 0.236055 3.57009 0.3377L3.33929 0.812504H0.392857C0.288665 0.812504 0.18874 0.855305 0.115065 0.931492C0.0413902 1.00768 0 1.11101 0 1.21875L0 2.03125C0 2.139 0.0413902 2.24233 0.115065 2.31852C0.18874 2.3947 0.288665 2.4375 0.392857 2.4375H10.6071C10.7113 2.4375 10.8113 2.3947 10.8849 2.31852C10.9586 2.24233 11 2.139 11 2.03125V1.21875C11 1.11101 10.9586 1.00768 10.8849 0.931492C10.8113 0.855305 10.7113 0.812504 10.6071 0.812504Z" fill="#B2B2B2"/>
</svg>
