<svg width="12" height="17" viewBox="0 0 12 17" fill="none" xmlns="http://www.w3.org/2000/svg">
<path d="M7 5.09302V0.843018H0.75C0.334375 0.843018 0 1.17739 0 1.59302V16.093C0 16.5086 0.334375 16.843 0.75 16.843H11.25C11.6656 16.843 12 16.5086 12 16.093V5.84302H7.75C7.3375 5.84302 7 5.50552 7 5.09302ZM9.38906 11.698L6.37594 14.6886C6.16812 14.8952 5.8325 14.8952 5.62469 14.6886L2.61156 11.698C2.29438 11.3833 2.51687 10.843 2.96312 10.843H5V8.34302C5 8.06677 5.22375 7.84302 5.5 7.84302H6.5C6.77625 7.84302 7 8.06677 7 8.34302V10.843H9.03687C9.48312 10.843 9.70563 11.3833 9.38906 11.698ZM11.7812 4.12427L8.72188 1.06177C8.58125 0.921143 8.39063 0.843018 8.19063 0.843018H8V4.84302H12V4.65239C12 4.45552 11.9219 4.26489 11.7812 4.12427Z" fill="#B2B2B2"/>
</svg>
