<svg width="22" height="22" viewBox="0 0 22 22" fill="none" xmlns="http://www.w3.org/2000/svg">
<path d="M0.9375 11C0.9375 16.6623 5.5252 21.25 11.1875 21.25C16.8498 21.25 21.4375 16.6623 21.4375 11C21.4375 5.3377 16.8498 0.75 11.1875 0.75C5.5252 0.75 0.9375 5.3377 0.9375 11ZM9.20363 9.01613C9.20363 9.74768 8.6126 10.3387 7.88105 10.3387C7.1495 10.3387 6.55847 9.74768 6.55847 9.01613C6.55847 8.28458 7.1495 7.69355 7.88105 7.69355C8.6126 7.69355 9.20363 8.28458 9.20363 9.01613ZM15.7545 9.69808C15.1428 9.15252 13.8451 9.15252 13.2334 9.69808L12.8407 10.0494C12.4977 10.3552 11.948 10.0659 12.0224 9.60302C12.1877 8.56149 13.4359 7.863 14.4981 7.863C15.5603 7.863 16.8085 8.56149 16.9738 9.60302C17.0441 10.0618 16.5026 10.3594 16.1554 10.0494L15.7545 9.69808ZM7.45948 13.8849C8.38528 14.9967 9.74093 15.629 11.1875 15.629C12.6341 15.629 13.9897 14.9925 14.9155 13.8849C15.4776 13.2153 16.4902 14.0585 15.9323 14.7322C14.7543 16.1415 13.0267 16.9516 11.1875 16.9516C9.34829 16.9516 7.62067 16.1415 6.44274 14.728C5.88478 14.0543 6.90565 13.2112 7.45948 13.8849Z" fill="#B2B2B2"/>
</svg>
