<svg width="26" height="26" viewBox="0 0 26 26" fill="none" xmlns="http://www.w3.org/2000/svg">
<path d="M13.0987 0.0952148C6.17655 0.0952148 0.566406 5.42333 0.566406 11.9991C0.566406 14.8377 1.61403 17.4359 3.35679 19.479C2.74487 22.3634 0.698582 24.933 0.674105 24.9617C0.566406 25.0933 0.537034 25.2879 0.600674 25.4596C0.664315 25.6312 0.801386 25.7343 0.958039 25.7343C4.2037 25.7343 6.63672 23.9143 7.84099 22.7926C9.44179 23.4966 11.2188 23.9029 13.0987 23.9029C20.0208 23.9029 25.6309 18.5748 25.6309 11.9991C25.6309 5.42333 20.0208 0.0952148 13.0987 0.0952148ZM6.83254 13.8304C5.96605 13.8304 5.266 13.012 5.266 11.9991C5.266 10.9861 5.96605 10.1677 6.83254 10.1677C7.69903 10.1677 8.39907 10.9861 8.39907 11.9991C8.39907 13.012 7.69903 13.8304 6.83254 13.8304ZM13.0987 13.8304C12.2322 13.8304 11.5321 13.012 11.5321 11.9991C11.5321 10.9861 12.2322 10.1677 13.0987 10.1677C13.9652 10.1677 14.6652 10.9861 14.6652 11.9991C14.6652 13.012 13.9652 13.8304 13.0987 13.8304ZM19.3648 13.8304C18.4983 13.8304 17.7983 13.012 17.7983 11.9991C17.7983 10.9861 18.4983 10.1677 19.3648 10.1677C20.2313 10.1677 20.9313 10.9861 20.9313 11.9991C20.9313 13.012 20.2313 13.8304 19.3648 13.8304Z" fill="white" fill-opacity="0.3"/>
</svg>
