<svg width="13" height="14" viewBox="0 0 13 14" fill="none" xmlns="http://www.w3.org/2000/svg">
<path d="M0 6.90144V1.71875C0 1.04564 0.545645 0.5 1.21875 0.5H6.40144C6.72467 0.500002 7.03466 0.628407 7.26322 0.856967L12.643 6.23679C13.119 6.71273 13.119 7.48441 12.643 7.96035L7.46035 13.143C6.98441 13.619 6.21273 13.619 5.73679 13.143L0.356967 7.76322C0.128407 7.53466 1.69019e-06 7.22467 0 6.90144H0ZM2.84375 2.125C2.17065 2.125 1.625 2.67065 1.625 3.34375C1.625 4.01686 2.17065 4.5625 2.84375 4.5625C3.51686 4.5625 4.0625 4.01686 4.0625 3.34375C4.0625 2.67065 3.51686 2.125 2.84375 2.125Z" fill="white"/>
</svg>
