<svg width="18" height="15" viewBox="0 0 18 15" fill="none" xmlns="http://www.w3.org/2000/svg">
<path d="M0.593262 4.21705V3.65711C0.593262 3.19324 0.949487 2.8172 1.38893 2.8172H13.3239V1.13738C13.3239 0.389614 14.1825 0.0160283 14.6822 0.543457L17.3344 3.34316C17.6451 3.67118 17.6451 4.20298 17.3344 4.53097L14.6822 7.33067C14.1844 7.85604 13.3239 7.48767 13.3239 6.73679V5.05696H1.38893C0.949487 5.05696 0.593262 4.68093 0.593262 4.21705ZM16.7718 9.53649H4.83681V7.85667C4.83681 7.11076 3.97941 6.73399 3.47851 7.26274L0.826292 10.0624C0.515585 10.3905 0.515585 10.9223 0.826292 11.2503L3.47851 14.05C3.97673 14.5758 4.83681 14.2063 4.83681 13.4561V11.7762H16.7718C17.2112 11.7762 17.5674 11.4002 17.5674 10.9363V10.3764C17.5674 9.91252 17.2112 9.53649 16.7718 9.53649Z" fill="#B2B2B2"/>
</svg>
