<svg width="88" height="81" viewBox="0 0 88 81" fill="none" xmlns="http://www.w3.org/2000/svg">
<path d="M18.4274 41.1164L18.4366 41.1123L22.5769 36.8119C22.6588 36.7027 22.7118 36.5752 22.731 36.4411C22.7502 36.3071 22.735 36.1709 22.6868 36.0451C22.6265 35.9246 22.5362 35.8214 22.4242 35.7453C22.3121 35.6692 22.182 35.6226 22.046 35.6099L16.0758 35.7721L16.0686 35.7752L11.7655 31.7333C11.6601 31.6472 11.5321 31.5921 11.3959 31.5743C11.2598 31.5565 11.1207 31.5766 10.9944 31.6323C10.8682 31.6881 10.7597 31.7773 10.6811 31.89C10.6026 32.0027 10.557 32.1343 10.5497 32.2702L10.634 38.1741L10.6289 38.1764L6.48228 42.4844C6.39956 42.5934 6.3459 42.721 6.32632 42.8553C6.30674 42.9896 6.32189 43.1261 6.37033 43.2521V43.2521C6.43079 43.3725 6.52119 43.4755 6.63318 43.5515C6.74518 43.6276 6.87515 43.6743 7.0111 43.6874L12.9802 43.5172L12.9874 43.5141L17.2914 47.558C17.3967 47.6445 17.5247 47.7 17.661 47.718C17.7974 47.7361 17.9366 47.7161 18.063 47.6602C18.1894 47.6044 18.298 47.515 18.3765 47.402C18.455 47.2891 18.5003 47.1572 18.5072 47.0211L18.4223 41.1187L18.4274 41.1164ZM68.755 54.4164L68.6344 54.4194L68.5103 54.4143C67.7139 54.3812 66.9455 54.1296 66.291 53.6878C65.6365 53.246 65.1217 52.6314 64.8043 51.9127C64.4869 51.194 64.3794 50.3995 64.4937 49.6182C64.608 48.8368 64.9397 48.0994 65.4517 47.4885L65.532 47.3943L65.615 47.3062L68.7472 44.0519L68.6833 39.5934L68.6809 39.4748L68.6868 39.3584C68.7371 38.4097 69.163 37.5166 69.7913 36.7949C69.7325 36.6617 69.6978 36.5142 69.6419 36.3821L61.8546 18.7488C61.4792 17.8987 60.7752 17.2352 59.8977 16.9044C59.0201 16.5735 58.0408 16.6024 57.1752 16.9847C56.3096 17.367 55.6286 18.0713 55.282 18.9428C54.9354 19.8142 54.9516 20.7814 55.3271 21.6316L58.5122 28.8439C58.6061 29.0565 58.6101 29.2983 58.5235 29.5161C58.4368 29.734 58.2666 29.9101 58.0502 30.0057L56.4183 30.7263C56.2019 30.8219 55.9571 30.8291 55.7377 30.7464C55.5183 30.6637 55.3423 30.4978 55.2484 30.2853L48.5242 15.0592C48.1487 14.209 47.4448 13.5456 46.5673 13.2147C45.6897 12.8839 44.7104 12.9128 43.8448 13.2951C42.9792 13.6773 42.2982 14.3817 41.9516 15.2531C41.605 16.1246 41.6212 17.0918 41.9966 17.9419L48.7209 33.168C48.8147 33.3806 48.8188 33.6224 48.7321 33.8402C48.6455 34.0581 48.4752 34.2342 48.2588 34.3298L46.6269 35.0504C46.4105 35.146 46.1657 35.1532 45.9463 35.0705C45.7269 34.9878 45.551 34.8219 45.4571 34.6094L37.3172 16.1778C36.9418 15.3276 36.2378 14.6642 35.3603 14.3333C34.4827 14.0025 33.5034 14.0314 32.6378 14.4137C31.7722 14.7959 31.0912 15.5003 30.7446 16.3717C30.398 17.2432 30.4142 18.2104 30.7897 19.0605L38.9295 37.4921C39.0234 37.7047 39.0274 37.9465 38.9408 38.1643C38.8541 38.3822 38.6839 38.5583 38.4675 38.6539L36.8356 39.3745C36.6192 39.4701 36.3744 39.4773 36.155 39.3946C35.9356 39.3119 35.7596 39.146 35.6657 38.9335L28.9415 23.7074C28.5661 22.8572 27.8621 22.1938 26.9846 21.8629C26.107 21.5321 25.1277 21.561 24.2621 21.9433C23.3965 22.3255 22.7155 23.0299 22.3689 23.9013C22.0223 24.7728 22.0385 25.74 22.4139 26.5901L33.0754 50.7315L29.2321 48.5395C28.2156 47.9612 27.0028 47.8086 25.8604 48.1153C24.7181 48.422 23.7399 49.1629 23.1409 50.1749C22.542 51.1869 22.3713 52.3873 22.6666 53.5118C22.9618 54.6364 23.6988 55.593 24.7153 56.1713L45.1616 67.8046C45.8864 68.2171 46.7017 68.4533 47.5413 68.4942C48.3809 68.5351 49.2211 68.3794 49.9934 68.0398L70.1483 59.1389C72.1106 58.2723 73.2654 56.3581 73.2848 54.3073L73.2702 54.2934L68.755 54.4164ZM50.696 47.0822L48.2066 49.6671L48.2573 53.2097C48.2527 53.2911 48.2253 53.3699 48.1781 53.4374C48.131 53.5048 48.0659 53.5583 47.9903 53.5917C47.9146 53.6251 47.8313 53.6372 47.7497 53.6266C47.6681 53.616 47.5913 53.5832 47.528 53.5317L44.9429 51.1085L41.3555 51.2072C41.2729 51.2039 41.1932 51.178 41.1253 51.1323C41.0574 51.0866 41.004 51.0229 40.9711 50.9484C40.9382 50.8739 40.9271 50.7915 40.9391 50.7105C40.951 50.6296 40.9855 50.5532 41.0387 50.49L43.5277 47.904L43.477 44.3615C43.4816 44.2801 43.509 44.2012 43.5562 44.1338C43.6033 44.0663 43.6684 44.0129 43.7441 43.9795C43.8197 43.9461 43.903 43.934 43.9846 43.9446C44.0663 43.9551 44.143 43.988 44.2063 44.0394L46.7915 46.4626L50.3793 46.3649C50.4618 46.3682 50.5415 46.3941 50.6094 46.4399C50.6773 46.4856 50.7307 46.5493 50.7636 46.6238C50.7965 46.6983 50.8076 46.7806 50.7957 46.8616C50.7837 46.9426 50.7492 47.019 50.696 47.0822ZM84.3826 43.2652C84.3225 43.1446 84.2322 43.0413 84.1201 42.9652C84.0081 42.8891 83.8779 42.8426 83.7419 42.8299L77.7717 42.9921L77.7645 42.9953L73.4606 38.9573C73.3553 38.8712 73.2273 38.8161 73.0911 38.7983C72.9549 38.7804 72.8159 38.8005 72.6896 38.8563C72.5633 38.9121 72.4548 39.0013 72.3763 39.114C72.2977 39.2266 72.2522 39.3583 72.2449 39.4942L72.3292 45.3981L72.3241 45.4003L68.1797 49.7134C68.0973 49.8224 68.0441 49.95 68.0248 50.0841C68.0056 50.2182 68.0211 50.3545 68.0698 50.4802C68.1304 50.5995 68.2207 50.7015 68.3323 50.7767C68.4439 50.8518 68.5732 50.8978 68.7083 50.9104L74.6785 50.7482L74.6857 50.7451L78.9866 54.782C79.0918 54.8685 79.2199 54.9239 79.3562 54.942C79.4925 54.9601 79.6318 54.94 79.7582 54.8842C79.8846 54.8284 79.9932 54.7389 80.0717 54.626C80.1502 54.5131 80.1954 54.3811 80.2024 54.2451L80.1175 48.3426L80.1267 48.3386L84.2665 44.0371C84.3482 43.9288 84.4013 43.8022 84.4209 43.6691C84.4405 43.536 84.4259 43.4006 84.3786 43.2754L84.3826 43.2652Z" fill="#8769FF"/>
</svg>
