<svg width="40" height="40" viewBox="0 0 40 40" fill="none" xmlns="http://www.w3.org/2000/svg">
<path d="M40 20C40 31.0481 31.0449 40 20 40C8.95508 40 0 31.0481 0 20C0 8.95831 8.95508 0 20 0C31.0449 0 40 8.95831 40 20ZM20.5367 6.6129C16.1418 6.6129 13.3387 8.46427 11.1376 11.7547C10.8524 12.181 10.9478 12.7559 11.3565 13.0658L14.1548 15.1876C14.5746 15.5059 15.1727 15.4302 15.4988 15.0165C16.9394 13.1892 17.9273 12.1296 20.12 12.1296C21.7675 12.1296 23.8053 13.1899 23.8053 14.7875C23.8053 15.9952 22.8083 16.6155 21.1816 17.5275C19.2845 18.591 16.7742 19.9146 16.7742 23.2258V23.5484C16.7742 24.0828 17.2075 24.5161 17.7419 24.5161H22.2581C22.7925 24.5161 23.2258 24.0828 23.2258 23.5484V23.4409C23.2258 21.1456 29.9344 21.05 29.9344 14.8387C29.9344 10.1611 25.0823 6.6129 20.5367 6.6129ZM20 26.6129C17.9544 26.6129 16.2903 28.277 16.2903 30.3226C16.2903 32.3681 17.9544 34.0323 20 34.0323C22.0456 34.0323 23.7097 32.3681 23.7097 30.3226C23.7097 28.277 22.0456 26.6129 20 26.6129Z" fill="#8520D0"/>
</svg>
