<svg width="28" height="20" viewBox="0 0 28 20" fill="none" xmlns="http://www.w3.org/2000/svg">
<path d="M0 8.86353V1.6875C0 0.755508 0.755508 0 1.6875 0H8.86353C9.31108 2.34027e-06 9.7403 0.177794 10.0568 0.494262L17.5057 7.94324C18.1648 8.60225 18.1648 9.67072 17.5057 10.3297L10.3297 17.5057C9.67072 18.1648 8.60225 18.1648 7.94324 17.5057L0.494262 10.0568C0.177794 9.7403 2.34027e-06 9.31108 0 8.86353H0ZM3.9375 2.25C3.00551 2.25 2.25 3.00551 2.25 3.9375C2.25 4.86949 3.00551 5.625 3.9375 5.625C4.86949 5.625 5.625 4.86949 5.625 3.9375C5.625 3.00551 4.86949 2.25 3.9375 2.25Z" fill="#B2B2B2"/>
<circle cx="19.08" cy="11.16" r="6.12" fill="#F5F5F5"/>
<path d="M19.08 12.542L18.3755 13.2518L18.3696 13.2458L19.08 12.542ZM19.08 12.542L19.7838 13.2523L19.7898 13.2464L19.08 12.542ZM20.3964 13.4537C20.3967 13.4534 20.397 13.4531 20.3973 13.4528L20.3964 13.4537ZM19.08 4.04004C15.1469 4.04004 11.96 7.22695 11.96 11.16C11.96 15.0931 15.1469 18.28 19.08 18.28C23.0131 18.28 26.2 15.0931 26.2 11.16C26.2 7.22695 23.0131 4.04004 19.08 4.04004Z" fill="#B2B2B2" stroke="#F5F5F5" stroke-width="2"/>
</svg>
