<svg width="32" height="32" viewBox="0 0 32 32" fill="none" xmlns="http://www.w3.org/2000/svg">
<path d="M0 16C0 7.16344 7.16344 0 16 0C24.8366 0 32 7.16344 32 16C32 24.8366 24.8366 32 16 32C7.16344 32 0 24.8366 0 16Z" fill="#8769FF"/>
<path d="M23 13V20.7143C23 21.4241 22.4121 22 21.6875 22H10.3125C9.58789 22 9 21.4241 9 20.7143V13C9 12.2902 9.58789 11.7143 10.3125 11.7143H12.7188L13.0551 10.833C13.2465 10.3321 13.7359 10 14.2828 10H17.7145C18.2613 10 18.7508 10.3321 18.9422 10.833L19.2812 11.7143H21.6875C22.4121 11.7143 23 12.2902 23 13ZM19.2812 16.8571C19.2812 15.0839 17.8102 13.6429 16 13.6429C14.1898 13.6429 12.7188 15.0839 12.7188 16.8571C12.7188 18.6304 14.1898 20.0714 16 20.0714C17.8102 20.0714 19.2812 18.6304 19.2812 16.8571ZM18.4062 16.8571C18.4062 18.1562 17.3262 19.2143 16 19.2143C14.6738 19.2143 13.5938 18.1562 13.5938 16.8571C13.5938 15.558 14.6738 14.5 16 14.5C17.3262 14.5 18.4062 15.558 18.4062 16.8571Z" fill="white"/>
</svg>
