<svg width="35" height="40" viewBox="0 0 35 40" fill="none" xmlns="http://www.w3.org/2000/svg">
<path d="M34.0625 12.5H0.9375C0.421875 12.5 0 12.0781 0 11.5625V8.75C0 6.67969 1.67969 5 3.75 5H7.5V0.9375C7.5 0.421875 7.92188 0 8.4375 0H11.5625C12.0781 0 12.5 0.421875 12.5 0.9375V5H22.5V0.9375C22.5 0.421875 22.9219 0 23.4375 0H26.5625C27.0781 0 27.5 0.421875 27.5 0.9375V5H31.25C33.3203 5 35 6.67969 35 8.75V11.5625C35 12.0781 34.5781 12.5 34.0625 12.5ZM0.9375 15H34.0625C34.5781 15 35 15.4219 35 15.9375V36.25C35 38.3203 33.3203 40 31.25 40H3.75C1.67969 40 0 38.3203 0 36.25V15.9375C0 15.4219 0.421875 15 0.9375 15ZM21.0391 27.5L24.7969 23.7422C25.1641 23.375 25.1641 22.7812 24.7969 22.4141L22.5859 20.2031C22.2188 19.8359 21.625 19.8359 21.2578 20.2031L17.5 23.9609L13.7422 20.2031C13.375 19.8359 12.7812 19.8359 12.4141 20.2031L10.2031 22.4141C9.83594 22.7812 9.83594 23.375 10.2031 23.7422L13.9609 27.5L10.2031 31.2578C9.83594 31.625 9.83594 32.2188 10.2031 32.5859L12.4141 34.7969C12.7812 35.1641 13.375 35.1641 13.7422 34.7969L17.5 31.0391L21.2578 34.7969C21.625 35.1641 22.2188 35.1641 22.5859 34.7969L24.7969 32.5859C25.1641 32.2188 25.1641 31.625 24.7969 31.2578L21.0391 27.5Z" fill="#FF6641"/>
</svg>
