<svg width="11" height="13" viewBox="0 0 11 13" fill="none" xmlns="http://www.w3.org/2000/svg">
<path d="M10.9993 7.71875C10.9993 10.6361 8.53771 13 5.49967 13C2.46163 13 0 10.6361 0 7.71875C0 5.07812 2.01743 2.88945 4.65357 2.50098V1.625H3.91323C3.73872 1.625 3.59594 1.48789 3.59594 1.32031V0.304688C3.59594 0.137109 3.73872 0 3.91323 0H7.08611C7.26062 0 7.4034 0.137109 7.4034 0.304688V1.32031C7.4034 1.48789 7.26062 1.625 7.08611 1.625H6.34577V2.50098C7.3373 2.64824 8.24157 3.04941 8.98191 3.6334L9.70903 2.93516C9.8333 2.81582 10.0343 2.81582 10.1585 2.93516L10.9068 3.65371C11.0311 3.77305 11.0311 3.96602 10.9068 4.08535L10.1294 4.83184L10.1136 4.84707C10.6741 5.66973 10.9993 6.65742 10.9993 7.71875ZM6.34577 8.63281V4.78613C6.34577 4.61855 6.20299 4.48145 6.02848 4.48145H4.97086C4.79635 4.48145 4.65357 4.61855 4.65357 4.78613V8.63281C4.65357 8.80039 4.79635 8.9375 4.97086 8.9375H6.02848C6.20299 8.9375 6.34577 8.80039 6.34577 8.63281Z" fill="white"/>
</svg>
