<svg width="27" height="34" viewBox="0 0 27 34" fill="none" xmlns="http://www.w3.org/2000/svg">
<path d="M27 8.09764V8.5H18V0H18.426C18.8736 2.20997e-06 19.3028 0.167903 19.6192 0.46677L26.5057 6.97066C26.8222 7.26956 27 7.67494 27 8.09764ZM17.4375 10.625C16.5094 10.625 15.75 9.90781 15.75 9.03125V0H1.6875C0.755508 0 0 0.713535 0 1.59375V32.4062C0 33.2865 0.755508 34 1.6875 34H25.3125C26.2445 34 27 33.2865 27 32.4062V10.625H17.4375ZM7.91332 11.6875C9.7773 11.6875 11.2883 13.1146 11.2883 14.875C11.2883 16.6354 9.7773 18.0625 7.91332 18.0625C6.04934 18.0625 4.53832 16.6354 4.53832 14.875C4.53832 13.1146 6.04941 11.6875 7.91332 11.6875ZM22.5383 27.625H4.53832L4.57242 24.4053L7.35082 21.7812C7.6803 21.4701 8.18044 21.5023 8.50992 21.8135L11.2883 24.4375L18.5667 17.5635C18.8962 17.2523 19.4304 17.2523 19.76 17.5635L22.5383 20.1875V27.625Z" fill="#DCDCDC"/>
</svg>
