<svg width="41" height="41" viewBox="0 0 41 41" fill="none" xmlns="http://www.w3.org/2000/svg">
<path d="M20.5 0C9.17896 0 0 9.18226 0 20.5C0 31.8243 9.17896 41 20.5 41C31.821 41 41 31.8243 41 20.5C41 9.18226 31.821 0 20.5 0ZM20.5 9.09274C22.4174 9.09274 23.9718 10.6471 23.9718 12.5645C23.9718 14.4819 22.4174 16.0363 20.5 16.0363C18.5826 16.0363 17.0282 14.4819 17.0282 12.5645C17.0282 10.6471 18.5826 9.09274 20.5 9.09274ZM25.129 30.0887C25.129 30.6365 24.6849 31.0806 24.1371 31.0806H16.8629C16.3151 31.0806 15.871 30.6365 15.871 30.0887V28.1048C15.871 27.557 16.3151 27.1129 16.8629 27.1129H17.8548V21.8226H16.8629C16.3151 21.8226 15.871 21.3784 15.871 20.8306V18.8468C15.871 18.299 16.3151 17.8548 16.8629 17.8548H22.1532C22.701 17.8548 23.1452 18.299 23.1452 18.8468V27.1129H24.1371C24.6849 27.1129 25.129 27.557 25.129 28.1048V30.0887Z" fill="#8769FF"/>
</svg>
