<svg width="26" height="26" viewBox="0 0 26 26" fill="none" xmlns="http://www.w3.org/2000/svg">
<path d="M6.04127 11.3185H2.14234C1.49633 11.3185 0.972656 11.8542 0.972656 12.5151V24.4816C0.972656 25.1425 1.49633 25.6783 2.14234 25.6783H6.04127C6.68727 25.6783 7.21094 25.1425 7.21094 24.4816V12.5151C7.21094 11.8542 6.68727 11.3185 6.04127 11.3185ZM4.0918 23.6838C3.4458 23.6838 2.92212 23.1481 2.92212 22.4872C2.92212 21.8263 3.4458 21.2905 4.0918 21.2905C4.7378 21.2905 5.26148 21.8263 5.26148 22.4872C5.26148 23.1481 4.7378 23.6838 4.0918 23.6838ZM19.6875 4.21095C19.6875 6.32583 18.4218 7.51211 18.0657 8.92515H23.0233C24.651 8.92515 25.9182 10.3086 25.9258 11.8219C25.9299 12.7163 25.558 13.6792 24.9784 14.2749L24.973 14.2804C25.4524 15.444 25.3745 17.0744 24.5194 18.2428C24.9425 19.5339 24.516 21.1199 23.721 21.9702C23.9304 22.8476 23.8303 23.5944 23.4213 24.1956C22.4266 25.6577 19.9612 25.6783 17.8764 25.6783L17.7378 25.6782C15.3844 25.6774 13.4584 24.8008 11.9108 24.0964C11.1331 23.7424 10.1163 23.3043 9.34478 23.2897C9.02604 23.2838 8.77052 23.0177 8.77052 22.6915V12.0329C8.77052 11.8733 8.833 11.7202 8.94392 11.608C10.8746 9.65626 11.7048 7.58989 13.2872 5.96823C14.0087 5.2287 14.2711 4.11163 14.5248 3.03135C14.7415 2.10888 15.1948 0.149719 16.1785 0.149719C17.3482 0.149719 19.6875 0.548603 19.6875 4.21095Z" fill="white" fill-opacity="0.3"/>
</svg>
