<svg width="17" height="15" viewBox="0 0 17 15" fill="none" xmlns="http://www.w3.org/2000/svg">
<path d="M15.4062 15H1.59375C0.713535 15 0 14.2805 0 13.3929V1.60714C0 0.719531 0.713535 0 1.59375 0H15.4062C16.2865 0 17 0.719531 17 1.60714V13.3929C17 14.2805 16.2865 15 15.4062 15ZM4.25 2.94643C3.51651 2.94643 2.92188 3.54606 2.92188 4.28571C2.92188 5.02537 3.51651 5.625 4.25 5.625C4.98349 5.625 5.57812 5.02537 5.57812 4.28571C5.57812 3.54606 4.98349 2.94643 4.25 2.94643ZM4.25 6.16071C3.51651 6.16071 2.92188 6.76035 2.92188 7.5C2.92188 8.23965 3.51651 8.83929 4.25 8.83929C4.98349 8.83929 5.57812 8.23965 5.57812 7.5C5.57812 6.76035 4.98349 6.16071 4.25 6.16071ZM4.25 9.375C3.51651 9.375 2.92188 9.97463 2.92188 10.7143C2.92188 11.4539 3.51651 12.0536 4.25 12.0536C4.98349 12.0536 5.57812 11.4539 5.57812 10.7143C5.57812 9.97463 4.98349 9.375 4.25 9.375ZM13.8125 4.82143V3.75C13.8125 3.52811 13.6341 3.34821 13.4141 3.34821H6.77344C6.5534 3.34821 6.375 3.52811 6.375 3.75V4.82143C6.375 5.04331 6.5534 5.22321 6.77344 5.22321H13.4141C13.6341 5.22321 13.8125 5.04331 13.8125 4.82143ZM13.8125 8.03571V6.96429C13.8125 6.7424 13.6341 6.5625 13.4141 6.5625H6.77344C6.5534 6.5625 6.375 6.7424 6.375 6.96429V8.03571C6.375 8.2576 6.5534 8.4375 6.77344 8.4375H13.4141C13.6341 8.4375 13.8125 8.2576 13.8125 8.03571ZM13.8125 11.25V10.1786C13.8125 9.95669 13.6341 9.77679 13.4141 9.77679H6.77344C6.5534 9.77679 6.375 9.95669 6.375 10.1786V11.25C6.375 11.4719 6.5534 11.6518 6.77344 11.6518H13.4141C13.6341 11.6518 13.8125 11.4719 13.8125 11.25Z" fill="#B2B2B2"/>
</svg>
