<svg viewBox="0 0 388 388" fill="none"
    xmlns="http://www.w3.org/2000/svg">
    <path d="M374.678 387.846C357.979 387.846 327.496 387.747 295.223 387.641C257.561 387.519 218.617 387.392 193.802 387.392C180.694 387.395 167.619 386.077 154.775 383.458C130.006 378.386 106.477 368.487 85.5314 354.325C54.3988 333.313 30.0279 303.722 15.3719 269.138C10.4203 257.425 6.64071 245.251 4.0885 232.793C-1.1571 207.044 -1.1571 180.501 4.0885 154.751C9.16192 129.984 19.0628 106.46 33.2261 85.5187C54.2441 54.3884 83.8382 30.0209 118.423 15.3693C130.138 10.4183 142.313 6.63937 154.773 4.08761C180.526 -1.15746 207.073 -1.15746 232.826 4.08761C257.596 9.15934 281.126 19.0589 302.072 33.2209C333.206 54.2336 357.577 83.8252 372.234 118.41C377.185 130.123 380.965 142.297 383.517 154.754C386.136 167.596 387.454 180.669 387.451 193.775C387.451 197.887 387.456 202.873 387.464 208.597C383.875 215.898 379.762 222.93 375.155 229.635C370.887 235.932 365.87 242.619 360.245 249.509C349.955 262.113 339.517 273.139 331.892 281.189L331.887 281.195L331.791 281.296C329.596 283.615 327.701 285.616 326.086 287.364C322.056 284.156 317.057 282.411 311.907 282.415C311.64 282.415 311.367 282.42 311.093 282.429L285.982 283.306C279.994 283.509 274.326 286.057 270.199 290.401C266.071 294.745 263.816 300.536 263.919 306.527C264.022 312.518 266.474 318.228 270.748 322.428C275.021 326.628 280.773 328.98 286.765 328.978H286.768C287.046 328.978 287.318 328.973 287.577 328.964L312.686 328.087C316.031 327.971 319.311 327.121 322.291 325.597C325.271 324.072 327.879 321.911 329.931 319.265C338.429 312.244 346.487 304.707 354.06 296.697C360.113 290.342 365.823 283.788 371.027 277.217C377.029 269.676 382.552 261.766 387.563 253.533C387.591 263.86 387.62 274.753 387.652 285.288V285.52C387.795 335.784 387.942 387.76 387.766 387.762C387.74 387.82 383.458 387.846 374.678 387.846ZM194.592 278.917C195.059 278.925 195.472 278.929 195.857 278.929V278.881C202.41 278.56 208.913 277.572 215.266 275.933C221.849 274.279 228.303 272.145 234.576 269.551C240.249 267.238 245.73 264.48 250.968 261.303C255.715 258.367 259.4 255.413 261.624 252.761C263.519 250.502 264.36 248.484 264.123 246.765C264.452 245.571 264.585 244.331 264.517 243.093C264.464 241.918 264.207 240.761 263.758 239.673C263.199 238.351 262.34 237.176 261.25 236.241C260.232 235.357 259.04 234.696 257.751 234.299C256.627 233.958 255.458 233.788 254.283 233.796C252.71 233.798 251.148 234.056 249.658 234.561C248.802 235.062 247.642 235.852 246.175 236.852C244.016 238.324 241.332 240.154 238.041 242.141C234.334 244.393 230.49 246.411 226.53 248.182C221.827 250.288 216.946 251.973 211.945 253.219C200.574 256.254 188.605 256.254 177.233 253.219C172.232 251.973 167.352 250.288 162.648 248.182C158.688 246.41 154.844 244.393 151.136 242.141C147.845 240.154 145.161 238.324 143.004 236.853C141.536 235.852 140.377 235.062 139.521 234.561C138.031 234.057 136.468 233.799 134.895 233.796C133.721 233.788 132.552 233.958 131.428 234.299C130.139 234.696 128.947 235.359 127.928 236.243C126.838 237.178 125.98 238.353 125.42 239.676C124.971 240.763 124.715 241.92 124.663 243.095C124.593 244.333 124.727 245.573 125.058 246.768C124.821 248.489 125.661 250.507 127.557 252.764C129.781 255.416 133.465 258.369 138.212 261.306C143.45 264.483 148.932 267.241 154.605 269.553C160.877 272.148 167.331 274.281 173.915 275.935C180.267 277.575 186.77 278.562 193.323 278.883V278.931H193.4C193.758 278.93 194.146 278.926 194.592 278.919V278.917ZM267.969 129.572C262.395 129.581 257.023 131.66 252.895 135.405C248.767 139.151 246.178 144.296 245.628 149.843C245.079 155.39 246.61 160.943 249.923 165.425C253.236 169.908 258.097 173 263.56 174.101C269.024 175.203 274.703 174.236 279.494 171.388C284.285 168.54 287.848 164.013 289.491 158.686C291.133 153.36 290.74 147.613 288.385 142.561C286.031 137.508 281.884 133.51 276.749 131.342C273.971 130.168 270.985 129.566 267.969 129.574L267.969 129.572ZM196.02 129.572C190.446 129.58 185.074 131.659 180.946 135.405C176.817 139.15 174.228 144.296 173.678 149.843C173.129 155.39 174.659 160.943 177.973 165.426C181.286 169.908 186.146 173.001 191.61 174.103C197.074 175.204 202.753 174.237 207.544 171.389C212.336 168.541 215.898 164.014 217.541 158.687C219.184 153.361 218.79 147.613 216.436 142.561C214.082 137.508 209.935 133.51 204.8 131.342C202.022 130.168 199.036 129.567 196.02 129.574V129.572ZM124.071 129.572C118.497 129.581 113.125 131.66 108.997 135.405C104.869 139.151 102.28 144.296 101.73 149.843C101.181 155.39 102.712 160.943 106.025 165.425C109.338 169.908 114.198 173 119.662 174.101C125.126 175.203 130.804 174.236 135.596 171.388C140.387 168.54 143.949 164.013 145.592 158.686C147.235 153.36 146.841 147.613 144.487 142.561C142.133 137.508 137.986 133.51 132.851 131.342C130.073 130.168 127.086 129.566 124.07 129.574L124.071 129.572Z" fill="white"/>
</svg>
