<svg width="22" height="17" viewBox="0 0 22 17" fill="none" xmlns="http://www.w3.org/2000/svg">
<path d="M15.734 6.01092C15.734 2.85377 12.3398 0.296631 8.15072 0.296631C3.96165 0.296631 0.567383 2.85377 0.567383 6.01092C0.567383 7.23592 1.08145 8.36449 1.9528 9.29663C1.46426 10.3752 0.658529 11.2323 0.647591 11.2431C0.567383 11.3252 0.545508 11.4466 0.592904 11.5538C0.640299 11.6609 0.742383 11.7252 0.859049 11.7252C2.19342 11.7252 3.29811 11.2859 4.0929 10.8323C5.26686 11.3931 6.65592 11.7252 8.15072 11.7252C12.3398 11.7252 15.734 9.16806 15.734 6.01092ZM20.182 13.8681C21.0533 12.9395 21.5674 11.8073 21.5674 10.5823C21.5674 8.19306 19.6169 6.14663 16.8533 5.29306C16.8861 5.52877 16.9007 5.76806 16.9007 6.01092C16.9007 9.79306 12.9742 12.8681 8.15072 12.8681C7.75697 12.8681 7.37415 12.8395 6.99499 12.8002C8.14342 14.8538 10.8413 16.2966 13.984 16.2966C15.4788 16.2966 16.8679 15.9681 18.0419 15.4038C18.8367 15.8573 19.9413 16.2966 21.2757 16.2966C21.3924 16.2966 21.4981 16.2288 21.5419 16.1252C21.5893 16.0216 21.5674 15.9002 21.4872 15.8145C21.4762 15.8038 20.6705 14.9502 20.182 13.8681Z" fill="#B2B2B2"/>
</svg>
