<svg width="20" height="16" viewBox="0 0 20 16" fill="none" xmlns="http://www.w3.org/2000/svg">
<path d="M19.0801 11.6656C19.1614 11.225 19.1614 10.775 19.0801 10.3344L19.8865 9.86875C19.9802 9.81562 20.0209 9.70625 19.9896 9.60312C19.7802 8.92812 19.4208 8.31563 18.952 7.80937C18.8801 7.73125 18.7645 7.7125 18.6707 7.76562L17.8644 8.23125C17.5237 7.94062 17.1331 7.71563 16.7111 7.56563V6.63438C16.7111 6.52813 16.6361 6.43437 16.533 6.4125C15.836 6.25625 15.1266 6.2625 14.464 6.4125C14.3609 6.43437 14.2859 6.52813 14.2859 6.63438V7.56563C13.864 7.71563 13.4733 7.94062 13.1326 8.23125L12.3263 7.76562C12.2357 7.7125 12.1169 7.73125 12.045 7.80937C11.5762 8.31563 11.2168 8.92812 11.0074 9.60312C10.9762 9.70625 11.0199 9.81562 11.1105 9.86875L11.9169 10.3344C11.8356 10.775 11.8356 11.225 11.9169 11.6656L11.1105 12.1313C11.0168 12.1844 10.9762 12.2938 11.0074 12.3969C11.2168 13.0719 11.5762 13.6813 12.045 14.1906C12.1169 14.2688 12.2325 14.2875 12.3263 14.2344L13.1326 13.7688C13.4733 14.0594 13.864 14.2844 14.2859 14.4344V15.3656C14.2859 15.4719 14.3609 15.5656 14.464 15.5875C15.161 15.7437 15.8704 15.7375 16.533 15.5875C16.6361 15.5656 16.7111 15.4719 16.7111 15.3656V14.4344C17.1331 14.2844 17.5237 14.0594 17.8644 13.7688L18.6707 14.2344C18.7614 14.2875 18.8801 14.2688 18.952 14.1906C19.4208 13.6844 19.7802 13.0719 19.9896 12.3969C20.0209 12.2938 19.9771 12.1844 19.8865 12.1313L19.0801 11.6656ZM15.5016 12.5156C14.664 12.5156 13.9859 11.8344 13.9859 11C13.9859 10.1656 14.6672 9.48438 15.5016 9.48438C16.3361 9.48438 17.0174 10.1656 17.0174 11C17.0174 11.8344 16.3392 12.5156 15.5016 12.5156ZM7.00074 8C9.21035 8 11.0012 6.20937 11.0012 4C11.0012 1.79063 9.21035 0 7.00074 0C4.79113 0 3.00032 1.79063 3.00032 4C3.00032 6.20937 4.79113 8 7.00074 8ZM13.2889 15.0781C13.217 15.0406 13.1451 14.9969 13.0764 14.9563L12.8295 15.1C12.642 15.2063 12.4294 15.2656 12.2169 15.2656C11.8763 15.2656 11.5481 15.1219 11.3137 14.8719C10.7418 14.2531 10.3042 13.5 10.0573 12.6969C9.88542 12.1437 10.1167 11.5594 10.6167 11.2688L10.8636 11.125C10.8605 11.0437 10.8605 10.9625 10.8636 10.8813L10.6167 10.7375C10.1167 10.45 9.88542 9.8625 10.0573 9.30937C10.0854 9.21875 10.1261 9.12813 10.1573 9.0375C10.0386 9.02813 9.92292 9 9.80103 9H9.2791C8.58528 9.31875 7.81332 9.5 7.00074 9.5C6.18815 9.5 5.41932 9.31875 4.72237 9H4.20044C1.88145 9 0 10.8813 0 13.2V14.5C0 15.3281 0.671946 16 1.50016 16H12.5013C12.817 16 13.1108 15.9 13.3514 15.7344C13.3139 15.6156 13.2889 15.4938 13.2889 15.3656V15.0781Z" fill="white"/>
</svg>
