<svg width="27" height="22" viewBox="0 0 27 22" fill="none" xmlns="http://www.w3.org/2000/svg">
<path d="M25.7582 16.0402C25.8679 15.4344 25.8679 14.8156 25.7582 14.2098L26.8467 13.5695C26.9733 13.4965 27.0282 13.3461 26.986 13.2043C26.7033 12.2762 26.2181 11.434 25.5852 10.7379C25.4882 10.6305 25.332 10.6047 25.2055 10.6777L24.1169 11.318C23.657 10.9184 23.1296 10.609 22.56 10.4027V9.12227C22.56 8.97617 22.4588 8.84727 22.3195 8.81719C21.3787 8.60234 20.4209 8.61094 19.5264 8.81719C19.3872 8.84727 19.2859 8.97617 19.2859 9.12227V10.4027C18.7163 10.609 18.1889 10.9184 17.7291 11.318L16.6405 10.6777C16.5181 10.6047 16.3578 10.6305 16.2608 10.7379C15.6279 11.434 15.1427 12.2762 14.86 13.2043C14.8178 13.3461 14.8769 13.4965 14.9992 13.5695L16.0878 14.2098C15.9781 14.8156 15.9781 15.4344 16.0878 16.0402L14.9992 16.6805C14.8727 16.7535 14.8178 16.9039 14.86 17.0457C15.1427 17.9738 15.6279 18.8117 16.2608 19.5121C16.3578 19.6195 16.5139 19.6453 16.6405 19.5723L17.7291 18.932C18.1889 19.3316 18.7163 19.641 19.2859 19.8473V21.1277C19.2859 21.2738 19.3872 21.4027 19.5264 21.4328C20.4673 21.6477 21.4251 21.6391 22.3195 21.4328C22.4588 21.4027 22.56 21.2738 22.56 21.1277V19.8473C23.1296 19.641 23.657 19.3316 24.1169 18.932L25.2055 19.5723C25.3278 19.6453 25.4882 19.6195 25.5852 19.5121C26.2181 18.816 26.7033 17.9738 26.986 17.0457C27.0282 16.9039 26.9691 16.7535 26.8467 16.6805L25.7582 16.0402V16.0402ZM20.9272 17.209C19.7965 17.209 18.8809 16.2723 18.8809 15.125C18.8809 13.9777 19.8007 13.041 20.9272 13.041C22.0537 13.041 22.9735 13.9777 22.9735 15.125C22.9735 16.2723 22.058 17.209 20.9272 17.209ZM9.451 11C12.434 11 14.8516 8.53789 14.8516 5.5C14.8516 2.46211 12.434 0 9.451 0C6.46803 0 4.05043 2.46211 4.05043 5.5C4.05043 8.53789 6.46803 11 9.451 11ZM17.94 20.7324C17.843 20.6809 17.7459 20.6207 17.6531 20.5648L17.3198 20.7625C17.0666 20.9086 16.7797 20.9902 16.4928 20.9902C16.0329 20.9902 15.5899 20.7926 15.2735 20.4488C14.5014 19.598 13.9107 18.5625 13.5774 17.4582C13.3453 16.6977 13.6575 15.8941 14.3326 15.4945L14.6659 15.2969C14.6617 15.1852 14.6617 15.0734 14.6659 14.9617L14.3326 14.7641C13.6575 14.3688 13.3453 13.5609 13.5774 12.8004C13.6153 12.6758 13.6702 12.5512 13.7124 12.4266C13.5521 12.4137 13.3959 12.375 13.2314 12.375H12.5268C11.5901 12.8133 10.548 13.0625 9.451 13.0625C8.35401 13.0625 7.31608 12.8133 6.3752 12.375H5.6706C2.53996 12.375 0 14.9617 0 18.15V19.9375C0 21.0762 0.907127 22 2.02521 22H16.8768C17.3029 22 17.6995 21.8625 18.0244 21.6348C17.9738 21.4715 17.94 21.3039 17.94 21.1277V20.7324Z" fill="white"/>
</svg>
