<svg width="27" height="34" viewBox="0 0 27 34" fill="none" xmlns="http://www.w3.org/2000/svg">
<path d="M12.7898 17.0066C12.4383 15.9441 12.4453 13.8922 12.6492 13.8922C13.2398 13.8922 13.1836 16.3426 12.7898 17.0066ZM12.6703 20.141C12.1289 21.4824 11.4539 23.0164 10.6734 24.3047C11.9602 23.8398 13.4156 23.1625 15.0961 22.8504C14.2031 22.2129 13.3453 21.2965 12.6703 20.141ZM6.05391 28.4285C6.05391 28.4816 6.98203 28.0699 8.50781 25.759C8.03672 26.1773 6.46172 27.3859 6.05391 28.4285ZM17.4375 10.625H27V32.4062C27 33.2895 26.2477 34 25.3125 34H1.6875C0.752344 34 0 33.2895 0 32.4062V1.59375C0 0.710547 0.752344 0 1.6875 0H15.75V9.03125C15.75 9.90781 16.5094 10.625 17.4375 10.625ZM16.875 22.0336C15.4688 21.2234 14.5336 20.1078 13.8727 18.4609C14.1891 17.2324 14.6883 15.3664 14.3086 14.1977C13.9781 12.2453 11.3273 12.4379 10.9477 13.7461C10.5961 14.9613 10.9195 16.6746 11.5172 18.8594C10.7016 20.6922 9.49922 23.1492 8.64844 24.557C8.64141 24.557 8.64141 24.5637 8.63438 24.5637C6.72891 25.4867 3.45938 27.5187 4.80234 29.0793C5.19609 29.5375 5.92734 29.7434 6.31406 29.7434C7.57266 29.7434 8.82422 28.548 10.6102 25.6395C12.4242 25.075 14.4141 24.3711 16.1648 24.0988C17.6906 24.8824 19.4766 25.3937 20.6648 25.3937C22.718 25.3937 22.8586 23.2687 22.05 22.5117C21.0727 21.6086 18.232 21.8676 16.875 22.0336ZM26.5078 6.97266L19.6172 0.464844C19.3008 0.166016 18.8719 0 18.4219 0H18V8.5H27V8.09492C27 7.67656 26.8242 7.27148 26.5078 6.97266ZM21.2977 23.9262C21.5859 23.7469 21.1219 23.1359 18.2883 23.3285C20.8969 24.3777 21.2977 23.9262 21.2977 23.9262Z" fill="#DCDCDC"/>
</svg>
