<svg width="13" height="13" viewBox="0 0 13 13" fill="none" xmlns="http://www.w3.org/2000/svg">
<path d="M12.642 3.60625L11.4714 4.7768C11.3521 4.89614 11.1591 4.89614 11.0398 4.7768L8.22126 1.95833C8.10192 1.83899 8.10192 1.64601 8.22126 1.52667L9.39183 0.356118C9.86665 -0.118706 10.6386 -0.118706 11.1159 0.356118L12.642 1.88215C13.1193 2.35698 13.1193 3.12888 12.642 3.60625ZM7.21575 2.53218L0.547861 9.20002L0.00955506 12.2851C-0.0640812 12.7015 0.299022 13.0621 0.715447 12.991L3.80055 12.4502L10.4684 5.78231C10.5878 5.66297 10.5878 5.46999 10.4684 5.35065L7.64995 2.53218C7.52807 2.41284 7.33509 2.41284 7.21575 2.53218ZM3.15052 8.62871C3.01087 8.48906 3.01087 8.26561 3.15052 8.12596L7.06086 4.21565C7.20051 4.07599 7.42396 4.07599 7.56362 4.21565C7.70327 4.3553 7.70327 4.57875 7.56362 4.7184L3.65328 8.62871C3.51362 8.76837 3.29018 8.76837 3.15052 8.62871ZM2.23388 10.7641H3.45268V11.6859L1.81491 11.9728L1.02523 11.1831L1.31215 9.54535H2.23388V10.7641Z" fill="#B2B2B2"/>
</svg>
