<svg width="23" height="23" viewBox="0 0 23 23" fill="none" xmlns="http://www.w3.org/2000/svg">
<path fill-rule="evenodd" clip-rule="evenodd" d="M0 10.4787C0 4.90976 5.04566 0.3974 11.2713 0.3974C17.4969 0.3974 22.5426 4.90976 22.5426 10.4787C22.5426 16.0477 17.4969 20.56 11.2713 20.56C9.5806 20.56 7.98236 20.2159 6.54263 19.6198C5.45953 20.5697 3.27132 22.111 0.352228 22.111C0.211337 22.111 0.088057 22.0238 0.0308199 21.8784C-0.0264171 21.733 0 21.5682 0.0968627 21.4567C0.118877 21.4325 1.95927 19.2563 2.50962 16.8135C0.94221 15.0832 0 12.8827 0 10.4787ZM4.94655 10.4065C4.94655 7.08891 7.71625 4.40094 11.1347 4.40094C14.5532 4.40094 17.3229 7.08891 17.3229 10.4065C17.3229 13.7241 14.5532 16.4121 11.1347 16.4121C7.71625 16.4121 4.94655 13.7241 4.94655 10.4065ZM10.3587 11.3267L12.5595 12.879C12.6942 12.9734 12.8814 12.9443 12.9787 12.816L13.6823 11.8764C13.7797 11.7456 13.7522 11.564 13.6175 11.4696L12.033 10.3508V7.01627C12.033 6.85644 11.8983 6.72567 11.7336 6.72567H10.5359C10.3712 6.72567 10.2364 6.85644 10.2364 7.01627V11.0918C10.2364 11.1838 10.2813 11.271 10.3587 11.3267Z" fill="white" fill-opacity="0.3"/>
</svg>
