<svg width="16" height="17" viewBox="0 0 16 17" fill="none" xmlns="http://www.w3.org/2000/svg">
<path d="M14 6.84302V3.25708C14 2.99177 13.8947 2.7377 13.7072 2.54989L12.2928 1.13583C12.1053 0.94833 11.8509 0.843018 11.5856 0.843018H3C2.44781 0.843018 2 1.29083 2 1.84302V6.84302C0.895313 6.84302 0 7.73833 0 8.84302V12.343C0 12.6193 0.22375 12.843 0.5 12.843H2V15.843C2 16.3952 2.44781 16.843 3 16.843H13C13.5522 16.843 14 16.3952 14 15.843V12.843H15.5C15.7762 12.843 16 12.6193 16 12.343V8.84302C16 7.73833 15.1047 6.84302 14 6.84302ZM12 14.843H4V11.843H12V14.843ZM12 7.84302H4V2.84302H10V4.34302C10 4.61927 10.2238 4.84302 10.5 4.84302H12V7.84302ZM13.5 10.093C13.0859 10.093 12.75 9.75708 12.75 9.34302C12.75 8.92864 13.0859 8.59302 13.5 8.59302C13.9141 8.59302 14.25 8.92864 14.25 9.34302C14.25 9.75708 13.9141 10.093 13.5 10.093Z" fill="#B2B2B2"/>
</svg>
