<svg width="7" height="11" viewBox="0 0 7 11" fill="none" xmlns="http://www.w3.org/2000/svg">
<path d="M3.66428 0.823486C2.14696 0.823486 1.16418 1.45586 0.392607 2.58366C0.25264 2.78824 0.295791 3.06875 0.491038 3.21934L1.31107 3.85184C1.50826 4.00392 1.78882 3.96836 1.9432 3.77163C2.41936 3.16481 2.77258 2.81543 3.51637 2.81543C4.10118 2.81543 4.82453 3.19829 4.82453 3.77515C4.82453 4.21124 4.47063 4.4352 3.89319 4.76451C3.21982 5.14854 2.32873 5.62647 2.32873 6.82206V7.01133C2.32873 7.26764 2.53298 7.47542 2.78496 7.47542H4.1626C4.41457 7.47542 4.61882 7.26764 4.61882 7.01133V6.8997C4.61882 6.07091 7.00011 6.0364 7.00011 3.79365C7.00013 2.10468 5.27783 0.823486 3.66428 0.823486ZM3.47379 8.04507C2.7477 8.04507 2.15698 8.64597 2.15698 9.38457C2.15698 10.1231 2.7477 10.724 3.47379 10.724C4.19987 10.724 4.79059 10.1231 4.79059 9.38455C4.79059 8.64595 4.19987 8.04507 3.47379 8.04507Z" fill="#FFA14A"/>
</svg>
