<svg width="15" height="20" viewBox="0 0 15 20" fill="none" xmlns="http://www.w3.org/2000/svg">
<path d="M13.125 2.5H10C10 1.12109 8.87891 0 7.5 0C6.12109 0 5 1.12109 5 2.5H1.875C0.839844 2.5 0 3.33984 0 4.375V18.125C0 19.1602 0.839844 20 1.875 20H13.125C14.1602 20 15 19.1602 15 18.125V4.375C15 3.33984 14.1602 2.5 13.125 2.5ZM7.5 1.5625C8.01953 1.5625 8.4375 1.98047 8.4375 2.5C8.4375 3.01953 8.01953 3.4375 7.5 3.4375C6.98047 3.4375 6.5625 3.01953 6.5625 2.5C6.5625 1.98047 6.98047 1.5625 7.5 1.5625ZM12.2344 10.6172L6.64844 16.1562C6.46484 16.3398 6.16797 16.3359 5.98438 16.1523L2.75781 12.8984C2.57422 12.7148 2.57812 12.418 2.76172 12.2344L3.87109 11.1328C4.05469 10.9492 4.35156 10.9531 4.53516 11.1367L6.33203 12.9492L10.4727 8.83984C10.6562 8.65625 10.9531 8.66016 11.1367 8.84375L12.2383 9.95312C12.4219 10.1406 12.418 10.4336 12.2344 10.6172Z" fill="#8520D0"/>
</svg>
