<svg viewBox="0 0 17 17" fill="none" xmlns="http://www.w3.org/2000/svg">
<path d="M16.2889 14.4618L13.073 11.2049C12.9279 11.0579 12.7311 10.9762 12.5247 10.9762H11.9989C12.8892 9.82305 13.4182 8.37262 13.4182 6.79479C13.4182 3.04132 10.4152 0 6.70908 0C3.00296 0 0 3.04132 0 6.79479C0 10.5483 3.00296 13.5896 6.70908 13.5896C8.26701 13.5896 9.69914 13.0538 10.8377 12.1522V12.6847C10.8377 12.8938 10.9184 13.093 11.0635 13.24L14.2794 16.497C14.5826 16.804 15.0729 16.804 15.3728 16.497L16.2857 15.5725C16.5888 15.2654 16.5888 14.7689 16.2889 14.4618ZM6.70908 10.9762C4.42864 10.9762 2.58042 9.10763 2.58042 6.79479C2.58042 4.48522 4.42541 2.61338 6.70908 2.61338C8.98952 2.61338 10.8377 4.48195 10.8377 6.79479C10.8377 9.10437 8.99275 10.9762 6.70908 10.9762Z" />
</svg>
