<svg width="28" height="20" viewBox="0 0 28 20" fill="none" xmlns="http://www.w3.org/2000/svg">
<path d="M4.2 8.57143C5.74437 8.57143 7 7.29018 7 5.71429C7 4.13839 5.74437 2.85714 4.2 2.85714C2.65563 2.85714 1.4 4.13839 1.4 5.71429C1.4 7.29018 2.65563 8.57143 4.2 8.57143ZM23.8 8.57143C25.3444 8.57143 26.6 7.29018 26.6 5.71429C26.6 4.13839 25.3444 2.85714 23.8 2.85714C22.2556 2.85714 21 4.13839 21 5.71429C21 7.29018 22.2556 8.57143 23.8 8.57143ZM25.2 10H22.4C21.63 10 20.9344 10.317 20.4269 10.8304C22.19 11.817 23.4412 13.5982 23.7125 15.7143H26.6C27.3744 15.7143 28 15.0759 28 14.2857V12.8571C28 11.2812 26.7444 10 25.2 10ZM14 10C16.7081 10 18.9 7.76339 18.9 5C18.9 2.23661 16.7081 0 14 0C11.2919 0 9.1 2.23661 9.1 5C9.1 7.76339 11.2919 10 14 10ZM17.36 11.4286H16.9969C16.0869 11.875 15.0763 12.1429 14 12.1429C12.9237 12.1429 11.9175 11.875 11.0031 11.4286H10.64C7.8575 11.4286 5.6 13.7321 5.6 16.5714V17.8571C5.6 19.0402 6.54063 20 7.7 20H20.3C21.4594 20 22.4 19.0402 22.4 17.8571V16.5714C22.4 13.7321 20.1425 11.4286 17.36 11.4286ZM7.57313 10.8304C7.06563 10.317 6.37 10 5.6 10H2.8C1.25563 10 0 11.2812 0 12.8571V14.2857C0 15.0759 0.625625 15.7143 1.4 15.7143H4.28312C4.55875 13.5982 5.81 11.817 7.57313 10.8304Z" fill="white"/>
</svg>
