<svg width="19" height="19" viewBox="0 0 19 19" fill="none" xmlns="http://www.w3.org/2000/svg">
<path d="M9.5 0C4.25273 0 0 3.94844 0 8.82143C0 10.925 0.794141 12.8504 2.11523 14.3645C1.65137 16.502 0.100195 18.4062 0.0816406 18.4275C0 18.525 -0.0222656 18.6692 0.0259766 18.7964C0.0742187 18.9237 0.178125 19 0.296875 19C2.75723 19 4.60156 17.6513 5.51445 16.8201C6.72793 17.3417 8.075 17.6429 9.5 17.6429C14.7473 17.6429 19 13.6944 19 8.82143C19 3.94844 14.7473 0 9.5 0ZM4.75 10.1786C4.09316 10.1786 3.5625 9.5721 3.5625 8.82143C3.5625 8.07076 4.09316 7.46429 4.75 7.46429C5.40684 7.46429 5.9375 8.07076 5.9375 8.82143C5.9375 9.5721 5.40684 10.1786 4.75 10.1786ZM9.5 10.1786C8.84316 10.1786 8.3125 9.5721 8.3125 8.82143C8.3125 8.07076 8.84316 7.46429 9.5 7.46429C10.1568 7.46429 10.6875 8.07076 10.6875 8.82143C10.6875 9.5721 10.1568 10.1786 9.5 10.1786ZM14.25 10.1786C13.5932 10.1786 13.0625 9.5721 13.0625 8.82143C13.0625 8.07076 13.5932 7.46429 14.25 7.46429C14.9068 7.46429 15.4375 8.07076 15.4375 8.82143C15.4375 9.5721 14.9068 10.1786 14.25 10.1786Z" fill="white"/>
</svg>
