<svg width="24" height="20" viewBox="0 0 24 20" fill="none" xmlns="http://www.w3.org/2000/svg">
<path d="M4.8 13.75H1.2C0.537375 13.75 0 14.3098 0 15V18.75C0 19.4402 0.537375 20 1.2 20H4.8C5.46263 20 6 19.4402 6 18.75V15C6 14.3098 5.46263 13.75 4.8 13.75ZM3.9 10.625H11.1V12.5H12.9V10.625H20.1V12.5H21.9V10.2504C21.9 9.42344 21.2539 8.75 20.4596 8.75H12.9V6.25H14.4C15.0626 6.25 15.6 5.69023 15.6 5V1.25C15.6 0.559766 15.0626 0 14.4 0H9.6C8.93738 0 8.4 0.559766 8.4 1.25V5C8.4 5.69023 8.93738 6.25 9.6 6.25H11.1V8.75H3.54038C2.74613 8.75 2.1 9.42305 2.1 10.2504V12.5H3.9V10.625ZM13.8 13.75H10.2C9.53738 13.75 9 14.3098 9 15V18.75C9 19.4402 9.53738 20 10.2 20H13.8C14.4626 20 15 19.4402 15 18.75V15C15 14.3098 14.4626 13.75 13.8 13.75ZM22.8 13.75H19.2C18.5374 13.75 18 14.3098 18 15V18.75C18 19.4402 18.5374 20 19.2 20H22.8C23.4626 20 24 19.4402 24 18.75V15C24 14.3098 23.4626 13.75 22.8 13.75Z" fill="white"/>
</svg>
