<svg width="26" height="26" viewBox="0 0 26 26" fill="none" xmlns="http://www.w3.org/2000/svg">
<path d="M25.1169 26C23.9969 26 21.9526 25.9933 19.7883 25.9863C17.2626 25.978 14.6508 25.9696 12.9867 25.9696C12.1076 25.9698 11.2307 25.8814 10.3694 25.7057C8.70828 25.3656 7.13037 24.7017 5.72569 23.752C3.63782 22.3428 2.00343 20.3583 1.02055 18.039C0.688474 17.2535 0.435002 16.4371 0.263841 15.6016C-0.087947 13.8747 -0.087947 12.0947 0.263841 10.3679C0.604082 8.7069 1.26807 7.12924 2.21791 5.72487C3.62745 3.63716 5.61214 2.00299 7.93151 1.0204C8.71713 0.688373 9.53369 0.434945 10.3692 0.263814C12.0964 -0.0879381 13.8767 -0.0879381 15.6038 0.263814C17.265 0.603942 18.8429 1.26784 20.2476 2.21759C22.3356 3.62678 23.97 5.61129 24.9529 7.93068C25.285 8.71617 25.5385 9.53259 25.7096 10.368C25.8853 11.2292 25.9737 12.106 25.9735 12.9849C25.9735 13.2606 25.9738 13.5951 25.9743 13.9789C25.7337 14.4686 25.4578 14.9401 25.1489 15.3898C24.8626 15.8121 24.5262 16.2605 24.1489 16.7226C23.4589 17.5679 22.7588 18.3073 22.2475 18.8472L22.2471 18.8476L22.2407 18.8544C22.0935 19.0099 21.9664 19.1441 21.8581 19.2613C21.5879 19.0462 21.2526 18.9292 20.9072 18.9294C20.8894 18.9294 20.871 18.9297 20.8526 18.9304L19.1686 18.9892C18.767 19.0028 18.3869 19.1737 18.1101 19.465C17.8333 19.7563 17.6821 20.1447 17.689 20.5465C17.6959 20.9482 17.8603 21.3312 18.1469 21.6128C18.4335 21.8945 18.8193 22.0522 19.2211 22.0521H19.2213C19.24 22.0521 19.2582 22.0518 19.2756 22.0512L20.9595 21.9923C21.1838 21.9846 21.4037 21.9276 21.6036 21.8253C21.8035 21.7231 21.9784 21.5781 22.116 21.4007C22.6859 20.9299 23.2263 20.4244 23.7342 19.8872C24.1401 19.461 24.523 19.0215 24.872 18.5808C25.2745 18.0751 25.6449 17.5446 25.981 16.9925C25.9829 17.6851 25.9848 18.4156 25.9869 19.1221V19.1376C25.9965 22.5086 26.0064 25.9942 25.9946 25.9944C25.9928 25.9982 25.7057 26 25.1169 26ZM13.0397 18.6949C13.071 18.6954 13.0987 18.6956 13.1245 18.6956V18.6924C13.564 18.6709 14.0001 18.6047 14.4261 18.4947C14.8676 18.3838 15.3004 18.2407 15.7211 18.0667C16.1016 17.9116 16.4692 17.7267 16.8204 17.5136C17.1388 17.3167 17.3859 17.1186 17.5351 16.9408C17.6622 16.7892 17.7185 16.6539 17.7026 16.5386C17.7247 16.4585 17.7336 16.3753 17.7291 16.2924C17.7255 16.2135 17.7083 16.1359 17.6782 16.063C17.6407 15.9743 17.5831 15.8955 17.51 15.8328C17.4417 15.7736 17.3617 15.7292 17.2753 15.7026C17.1999 15.6797 17.1215 15.6683 17.0428 15.6689C16.9373 15.669 16.8325 15.6863 16.7326 15.7202C16.6751 15.7537 16.5974 15.8067 16.499 15.8738C16.3542 15.9725 16.1742 16.0953 15.9535 16.2285C15.7049 16.3795 15.4471 16.5148 15.1816 16.6336C14.8661 16.7748 14.5388 16.8879 14.2034 16.9715C13.4408 17.1749 12.6382 17.1749 11.8755 16.9715C11.5402 16.8879 11.2128 16.7748 10.8974 16.6336C10.6318 16.5148 10.374 16.3795 10.1254 16.2285C9.90465 16.0952 9.72463 15.9725 9.57999 15.8739C9.48153 15.8067 9.40384 15.7537 9.34639 15.7202C9.24646 15.6864 9.1417 15.6691 9.0362 15.6689C8.95744 15.6683 8.87905 15.6797 8.80368 15.7026C8.71723 15.7292 8.63729 15.7737 8.56897 15.833C8.49586 15.8957 8.43829 15.9745 8.40078 16.0632C8.37066 16.1361 8.35347 16.2137 8.34996 16.2925C8.3453 16.3755 8.35425 16.4587 8.37646 16.5388C8.36057 16.6542 8.41694 16.7896 8.54404 16.9409C8.6932 17.1188 8.94031 17.3168 9.25866 17.5137C9.60994 17.7268 9.97753 17.9118 10.358 18.0668C10.7787 18.2409 11.2115 18.3839 11.653 18.4949C12.079 18.6048 12.5151 18.671 12.9546 18.6925V18.6958H12.9597C12.9838 18.6957 13.0098 18.6955 13.0397 18.695V18.6949ZM17.9606 8.67923C17.5868 8.67982 17.2265 8.81924 16.9497 9.07043C16.6729 9.32162 16.4992 9.66666 16.4624 10.0387C16.4255 10.4107 16.5282 10.7831 16.7504 11.0837C16.9726 11.3843 17.2985 11.5917 17.6649 11.6655C18.0314 11.7394 18.4122 11.6746 18.7335 11.4835C19.0548 11.2925 19.2937 10.989 19.4039 10.6317C19.5141 10.2745 19.4877 9.88914 19.3298 9.5503C19.1719 9.21146 18.8938 8.94332 18.5494 8.79794C18.3631 8.71919 18.1628 8.67887 17.9606 8.67935L17.9606 8.67923ZM13.1354 8.67923C12.7616 8.67981 12.4014 8.8192 12.1245 9.07039C11.8476 9.32158 11.674 9.66665 11.6371 10.0387C11.6003 10.4107 11.7029 10.7831 11.9251 11.0837C12.1473 11.3843 12.4733 11.5917 12.8397 11.6656C13.2061 11.7395 13.587 11.6746 13.9083 11.4836C14.2296 11.2926 14.4685 10.989 14.5787 10.6318C14.6889 10.2746 14.6625 9.88915 14.5046 9.5503C14.3467 9.21145 14.0686 8.94333 13.7242 8.79794C13.5379 8.7192 13.3377 8.67888 13.1354 8.67935V8.67923ZM8.31029 8.67923C7.93649 8.67982 7.57623 8.81924 7.29939 9.07043C7.02255 9.32162 6.84888 9.66666 6.81204 10.0387C6.77521 10.4107 6.87786 10.7831 7.10006 11.0837C7.32227 11.3843 7.64819 11.5917 8.01462 11.6655C8.38105 11.7394 8.76186 11.6746 9.08317 11.4835C9.40449 11.2925 9.64341 10.989 9.75359 10.6317C9.86377 10.2745 9.83735 9.88914 9.67947 9.5503C9.52158 9.21146 9.24348 8.94332 8.89911 8.79794C8.7128 8.71919 8.51251 8.67887 8.31025 8.67935L8.31029 8.67923Z" fill="white"/>
</svg>
