<svg width="12" height="8" viewBox="0 0 12 8" fill="none" xmlns="http://www.w3.org/2000/svg">
<path d="M11.7727 2.64167C11.8641 2.57708 12 2.6375 12 2.73958V7C12 7.55208 11.4961 8 10.875 8H1.125C0.503906 8 0 7.55208 0 7V2.74167C0 2.6375 0.133594 2.57917 0.227344 2.64375C0.752344 3.00625 1.44844 3.46667 3.83906 5.01042C4.33359 5.33125 5.16797 6.00625 6 6.00208C6.83672 6.00833 7.6875 5.31875 8.16328 5.01042C10.5539 3.46667 11.2477 3.00417 11.7727 2.64167ZM6 5.33333C6.54375 5.34167 7.32656 4.725 7.72031 4.47083C10.8305 2.46458 11.0672 2.28958 11.7844 1.78958C11.9203 1.69583 12 1.55 12 1.39583V1C12 0.447917 11.4961 0 10.875 0H1.125C0.503906 0 0 0.447917 0 1V1.39583C0 1.55 0.0796875 1.69375 0.215625 1.78958C0.932813 2.2875 1.16953 2.46458 4.27969 4.47083C4.67344 4.725 5.45625 5.34167 6 5.33333Z" fill="white"/>
</svg>
