<svg width="24" height="24" viewBox="0 0 24 24" fill="none" xmlns="http://www.w3.org/2000/svg">
<path d="M17.5733 22.1333L14.8933 17.4933C16.2 16.5333 17.1067 15.04 17.2933 13.3333H22.6667C22.5566 15.0943 22.0393 16.8056 21.1554 18.3326C20.2716 19.8597 19.0454 21.1607 17.5733 22.1333ZM13.3333 5.37333V0C19.0667 0.346667 23.6533 4.93333 24 10.6667H18.6267C18.4778 9.31394 17.8722 8.05238 16.9099 7.09008C15.9476 6.12778 14.6861 5.52224 13.3333 5.37333ZM5.33336 12.6667C5.33336 13.52 5.5067 14.3333 5.84003 15.0667L1.20004 17.7467C0.406472 16.1711 -0.0046389 14.4308 3.94863e-05 12.6667C3.94863e-05 6.62667 4.72003 1.69333 10.6667 1.33333V6.70667C7.66669 7.04 5.33336 9.57333 5.33336 12.6667ZM11.3334 24C7.37336 24 3.89337 22 1.8667 18.9067L6.5067 16.2267C7.06182 16.9852 7.78848 17.6016 8.62732 18.0257C9.46617 18.4497 10.3934 18.6694 11.3334 18.6667C12.1867 18.6667 13 18.4933 13.7333 18.16L16.4133 22.8C14.88 23.5733 13.16 24 11.3334 24Z" fill="white"/>
</svg>
