<svg width="11" height="11" viewBox="0 0 11 11" fill="none" xmlns="http://www.w3.org/2000/svg">
<path d="M5.5 0C2.46211 0 0 2.28594 0 5.10714C0 6.325 0.459766 7.43973 1.22461 8.3163C0.956055 9.5538 0.0580078 10.6563 0.0472656 10.6685C0 10.725 -0.0128906 10.8085 0.0150391 10.8821C0.0429688 10.9558 0.103125 11 0.171875 11C1.59629 11 2.66406 10.2192 3.19258 9.73795C3.89512 10.04 4.675 10.2143 5.5 10.2143C8.53789 10.2143 11 7.92835 11 5.10714C11 2.28594 8.53789 0 5.5 0ZM2.75 5.89286C2.36973 5.89286 2.0625 5.54174 2.0625 5.10714C2.0625 4.67254 2.36973 4.32143 2.75 4.32143C3.13027 4.32143 3.4375 4.67254 3.4375 5.10714C3.4375 5.54174 3.13027 5.89286 2.75 5.89286ZM5.5 5.89286C5.11973 5.89286 4.8125 5.54174 4.8125 5.10714C4.8125 4.67254 5.11973 4.32143 5.5 4.32143C5.88027 4.32143 6.1875 4.67254 6.1875 5.10714C6.1875 5.54174 5.88027 5.89286 5.5 5.89286ZM8.25 5.89286C7.86973 5.89286 7.5625 5.54174 7.5625 5.10714C7.5625 4.67254 7.86973 4.32143 8.25 4.32143C8.63027 4.32143 8.9375 4.67254 8.9375 5.10714C8.9375 5.54174 8.63027 5.89286 8.25 5.89286Z" fill="white"/>
</svg>
