<svg viewBox="0 0 13 12" fill="none" xmlns="http://www.w3.org/2000/svg">
<path fill-rule="evenodd" clip-rule="evenodd" d="M0.961914 5.57143C0.961914 2.49375 3.48493 0 6.59797 0C9.71101 0 12.234 2.49375 12.234 5.57143C12.234 8.64911 9.71101 11.1429 6.59797 11.1429C5.75256 11.1429 4.95339 10.9527 4.23347 10.6232C3.69188 11.1482 2.59769 12 1.13804 12C1.06759 12 1.00595 11.9518 0.977325 11.8714C0.948705 11.7911 0.961914 11.7 1.01035 11.6384C1.02136 11.625 1.94162 10.4223 2.21682 9.07232C1.43305 8.11607 0.961914 6.9 0.961914 5.57143ZM3.43737 5.53161C3.43737 3.69814 4.82233 2.21264 6.53168 2.21264C8.24104 2.21264 9.62599 3.69814 9.62599 5.53161C9.62599 7.36507 8.24104 8.85057 6.53168 8.85057C4.82233 8.85057 3.43737 7.36507 3.43737 5.53161ZM6.14365 6.04016L7.24412 6.898C7.3115 6.9502 7.40508 6.93414 7.45374 6.86321L7.80559 6.34395C7.85425 6.27168 7.84053 6.17131 7.77315 6.11912L6.98086 5.50082V3.658C6.98086 3.56967 6.91348 3.4974 6.83113 3.4974H6.23223C6.14988 3.4974 6.08251 3.56967 6.08251 3.658V5.91034C6.08251 5.9612 6.10497 6.00938 6.14365 6.04016Z"/>
</svg>
