<svg width="39" height="39" viewBox="0 0 39 39" fill="none" xmlns="http://www.w3.org/2000/svg">
<path d="M39 19.5C39 30.2696 30.2696 39 19.5 39C8.73042 39 0 30.2696 0 19.5C0 8.73042 8.73042 0 19.5 0C30.2696 0 39 8.73042 39 19.5ZM17.2444 29.8251L31.7122 15.3574C32.2035 14.8661 32.2035 14.0695 31.7122 13.5782L29.9331 11.7991C29.4418 11.3077 28.6452 11.3077 28.1538 11.7991L16.3548 23.598L10.8462 18.0893C10.3549 17.598 9.5583 17.598 9.06695 18.0893L7.28781 19.8685C6.79654 20.3597 6.79654 21.1563 7.28781 21.6476L15.4652 29.825C15.9566 30.3164 16.7531 30.3164 17.2444 29.8251Z" fill="white"/>
</svg>
