<svg width="27" height="27" viewBox="0 0 27 27" fill="none" xmlns="http://www.w3.org/2000/svg">
<path d="M5.48438 11.8125H1.26563C0.566631 11.8125 0 12.3791 0 13.0781V25.7344C0 26.4334 0.566631 27 1.26563 27H5.48438C6.18337 27 6.75 26.4334 6.75 25.7344V13.0781C6.75 12.3791 6.18337 11.8125 5.48438 11.8125ZM3.375 24.8906C2.67601 24.8906 2.10938 24.324 2.10938 23.625C2.10938 22.926 2.67601 22.3594 3.375 22.3594C4.074 22.3594 4.64063 22.926 4.64063 23.625C4.64063 24.324 4.074 24.8906 3.375 24.8906ZM20.25 4.29532C20.25 6.5321 18.8805 7.78676 18.4952 9.28125H23.8595C25.6206 9.28125 26.9917 10.7444 27 12.345C27.0044 13.291 26.602 14.3093 25.9749 14.9394L25.9691 14.9452C26.4878 16.1758 26.4034 17.9003 25.4782 19.1359C25.936 20.5015 25.4746 22.1789 24.6143 23.0782C24.841 24.0062 24.7326 24.796 24.2901 25.4318C23.2138 26.9782 20.5462 27 18.2903 27L18.1403 26.9999C15.5939 26.9991 13.5099 26.0719 11.8354 25.3269C10.9939 24.9526 9.89366 24.4892 9.05888 24.4738C8.71399 24.4675 8.43751 24.186 8.43751 23.8411V12.5681C8.43751 12.3993 8.50511 12.2374 8.62513 12.1187C10.7142 10.0545 11.6124 7.86902 13.3247 6.15389C14.1053 5.37173 14.3893 4.19027 14.6638 3.04773C14.8983 2.07209 15.3888 0 16.4531 0C17.7188 0 20.25 0.421875 20.25 4.29532Z" fill="white" />
</svg>
