<svg width="12" height="13" viewBox="0 0 12 13" fill="none" xmlns="http://www.w3.org/2000/svg">
<path d="M8.05633 6.5L11.3778 2.80423C11.7854 2.35071 11.7854 1.6154 11.3778 1.16151L10.6397 0.340142C10.2321 -0.113381 9.57121 -0.113381 9.16328 0.340142L5.84177 4.03591L2.52026 0.340142C2.11266 -0.113381 1.45181 -0.113381 1.04388 0.340142L0.305697 1.16151C-0.101899 1.61503 -0.101899 2.35034 0.305697 2.80423L3.62721 6.5L0.305697 10.1958C-0.101899 10.6493 -0.101899 11.3846 0.305697 11.8385L1.04388 12.6599C1.45148 13.1134 2.11266 13.1134 2.52026 12.6599L5.84177 8.96409L9.16328 12.6599C9.57088 13.1134 10.2321 13.1134 10.6397 12.6599L11.3778 11.8385C11.7854 11.385 11.7854 10.6497 11.3778 10.1958L8.05633 6.5Z" fill="#FFFF"/>
</svg>
