<svg width="8" height="11" viewBox="0 0 8 11" fill="none" xmlns="http://www.w3.org/2000/svg">
<path d="M7.66667 1.03125C7.85 1.03125 8 0.876563 8 0.6875V0.34375C8 0.154688 7.85 0 7.66667 0H0.333333C0.15 0 0 0.154688 0 0.34375V0.6875C0 0.876563 0.15 1.03125 0.333333 1.03125H0.666667V4.39785C0.245833 4.61484 0 4.8748 0 5.15625C0 6.6 0.720833 7.86758 1.80833 8.60449L1.3625 10.1127C1.23125 10.5531 1.55208 11 2 11H6C6.44792 11 6.76875 10.5531 6.6375 10.1127L6.19167 8.60449C7.27917 7.86758 8 6.6 8 5.15625C8 4.8748 7.75417 4.61484 7.33333 4.39785V1.03125H7.66667ZM1.66667 1.54688C1.66667 1.45234 1.74167 1.375 1.83333 1.375H2.83333C2.925 1.375 3 1.45234 3 1.54688V1.89063C3 1.98516 2.925 2.0625 2.83333 2.0625H1.83333C1.74167 2.0625 1.66667 1.98516 1.66667 1.89063V1.54688ZM4 5.84375C2.39375 5.84375 1.09167 5.53652 1.09167 5.15625C1.09167 4.77598 2.39375 4.46875 4 4.46875C5.60625 4.46875 6.90833 4.77598 6.90833 5.15625C6.90833 5.53652 5.60625 5.84375 4 5.84375Z" fill="white"/>
</svg>
