<svg viewBox="0 0 1486 380" fill="none"
    xmlns="http://www.w3.org/2000/svg">
    <path d="M123.917 379.999C100.403 379.999 79.3046 374.121 60.6222 362.364C41.9398 350.607 27.2033 334.662 16.4126 314.531C5.6219 294.399 0.226562 271.609 0.226562 246.163C0.226562 220.716 6.10507 197.846 17.8621 177.553C29.2895 157.592 45.7916 141.006 65.6954 129.478C85.8273 117.721 108.456 111.843 133.58 111.843C158.705 111.843 181.252 117.721 201.223 129.478C221.022 141.061 237.433 157.639 248.815 177.553C260.572 197.846 266.45 220.716 266.45 246.163H247.607C247.607 271.609 242.212 294.399 231.421 314.531C220.63 334.662 205.894 350.607 187.211 362.364C168.529 374.121 147.431 379.999 123.917 379.999ZM133.58 336.514C150.008 336.514 164.664 332.569 177.548 324.677C190.411 316.808 200.924 305.628 207.988 292.305C215.396 278.615 219.1 263.235 219.1 246.163C219.1 228.769 215.396 213.227 207.988 199.537C200.924 186.214 190.411 175.034 177.548 167.165C164.664 159.273 150.008 155.328 133.58 155.328C117.475 155.328 102.899 159.273 89.8537 167.165C76.8499 175.013 66.1753 186.188 58.9311 199.537C51.3615 213.227 47.5767 228.769 47.5767 246.163C47.5767 263.235 51.3615 278.615 58.9311 292.305C66.1753 305.654 76.8499 316.829 89.8537 324.677C102.899 332.569 117.475 336.514 133.58 336.514ZM241.809 378.55C234.723 378.55 228.844 376.215 224.174 371.544C219.503 366.873 217.168 360.995 217.168 353.908V279.984L226.348 228.769L266.45 246.163V353.908C266.45 360.995 264.115 366.873 259.445 371.544C254.774 376.215 248.895 378.55 241.809 378.55ZM369.365 378.067C362.278 378.067 356.4 375.731 351.729 371.061C347.059 366.39 344.723 360.512 344.723 353.425V138.417C344.723 131.008 347.059 125.049 351.729 120.54C356.4 116.03 362.278 113.775 369.365 113.775C376.773 113.775 382.732 116.03 387.242 120.54C391.751 125.049 394.006 131.008 394.006 138.417V353.425C394.006 360.512 391.751 366.39 387.242 371.061C382.732 375.731 376.773 378.067 369.365 378.067ZM369.365 70.7738C360.93 70.6998 352.862 67.3163 346.898 61.3519C340.933 55.3876 337.55 47.3194 337.476 38.8849C337.428 34.695 338.24 30.5398 339.86 26.6757C341.481 22.8116 343.876 19.3205 346.897 16.4177C349.829 13.4341 353.326 11.0643 357.183 9.44666C361.041 7.829 365.182 6.99586 369.365 6.99586C373.548 6.99586 377.689 7.829 381.546 9.44666C385.403 11.0643 388.9 13.4341 391.832 16.4177C394.815 19.3494 397.185 22.846 398.803 26.7035C400.42 30.5609 401.254 34.702 401.254 38.8849C401.254 43.0678 400.42 47.2088 398.803 51.0663C397.185 54.9237 394.815 58.4203 391.832 61.352C388.929 64.3738 385.438 66.7688 381.574 68.3893C377.71 70.0097 373.554 70.8212 369.365 70.7738ZM548.619 378.067C534.446 378.067 521.884 374.201 510.932 366.471C499.98 358.74 491.444 348.191 485.324 334.823C479.204 321.456 476.144 306.075 476.144 288.681V24.8731C476.144 17.7867 478.399 11.9887 482.908 7.47915C487.418 2.96961 493.216 0.714844 500.302 0.714844C507.389 0.714844 513.187 2.96961 517.696 7.47915C522.206 11.9887 524.461 17.7867 524.461 24.8731V288.681C524.461 300.599 526.715 310.424 531.225 318.154C535.734 325.885 541.532 329.75 548.619 329.75H560.698C567.14 329.75 572.374 332.005 576.401 336.514C580.427 341.024 582.44 346.822 582.44 353.908C582.44 360.995 579.38 366.793 573.26 371.302C567.14 375.812 559.248 378.067 549.585 378.067H548.619ZM726.424 379.999C702.909 379.999 681.811 374.121 663.129 362.364C644.447 350.607 629.71 334.662 618.919 314.531C608.129 294.399 602.733 271.609 602.733 246.163C602.733 220.716 608.612 197.846 620.369 177.553C631.796 157.592 648.298 141.006 668.202 129.478C688.334 117.721 710.962 111.843 736.087 111.843C761.211 111.843 783.759 117.721 803.73 129.478C823.528 141.061 839.939 157.639 851.322 177.553C863.079 197.846 868.957 220.716 868.957 246.163H850.114C850.114 271.609 844.718 294.399 833.928 314.531C823.137 334.662 808.4 350.607 789.718 362.364C771.036 374.121 749.938 379.999 726.424 379.999ZM736.087 336.514C752.514 336.514 767.17 332.569 780.055 324.677C792.918 316.808 803.431 305.628 810.494 292.305C817.903 278.615 821.607 263.235 821.607 246.163C821.607 228.769 817.903 213.227 810.494 199.537C803.431 186.214 792.918 175.034 780.055 167.165C767.17 159.273 752.514 155.328 736.087 155.328C719.981 155.328 705.406 159.273 692.36 167.165C679.357 175.013 668.682 186.188 661.438 199.537C653.868 213.227 650.083 228.769 650.083 246.163C650.083 263.235 653.868 278.615 661.438 292.305C668.682 305.654 679.357 316.829 692.36 324.677C705.406 332.569 719.981 336.514 736.087 336.514ZM844.316 378.55C837.229 378.55 831.351 376.215 826.68 371.544C822.01 366.873 819.674 360.995 819.674 353.908V279.984L828.854 228.769L868.957 246.163V353.908C868.957 360.995 866.622 366.873 861.951 371.544C857.281 376.215 851.402 378.55 844.316 378.55ZM1005.21 378.067C991.037 378.067 978.475 374.201 967.523 366.471C956.571 358.74 948.035 348.191 941.915 334.823C935.795 321.456 932.735 306.075 932.735 288.681V24.8731C932.735 17.7867 934.99 11.9887 939.499 7.47915C944.009 2.96961 949.807 0.714844 956.893 0.714844C963.98 0.714844 969.778 2.96961 974.287 7.47915C978.797 11.9887 981.051 17.7867 981.051 24.8731V288.681C981.051 300.599 983.306 310.424 987.816 318.154C992.325 325.885 998.123 329.75 1005.21 329.75H1017.29C1023.73 329.75 1028.97 332.005 1032.99 336.514C1037.02 341.024 1039.03 346.822 1039.03 353.908C1039.03 360.995 1035.97 366.793 1029.85 371.302C1023.73 375.812 1015.84 378.067 1006.18 378.067H1005.21ZM1116.82 378.067C1109.73 378.067 1103.86 375.731 1099.19 371.061C1094.51 366.39 1092.18 360.512 1092.18 353.425V138.417C1092.18 131.008 1094.51 125.049 1099.19 120.54C1103.86 116.03 1109.73 113.775 1116.82 113.775C1124.23 113.775 1130.19 116.03 1134.7 120.54C1139.21 125.049 1141.46 131.008 1141.46 138.417V353.425C1141.46 360.512 1139.21 366.39 1134.7 371.061C1130.19 375.731 1124.23 378.067 1116.82 378.067ZM1116.82 70.7738C1108.39 70.7 1100.32 67.3166 1094.35 61.3522C1088.39 55.3878 1085.01 47.3195 1084.93 38.8849C1084.88 34.695 1085.7 30.5399 1087.32 26.6757C1088.94 22.8116 1091.33 19.3205 1094.35 16.4177C1097.29 13.4341 1100.78 11.0643 1104.64 9.44666C1108.5 7.829 1112.64 6.99586 1116.82 6.99586C1121 6.99586 1125.14 7.829 1129 9.44666C1132.86 11.0643 1136.36 13.4341 1139.29 16.4177C1142.27 19.3495 1144.64 22.8461 1146.26 26.7036C1147.88 30.561 1148.71 34.702 1148.71 38.8849C1148.71 43.0678 1147.88 47.2088 1146.26 51.0662C1144.64 54.9236 1142.27 58.4203 1139.29 61.352C1136.39 64.3738 1132.89 66.7688 1129.03 68.3893C1125.17 70.0097 1121.01 70.8212 1116.82 70.7738ZM1343.43 379.999C1319.91 379.999 1298.81 374.121 1280.13 362.364C1261.45 350.607 1246.71 334.662 1235.92 314.531C1225.13 294.399 1219.73 271.609 1219.73 246.163C1219.73 220.716 1225.61 197.846 1237.37 177.553C1248.8 157.592 1265.3 141.006 1285.2 129.478C1305.34 117.721 1327.96 111.843 1353.09 111.843C1378.21 111.843 1400.76 117.721 1420.73 129.478C1440.53 141.061 1456.94 157.639 1468.32 177.553C1480.08 197.846 1485.96 220.716 1485.96 246.163H1467.12C1467.12 271.609 1461.72 294.399 1450.93 314.531C1440.14 334.662 1425.4 350.607 1406.72 362.364C1388.04 374.121 1366.94 379.999 1343.43 379.999ZM1353.09 336.514C1369.52 336.514 1384.17 332.569 1397.06 324.677C1409.92 316.808 1420.43 305.628 1427.5 292.305C1434.9 278.615 1438.61 263.235 1438.61 246.163C1438.61 228.769 1434.9 213.227 1427.5 199.537C1420.43 186.214 1409.92 175.034 1397.06 167.165C1384.17 159.273 1369.52 155.328 1353.09 155.328C1336.98 155.328 1322.41 159.273 1309.36 167.165C1296.36 175.013 1285.68 186.188 1278.44 199.537C1270.87 213.227 1267.09 228.769 1267.09 246.163C1267.09 263.235 1270.87 278.615 1278.44 292.305C1285.68 305.654 1296.36 316.829 1309.36 324.677C1322.41 332.569 1336.98 336.514 1353.09 336.514ZM1461.32 378.55C1454.23 378.55 1448.35 376.215 1443.68 371.544C1439.01 366.873 1436.68 360.995 1436.68 353.908V279.984L1445.86 228.769L1485.96 246.163V353.908C1485.96 360.995 1483.62 366.873 1478.95 371.544C1474.28 376.215 1468.4 378.55 1461.32 378.55Z" fill="white"/>
</svg>
