<svg width="78" height="76" viewBox="0 0 78 76" fill="none" xmlns="http://www.w3.org/2000/svg">
<mask id="mask0" mask-type="alpha" maskUnits="userSpaceOnUse" x="0" y="0" width="78" height="76">
<rect width="77.0909" height="75.3778" rx="37.6889" fill="#F5F5F5"/>
</mask>
<g mask="url(#mask0)">
<rect width="77.0909" height="75.3778" rx="37.6889" fill="#F5F5F5"/>
<path d="M38.7306 48.0259C47.0431 48.0259 53.7802 41.4374 53.7802 33.3083C53.7802 25.1791 47.0431 18.5906 38.7306 18.5906C30.418 18.5906 23.681 25.1791 23.681 33.3083C23.681 41.4374 30.418 48.0259 38.7306 48.0259ZM49.2653 51.7053H47.3018C44.6916 52.8781 41.7875 53.545 38.7306 53.545C35.6736 53.545 32.7813 52.8781 30.1594 51.7053H28.1959C19.4718 51.7053 12.3938 58.6272 12.3938 67.1588V71.942C12.3938 74.989 14.9216 77.4611 18.0374 77.4611H59.4238C62.5395 77.4611 65.0674 74.989 65.0674 71.942V67.1588C65.0674 58.6272 57.9894 51.7053 49.2653 51.7053Z" fill="#DCDCDC"/>
</g>
</svg>
