<svg width="31" height="38" viewBox="0 0 31 38" fill="none" xmlns="http://www.w3.org/2000/svg">
<path d="M18 10.0938V0H2.375C1.33594 0 0.5 0.794141 0.5 1.78125V36.2188C0.5 37.2059 1.33594 38 2.375 38H28.625C29.6641 38 30.5 37.2059 30.5 36.2188V11.875H19.875C18.8438 11.875 18 11.0734 18 10.0938ZM23.0922 26.1257H18V32.0632C18 32.7193 17.4406 33.2507 16.75 33.2507H14.25C13.5594 33.2507 13 32.7193 13 32.0632V26.1257H7.90781C6.79219 26.1257 6.23516 24.8425 7.02734 24.0951L14.5602 16.9924C15.0797 16.5018 15.9188 16.5018 16.4383 16.9924L23.9711 24.0951C24.7641 24.8425 24.2078 26.1257 23.0922 26.1257ZM29.9531 7.79297L22.3047 0.519531C21.9531 0.185547 21.4766 0 20.9766 0H20.5V9.5H30.5V9.04727C30.5 8.57969 30.3047 8.12695 29.9531 7.79297Z" fill="#B2B2B2"/>
</svg>
