<svg width="19" height="15" viewBox="0 0 19 15" fill="none" xmlns="http://www.w3.org/2000/svg">
<path d="M18.525 6.09375H16.625V4.21875C16.625 3.96094 16.4112 3.75 16.15 3.75H15.2C14.9388 3.75 14.725 3.96094 14.725 4.21875V6.09375H12.825C12.5638 6.09375 12.35 6.30469 12.35 6.5625V7.5C12.35 7.75781 12.5638 7.96875 12.825 7.96875H14.725V9.84375C14.725 10.1016 14.9388 10.3125 15.2 10.3125H16.15C16.4112 10.3125 16.625 10.1016 16.625 9.84375V7.96875H18.525C18.7862 7.96875 19 7.75781 19 7.5V6.5625C19 6.30469 18.7862 6.09375 18.525 6.09375ZM6.65 7.5C8.74891 7.5 10.45 5.82129 10.45 3.75C10.45 1.67871 8.74891 0 6.65 0C4.55109 0 2.85 1.67871 2.85 3.75C2.85 5.82129 4.55109 7.5 6.65 7.5ZM9.31 8.4375H8.81422C8.15516 8.73633 7.42188 8.90625 6.65 8.90625C5.87812 8.90625 5.14781 8.73633 4.48578 8.4375H3.99C1.78719 8.4375 0 10.2012 0 12.375V13.5938C0 14.3701 0.638281 15 1.425 15H11.875C12.6617 15 13.3 14.3701 13.3 13.5938V12.375C13.3 10.2012 11.5128 8.4375 9.31 8.4375Z" fill="#B2B2B2"/>
</svg>
