<svg width="32" height="29" viewBox="0 0 32 29" fill="none" xmlns="http://www.w3.org/2000/svg">
<path d="M24.3167 12.5987C20.5016 12.5987 17.415 16.0544 17.415 20.3257C17.415 24.597 20.5016 28.0527 24.3167 28.0527C28.1319 28.0527 31.2185 24.597 31.2185 20.3257C31.2185 16.0544 28.1319 12.5987 24.3167 12.5987ZM27.3842 20.6637C27.3842 20.9481 27.1733 21.1842 26.9193 21.1842H24.0148C23.7608 21.1842 23.5499 20.9481 23.5499 20.6637V16.5534C23.5499 16.269 23.7608 16.0329 24.0148 16.0329H24.6187C24.8727 16.0329 25.0836 16.269 25.0836 16.5534V19.4671H26.9193C27.1733 19.4671 27.3842 19.7032 27.3842 19.9876V20.6637ZM15.8812 20.3257C15.8812 18.834 16.2023 17.4227 16.7535 16.1671C16.3701 16.0866 15.9771 16.0329 15.5745 16.0329H14.7741C13.71 16.5803 12.5262 16.8915 11.28 16.8915C10.0339 16.8915 8.85483 16.5803 7.78602 16.0329H6.9856C3.42927 16.0329 0.543945 19.2632 0.543945 23.2448V25.477C0.543945 26.899 1.57442 28.0527 2.84454 28.0527H19.4807C17.3095 26.3409 15.8812 23.5184 15.8812 20.3257ZM11.28 14.3158C14.6686 14.3158 17.415 11.2411 17.415 7.4474C17.415 3.65367 14.6686 0.578979 11.28 0.578979C7.89146 0.578979 5.14513 3.65367 5.14513 7.4474C5.14513 11.2411 7.89146 14.3158 11.28 14.3158Z" fill="white" fill-opacity="0.3"/>
</svg>
