<svg width="5" height="16" viewBox="0 0 5 16" fill="none" xmlns="http://www.w3.org/2000/svg">
<path d="M2.5 5.82258C3.88194 5.82258 5 6.79637 5 8C5 9.20363 3.88194 10.1774 2.5 10.1774C1.11806 10.1774 0 9.20363 0 8C0 6.79637 1.11806 5.82258 2.5 5.82258ZM0 2.67742C0 3.88105 1.11806 4.85484 2.5 4.85484C3.88194 4.85484 5 3.88105 5 2.67742C5 1.47379 3.88194 0.5 2.5 0.5C1.11806 0.5 0 1.47379 0 2.67742ZM0 13.3226C0 14.5262 1.11806 15.5 2.5 15.5C3.88194 15.5 5 14.5262 5 13.3226C5 12.119 3.88194 11.1452 2.5 11.1452C1.11806 11.1452 0 12.119 0 13.3226Z" fill="#DCDCDC"/>
</svg>
