<svg width="24" height="18" viewBox="0 0 24 18" fill="none" xmlns="http://www.w3.org/2000/svg">
<path d="M22.8639 9.53086L18.7239 7.94883C18.5766 7.89258 18.2711 7.81875 17.9261 7.94883L13.7861 9.53086C13.4016 9.67852 13.15 10.023 13.15 10.4062C13.15 14.3297 15.6189 17.0437 17.9261 17.9262C18.2711 18.0562 18.573 17.9824 18.7239 17.9262C20.5675 17.223 23.5 14.7832 23.5 10.4062C23.5 10.023 23.2484 9.67852 22.8639 9.53086ZM18.325 16.2563V9.6082L21.757 10.9195C21.5558 13.9816 19.5684 15.6797 18.325 16.2563ZM8.55 9C11.0908 9 13.15 6.98555 13.15 4.5C13.15 2.01445 11.0908 0 8.55 0C6.00922 0 3.95 2.01445 3.95 4.5C3.95 6.98555 6.00922 9 8.55 9ZM12 10.4062C12 10.3184 12.0288 10.2375 12.0395 10.1531C11.9497 10.1496 11.8634 10.125 11.77 10.125H11.1698C10.372 10.4836 9.48438 10.6875 8.55 10.6875C7.61562 10.6875 6.73156 10.4836 5.93016 10.125H5.33C2.66344 10.125 0.5 12.2414 0.5 14.85V16.3125C0.5 17.2441 1.27266 18 2.225 18H14.875C15.1194 18 15.353 17.9473 15.565 17.8594C13.6244 16.3512 12 13.7566 12 10.4062Z" fill="#8769FF"/>
</svg>
