<svg width="23" height="18" viewBox="0 0 23 18" fill="none" xmlns="http://www.w3.org/2000/svg">
<path d="M22.3639 9.53086L18.2239 7.94883C18.0766 7.89258 17.7711 7.81875 17.4261 7.94883L13.2861 9.53086C12.9016 9.67852 12.65 10.023 12.65 10.4062C12.65 14.3297 15.1189 17.0437 17.4261 17.9262C17.7711 18.0562 18.073 17.9824 18.2239 17.9262C20.0675 17.223 23 14.7832 23 10.4062C23 10.023 22.7484 9.67852 22.3639 9.53086ZM17.825 16.2563V9.6082L21.257 10.9195C21.0558 13.9816 19.0684 15.6797 17.825 16.2563ZM8.05 9C10.5908 9 12.65 6.98555 12.65 4.5C12.65 2.01445 10.5908 0 8.05 0C5.50922 0 3.45 2.01445 3.45 4.5C3.45 6.98555 5.50922 9 8.05 9ZM11.5 10.4062C11.5 10.3184 11.5288 10.2375 11.5395 10.1531C11.4497 10.1496 11.3634 10.125 11.27 10.125H10.6698C9.87203 10.4836 8.98438 10.6875 8.05 10.6875C7.11562 10.6875 6.23156 10.4836 5.43016 10.125H4.83C2.16344 10.125 0 12.2414 0 14.85V16.3125C0 17.2441 0.772656 18 1.725 18H14.375C14.6194 18 14.853 17.9473 15.065 17.8594C13.1244 16.3512 11.5 13.7566 11.5 10.4062Z" fill="#8769FF"/>
</svg>
