<svg width="27" height="18" viewBox="0 0 27 18" fill="none" xmlns="http://www.w3.org/2000/svg">
<path d="M4.4 7.71429C5.83406 7.71429 7 6.56116 7 5.14286C7 3.72455 5.83406 2.57143 4.4 2.57143C2.96594 2.57143 1.8 3.72455 1.8 5.14286C1.8 6.56116 2.96594 7.71429 4.4 7.71429ZM22.6 7.71429C24.0341 7.71429 25.2 6.56116 25.2 5.14286C25.2 3.72455 24.0341 2.57143 22.6 2.57143C21.1659 2.57143 20 3.72455 20 5.14286C20 6.56116 21.1659 7.71429 22.6 7.71429ZM23.9 9H21.3C20.585 9 19.9391 9.28527 19.4678 9.74732C21.105 10.6353 22.2669 12.2384 22.5187 14.1429H25.2C25.9191 14.1429 26.5 13.5683 26.5 12.8571V11.5714C26.5 10.1531 25.3341 9 23.9 9ZM13.5 9C16.0147 9 18.05 6.98705 18.05 4.5C18.05 2.01295 16.0147 0 13.5 0C10.9853 0 8.95 2.01295 8.95 4.5C8.95 6.98705 10.9853 9 13.5 9ZM16.62 10.2857H16.2828C15.4378 10.6875 14.4994 10.9286 13.5 10.9286C12.5006 10.9286 11.5662 10.6875 10.7172 10.2857H10.38C7.79625 10.2857 5.7 12.3589 5.7 14.9143V16.0714C5.7 17.1362 6.57344 18 7.65 18H19.35C20.4266 18 21.3 17.1362 21.3 16.0714V14.9143C21.3 12.3589 19.2037 10.2857 16.62 10.2857ZM7.53219 9.74732C7.06094 9.28527 6.415 9 5.7 9H3.1C1.66594 9 0.5 10.1531 0.5 11.5714V12.8571C0.5 13.5683 1.08094 14.1429 1.8 14.1429H4.47719C4.73312 12.2384 5.895 10.6353 7.53219 9.74732Z" fill="#B2B2B2"/>
</svg>
