<svg width="24" height="21" viewBox="0 0 24 21" fill="none" xmlns="http://www.w3.org/2000/svg">
<path d="M8.91216 10.443C11.7251 10.443 14.0048 8.21989 14.0048 5.4769C14.0048 2.73391 11.7251 0.510803 8.91216 0.510803C6.09926 0.510803 3.8195 2.73391 3.8195 5.4769C3.8195 8.21989 6.09926 10.443 8.91216 10.443ZM12.477 11.6845H11.8126C10.9293 12.0803 9.94661 12.3053 8.91216 12.3053C7.87772 12.3053 6.89897 12.0803 6.01173 11.6845H5.3473C2.39514 11.6845 0 14.0201 0 16.8989V18.5129C0 19.541 0.855409 20.3752 1.90975 20.3752H15.9146C16.9689 20.3752 17.8243 19.541 17.8243 18.5129V16.8989C17.8243 14.0201 15.4292 11.6845 12.477 11.6845Z" fill="white" fill-opacity="0.3"/>
<path d="M19.614 0.510803C17.9294 0.510803 16.8383 1.20118 15.9817 2.43241C15.8263 2.65576 15.8742 2.96198 16.091 3.12639L17.0014 3.8169C17.2203 3.98293 17.5318 3.94411 17.7032 3.72933C18.2319 3.06686 18.624 2.68544 19.4498 2.68544C20.099 2.68544 20.9021 3.1034 20.9021 3.73317C20.9021 4.20925 20.5092 4.45376 19.8681 4.81327C19.1205 5.23252 18.1312 5.75429 18.1312 7.05953V7.26616C18.1312 7.54598 18.358 7.77281 18.6377 7.77281H20.1672C20.4469 7.77281 20.6737 7.54598 20.6737 7.26616V7.14429C20.6737 6.23949 23.3174 6.20181 23.3174 3.75337C23.3174 1.9095 21.4053 0.510803 19.614 0.510803ZM19.4025 8.3947C18.5964 8.3947 17.9405 9.05071 17.9405 9.85705C17.9405 10.6634 18.5964 11.3194 19.4025 11.3194C20.2086 11.3194 20.8644 10.6634 20.8644 9.85703C20.8644 9.05069 20.2086 8.3947 19.4025 8.3947Z" fill="white" fill-opacity="0.3"/>
</svg>
