<svg width="17" height="20" viewBox="0 0 17 20" fill="none" xmlns="http://www.w3.org/2000/svg">
<path d="M8.02748 9.92105C10.5611 9.92105 12.6146 7.8847 12.6146 5.37215C12.6146 2.85959 10.5611 0.823242 8.02748 0.823242C5.4938 0.823242 3.44035 2.85959 3.44035 5.37215C3.44035 7.8847 5.4938 9.92105 8.02748 9.92105ZM11.2385 11.0583H10.64C9.84441 11.4208 8.95924 11.6269 8.02748 11.6269C7.09572 11.6269 6.21413 11.4208 5.41496 11.0583H4.81649C2.15738 11.0583 0 13.1977 0 15.8346V17.313C0 18.2548 0.770494 19.0189 1.72017 19.0189H14.3348C15.2845 19.0189 16.055 18.2548 16.055 17.313V15.8346C16.055 13.1977 13.8976 11.0583 11.2385 11.0583Z" fill="#FFA14A"/>
</svg>
