<svg width="33" height="29" viewBox="0 0 33 29" fill="none" xmlns="http://www.w3.org/2000/svg">
<path d="M11.839 14.3158C15.3217 14.3158 18.1443 11.2411 18.1443 7.4474C18.1443 3.65367 15.3217 0.578979 11.839 0.578979C8.3563 0.578979 5.53368 3.65367 5.53368 7.4474C5.53368 11.2411 8.3563 14.3158 11.839 14.3158ZM16.2527 16.0329H15.4301C14.3365 16.5803 13.1198 16.8915 11.839 16.8915C10.5582 16.8915 9.34643 16.5803 8.24792 16.0329H7.42527C3.77016 16.0329 0.804688 19.2632 0.804688 23.2448V25.477C0.804688 26.899 1.86378 28.0527 3.16918 28.0527H20.5088C21.8142 28.0527 22.8733 26.899 22.8733 25.477V23.2448C22.8733 19.2632 19.9078 16.0329 16.2527 16.0329ZM32.1638 9.14304L30.7944 7.63521C30.5678 7.38301 30.1983 7.38301 29.9668 7.62984L24.8043 13.2104L22.563 10.7528C22.3364 10.5006 21.9669 10.5006 21.7354 10.7475L20.3512 12.2446C20.1197 12.4914 20.1197 12.8938 20.3463 13.146L24.3708 17.5622C24.5974 17.8144 24.9669 17.8144 25.1984 17.5676L32.1589 10.0445C32.3855 9.79232 32.3904 9.38988 32.1638 9.14304Z" fill="white" fill-opacity="0.3"/>
</svg>
