<svg width="9" height="11" viewBox="0 0 9 11" fill="none" xmlns="http://www.w3.org/2000/svg">
<path d="M4.49784 0.326592C4.51514 0.427569 4.84615 2.35686 4.84615 3.09377C4.84615 4.2174 4.24471 5.01877 3.35553 5.34103L3.63462 10.4564C3.64976 10.7508 3.41394 11 3.11538 11H1.73077C1.43438 11 1.19639 10.7529 1.21154 10.4564L1.49063 5.34103C0.599279 5.01877 0 4.21525 0 3.09377C0 2.35471 0.33101 0.427569 0.348317 0.326592C0.417548 -0.109539 1.32837 -0.115985 1.38462 0.350225V3.38381C1.41274 3.45686 1.7113 3.45256 1.73077 3.38381C1.76106 2.84026 1.90168 0.393194 1.90385 0.337334C1.97524 -0.109539 2.87091 -0.109539 2.94014 0.337334C2.94447 0.395342 3.08293 2.84026 3.11322 3.38381C3.13269 3.45256 3.43341 3.45686 3.45937 3.38381V0.350225C3.51562 -0.113836 4.42861 -0.109539 4.49784 0.326592ZM7.07668 6.46466L6.75216 10.4414C6.7262 10.7422 6.96635 11 7.26923 11H8.48077C8.76851 11 9 10.7701 9 10.4844V0.515654C9 0.232061 8.76851 3.07066e-05 8.48077 3.07066e-05C6.69591 3.07066e-05 3.69087 3.83498 7.07668 6.46466Z" fill="white"/>
</svg>
