<svg width="40" height="40" viewBox="0 0 40 40" fill="none" xmlns="http://www.w3.org/2000/svg">
<path d="M40 20C40 31.0481 31.0449 40 20 40C8.95508 40 0 31.0481 0 20C0 8.95831 8.95508 0 20 0C31.0449 0 40 8.95831 40 20ZM20 24.0323C17.9512 24.0323 16.2903 25.6931 16.2903 27.7419C16.2903 29.7907 17.9512 31.4516 20 31.4516C22.0488 31.4516 23.7097 29.7907 23.7097 27.7419C23.7097 25.6931 22.0488 24.0323 20 24.0323ZM16.478 10.6979L17.0762 21.6656C17.1042 22.1789 17.5285 22.5806 18.0425 22.5806H21.9575C22.4715 22.5806 22.8958 22.1789 22.9238 21.6656L23.522 10.6979C23.5523 10.1435 23.1109 9.67742 22.5557 9.67742H17.4442C16.889 9.67742 16.4477 10.1435 16.478 10.6979Z" fill="white"/>
</svg>
