<svg width="23" height="23" viewBox="0 0 23 23" fill="none" xmlns="http://www.w3.org/2000/svg">
<rect width="23" height="23" rx="11.5" fill="#EB22B3"/>
<path d="M16.9207 5.66406H5.90703C5.29899 5.66406 4.80566 6.15418 4.80566 6.75828V14.0531C4.80566 14.6572 5.29899 15.1473 5.90703 15.1473H10.3125L9.94538 16.2415H8.29333C7.98816 16.2415 7.74265 16.4854 7.74265 16.7886C7.74265 17.0918 7.98816 17.3357 8.29333 17.3357H14.5344C14.8396 17.3357 15.0851 17.0918 15.0851 16.7886C15.0851 16.4854 14.8396 16.2415 14.5344 16.2415H12.8824L12.5152 15.1473H16.9207C17.5288 15.1473 18.0221 14.6572 18.0221 14.0531V6.75828C18.0221 6.15418 17.5288 5.66406 16.9207 5.66406ZM16.5536 13.6883H6.27416V7.12302H16.5536V13.6883Z" fill="white"/>
</svg>
