<svg width="800" height="1200" viewBox="0 0 135 135" fill="none" xmlns="http://www.w3.org/2000/svg">
<circle cx="67.4998" cy="67.4998" r="66.0682" fill="#1EC143"/>
<path d="M15.5576 119.442L17.6642 109.963L25.0372 117.336L15.5576 119.442Z" fill="#1EC143"/>
<path d="M114.78 19.6172C102.154 6.96094 85.3393 0 67.4699 0C30.5859 0 0.572545 30.0134 0.572545 66.8973C0.572545 78.6797 3.64621 90.1908 9.49219 100.346L0 135L35.4676 125.689C45.231 131.022 56.2299 133.825 67.4397 133.825H67.4699C104.324 133.825 135 103.811 135 66.9275C135 49.058 127.406 32.2734 114.78 19.6172ZM67.4699 122.555C57.4654 122.555 47.6719 119.873 39.144 114.81L37.125 113.605L16.0915 119.119L21.6964 98.5982L20.3705 96.4888C14.7958 87.6295 11.8728 77.4141 11.8728 66.8973C11.8728 36.2511 36.8237 11.3002 67.5 11.3002C82.356 11.3002 96.308 17.0859 106.795 27.6027C117.281 38.1194 123.73 52.0714 123.7 66.9275C123.7 97.6038 98.1161 122.555 67.4699 122.555ZM97.9654 80.9096C96.308 80.0658 88.0815 76.0279 86.5446 75.4855C85.0078 74.9129 83.8929 74.6417 82.7779 76.3292C81.6629 78.0167 78.4688 81.7533 77.4743 82.8984C76.51 84.0134 75.5156 84.1641 73.8583 83.3203C64.0346 78.4085 57.5859 74.5513 51.1071 63.4319C49.3895 60.4788 52.8248 60.6897 56.019 54.3013C56.5614 53.1864 56.2902 52.2221 55.8683 51.3783C55.4464 50.5346 52.1016 42.308 50.7154 38.9632C49.3594 35.7087 47.9732 36.1607 46.9487 36.1004C45.9844 36.0402 44.8694 36.0402 43.7545 36.0402C42.6395 36.0402 40.8315 36.4621 39.2946 38.1194C37.7578 39.8069 33.4487 43.8449 33.4487 52.0714C33.4487 60.298 39.4453 68.2533 40.2589 69.3683C41.1027 70.4833 52.0413 87.3583 68.8259 94.6205C79.433 99.2009 83.5915 99.5926 88.8951 98.8092C92.1194 98.327 98.779 94.7712 100.165 90.8538C101.551 86.9364 101.551 83.5915 101.129 82.8984C100.738 82.1451 99.6228 81.7232 97.9654 80.9096Z" fill-rule="evenodd" clip-rule="evenodd" fill="white"/>
</svg>
