<?xml version="1.0" encoding="utf-8"?>
<!-- Generator: Adobe Illustrator 24.0.1, SVG Export Plug-In . SVG Version: 6.00 Build 0)  -->
<svg version="1.1" id="Capa_1" xmlns="http://www.w3.org/2000/svg" xmlns:xlink="http://www.w3.org/1999/xlink" x="0px" y="0px"
	 viewBox="0 0 60 60" style="enable-background:new 0 0 60 60;" xml:space="preserve">
<style type="text/css">
	.st0{fill:#6F93AD;}
	.st1{fill:#1A1A1A;}
	.st2{fill:#B52C40;}
	.st3{fill:#F0DED2;}
	.st4{fill:#F4EAE2;}
	.st5{fill-rule:evenodd;clip-rule:evenodd;fill:#997156;}
	.st6{fill-rule:evenodd;clip-rule:evenodd;fill:#FFFFFF;}
	.st7{clip-path:url(#SVGID_3_);}
	.st8{fill-rule:evenodd;clip-rule:evenodd;fill:#1B1529;}
	.st9{fill:#997156;}
	.st10{fill:#256A67;}
	.st11{fill:#AF9114;}
	.st12{fill:#E8D1C2;}
	.st13{fill:none;stroke:#1A1A1A;stroke-width:1.1434;stroke-linecap:round;stroke-linejoin:round;stroke-miterlimit:10;}
	.st14{fill-rule:evenodd;clip-rule:evenodd;fill:#F0DED2;}
	.st15{fill:#FFFFFF;}
	.st16{clip-path:url(#SVGID_6_);}
	.st17{clip-path:url(#SVGID_8_);}
	.st18{clip-path:url(#SVGID_10_);}
	.st19{clip-path:url(#SVGID_12_);}
	.st20{clip-path:url(#SVGID_14_);}
	.st21{clip-path:url(#SVGID_16_);}
	.st22{clip-path:url(#SVGID_18_);}
	.st23{clip-path:url(#SVGID_20_);}
	.st24{clip-path:url(#SVGID_22_);}
	.st25{clip-path:url(#SVGID_24_);}
	.st26{clip-path:url(#SVGID_26_);}
	.st27{fill-rule:evenodd;clip-rule:evenodd;fill:#D8778A;}
	.st28{clip-path:url(#SVGID_28_);}
	.st29{clip-path:url(#SVGID_31_);}
</style>
<g>
	<defs>
		<rect id="SVGID_19_" width="60" height="60"/>
	</defs>
	<clipPath id="SVGID_3_">
		<use xlink:href="#SVGID_19_"  style="overflow:visible;"/>
	</clipPath>
	<g class="st7">
		<path class="st1" d="M46.01,21.73c0.17,1.14-0.17,2.33-0.89,3.23c-1.26,1.56-3.57,1.76-5.2,0.75c0.28,0.73,0.37,1.53,0.26,2.32
			c-0.32,2.21-2.38,3.79-4.59,3.68c-1.91-0.09-3.51-1.54-3.98-3.34c-0.4,1.11-1.03,2.13-1.9,2.94c-0.93,0.86-2.1,1.42-3.37,1.54
			c-1.22,0.11-2.5-0.19-3.49-0.93c-1.61-1.22-2.12-3.68-1.08-5.38c-1.15,0.51-2.34,0.97-3.6,1.13c-1.17,0.15-2.33,0-3.37-0.56
			c-0.91-0.49-1.7-1.28-2.01-2.29c-0.35-1.15,0.02-2.38,0.73-3.3c0.61-0.79,1.44-1.33,2.34-1.73c-0.85-0.19-1.63-0.66-2.21-1.32
			c-1.36-1.55-1.26-3.9,0.11-5.41c1.27-1.39,3.41-1.59,5-0.69c-0.44-1.31-0.78-2.69-0.7-4.08c0.07-1.17,0.44-2.33,1.17-3.26
			c0.73-0.92,1.8-1.49,2.97-1.61c2.09-0.21,3.97,1.18,4.53,3.12c0.35-0.92,0.73-1.82,1.32-2.61c1.13-1.53,3.34-2.66,5.11-1.46
			c1.67,1.12,1.87,3.17,1.8,5.04c0.49-0.69,1.18-1.22,1.97-1.54c1.92-0.77,4.14,0.03,5.23,1.77c0.96,1.53,0.74,3.58-0.37,4.96
			c1.16-0.28,2.38-0.45,3.51,0.01c1.03,0.41,1.73,1.29,1.82,2.41c0.1,1.21-0.51,2.32-1.3,3.2c-0.35,0.38-0.73,0.74-1.15,1.07
			C45.37,19.99,45.87,20.8,46.01,21.73z"/>
		<g>
			<path class="st9" d="M37.1,43.28H22.37v8.41c0,0-1.72,3.47-7.77,4.52c0,0,8.7,22.48,15.84,7.34c7.85,15.61,15.35-7.03,15.35-7.03
				s-7.96-2.81-8.43-4.68C36.89,49.96,37.1,43.28,37.1,43.28"/>
			<path class="st1" d="M36.29,69.3c-2.07,0-4.03-1.74-5.84-5.16c-1.67,3.34-3.58,4.99-5.67,4.91c-5.5-0.2-10.22-12.24-10.42-12.75
				L14.24,56l0.32-0.06c5.45-0.95,7.31-3.9,7.55-4.32v-8.61h15.26l-0.01,0.27c0,0.07-0.21,6.67,0.25,8.48
				c0.32,1.27,5.12,3.39,8.26,4.5l0.24,0.09l-0.08,0.25c-0.17,0.5-4.13,12.3-9.48,12.69C36.47,69.3,36.38,69.3,36.29,69.3z
				 M30.43,62.94l0.24,0.49c1.86,3.69,3.82,5.49,5.85,5.34c4.59-0.34,8.33-10.38,8.93-12.08c-1.52-0.55-7.9-2.96-8.35-4.78
				c-0.42-1.69-0.31-7.06-0.27-8.36H22.64v8.21l-0.03,0.06c-0.07,0.14-1.79,3.48-7.64,4.6c0.77,1.87,5.13,11.95,9.83,12.11
				c1.95,0.07,3.78-1.64,5.4-5.09L30.43,62.94z"/>
		</g>
		<path class="st1" d="M22.54,43.51c0,0,2.17,4.31,5.69,6.32c2.55,1.45,5.86,0.89,7.59-1.48c0.86-1.18,1.52-2.93,1.52-5.49
			c0,0-2.82,3.71-7.01,3.88C26.13,46.91,22.54,43.51,22.54,43.51z"/>
		<g>
			<g>
				<g>
					<path class="st9" d="M40.56,30.67c0,0,1.14-1.64,2.49-0.85c1.35,0.8,0.92,3.74,0,5.22c-0.92,1.47-2.41,2.2-3.23,1.07"/>
					<path class="st1" d="M40.84,36.93c-0.49,0-0.91-0.23-1.23-0.66l0.43-0.31c0.22,0.31,0.5,0.45,0.84,0.44
						c0.63-0.02,1.4-0.61,1.95-1.5c0.59-0.94,1.02-2.65,0.72-3.86c-0.12-0.47-0.33-0.8-0.64-0.99c-1.12-0.66-2.09,0.71-2.14,0.77
						l-0.44-0.3c0.44-0.64,1.61-1.65,2.84-0.92c0.43,0.26,0.73,0.7,0.88,1.32c0.33,1.35-0.14,3.23-0.79,4.27
						c-0.66,1.05-1.57,1.72-2.38,1.75C40.88,36.93,40.86,36.93,40.84,36.93z"/>
				</g>
				<g>
					<g>
						<g>
							<path class="st9" d="M42.9,31.66c0,0-1.52-0.51-2.6,1.73"/>
							<path class="st1" d="M40.54,33.51l-0.48-0.23c1.17-2.42,2.91-1.87,2.92-1.87l-0.17,0.5C42.77,31.9,41.5,31.53,40.54,33.51z"
								/>
						</g>
					</g>
					<g>
						<path class="st9" d="M41.04,32.3c0,0,1.66,0.89,0.56,2.22"/>
						<path class="st1" d="M41.81,34.68l-0.41-0.34c0.25-0.31,0.35-0.61,0.3-0.89c-0.11-0.55-0.77-0.92-0.78-0.92l0.25-0.47
							c0.04,0.02,0.89,0.48,1.05,1.29C42.3,33.8,42.17,34.25,41.81,34.68z"/>
					</g>
				</g>
			</g>
			<g>
				<g>
					<path class="st9" d="M18.67,30.4c0,0-1.14-1.64-2.49-0.85c-1.35,0.8-0.92,3.74,0,5.22c0.92,1.47,2.41,2.2,3.23,1.07"/>
					<path class="st1" d="M18.4,36.66c-0.02,0-0.04,0-0.06,0c-0.81-0.03-1.73-0.7-2.38-1.75c-0.65-1.04-1.12-2.92-0.79-4.27
						c0.15-0.62,0.45-1.06,0.88-1.32c1.24-0.73,2.4,0.29,2.84,0.92l-0.44,0.3c-0.04-0.06-1.02-1.43-2.14-0.77
						c-0.31,0.18-0.52,0.51-0.64,0.99c-0.3,1.22,0.14,2.92,0.72,3.86c0.55,0.89,1.32,1.47,1.95,1.5c0.33,0.01,0.62-0.14,0.84-0.44
						l0.43,0.31C19.31,36.43,18.88,36.66,18.4,36.66z"/>
				</g>
				<g>
					<g>
						<g>
							<path class="st9" d="M16.33,31.4c0,0,1.52-0.51,2.6,1.73"/>
							<path class="st1" d="M18.69,33.24c-0.96-1.99-2.23-1.61-2.28-1.6l-0.17-0.5c0.02-0.01,1.76-0.55,2.92,1.87L18.69,33.24z"/>
						</g>
					</g>
					<g>
						<path class="st9" d="M18.19,32.03c0,0-1.66,0.89-0.56,2.22"/>
						<path class="st1" d="M17.43,34.42c-0.36-0.44-0.5-0.88-0.41-1.33c0.16-0.8,1.01-1.27,1.05-1.29l0.25,0.47
							c-0.01,0-0.67,0.37-0.78,0.93c-0.06,0.28,0.05,0.58,0.3,0.89L17.43,34.42z"/>
					</g>
				</g>
			</g>
			<g>
				<path class="st9" d="M40.57,26.7c0,0,1.35,20.1-10.8,20.1c-12.15,0-11.18-20.1-11.18-20.1S18,14.75,30.18,14.75
					C41.51,14.75,40.57,26.7,40.57,26.7z"/>
				<path class="st1" d="M29.77,47.07c-2.66,0-4.92-0.95-6.7-2.82c-5.26-5.52-4.76-17.07-4.74-17.56c-0.01-0.19-0.22-5.38,3.19-8.96
					c2.05-2.15,4.96-3.24,8.67-3.24c3.31,0,5.92,1.01,7.75,2.99c3.25,3.51,2.94,8.81,2.91,9.23c0.05,0.71,0.69,12.08-4.42,17.54
					C34.67,46.12,32.43,47.07,29.77,47.07z M30.18,15.01c-3.55,0-6.34,1.03-8.28,3.08c-3.25,3.42-3.05,8.55-3.04,8.6
					c-0.01,0.14-0.51,11.84,4.59,17.19c1.68,1.76,3.81,2.66,6.32,2.66c2.51,0,4.62-0.89,6.26-2.65c5-5.35,4.28-17.05,4.27-17.17
					l0-0.02l0-0.02c0-0.05,0.38-5.44-2.77-8.85C35.81,15.96,33.33,15.01,30.18,15.01z"/>
			</g>
			<g>
				<path class="st1" d="M30.02,35.71c-0.5,0-0.95-0.28-1.13-0.74c-0.06-0.15-0.09-0.31-0.09-0.47v-5.15c0-0.14,0.11-0.25,0.25-0.25
					c0.14,0,0.25,0.11,0.25,0.25v5.15c0,0.1,0.02,0.19,0.05,0.28c0.13,0.32,0.51,0.49,0.87,0.39l1.01-0.27
					c0.13-0.04,0.28,0.04,0.31,0.18c0.04,0.14-0.04,0.28-0.18,0.31l-1.01,0.27C30.24,35.7,30.13,35.71,30.02,35.71z"/>
				<path class="st1" d="M26.17,29.38c0,0.56-0.45,1.01-1.01,1.01c-0.56,0-1.01-0.45-1.01-1.01c0-0.56,0.45-1.01,1.01-1.01
					C25.72,28.37,26.17,28.82,26.17,29.38z"/>
				<path class="st1" d="M35.56,29.38c0,0.56-0.45,1.01-1.01,1.01c-0.56,0-1.01-0.45-1.01-1.01c0-0.56,0.45-1.01,1.01-1.01
					C35.11,28.37,35.56,28.82,35.56,29.38z"/>
				<g>
					<path class="st1" d="M29.92,35.7c-0.49,0-0.95-0.28-1.13-0.74c-0.06-0.15-0.09-0.3-0.09-0.46v-4.19c0-0.14,0.11-0.25,0.25-0.25
						s0.25,0.11,0.25,0.25v4.19c0,0.1,0.02,0.19,0.05,0.28c0.13,0.32,0.51,0.49,0.87,0.39l1.01-0.27c0.13-0.04,0.27,0.04,0.31,0.18
						c0.04,0.14-0.04,0.27-0.18,0.31l-1.01,0.27C30.14,35.69,30.03,35.7,29.92,35.7z"/>
					<path class="st1" d="M26.09,29.4c0,0.55-0.45,1-1,1c-0.55,0-1-0.45-1-1c0-0.55,0.45-1,1-1C25.64,28.4,26.09,28.85,26.09,29.4z"
						/>
					<circle class="st1" cx="34.43" cy="29.4" r="1"/>
					<g>
						<path class="st1" d="M30.17,41.33c0.02,0,0.04,0,0.06,0c3.04-0.03,4.06-3.24,4.07-3.27c0.01-0.04,0.01-0.09-0.02-0.13
							c-0.03-0.04-0.07-0.06-0.12-0.06h-7.64c-0.04,0-0.08,0.02-0.11,0.05c-0.03,0.03-0.04,0.07-0.04,0.11
							C26.39,38.06,26.84,41.33,30.17,41.33z M33.96,38.15c-0.26,0.66-1.32,2.85-3.73,2.88c-0.02,0-0.04,0-0.06,0
							c-2.69,0-3.34-2.24-3.47-2.88H33.96z"/>
						<path class="st1" d="M30.17,41.44c-3.44,0-3.9-3.37-3.9-3.4c-0.01-0.07,0.01-0.15,0.06-0.21c0.05-0.06,0.12-0.09,0.2-0.09
							h7.64c0.08,0,0.16,0.04,0.21,0.11c0.05,0.07,0.06,0.15,0.04,0.23c-0.01,0.03-1.07,3.32-4.18,3.36L30.17,41.44z M26.5,38.01
							c0,0.03,0.45,3.2,3.67,3.2l0.06,0c2.94-0.03,3.95-3.16,3.96-3.19l-0.03-0.04h-7.64l-0.14,0.05L26.5,38.01z M30.17,41.15
							c-2.77,0-3.44-2.28-3.59-2.98c-0.01-0.03,0-0.07,0.02-0.1c0.02-0.03,0.06-0.04,0.09-0.04h7.26c0.04,0,0.08,0.02,0.1,0.05
							c0.02,0.03,0.03,0.07,0.01,0.11c-0.27,0.69-1.36,2.93-3.84,2.96L30.17,41.15z M26.85,38.27c0.19,0.77,0.9,2.65,3.32,2.65
							l0.05,0c2.17-0.02,3.21-1.86,3.55-2.65H26.85z"/>
					</g>
				</g>
			</g>
		</g>
		<g>
			<g>
				<path class="st11" d="M2.28,72.72c0-6.61,4.52-11.56,8.05-14.4c1.85-1.49,3.94-2.62,6.17-3.37c1.91-0.64,4.64-1.86,5.83-3.81
					c0,0,6.53,6.74,15.02,0c0,0,3.92,3.17,5.83,3.81c2.23,0.75,4.33,1.88,6.17,3.37c3.53,2.85,8.05,7.79,8.05,14.4"/>
				<path class="st1" d="M57.69,72.72h-0.53c0-6.43-4.33-11.27-7.95-14.2c-1.8-1.45-3.85-2.57-6.09-3.32
					c-1.73-0.58-4.97-3.11-5.75-3.72c-7.6,5.89-13.71,1.19-14.97,0.07c-1.28,1.83-3.84,2.99-5.8,3.65
					c-2.24,0.75-4.29,1.87-6.09,3.32c-3.63,2.93-7.95,7.77-7.95,14.2H2.01c0-6.64,4.43-11.61,8.15-14.61
					c1.85-1.49,3.95-2.64,6.26-3.41c1.97-0.66,4.56-1.84,5.69-3.7l0.18-0.29l0.24,0.24c0.26,0.27,6.47,6.48,14.67-0.02l0.17-0.13
					l0.16,0.13c0.04,0.03,3.9,3.14,5.75,3.76c2.3,0.77,4.41,1.92,6.26,3.41C53.25,61.11,57.69,66.08,57.69,72.72z"/>
			</g>
		</g>
		<path class="st1" d="M39.85,19.26c0.11,0.72-0.11,1.48-0.57,2.04c-0.79,0.99-2.26,1.12-3.29,0.47c0.18,0.46,0.24,0.97,0.16,1.47
			c-0.21,1.4-1.51,2.4-2.91,2.33c-1.21-0.06-2.22-0.98-2.52-2.11c-0.25,0.7-0.65,1.35-1.2,1.86c-0.59,0.55-1.33,0.9-2.13,0.97
			c-0.77,0.07-1.58-0.12-2.21-0.59c-1.02-0.77-1.34-2.33-0.68-3.41c-0.73,0.32-1.48,0.62-2.28,0.72c-0.74,0.09-1.47,0-2.13-0.35
			c-0.58-0.31-1.08-0.81-1.27-1.45c-0.22-0.73,0.01-1.51,0.47-2.09c0.39-0.5,0.91-0.84,1.48-1.1c-0.54-0.12-1.03-0.42-1.4-0.83
			c-0.86-0.98-0.8-2.47,0.07-3.43c0.8-0.88,2.16-1.01,3.17-0.44c-0.28-0.83-0.49-1.7-0.44-2.58c0.05-0.74,0.28-1.48,0.74-2.06
			c0.46-0.58,1.14-0.94,1.88-1.02c1.32-0.14,2.51,0.75,2.87,1.97c0.22-0.58,0.47-1.15,0.83-1.65c0.72-0.97,2.11-1.68,3.23-0.92
			c1.05,0.71,1.18,2.01,1.14,3.19c0.31-0.44,0.75-0.77,1.25-0.98c1.21-0.49,2.62,0.02,3.31,1.12c0.61,0.97,0.47,2.27-0.23,3.14
			c0.74-0.18,1.5-0.28,2.22,0.01c0.65,0.26,1.09,0.81,1.15,1.52c0.06,0.77-0.32,1.47-0.82,2.02c-0.22,0.24-0.47,0.47-0.72,0.68
			C39.44,18.16,39.76,18.67,39.85,19.26z"/>
	</g>
</g>
</svg>
