<?xml version="1.0" encoding="utf-8"?>
<!-- Generator: Adobe Illustrator 24.0.1, SVG Export Plug-In . SVG Version: 6.00 Build 0)  -->
<svg version="1.1" id="Capa_1" xmlns="http://www.w3.org/2000/svg" xmlns:xlink="http://www.w3.org/1999/xlink" x="0px" y="0px"
	 viewBox="0 0 60 60" style="enable-background:new 0 0 60 60;" xml:space="preserve">
<style type="text/css">
	.st0{fill:#6F93AD;}
	.st1{fill:#1A1A1A;}
	.st2{fill:#B52C40;}
	.st3{fill:#F0DED2;}
	.st4{fill:#F4EAE2;}
	.st5{fill-rule:evenodd;clip-rule:evenodd;fill:#997156;}
	.st6{fill-rule:evenodd;clip-rule:evenodd;fill:#FFFFFF;}
	.st7{clip-path:url(#SVGID_3_);}
	.st8{fill-rule:evenodd;clip-rule:evenodd;fill:#1B1529;}
	.st9{fill:#997156;}
	.st10{fill:#256A67;}
	.st11{fill:#AF9114;}
	.st12{fill:#E8D1C2;}
	.st13{fill:none;stroke:#1A1A1A;stroke-width:1.1434;stroke-linecap:round;stroke-linejoin:round;stroke-miterlimit:10;}
	.st14{fill-rule:evenodd;clip-rule:evenodd;fill:#F0DED2;}
	.st15{fill:#FFFFFF;}
	.st16{clip-path:url(#SVGID_6_);}
	.st17{clip-path:url(#SVGID_8_);}
	.st18{clip-path:url(#SVGID_10_);}
	.st19{clip-path:url(#SVGID_12_);}
	.st20{clip-path:url(#SVGID_14_);}
	.st21{clip-path:url(#SVGID_16_);}
	.st22{clip-path:url(#SVGID_18_);}
	.st23{clip-path:url(#SVGID_20_);}
	.st24{clip-path:url(#SVGID_22_);}
	.st25{clip-path:url(#SVGID_24_);}
	.st26{clip-path:url(#SVGID_26_);}
	.st27{fill-rule:evenodd;clip-rule:evenodd;fill:#D8778A;}
	.st28{clip-path:url(#SVGID_28_);}
	.st29{clip-path:url(#SVGID_31_);}
</style>
<g>
	<defs>
		<rect id="SVGID_23_" width="60" height="60"/>
	</defs>
	<clipPath id="SVGID_3_">
		<use xlink:href="#SVGID_23_"  style="overflow:visible;"/>
	</clipPath>
	<g class="st7">
		<path class="st4" d="M24.12,37.05l0.53,7.26c0,0-2.3,3.58-8.41,4.6c0,0,11.93,12.6,27.03,0.02c0,0-7.85-1.34-8.79-4.62l0.44-7.03
			C34.92,37.28,29.21,37.76,24.12,37.05z"/>
		<path class="st1" d="M29.61,54.74c-8.07,0-13.49-5.57-13.57-5.66l-0.34-0.36l0.49-0.08c5.44-0.91,7.82-3.92,8.18-4.41l-0.55-7.49
			l0.32,0.05c5,0.7,10.69,0.23,10.74,0.23l0.31-0.03l-0.45,7.29c0.94,3.05,8.49,4.38,8.56,4.39l0.57,0.1l-0.44,0.37
			C38.38,53.34,33.66,54.74,29.61,54.74z M16.79,49.07c2.08,1.9,12.79,10.53,25.87,0.01c-1.85-0.38-7.6-1.79-8.44-4.7l-0.01-0.04
			l0.42-6.77c-1.23,0.08-5.92,0.35-10.23-0.21l0.51,7.02l-0.05,0.07C24.77,44.59,22.56,47.94,16.79,49.07z"/>
	</g>
	<g class="st7">
		<g>
			<g>
				<g>
					<g>
						<path class="st4" d="M40.43,22.88c0,0,1.13-1.64,2.48-0.84c1.34,0.79,0.92,3.72,0,5.19c-0.92,1.47-2.39,2.19-3.21,1.06"/>
						<path class="st1" d="M40.7,29.11c-0.49,0-0.91-0.23-1.22-0.66l0.43-0.31c0.22,0.3,0.5,0.46,0.83,0.44
							c0.63-0.02,1.39-0.61,1.94-1.49c0.59-0.94,1.02-2.63,0.72-3.84c-0.11-0.47-0.33-0.8-0.63-0.98c-1.11-0.66-2.08,0.71-2.12,0.77
							l-0.44-0.3c0.44-0.64,1.6-1.65,2.83-0.92c0.43,0.26,0.73,0.7,0.88,1.31c0.33,1.35-0.14,3.22-0.79,4.25
							c-0.65,1.04-1.56,1.71-2.37,1.74C40.74,29.1,40.72,29.11,40.7,29.11z"/>
					</g>
					<g>
						<g>
							<g>
								<path class="st4" d="M42.76,23.87c0,0-1.51-0.51-2.59,1.72"/>
								<path class="st1" d="M40.41,25.71l-0.48-0.23c1.16-2.41,2.89-1.87,2.91-1.86l-0.17,0.5C42.62,24.1,41.36,23.73,40.41,25.71z
									"/>
							</g>
						</g>
						<g>
							<path class="st4" d="M40.9,24.5c0,0,1.65,0.88,0.56,2.2"/>
							<path class="st1" d="M41.67,26.88l-0.41-0.34c0.25-0.31,0.35-0.6,0.3-0.88c-0.11-0.55-0.77-0.92-0.78-0.92l0.25-0.47
								c0.04,0.02,0.89,0.48,1.04,1.28C42.16,25.99,42.02,26.44,41.67,26.88z"/>
						</g>
					</g>
				</g>
				<g>
					<g>
						<path class="st4" d="M18.64,22.88c0,0-1.13-1.64-2.48-0.84c-1.34,0.79-0.92,3.72,0,5.19c0.92,1.47,2.39,2.19,3.21,1.06"/>
						<path class="st1" d="M18.37,29.11c-0.02,0-0.04,0-0.06,0c-0.81-0.03-1.72-0.69-2.37-1.74c-0.64-1.03-1.11-2.9-0.79-4.25
							c0.15-0.61,0.44-1.06,0.88-1.31c1.23-0.73,2.39,0.28,2.83,0.92l-0.44,0.3c-0.04-0.06-1.01-1.42-2.12-0.77
							c-0.3,0.18-0.52,0.51-0.63,0.98c-0.3,1.21,0.13,2.9,0.72,3.84c0.55,0.88,1.31,1.47,1.94,1.49c0.33,0.02,0.61-0.14,0.83-0.44
							l0.43,0.31C19.28,28.88,18.86,29.11,18.37,29.11z"/>
					</g>
					<g>
						<g>
							<g>
								<path class="st4" d="M16.31,23.87c0,0,1.51-0.51,2.59,1.72"/>
								<path class="st1" d="M18.66,25.71c-0.95-1.97-2.22-1.6-2.27-1.59l-0.17-0.5c0.02-0.01,1.75-0.55,2.91,1.86L18.66,25.71z"/>
							</g>
						</g>
						<g>
							<path class="st4" d="M18.17,24.5c0,0-1.65,0.88-0.56,2.2"/>
							<path class="st1" d="M17.4,26.88c-0.36-0.44-0.49-0.88-0.41-1.32c0.16-0.8,1.01-1.26,1.04-1.28l0.25,0.47
								c-0.01,0-0.67,0.37-0.78,0.92c-0.05,0.28,0.05,0.58,0.3,0.88L17.4,26.88z"/>
						</g>
					</g>
				</g>
				<g>
					<path class="st4" d="M40.43,18.93c0,0,1.34,20-10.75,20c-12.09,0-11.12-20-11.12-20s-0.58-11.9,11.53-11.9
						C41.37,7.04,40.43,18.93,40.43,18.93z"/>
					<path class="st1" d="M29.68,39.2c-2.65,0-4.9-0.95-6.67-2.81c-5.23-5.49-4.74-16.98-4.71-17.47c-0.01-0.19-0.22-5.36,3.17-8.92
						c2.04-2.14,4.94-3.23,8.62-3.23c3.29,0,5.89,1,7.71,2.97c3.23,3.49,2.92,8.77,2.89,9.19c0.05,0.71,0.69,12.02-4.4,17.46
						C34.56,38.26,32.33,39.2,29.68,39.2z M30.09,7.3c-3.53,0-6.3,1.03-8.24,3.06c-3.24,3.4-3.03,8.51-3.03,8.56
						c-0.01,0.14-0.51,11.78,4.57,17.11c1.67,1.76,3.79,2.65,6.29,2.65c2.5,0,4.59-0.89,6.23-2.64c4.98-5.32,4.26-16.96,4.25-17.08
						l0-0.02l0-0.02c0-0.05,0.38-5.42-2.76-8.81C35.69,8.24,33.23,7.3,30.09,7.3z"/>
				</g>
				<g>
					<path class="st1" d="M29.93,27.9c-0.49,0-0.95-0.28-1.13-0.74c-0.06-0.15-0.09-0.3-0.09-0.46V22.5c0-0.14,0.11-0.25,0.25-0.25
						s0.25,0.11,0.25,0.25v4.19c0,0.1,0.02,0.19,0.05,0.28c0.13,0.31,0.5,0.48,0.87,0.39l1.01-0.27c0.14-0.04,0.27,0.04,0.31,0.18
						c0.04,0.14-0.04,0.27-0.18,0.31l-1.01,0.27C30.16,27.88,30.04,27.9,29.93,27.9z"/>
					<circle class="st1" cx="25.1" cy="21.59" r="1"/>
					<path class="st1" d="M35.45,21.59c0,0.55-0.45,1-1,1s-1-0.45-1-1c0-0.55,0.45-1,1-1S35.45,21.04,35.45,21.59z"/>
					<g>
						<path class="st1" d="M24.12,26.29c-2.45,0-4.44-1.99-4.44-4.44s1.99-4.44,4.44-4.44s4.44,1.99,4.44,4.44
							S26.56,26.29,24.12,26.29z M24.12,17.88c-2.19,0-3.97,1.78-3.97,3.97s1.78,3.97,3.97,3.97s3.97-1.78,3.97-3.97
							S26.31,17.88,24.12,17.88z"/>
						<path class="st1" d="M34.45,26.29c-2.45,0-4.44-1.99-4.44-4.44s1.99-4.44,4.44-4.44s4.44,1.99,4.44,4.44
							S36.89,26.29,34.45,26.29z M34.45,17.88c-2.19,0-3.97,1.78-3.97,3.97s1.78,3.97,3.97,3.97s3.97-1.78,3.97-3.97
							S36.64,17.88,34.45,17.88z"/>
						<path class="st1" d="M30.24,22.09c-0.06,0-0.12-0.02-0.17-0.07c-0.74-0.74-1.51-0.07-1.59,0.01c-0.1,0.09-0.24,0.08-0.33-0.01
							c-0.09-0.09-0.08-0.24,0.01-0.33c0.4-0.38,1.39-0.86,2.25,0.01c0.09,0.09,0.09,0.24,0,0.33
							C30.36,22.06,30.3,22.09,30.24,22.09z"/>
						<path class="st1" d="M20.07,23.22c-0.05,0-0.1-0.02-0.14-0.05L18.44,22c-0.1-0.08-0.12-0.23-0.04-0.33
							c0.08-0.1,0.23-0.12,0.33-0.04l1.48,1.17c0.1,0.08,0.12,0.23,0.04,0.33C20.21,23.19,20.14,23.22,20.07,23.22z"/>
						<path class="st1" d="M38.5,23.22c-0.07,0-0.14-0.03-0.18-0.09c-0.08-0.1-0.06-0.25,0.04-0.33l1.97-1.55
							c0.1-0.08,0.25-0.06,0.33,0.04c0.08,0.1,0.06,0.25-0.04,0.33l-1.97,1.55C38.6,23.2,38.55,23.22,38.5,23.22z"/>
					</g>
					<g>
						<path class="st1" d="M30.15,33.59c1.88-0.38,3.51-2.75,3.58-2.85l0.18-0.26l-8.07,0.13l0.13,0.24c0.07,0.12,1.6,2.79,3.7,2.79
							C29.82,33.64,29.99,33.63,30.15,33.59z M26.4,30.93l6.87-0.11c-0.48,0.62-1.78,2.17-3.19,2.46
							C28.33,33.62,26.86,31.63,26.4,30.93z"/>
						<path class="st1" d="M29.67,33.76c-2.17,0-3.73-2.73-3.8-2.85l-0.13-0.24c-0.02-0.04-0.02-0.08,0-0.12
							c0.02-0.04,0.06-0.06,0.1-0.06l8.07-0.13c0,0,0,0,0,0c0.04,0,0.08,0.02,0.1,0.06c0.02,0.04,0.02,0.09-0.01,0.12l-0.18,0.26
							c-0.07,0.1-1.72,2.51-3.65,2.9l0,0C30.01,33.74,29.83,33.76,29.67,33.76z M30.15,33.59L30.15,33.59L30.15,33.59z M26.03,30.73
							l0.04,0.07c0.06,0.11,1.56,2.73,3.59,2.73c0.15,0,0.31-0.02,0.46-0.05c1.84-0.37,3.44-2.7,3.51-2.8l0.05-0.07L26.03,30.73z
							 M29.67,33.43c-1.59,0-2.86-1.67-3.37-2.44c-0.02-0.04-0.03-0.08-0.01-0.12c0.02-0.04,0.06-0.06,0.1-0.06l6.87-0.11
							c0,0,0,0,0,0c0.04,0,0.08,0.02,0.1,0.06c0.02,0.04,0.02,0.09-0.01,0.12c-0.5,0.66-1.82,2.21-3.26,2.5
							C29.96,33.42,29.81,33.43,29.67,33.43z M26.62,31.05c0.53,0.76,1.89,2.42,3.45,2.11c1.23-0.25,2.4-1.51,2.97-2.22L26.62,31.05
							z"/>
					</g>
				</g>
				<g>
					<path class="st9" d="M29.49,4.62c-14.73,0-13.24,10.03-11,17.97c0,0,1.99-3.71,1.6-6.32c8.37-0.95,15.87-5.56,15.91-5.59
						c0.58,4.57,4.53,11.35,4.53,11.35C42.76,14.64,45.07,4.62,29.49,4.62z"/>
					<path class="st1" d="M18.41,23.3l-0.18-0.63c-1.42-5.03-2.49-10.68,0.34-14.41c1.96-2.59,5.63-3.9,10.92-3.9
						c5.67,0,9.37,1.28,11.33,3.92c2.71,3.65,1.4,9.06-0.04,13.85L40.6,22.7l-0.31-0.53c-0.16-0.27-3.77-6.51-4.51-11.06
						c-1.55,0.9-8.1,4.49-15.41,5.39c0.24,2.64-1.58,6.07-1.66,6.21L18.41,23.3z M29.49,4.88c-5.11,0-8.64,1.24-10.5,3.69
						c-2.56,3.39-1.72,8.55-0.44,13.28c0.53-1.15,1.55-3.66,1.27-5.54l-0.04-0.27l0.27-0.03c8.27-0.94,15.72-5.5,15.8-5.55
						l0.35-0.22l0.05,0.41c0.47,3.72,3.26,9.02,4.2,10.71c1.33-4.51,2.4-9.48-0.05-12.78C38.57,6.13,34.9,4.88,29.49,4.88z"/>
				</g>
			</g>
		</g>
	</g>
	<g class="st7">
		<path class="st1" d="M55.58,65.45c0-9.03-8.82-14.87-11.44-16.41c-0.42-0.25-0.94-0.24-1.36,0.02
			c-2.75,1.74-14.08,7.87-26.25-0.17c-0.23-0.15-0.52-0.17-0.76-0.03C13.68,50.03,4,55.99,4,65.45"/>
		<path class="st1" d="M24.57,37.37c0,0,2.11,4.7,6.38,4.4c0,0,3.05-0.03,3.77-3.05l-0.3-1.35C34.42,37.37,30.57,40.1,24.57,37.37z"
			/>
	</g>
</g>
</svg>
