<?xml version="1.0" encoding="utf-8"?>
<!-- Generator: Adobe Illustrator 24.0.1, SVG Export Plug-In . SVG Version: 6.00 Build 0)  -->
<svg version="1.1" id="Capa_1" xmlns="http://www.w3.org/2000/svg" xmlns:xlink="http://www.w3.org/1999/xlink" x="0px" y="0px"
	 viewBox="0 0 60 60" style="enable-background:new 0 0 60 60;" xml:space="preserve">
<style type="text/css">
	.st0{fill:#6F93AD;}
	.st1{fill:#1A1A1A;}
	.st2{fill:#B52C40;}
	.st3{fill:#F0DED2;}
	.st4{fill:#F4EAE2;}
	.st5{fill-rule:evenodd;clip-rule:evenodd;fill:#997156;}
	.st6{fill-rule:evenodd;clip-rule:evenodd;fill:#FFFFFF;}
	.st7{clip-path:url(#SVGID_3_);}
	.st8{fill-rule:evenodd;clip-rule:evenodd;fill:#1B1529;}
	.st9{fill:#997156;}
	.st10{fill:#256A67;}
	.st11{fill:#AF9114;}
	.st12{fill:#E8D1C2;}
	.st13{fill:none;stroke:#1A1A1A;stroke-width:1.1434;stroke-linecap:round;stroke-linejoin:round;stroke-miterlimit:10;}
	.st14{fill-rule:evenodd;clip-rule:evenodd;fill:#F0DED2;}
	.st15{fill:#FFFFFF;}
	.st16{clip-path:url(#SVGID_6_);}
	.st17{clip-path:url(#SVGID_8_);}
	.st18{clip-path:url(#SVGID_10_);}
	.st19{clip-path:url(#SVGID_12_);}
	.st20{clip-path:url(#SVGID_14_);}
	.st21{clip-path:url(#SVGID_16_);}
	.st22{clip-path:url(#SVGID_18_);}
	.st23{clip-path:url(#SVGID_20_);}
	.st24{clip-path:url(#SVGID_22_);}
	.st25{clip-path:url(#SVGID_24_);}
	.st26{clip-path:url(#SVGID_26_);}
	.st27{fill-rule:evenodd;clip-rule:evenodd;fill:#D8778A;}
	.st28{clip-path:url(#SVGID_28_);}
	.st29{clip-path:url(#SVGID_31_);}
</style>
<g>
	<defs>
		<rect id="SVGID_21_" width="60" height="60"/>
	</defs>
	<clipPath id="SVGID_3_">
		<use xlink:href="#SVGID_21_"  style="overflow:visible;"/>
	</clipPath>
	<g class="st7">
		<g>
			<path class="st3" d="M36.87,35.75H22.14v8.41c0,0-1.72,3.47-7.77,4.52c0,0,8.7,22.48,15.84,7.34
				c7.85,15.61,15.35-7.03,15.35-7.03s-7.96-2.81-8.43-4.68C36.65,42.43,36.87,35.75,36.87,35.75"/>
			<path d="M36.05,61.77c-2.07,0-4.03-1.74-5.84-5.16c-1.67,3.34-3.58,5-5.67,4.91c-5.5-0.2-10.22-12.24-10.42-12.75L14,48.47
				l0.32-0.06c5.45-0.95,7.31-3.9,7.55-4.32v-8.61h15.26l-0.01,0.27c0,0.07-0.21,6.67,0.25,8.48c0.32,1.27,5.12,3.39,8.26,4.5
				l0.24,0.09l-0.08,0.25c-0.17,0.5-4.13,12.3-9.48,12.69C36.24,61.77,36.14,61.77,36.05,61.77z M30.2,55.41l0.24,0.49
				c1.86,3.69,3.82,5.49,5.85,5.34c4.59-0.34,8.33-10.38,8.93-12.08c-1.52-0.55-7.9-2.96-8.35-4.78c-0.42-1.69-0.31-7.06-0.27-8.36
				H22.4v8.21l-0.03,0.06c-0.07,0.14-1.79,3.48-7.64,4.6c0.77,1.87,5.13,11.95,9.83,12.11c1.95,0.07,3.78-1.64,5.4-5.09L30.2,55.41z
				"/>
		</g>
		<g>
			<path class="st10" d="M2.18,64.99c0-10.47,12.11-16.6,12.11-16.6l15.26,6.33l16.05-6.33c0,0,12.11,6.12,12.11,16.6H2.18z"/>
			<path class="st1" d="M57.97,65.25H1.91v-0.26c0-10.51,12.13-16.77,12.25-16.83l0.11-0.05l15.27,6.34l16.06-6.34l0.11,0.05
				c0.12,0.06,12.25,6.32,12.25,16.83V65.25z M2.45,64.72h54.99c-0.19-9.52-10.69-15.41-11.86-16.04l-16.04,6.33l-0.1-0.04
				L14.3,48.68C13.12,49.31,2.64,55.21,2.45,64.72z"/>
		</g>
		<path class="st1" d="M22.3,35.97c0,0,2.17,4.31,5.69,6.32c2.55,1.45,5.86,0.89,7.59-1.48c0.86-1.18,1.52-2.93,1.52-5.49
			c0,0-2.82,3.71-7.01,3.88C25.89,39.38,22.3,35.97,22.3,35.97z"/>
		<g>
			<g>
				<g>
					<g>
						<path class="st3" d="M40.28,23.15c0,0,1.13-1.64,2.48-0.84c1.34,0.79,0.92,3.72,0,5.19c-0.92,1.47-2.39,2.19-3.21,1.06"/>
						<path d="M40.55,29.37c-0.49,0-0.91-0.23-1.22-0.66l0.43-0.31c0.22,0.3,0.5,0.46,0.83,0.44c0.63-0.02,1.39-0.61,1.94-1.49
							c0.59-0.94,1.02-2.63,0.72-3.84c-0.11-0.47-0.33-0.8-0.63-0.98c-1.11-0.66-2.08,0.71-2.12,0.77L40.06,23
							c0.44-0.64,1.6-1.65,2.83-0.92c0.43,0.26,0.73,0.7,0.88,1.31c0.33,1.35-0.14,3.22-0.79,4.25c-0.65,1.04-1.56,1.71-2.37,1.74
							C40.59,29.37,40.57,29.37,40.55,29.37z"/>
					</g>
					<g>
						<g>
							<g>
								<path class="st3" d="M42.6,24.14c0,0-1.51-0.51-2.59,1.72"/>
								<path d="M40.25,25.98l-0.48-0.23c1.16-2.41,2.89-1.87,2.91-1.86l-0.17,0.5l0.08-0.25l-0.08,0.25
									C42.47,24.37,41.21,24,40.25,25.98z"/>
							</g>
						</g>
						<g>
							<path class="st3" d="M40.75,24.77c0,0,1.65,0.88,0.56,2.2"/>
							<path d="M41.51,27.14l-0.41-0.34c0.25-0.31,0.35-0.6,0.3-0.88c-0.11-0.55-0.77-0.92-0.78-0.92l0.25-0.47
								c0.04,0.02,0.89,0.48,1.04,1.28C42.01,26.26,41.87,26.71,41.51,27.14z"/>
						</g>
					</g>
				</g>
			</g>
			<g>
				<g>
					<g>
						<path class="st3" d="M18.49,23.15c0,0-1.13-1.64-2.48-0.84c-1.34,0.79-0.92,3.72,0,5.19c0.92,1.47,2.39,2.19,3.21,1.06"/>
						<path d="M18.22,29.37c-0.02,0-0.04,0-0.06,0c-0.81-0.03-1.72-0.69-2.37-1.74c-0.64-1.03-1.11-2.9-0.79-4.25
							c0.15-0.61,0.44-1.06,0.88-1.31c1.23-0.73,2.39,0.28,2.83,0.92l-0.44,0.3c-0.04-0.06-1.01-1.42-2.12-0.77
							c-0.3,0.18-0.52,0.51-0.63,0.98c-0.3,1.21,0.13,2.9,0.72,3.84c0.55,0.88,1.31,1.47,1.94,1.49c0.33,0.01,0.61-0.14,0.83-0.44
							l0.43,0.31C19.13,29.15,18.7,29.37,18.22,29.37z"/>
					</g>
					<g>
						<g>
							<g>
								<path class="st3" d="M16.16,24.14c0,0,1.51-0.51,2.59,1.72"/>
								<path d="M18.51,25.98c-0.95-1.97-2.21-1.6-2.27-1.59l-0.17-0.5c0.02-0.01,1.75-0.55,2.91,1.86L18.51,25.98z"/>
							</g>
						</g>
						<g>
							<path class="st3" d="M18.01,24.77c0,0-1.65,0.88-0.56,2.2"/>
							<path d="M17.25,27.14c-0.36-0.44-0.49-0.88-0.41-1.32c0.16-0.8,1.01-1.26,1.04-1.28L18.14,25c-0.01,0-0.67,0.37-0.78,0.92
								c-0.05,0.28,0.05,0.58,0.3,0.88L17.25,27.14z"/>
						</g>
					</g>
				</g>
			</g>
			<g>
				<path class="st3" d="M40.28,19.2c0,0,1.34,20-10.75,20c-12.09,0-11.12-20-11.12-20s-0.58-11.9,11.53-11.9
					C41.22,7.31,40.28,19.2,40.28,19.2z"/>
				<path d="M29.53,39.47c-2.65,0-4.9-0.95-6.67-2.81c-5.23-5.49-4.74-16.98-4.71-17.47c-0.01-0.19-0.22-5.36,3.17-8.92
					c2.04-2.14,4.94-3.23,8.62-3.23c3.29,0,5.89,1,7.71,2.97c3.23,3.49,2.92,8.77,2.89,9.19c0.05,0.71,0.69,12.02-4.4,17.46
					C34.41,38.52,32.18,39.47,29.53,39.47z M29.94,7.57c-3.53,0-6.3,1.03-8.24,3.06c-3.24,3.4-3.03,8.51-3.03,8.56
					c-0.01,0.14-0.51,11.78,4.57,17.11c1.67,1.76,3.79,2.65,6.29,2.65c2.5,0,4.59-0.89,6.23-2.64c4.98-5.32,4.26-16.96,4.25-17.08
					l0-0.02l0-0.02c0-0.05,0.38-5.42-2.76-8.81C35.54,8.51,33.08,7.57,29.94,7.57z"/>
			</g>
			<g>
				<path class="st1" d="M29.78,28.17c-0.49,0-0.95-0.28-1.13-0.74c-0.06-0.15-0.09-0.3-0.09-0.46v-4.19c0-0.14,0.11-0.25,0.25-0.25
					c0.14,0,0.25,0.11,0.25,0.25v4.19c0,0.1,0.02,0.19,0.05,0.28c0.13,0.31,0.51,0.49,0.87,0.39L31,27.36
					c0.14-0.04,0.27,0.04,0.31,0.18c0.04,0.14-0.04,0.27-0.18,0.31l-1.01,0.27C30.01,28.15,29.89,28.17,29.78,28.17z"/>
				<path class="st1" d="M25.95,21.86c0,0.55-0.45,1-1,1c-0.55,0-1-0.45-1-1c0-0.55,0.45-1,1-1C25.5,20.86,25.95,21.31,25.95,21.86z
					"/>
				<circle class="st1" cx="34.29" cy="21.86" r="1"/>
				<path class="st1" d="M29.87,30.87c-2.05,0-3.72-1.15-3.79-1.2c-0.11-0.08-0.14-0.24-0.06-0.35c0.08-0.11,0.24-0.14,0.35-0.06
					c0.02,0.01,1.61,1.1,3.5,1.1c1.87,0,3.2-1.08,3.21-1.09c0.11-0.09,0.27-0.07,0.36,0.03c0.09,0.11,0.07,0.27-0.03,0.36
					C33.35,29.71,31.93,30.87,29.87,30.87z"/>
				<path class="st1" d="M29.82,36.99c-0.01,0-0.03,0-0.04-0.01c-0.07-0.02-0.11-0.1-0.09-0.17l0.38-1.24
					c0.02-0.07,0.1-0.11,0.17-0.09c0.07,0.02,0.11,0.1,0.09,0.17l-0.38,1.24C29.94,36.95,29.88,36.99,29.82,36.99z"/>
			</g>
			<g>
				<path class="st11" d="M40.7,12.92c0-1.89-1.11-3.6-2.83-4.37l-2-1.06c-0.94-2.35-2.9-4.47-6.99-4.36
					c-0.38,0.01-0.75,0.08-1.11,0.2c-1.14,0.38-3.46,1.42-3.99,3.77l-2.73,1.45c-1.72,0.77-2.83,2.48-2.83,4.37v7.13
					c-0.02,0.51-0.02,1.01,0,1.49v0.07c0,0,0-0.02,0-0.06c0.02,0.46,0.06,0.9,0.12,1.31c0,0,2.47-4.95,2-8.03
					c-0.16-1.08-0.01-2.2,0.61-3.1c0.16-0.23,0.33-0.45,0.51-0.65c0.83-0.91,1.73-1.53,2.58-1.95c0.58,1.67,2.17,4.04,6.58,5.03
					c0,0-2.9-1.93-4.53-4.24c1.42,1.35,4.41,3.13,10.52,3.55c0,0,0.19-1.62-0.11-3.58c0.43,0.31,0.85,0.67,1.25,1.11
					c0.01,0.01,0.01,0.01,0.02,0.02c0.9,0.99,1.2,2.39,0.91,3.69c-0.82,3.7,1.6,8.14,1.6,8.14c0.1-0.64,0.15-1.38,0.15-2.14
					c0.01,0.61,0,1.02,0,1.12L40.7,12.92z"/>
				<path class="st1" d="M18.22,23.62l-0.12-0.72c-0.06-0.38-0.1-0.81-0.12-1.29h0v-0.07c-0.02-0.45-0.02-0.96,0-1.49l0-7.13
					c0-1.98,1.17-3.78,2.97-4.59l2.63-1.39c0.61-2.44,3.08-3.49,4.12-3.84c0.4-0.13,0.79-0.2,1.18-0.21
					c3.48-0.09,5.96,1.44,7.18,4.43l1.92,1.02c1.79,0.8,2.96,2.6,2.96,4.58v0.01l-0.26,8.91c0,0,0,0,0,0v0l-0.04,0
					c-0.02,0.38-0.06,0.74-0.11,1.06l-0.11,0.68l-0.33-0.6c-0.1-0.18-2.46-4.56-1.63-8.31c0.28-1.28-0.04-2.58-0.86-3.48
					c-0.25-0.27-0.51-0.52-0.79-0.75c0.19,1.7,0.04,3.01,0.04,3.08l-0.03,0.22l-0.22-0.02c-4.38-0.3-7.2-1.3-8.99-2.36
					c1.48,1.5,3.12,2.6,3.14,2.62l1.05,0.7l-1.23-0.28c-4.24-0.95-5.97-3.15-6.66-4.93c-0.85,0.45-1.62,1.05-2.28,1.78
					c-0.17,0.19-0.34,0.4-0.49,0.63c-0.54,0.78-0.74,1.82-0.57,2.93c0.47,3.11-1.92,7.96-2.02,8.17L18.22,23.62z M36.19,9.38
					l0.45,0.33c0.48,0.35,0.9,0.72,1.29,1.14c0.94,1.04,1.3,2.49,0.98,3.92c-0.6,2.71,0.61,5.89,1.24,7.27
					c0.03-0.4,0.05-0.85,0.05-1.32l0.03,0l0.23-7.8c0-1.79-1.06-3.42-2.69-4.16l-2.09-1.11l-0.03-0.08
					c-1.15-2.88-3.43-4.3-6.77-4.21c-0.34,0.01-0.69,0.07-1.05,0.19c-0.98,0.32-3.32,1.32-3.84,3.6l-0.02,0.1l-2.83,1.5
					c-1.65,0.74-2.71,2.37-2.71,4.17v7.13c-0.02,0.53-0.02,1.02,0,1.48l0,0.01c0.01,0.16,0.02,0.31,0.03,0.46
					c0.65-1.49,1.98-4.87,1.63-7.14c-0.19-1.22,0.04-2.38,0.65-3.26c0.17-0.25,0.35-0.48,0.53-0.68c0.76-0.83,1.66-1.51,2.65-2
					l0.24-0.12l0.09,0.25c0.53,1.53,1.86,3.48,5.2,4.55c-1-0.78-2.52-2.08-3.56-3.55l0.35-0.3c1.41,1.35,4.32,3.03,10.15,3.47
					c0.04-0.5,0.1-1.81-0.13-3.3L36.19,9.38z"/>
			</g>
		</g>
	</g>
</g>
</svg>
