<?xml version="1.0" encoding="utf-8"?>
<!-- Generator: Adobe Illustrator 24.0.1, SVG Export Plug-In . SVG Version: 6.00 Build 0)  -->
<svg version="1.1" id="Capa_1" xmlns="http://www.w3.org/2000/svg" xmlns:xlink="http://www.w3.org/1999/xlink" x="0px" y="0px"
	 viewBox="0 0 60 60" style="enable-background:new 0 0 60 60;" xml:space="preserve">
<style type="text/css">
	.st0{fill:#6F93AD;}
	.st1{fill:#1A1A1A;}
	.st2{fill:#B52C40;}
	.st3{fill:#F0DED2;}
	.st4{fill:#F4EAE2;}
	.st5{fill-rule:evenodd;clip-rule:evenodd;fill:#997156;}
	.st6{fill-rule:evenodd;clip-rule:evenodd;fill:#FFFFFF;}
	.st7{clip-path:url(#SVGID_3_);}
	.st8{fill-rule:evenodd;clip-rule:evenodd;fill:#1B1529;}
	.st9{fill:#997156;}
	.st10{fill:#256A67;}
	.st11{fill:#AF9114;}
	.st12{fill:#E8D1C2;}
	.st13{fill:none;stroke:#1A1A1A;stroke-width:1.1434;stroke-linecap:round;stroke-linejoin:round;stroke-miterlimit:10;}
	.st14{fill-rule:evenodd;clip-rule:evenodd;fill:#F0DED2;}
	.st15{fill:#FFFFFF;}
	.st16{clip-path:url(#SVGID_6_);}
	.st17{clip-path:url(#SVGID_8_);}
	.st18{clip-path:url(#SVGID_10_);}
	.st19{clip-path:url(#SVGID_12_);}
	.st20{clip-path:url(#SVGID_14_);}
	.st21{clip-path:url(#SVGID_16_);}
	.st22{clip-path:url(#SVGID_18_);}
	.st23{clip-path:url(#SVGID_20_);}
	.st24{clip-path:url(#SVGID_22_);}
	.st25{clip-path:url(#SVGID_24_);}
	.st26{clip-path:url(#SVGID_26_);}
	.st27{fill-rule:evenodd;clip-rule:evenodd;fill:#D8778A;}
	.st28{clip-path:url(#SVGID_28_);}
	.st29{clip-path:url(#SVGID_31_);}
</style>
<g>
	<defs>
		<rect id="SVGID_27_" width="60" height="60"/>
	</defs>
	<clipPath id="SVGID_3_">
		<use xlink:href="#SVGID_27_"  style="overflow:visible;"/>
	</clipPath>
	<g class="st7">
		<g>
			<g>
				<path class="st5" d="M47.96,28.15c0,0,2.56-16.53-1.45-18.41c-4.1-1.93-10.64,7.36-10.64,7.36L47.96,28.15z"/>
				<path class="st1" d="M48.12,28.61L35.56,17.13l0.12-0.17c0.27-0.39,6.71-9.42,10.93-7.44c4.12,1.94,1.69,17.98,1.58,18.66
					L48.12,28.61z M36.18,17.06l11.61,10.62c0.36-2.61,2.07-16.11-1.38-17.73C42.83,8.26,37.08,15.83,36.18,17.06z"/>
			</g>
		</g>
		<g>
			<g>
				<path class="st5" d="M11.13,27.74c0,0-2.56-16.53,1.45-18.41c4.1-1.93,10.64,7.36,10.64,7.36L11.13,27.74z"/>
				<path class="st1" d="M10.96,28.2l-0.07-0.43c-0.11-0.68-2.54-16.72,1.58-18.66c4.22-1.99,10.66,7.05,10.93,7.44l0.12,0.17
					L10.96,28.2z M13.8,9.29c-0.39,0-0.77,0.08-1.12,0.24c-3.46,1.62-1.75,15.13-1.38,17.73l11.61-10.62
					C22.1,15.54,17.35,9.29,13.8,9.29z"/>
			</g>
		</g>
		<g>
			<g transform="matrix(1,0,0,1,4.98272,0)">
				<g>
					<path class="st6" d="M6.12,64.68H43.4c0,0,0.18-26.34,0-31.88c-0.22-6.72-3.46-15.72-10.84-16.72
						c-9.63-1.31-15.07-0.4-18.31,0.8c-3.24,1.21-8.09,5-8.36,15.27C5.57,43.79,6.12,64.68,6.12,64.68z"/>
					<path class="st1" d="M43.63,64.92H5.9l-0.01-0.23c-0.01-0.21-0.54-21.03-0.24-32.54c0.3-11.23,6.05-14.57,8.51-15.48
						c4.34-1.61,10.54-1.89,18.43-0.82c7.24,0.98,10.8,9.47,11.04,16.95c0.18,5.48,0,31.62,0,31.89L43.63,64.92z M6.35,64.45h36.82
						c0.02-2.62,0.17-26.44,0-31.64c-0.2-6.08-3.2-15.49-10.64-16.5c-7.81-1.06-13.94-0.79-18.2,0.79
						c-2.37,0.88-7.92,4.11-8.21,15.06C5.83,43.01,6.29,62.15,6.35,64.45z"/>
				</g>
			</g>
		</g>
		<g>
			<defs>
				<path id="SVGID_29_" d="M23.2,41.01c0,0,5.13,1.41,6.86-1.65c0,0,1.73,2.92,6.95,1.97c0,0,0.41,7.94-7.07,7.95
					C21.57,49.29,23.2,41.01,23.2,41.01z"/>
			</defs>
			<defs>
				<path id="SVGID_30_" d="M29.92,49.51c-2.52,0-4.41-0.74-5.61-2.2c-2.06-2.51-1.37-6.19-1.34-6.34l0.05-0.25l0.24,0.07
					c0.05,0.01,4.97,1.33,6.6-1.54l0.2-0.35l0.21,0.34c0.07,0.11,1.72,2.77,6.71,1.86l0.26-0.05l0.01,0.26
					c0.01,0.15,0.17,3.8-2.1,6.19c-1.25,1.32-3,1.99-5.2,2C29.93,49.51,29.93,49.51,29.92,49.51z M23.39,41.3
					c-0.11,0.85-0.35,3.73,1.28,5.72c1.11,1.35,2.88,2.03,5.25,2.03c0.01,0,0.01,0,0.02,0c2.06,0,3.7-0.63,4.86-1.85
					c1.8-1.9,1.97-4.72,1.98-5.59c-4.18,0.68-6.1-1.1-6.7-1.83C28.35,42.24,24.43,41.54,23.39,41.3z"/>
			</defs>
			<use xlink:href="#SVGID_29_"  style="overflow:visible;fill-rule:evenodd;clip-rule:evenodd;fill:#B52C40;"/>
			<use xlink:href="#SVGID_30_"  style="overflow:visible;fill:#1A1A1A;"/>
			<clipPath id="SVGID_4_">
				<use xlink:href="#SVGID_29_"  style="overflow:visible;"/>
			</clipPath>
			<clipPath id="SVGID_6_" style="clip-path:url(#SVGID_4_);">
				<use xlink:href="#SVGID_30_"  style="overflow:visible;"/>
			</clipPath>
		</g>
		<g transform="matrix(1,0,0,1,2.4491,0)">
			<path class="st8" d="M25.62,38.26c-0.08-1.01,0.77-1.6,2.06-1.6c1.46,0,2.21,0.5,2.26,1.28c0.06,0.94-0.67,1.57-2.03,1.61
				C26.28,39.59,25.7,39.18,25.62,38.26z"/>
		</g>
		<circle class="st1" cx="36.88" cy="31.16" r="1.47"/>
		<path class="st5" d="M23.74,35.76c-0.55,0.31-1.14,0.56-1.76,0.71c-2.07,0.51-4.4-0.07-5.94-1.47c-1.3-1.19-2.01-2.9-2.15-4.61
			c-0.32-3.88,1.8-8.27,5.48-10.18c3.68-1.92,9.05-0.57,9.86,3.7c0.54,2.86-0.82,6.33-2.36,8.76
			C26.09,33.91,25.03,35.03,23.74,35.76z"/>
		<path class="st1" d="M24.63,31.16c0,0.81-0.66,1.47-1.47,1.47c-0.81,0-1.47-0.66-1.47-1.47c0-0.81,0.66-1.47,1.47-1.47
			C23.97,29.68,24.63,30.34,24.63,31.16z"/>
		<g transform="matrix(1,0,0,1,-2.22991,0)">
			<g>
				<g>
					<path class="st6" d="M28.1,41.8c0,0,0.24,1.51,0.71,1.54c0.47,0.03,0.5-1.54,0.5-1.54H28.1z"/>
					<path class="st1" d="M28.82,43.54c-0.01,0-0.01,0-0.02,0c-0.57-0.03-0.81-1.2-0.89-1.71l-0.04-0.23h1.64l0,0.2
						c0,0.21-0.04,1.28-0.4,1.62C29.02,43.5,28.92,43.54,28.82,43.54z M28.34,42c0.12,0.6,0.34,1.13,0.48,1.14
						c0.11-0.03,0.24-0.53,0.28-1.14H28.34z"/>
				</g>
				<g>
					<path class="st15" d="M28.82,43.62c-0.01,0-0.02,0-0.03,0c-0.61-0.03-0.87-1.13-0.97-1.78c-0.01-0.08,0.01-0.16,0.06-0.23
						c0.05-0.06,0.13-0.1,0.21-0.1h1.2c0.08,0,0.15,0.03,0.2,0.08c0.05,0.05,0.08,0.13,0.08,0.2c-0.01,0.31-0.05,1.33-0.43,1.68
						C29.06,43.57,28.94,43.62,28.82,43.62z"/>
					<path class="st1" d="M28.82,43.82l-0.04,0c-0.71-0.04-1.02-1.08-1.15-1.95c-0.02-0.14,0.02-0.28,0.11-0.39
						c0.09-0.11,0.23-0.17,0.37-0.17h1.2c0.13,0,0.25,0.05,0.34,0.14c0.09,0.09,0.14,0.22,0.14,0.35c-0.01,0.42-0.07,1.43-0.49,1.82
						C29.16,43.75,29,43.82,28.82,43.82z M28.1,41.72c-0.02,0-0.05,0.01-0.06,0.03c-0.02,0.02-0.02,0.04-0.02,0.07
						c0.15,0.97,0.45,1.59,0.78,1.61l0.02,0.2v-0.2c0.08,0,0.14-0.03,0.21-0.09c0.25-0.23,0.35-0.97,0.36-1.53
						c0-0.02-0.01-0.04-0.02-0.06c-0.02-0.02-0.04-0.03-0.06-0.03H28.1z"/>
				</g>
			</g>
		</g>
		<g transform="matrix(1,0,0,1,-2.22991,0)">
			<g>
				<g>
					<path class="st6" d="M35.52,41.8c0,0,0.24,1.51,0.71,1.54c0.47,0.03,0.5-1.54,0.5-1.54H35.52z"/>
					<path class="st1" d="M36.23,43.54c-0.01,0-0.01,0-0.02,0c-0.57-0.03-0.81-1.2-0.89-1.71l-0.04-0.23h1.64l0,0.2
						c0,0.21-0.04,1.28-0.4,1.62C36.44,43.5,36.34,43.54,36.23,43.54z M35.75,42c0.12,0.6,0.34,1.13,0.48,1.14
						c0.11-0.03,0.24-0.53,0.28-1.14H35.75z"/>
				</g>
				<g>
					<path class="st15" d="M36.23,43.62c-0.01,0-0.02,0-0.03,0c-0.61-0.03-0.87-1.13-0.97-1.78c-0.01-0.08,0.01-0.16,0.06-0.23
						c0.05-0.06,0.13-0.1,0.21-0.1h1.2c0.08,0,0.15,0.03,0.2,0.08c0.05,0.05,0.08,0.13,0.08,0.2c-0.01,0.31-0.05,1.33-0.43,1.68
						C36.48,43.57,36.36,43.62,36.23,43.62z"/>
					<path class="st1" d="M36.23,43.82l-0.04,0c-0.71-0.04-1.02-1.08-1.15-1.95c-0.02-0.14,0.02-0.28,0.11-0.39
						c0.09-0.11,0.23-0.17,0.37-0.17h1.2c0.13,0,0.25,0.05,0.34,0.14c0.09,0.09,0.14,0.22,0.14,0.35c-0.01,0.42-0.07,1.43-0.49,1.82
						C36.58,43.75,36.41,43.82,36.23,43.82z M35.52,41.72c-0.02,0-0.05,0.01-0.06,0.03c-0.02,0.02-0.02,0.04-0.02,0.07
						c0.15,0.97,0.45,1.59,0.78,1.61l0.02,0.2v-0.2c0.08,0,0.14-0.03,0.21-0.09c0.25-0.23,0.35-0.97,0.36-1.53
						c0-0.02-0.01-0.04-0.02-0.06c-0.02-0.02-0.04-0.03-0.06-0.03H35.52z"/>
				</g>
			</g>
		</g>
		<g>
			<g>
				<path class="st27" d="M24.51,47.08c0,0,0.95-2.58,4.56-2.87c3.61-0.29,5.46,1.8,5.85,3.2c0,0-1.98,2.14-5.23,2.11
					C26.43,49.5,24.53,47.77,24.51,47.08z"/>
				<path class="st1" d="M29.75,49.73c-0.02,0-0.05,0-0.07,0c-3.22-0.03-5.34-1.75-5.37-2.64l0-0.04l0.01-0.04
					c0.04-0.11,1.04-2.7,4.73-3c3.69-0.29,5.64,1.84,6.05,3.35l0.03,0.11l-0.08,0.08C34.98,47.64,33.01,49.73,29.75,49.73z
					 M24.71,47.11c0.09,0.58,1.88,2.19,4.98,2.22c2.78,0.01,4.61-1.59,5-1.97c-0.44-1.37-2.25-3.22-5.61-2.95
					C25.86,44.67,24.85,46.78,24.71,47.11z"/>
			</g>
		</g>
	</g>
</g>
</svg>
