<?xml version="1.0" encoding="utf-8"?>
<!-- Generator: Adobe Illustrator 24.0.1, SVG Export Plug-In . SVG Version: 6.00 Build 0)  -->
<svg version="1.1" id="Capa_1" xmlns="http://www.w3.org/2000/svg" xmlns:xlink="http://www.w3.org/1999/xlink" x="0px" y="0px"
	 viewBox="0 0 60 60" style="enable-background:new 0 0 60 60;" xml:space="preserve">
<style type="text/css">
	.st0{fill:#6F93AD;}
	.st1{fill:#1A1A1A;}
	.st2{fill:#B52C40;}
	.st3{fill:#F0DED2;}
	.st4{fill:#F4EAE2;}
	.st5{fill-rule:evenodd;clip-rule:evenodd;fill:#997156;}
	.st6{fill-rule:evenodd;clip-rule:evenodd;fill:#FFFFFF;}
	.st7{clip-path:url(#SVGID_3_);}
	.st8{fill-rule:evenodd;clip-rule:evenodd;fill:#1B1529;}
	.st9{fill:#997156;}
	.st10{fill:#256A67;}
	.st11{fill:#AF9114;}
	.st12{fill:#E8D1C2;}
	.st13{fill:none;stroke:#1A1A1A;stroke-width:1.1434;stroke-linecap:round;stroke-linejoin:round;stroke-miterlimit:10;}
	.st14{fill-rule:evenodd;clip-rule:evenodd;fill:#F0DED2;}
	.st15{fill:#FFFFFF;}
	.st16{clip-path:url(#SVGID_6_);}
	.st17{clip-path:url(#SVGID_8_);}
	.st18{clip-path:url(#SVGID_10_);}
	.st19{clip-path:url(#SVGID_12_);}
	.st20{clip-path:url(#SVGID_14_);}
	.st21{clip-path:url(#SVGID_16_);}
	.st22{clip-path:url(#SVGID_18_);}
	.st23{clip-path:url(#SVGID_20_);}
	.st24{clip-path:url(#SVGID_22_);}
	.st25{clip-path:url(#SVGID_24_);}
	.st26{clip-path:url(#SVGID_26_);}
	.st27{fill-rule:evenodd;clip-rule:evenodd;fill:#D8778A;}
	.st28{clip-path:url(#SVGID_28_);}
	.st29{clip-path:url(#SVGID_31_);}
</style>
<g>
	<defs>
		<rect id="SVGID_13_" width="60" height="60"/>
	</defs>
	<clipPath id="SVGID_3_">
		<use xlink:href="#SVGID_13_"  style="overflow:visible;"/>
	</clipPath>
	<g class="st7">
		<g>
			<circle class="st9" cx="15.44" cy="17.61" r="6.52"/>
			<path class="st1" d="M15.44,24.36c-3.72,0-6.75-3.03-6.75-6.75s3.03-6.75,6.75-6.75s6.75,3.03,6.75,6.75S19.17,24.36,15.44,24.36
				z M15.44,11.32c-3.47,0-6.29,2.82-6.29,6.29s2.82,6.29,6.29,6.29s6.29-2.82,6.29-6.29S18.91,11.32,15.44,11.32z"/>
		</g>
		<g>
			<circle class="st9" cx="44.79" cy="18.02" r="6.52"/>
			<path class="st1" d="M44.79,24.77c-3.72,0-6.75-3.03-6.75-6.75s3.03-6.75,6.75-6.75c3.72,0,6.75,3.03,6.75,6.75
				S48.51,24.77,44.79,24.77z M44.79,11.72c-3.47,0-6.29,2.82-6.29,6.29s2.82,6.29,6.29,6.29s6.29-2.82,6.29-6.29
				S48.26,11.72,44.79,11.72z"/>
		</g>
		<g>
			<g transform="matrix(1,0,0,1,4.98272,0)">
				<g>
					<path class="st5" d="M6.52,62.85h36.88c0,0,0.18-26.06,0-31.53c-0.22-6.65-3.42-15.55-10.72-16.54
						c-9.52-1.29-14.91-0.4-18.12,0.8c-3.21,1.19-8,4.95-8.27,15.11C5.98,42.19,6.52,62.85,6.52,62.85z"/>
					<path class="st1" d="M43.62,63.08H6.29l-0.01-0.22c-0.01-0.21-0.54-20.8-0.24-32.19c0.29-11.11,5.99-14.41,8.42-15.32
						c4.29-1.59,10.42-1.87,18.23-0.81c7.16,0.97,10.68,9.37,10.92,16.76c0.18,5.42,0,31.28,0,31.54L43.62,63.08z M6.74,62.62h36.42
						c0.02-2.59,0.17-26.16,0-31.3C42.97,25.31,40,16,32.64,15c-7.73-1.05-13.79-0.78-18.01,0.78c-2.35,0.87-7.84,4.07-8.12,14.9
						C6.23,41.41,6.69,60.34,6.74,62.62z"/>
				</g>
			</g>
		</g>
		<g transform="matrix(1,0,0,1,2.4491,0)">
			<path class="st8" d="M25.02,36.36c-0.12-1.28,1.08-2.02,2.91-2.02c2.06,0,3.13,0.63,3.2,1.62c0.08,1.2-0.95,1.99-2.88,2.03
				C25.95,38.04,25.13,37.52,25.02,36.36z"/>
		</g>
		<path class="st1" d="M25.69,29.68c0,0.8-0.65,1.46-1.46,1.46s-1.46-0.65-1.46-1.46c0-0.8,0.65-1.46,1.46-1.46
			S25.69,28.88,25.69,29.68z"/>
		<circle class="st1" cx="36.18" cy="29.68" r="1.46"/>
		<g>
			<path class="st9" d="M25.99,38.39c0,0,1.19,2.35,4.8,2.35c3.34,0,4.19-2.35,4.19-2.35"/>
			<path class="st1" d="M26.09,38.34c0.23,0.35,0.53,0.67,0.86,0.94c0.33,0.27,0.7,0.51,1.09,0.68c0.78,0.37,1.64,0.53,2.5,0.55
				c0.86,0.04,1.73-0.08,2.5-0.44c0.76-0.35,1.44-0.96,1.82-1.71l0.23,0.08c-0.34,0.89-1.04,1.57-1.87,2
				c-0.83,0.43-1.78,0.56-2.7,0.53c-0.91-0.04-1.84-0.22-2.67-0.64c-0.82-0.42-1.55-1.04-1.99-1.88L26.09,38.34z"/>
		</g>
		<g>
			<path class="st1" d="M30.49,37.55c0.05,0.27,0.07,0.55,0.09,0.82c0.02,0.27,0.02,0.55,0.02,0.82c-0.01,0.55-0.03,1.1-0.11,1.64
				h-0.24c-0.08-0.55-0.1-1.1-0.11-1.64c0-0.27,0-0.55,0.02-0.82c0.02-0.27,0.04-0.55,0.09-0.82H30.49z"/>
		</g>
	</g>
</g>
</svg>
