<?xml version="1.0" encoding="utf-8"?>
<!-- Generator: Adobe Illustrator 24.0.1, SVG Export Plug-In . SVG Version: 6.00 Build 0)  -->
<svg version="1.1" id="Capa_1" xmlns="http://www.w3.org/2000/svg" xmlns:xlink="http://www.w3.org/1999/xlink" x="0px" y="0px"
	 viewBox="0 0 60 60" style="enable-background:new 0 0 60 60;" xml:space="preserve">
<style type="text/css">
	.st0{fill:#6F93AD;}
	.st1{fill:#1A1A1A;}
	.st2{fill:#B52C40;}
	.st3{fill:#F0DED2;}
	.st4{fill:#F4EAE2;}
	.st5{fill-rule:evenodd;clip-rule:evenodd;fill:#997156;}
	.st6{fill-rule:evenodd;clip-rule:evenodd;fill:#FFFFFF;}
	.st7{clip-path:url(#SVGID_3_);}
	.st8{fill-rule:evenodd;clip-rule:evenodd;fill:#1B1529;}
	.st9{fill:#997156;}
	.st10{fill:#256A67;}
	.st11{fill:#AF9114;}
	.st12{fill:#E8D1C2;}
	.st13{fill:none;stroke:#1A1A1A;stroke-width:1.1434;stroke-linecap:round;stroke-linejoin:round;stroke-miterlimit:10;}
	.st14{fill-rule:evenodd;clip-rule:evenodd;fill:#F0DED2;}
	.st15{fill:#FFFFFF;}
	.st16{clip-path:url(#SVGID_6_);}
	.st17{clip-path:url(#SVGID_8_);}
	.st18{clip-path:url(#SVGID_10_);}
	.st19{clip-path:url(#SVGID_12_);}
	.st20{clip-path:url(#SVGID_14_);}
	.st21{clip-path:url(#SVGID_16_);}
	.st22{clip-path:url(#SVGID_18_);}
	.st23{clip-path:url(#SVGID_20_);}
	.st24{clip-path:url(#SVGID_22_);}
	.st25{clip-path:url(#SVGID_24_);}
	.st26{clip-path:url(#SVGID_26_);}
	.st27{fill-rule:evenodd;clip-rule:evenodd;fill:#D8778A;}
	.st28{clip-path:url(#SVGID_28_);}
	.st29{clip-path:url(#SVGID_31_);}
</style>
<g>
	<defs>
		<rect id="SVGID_11_" width="60" height="60"/>
	</defs>
	<clipPath id="SVGID_3_">
		<use xlink:href="#SVGID_11_"  style="overflow:visible;"/>
	</clipPath>
	<g class="st7">
		<g>
			<path class="st3" d="M29.22,29.41c0,0,1.43-18.34-8.68-25.1c0,0-6.9,16.12,0.31,30.25L29.22,29.41z"/>
			<path d="M20.77,34.89l-0.11-0.22C13.48,20.6,20.26,4.38,20.33,4.22l0.11-0.25l0.23,0.15c10.1,6.75,8.79,25.12,8.78,25.31
				l-0.01,0.12L20.77,34.89z M20.65,4.67c-0.83,2.12-6.11,16.73,0.3,29.57L29,29.28C29.1,27.72,29.87,11.11,20.65,4.67z"/>
		</g>
		<g>
			<path class="st3" d="M33.84,25.02c0,0,1.07-3.74,3.65-7.11c3.67,1.22,9.77,0.01,6.66,5.72c-1.04,1.91-2.55,3.82-4.75,5.53
				L33.84,25.02z"/>
			<path d="M39.4,29.45l-5.83-4.34l0.04-0.15c0.01-0.04,1.11-3.82,3.68-7.19l0.1-0.13l0.16,0.05c0.91,0.3,1.98,0.46,3.02,0.6
				c1.96,0.28,3.82,0.54,4.44,1.79c0.43,0.85,0.21,2.05-0.67,3.66c-1.16,2.14-2.78,4.03-4.81,5.61L39.4,29.45z M34.11,24.94
				l5.29,3.94c1.91-1.52,3.44-3.32,4.55-5.35c0.8-1.47,1.02-2.52,0.66-3.23c-0.52-1.03-2.25-1.28-4.09-1.54
				c-1-0.14-2.03-0.29-2.94-0.57C35.41,21.07,34.33,24.22,34.11,24.94z"/>
		</g>
		<path class="st2" d="M38.08,21.39c-2.71,5.64-4.17,11.46-4.17,11.46l0.82,0.76c5.42-2.77,7.29-7.99,7.8-12.23H38.08z"/>
		<g>
			<path class="st3" d="M38.31,26.85c0,0,0.1-3.49,1.74-7.06"/>
			<path d="M38.54,26.85l-0.46-0.01c0-0.04,0.12-3.58,1.76-7.15l0.42,0.19C38.66,23.37,38.54,26.82,38.54,26.85z"/>
		</g>
		<path class="st2" d="M22.17,9.43c-0.16-0.61-6.01,13.97,0.06,21.64l0.83-0.66C23.06,30.41,24.26,17.25,22.17,9.43z"/>
		<path d="M23.4,31.1l-0.45-0.11c0.03-0.13,3.12-12.97-0.96-21.41l0.41-0.2C26.55,17.97,23.43,30.97,23.4,31.1z"/>
		<g>
			<g>
				<g transform="matrix(1,0,0,1,4.98272,0)">
					<g>
						<path class="st14" d="M10.47,64.18h32.25c0,0,0.16-21.15,0-25.59c-0.19-5.4-2.99-12.62-9.38-13.43
							c-8.33-1.05-13.04-0.32-15.84,0.65c-2.81,0.97-7,4.02-7.23,12.26C9.99,47.41,10.47,64.18,10.47,64.18z"/>
						<path d="M42.94,64.41h-32.7l-0.01-0.22c0-0.17-0.47-16.88-0.21-26.13c0.26-9.05,5.25-11.74,7.39-12.47
							c3.75-1.29,9.12-1.52,15.95-0.66c6.28,0.79,9.37,7.63,9.58,13.65c0.15,4.4,0,25.39,0,25.6L42.94,64.41z M10.69,63.95h31.79
							c0.02-2.3,0.15-21.21,0-25.36c-0.17-4.87-2.76-12.4-9.18-13.21c-6.76-0.85-12.05-0.64-15.74,0.64
							c-2.05,0.71-6.83,3.29-7.08,12.05C10.24,46.72,10.64,61.93,10.69,63.95z"/>
					</g>
				</g>
			</g>
		</g>
		<path class="st1" d="M27.04,37.54c0,0.8-0.65,1.46-1.46,1.46s-1.46-0.65-1.46-1.46s0.65-1.46,1.46-1.46S27.04,36.73,27.04,37.54z"
			/>
		<circle class="st1" cx="37.12" cy="37.54" r="1.46"/>
		<g>
			<path d="M22.38,42.24l-0.25-0.39c2.7-1.71,5.18-0.5,5.28-0.45l-0.21,0.41C27.19,41.8,24.86,40.68,22.38,42.24z"/>
			<path d="M21.86,45.1l-0.34-0.31c2.28-2.55,5.75-2.08,5.9-2.06l-0.07,0.46C27.31,43.19,23.97,42.74,21.86,45.1z"/>
			<path d="M23.84,46.48l-0.39-0.25c1.33-2.11,3.83-2.15,3.94-2.15l0,0.46C27.37,44.55,25.04,44.59,23.84,46.48z"/>
		</g>
		<g>
			<path d="M39.73,42.24c-2.48-1.56-4.81-0.44-4.83-0.43L34.7,41.4c0.1-0.05,2.58-1.25,5.28,0.45L39.73,42.24z"/>
			<path d="M40.26,45.1c-2.11-2.36-5.45-1.92-5.49-1.91l-0.07-0.46c0.15-0.02,3.62-0.49,5.9,2.06L40.26,45.1z"/>
			<path d="M38.27,46.48c-1.2-1.9-3.53-1.94-3.55-1.94l0-0.46c0.11,0,2.6,0.04,3.94,2.15L38.27,46.48z"/>
		</g>
		<g>
			<path class="st1" d="M30.05,45.83c-0.72,0-1.31-0.59-1.31-1.31v-0.33h0.46v0.33c0,0.47,0.38,0.85,0.85,0.85s0.85-0.38,0.85-0.85
				V43.7h0.46v0.82C31.36,45.24,30.78,45.83,30.05,45.83z"/>
			<path class="st1" d="M32.22,45.83c-0.72,0-1.31-0.59-1.31-1.31V43.7h0.46v0.82c0,0.47,0.38,0.85,0.85,0.85
				c0.47,0,0.85-0.38,0.85-0.85v-0.33h0.46v0.33C33.53,45.24,32.94,45.83,32.22,45.83z"/>
		</g>
		<g>
			<g>
				<path class="st2" d="M32.86,42.16c0,0.65-0.77,1.53-1.73,1.53c-0.95,0-1.73-0.89-1.73-1.53s0.77-0.81,1.73-0.81
					C32.09,41.36,32.86,41.52,32.86,42.16z"/>
				<path class="st1" d="M31.13,43.93c-1.05,0-1.96-0.97-1.96-1.76c0-1.04,1.47-1.04,1.96-1.04c0.48,0,1.96,0,1.96,1.04
					C33.09,42.96,32.19,43.93,31.13,43.93z M31.13,41.59c-1.5,0-1.5,0.43-1.5,0.58c0,0.51,0.67,1.3,1.5,1.3c0.83,0,1.5-0.79,1.5-1.3
					C32.63,42.02,32.63,41.59,31.13,41.59z"/>
			</g>
		</g>
		<g>
			<path class="st3" d="M37.89,17.91c0.54,3.43,2.28,10.21,8.44,13.43c0,0,1.61-3.34,1.42-7.9c-0.11-2.69-2.05-4.99-4.71-5.48
				C41.07,17.59,39.17,17.68,37.89,17.91z"/>
			<path d="M46.44,31.66l-0.21-0.11c-6.09-3.19-7.98-9.89-8.56-13.6l-0.04-0.22l0.22-0.04c0.76-0.14,2.8-0.41,5.24,0.05
				c2.72,0.5,4.78,2.9,4.89,5.7c0.19,4.57-1.38,7.88-1.45,8.01L46.44,31.66z M38.16,18.1c0.6,3.62,2.45,9.85,8.06,12.92
				c0.34-0.81,1.46-3.78,1.3-7.57c-0.11-2.59-2.01-4.8-4.52-5.27C40.85,17.79,39.02,17.97,38.16,18.1z"/>
		</g>
	</g>
</g>
</svg>
