<?xml version="1.0" encoding="utf-8"?>
<!-- Generator: Adobe Illustrator 24.0.1, SVG Export Plug-In . SVG Version: 6.00 Build 0)  -->
<svg version="1.1" id="Capa_1" xmlns="http://www.w3.org/2000/svg" xmlns:xlink="http://www.w3.org/1999/xlink" x="0px" y="0px"
	 viewBox="0 0 60 60" style="enable-background:new 0 0 60 60;" xml:space="preserve">
<style type="text/css">
	.st0{fill:#6F93AD;}
	.st1{fill:#1A1A1A;}
	.st2{fill:#B52C40;}
	.st3{fill:#F0DED2;}
	.st4{fill:#F4EAE2;}
	.st5{fill-rule:evenodd;clip-rule:evenodd;fill:#997156;}
	.st6{fill-rule:evenodd;clip-rule:evenodd;fill:#FFFFFF;}
	.st7{clip-path:url(#SVGID_3_);}
	.st8{fill-rule:evenodd;clip-rule:evenodd;fill:#1B1529;}
	.st9{fill:#997156;}
	.st10{fill:#256A67;}
	.st11{fill:#AF9114;}
	.st12{fill:#E8D1C2;}
	.st13{fill:none;stroke:#1A1A1A;stroke-width:1.1434;stroke-linecap:round;stroke-linejoin:round;stroke-miterlimit:10;}
	.st14{fill-rule:evenodd;clip-rule:evenodd;fill:#F0DED2;}
	.st15{fill:#FFFFFF;}
	.st16{clip-path:url(#SVGID_6_);}
	.st17{clip-path:url(#SVGID_8_);}
	.st18{clip-path:url(#SVGID_10_);}
	.st19{clip-path:url(#SVGID_12_);}
	.st20{clip-path:url(#SVGID_14_);}
	.st21{clip-path:url(#SVGID_16_);}
	.st22{clip-path:url(#SVGID_18_);}
	.st23{clip-path:url(#SVGID_20_);}
	.st24{clip-path:url(#SVGID_22_);}
	.st25{clip-path:url(#SVGID_24_);}
	.st26{clip-path:url(#SVGID_26_);}
	.st27{fill-rule:evenodd;clip-rule:evenodd;fill:#D8778A;}
	.st28{clip-path:url(#SVGID_28_);}
	.st29{clip-path:url(#SVGID_31_);}
</style>
<g>
	<defs>
		<rect id="SVGID_17_" width="60" height="60"/>
	</defs>
	<clipPath id="SVGID_3_">
		<use xlink:href="#SVGID_17_"  style="overflow:visible;"/>
	</clipPath>
	<g class="st7">
		<g>
			<g>
				<g>
					<path class="st4" d="M24.36,40.1v7.05c0,0-2.28,3.2-8.36,4.26h26.83c0,0-7.79-1.62-8.35-4.26v-7.03"/>
					<path class="st1" d="M45.39,51.68H16l-0.05-0.53c5.41-0.94,7.78-3.64,8.14-4.09V40.1h0.53v7.14l-0.05,0.07
						c-0.08,0.12-1.84,2.51-6.28,3.84H40.7c-2.4-0.69-6.08-2.05-6.49-3.94l-0.01-0.06v-7.03h0.53v7c0.48,2.01,6.03,3.59,8.14,4.03
						L45.39,51.68z"/>
				</g>
				<g>
					<path class="st1" d="M24.36,39.85c0,0,2.05,4.7,6.21,4.4c0,0,2.97-0.03,3.67-3.05l-0.29-1.35
						C33.95,39.85,30.21,42.58,24.36,39.85z"/>
					<path class="st1" d="M30.18,44.53c-4.02,0-6.05-4.53-6.07-4.57l-0.28-0.64l0.63,0.3c5.63,2.62,9.29,0.05,9.33,0.03l0.33-0.24
						l0.39,1.8l-0.01,0.06c-0.74,3.19-3.9,3.25-3.93,3.26C30.44,44.52,30.31,44.53,30.18,44.53z M24.95,40.39
						c0.73,1.24,2.61,3.81,5.61,3.59c0.13,0,2.75-0.07,3.42-2.79l-0.2-0.92C32.77,40.85,29.57,42.27,24.95,40.39z"/>
				</g>
				<g>
					<path class="st2" d="M43.72,51.41H31.45H29.2H16.47c0,0-12.17,6.16-12.17,16.68h24.9h2.26h24.43
						C55.88,57.57,43.72,51.41,43.72,51.41z"/>
					<path class="st1" d="M56.15,68.35H4.03v-0.26c0-10.56,12.19-16.85,12.31-16.91l0.06-0.03h27.38l0.06,0.03
						c0.12,0.06,12.31,6.35,12.31,16.91V68.35z M4.57,67.82h51.05c-0.2-9.72-11.09-15.69-11.97-16.15H16.53
						C15.66,52.14,4.76,58.1,4.57,67.82z"/>
				</g>
			</g>
		</g>
		<g>
			<g>
				<path class="st1" d="M40.44,12.13c0,0,0.26,7.51,4.05,11.41c4.9,5.06,5.69,18.58-10.79,17.49l2.43-31.41L40.44,12.13z"/>
				<path class="st1" d="M32.62,15.12c2.05,0.73,3.8,2.02,4.95,3.88c0.08,0.14,0.17,0.28,0.25,0.42c1.62-1.59,2.62-3.81,2.62-6.25
					c0-4.85-3.93-8.78-8.78-8.78s-8.78,3.93-8.78,8.78c0,0.52,0.05,1.03,0.13,1.53C26.23,14.21,29.57,14.04,32.62,15.12z"/>
			</g>
			<path class="st1" d="M18.63,26.41c0,0-3.34-11.64,5.5-16.07s15.85,3.28,16.31,6.41l-12.51-3.29l-5.23,2.75
				c0,0-1.19,3.16-3.18,4.04L18.63,26.41"/>
			<g>
				<g>
					<g>
						<path class="st4" d="M39.87,32.43c0.82,1.13,2.41,0.39,3.33-1.08c0.92-1.47,1.35-4.42,0-5.22c-1.35-0.8-2.49,0.85-2.49,0.85
							s-0.33,2.98-0.57,4.09L39.87,32.43z"/>
						<path class="st1" d="M40.91,33.24c-0.5,0-0.94-0.23-1.25-0.66l-0.07-0.09l0.3-1.47c0.23-1.09,0.56-4.04,0.56-4.07l0.01-0.07
							l0.04-0.05c0.44-0.64,1.61-1.65,2.84-0.92c0.43,0.26,0.73,0.7,0.88,1.32c0.33,1.35-0.14,3.23-0.79,4.27
							c-0.65,1.04-1.61,1.72-2.46,1.75C40.95,33.24,40.93,33.24,40.91,33.24z M40.15,32.36c0.21,0.24,0.48,0.36,0.79,0.35
							c0.66-0.02,1.48-0.63,2.03-1.51c0.59-0.94,1.02-2.65,0.72-3.86c-0.12-0.47-0.33-0.8-0.63-0.99c-1.01-0.6-1.9,0.46-2.1,0.72
							c-0.05,0.47-0.34,3.02-0.56,4.05L40.15,32.36z"/>
					</g>
					<g>
						<g>
							<g>
								<path class="st4" d="M40.35,29.72c1.08-2.24,2.7-1.74,2.7-1.74"/>
								<path class="st1" d="M40.59,29.83l-0.48-0.23c1.16-2.42,3-1.89,3.02-1.88l-0.15,0.51C42.92,28.21,41.55,27.84,40.59,29.83z"
									/>
							</g>
						</g>
						<g>
							<path class="st4" d="M41.19,28.61c0,0,1.66,0.89,0.56,2.22"/>
							<path class="st1" d="M41.96,30.99l-0.41-0.34c0.25-0.31,0.35-0.61,0.3-0.89c-0.11-0.56-0.77-0.92-0.78-0.93l0.25-0.47
								c0.04,0.02,0.89,0.48,1.05,1.29C42.45,30.11,42.32,30.56,41.96,30.99z"/>
						</g>
					</g>
				</g>
			</g>
			<g>
				<g>
					<g>
						<path class="st4" d="M19.56,32.42c-0.82,1.13-2.31,0.4-3.23-1.07c-0.92-1.47-1.35-4.42,0-5.22c1.35-0.8,2.49,0.85,2.49,0.85"
							/>
						<path class="st1" d="M18.54,33.23c-0.02,0-0.04,0-0.06,0c-0.81-0.03-1.73-0.7-2.38-1.75c-0.65-1.04-1.12-2.92-0.79-4.27
							c0.15-0.62,0.45-1.06,0.88-1.32c1.24-0.73,2.4,0.29,2.84,0.92l-0.44,0.3c-0.04-0.06-1.02-1.43-2.14-0.77
							c-0.31,0.18-0.52,0.51-0.64,0.99c-0.3,1.22,0.14,2.92,0.72,3.86c0.55,0.89,1.32,1.48,1.95,1.5c0.34,0.01,0.62-0.14,0.84-0.44
							l0.43,0.31C19.46,33.01,19.03,33.23,18.54,33.23z"/>
					</g>
					<g>
						<g>
							<g>
								<path class="st4" d="M16.48,27.97c0,0,1.52-0.51,2.6,1.73"/>
								<path class="st1" d="M18.84,29.82c-0.96-1.98-2.23-1.61-2.28-1.6l-0.17-0.5c0.02-0.01,1.76-0.55,2.92,1.87L18.84,29.82z"/>
							</g>
						</g>
						<g>
							<path class="st4" d="M18.34,28.61c0,0-1.66,0.89-0.56,2.22"/>
							<path class="st1" d="M17.57,30.99c-0.36-0.44-0.5-0.88-0.41-1.33c0.16-0.8,1.01-1.27,1.05-1.29l0.25,0.47
								c-0.01,0-0.67,0.37-0.78,0.93c-0.05,0.28,0.05,0.58,0.3,0.89L17.57,30.99z"/>
						</g>
					</g>
				</g>
			</g>
			<g>
				<path class="st4" d="M40.72,22.61c0,0,1.35,19.43-10.8,19.43c-12.15,0-11.18-19.43-11.18-19.43s-0.59-11.56,11.59-11.56
					C41.66,11.05,40.72,22.61,40.72,22.61z"/>
				<path class="st1" d="M29.91,42.3c-2.73,0-5.02-0.96-6.83-2.86c-5.13-5.39-4.64-16.39-4.61-16.85c-0.01-0.18-0.22-5.09,3.07-8.55
					c2.05-2.16,5.01-3.26,8.78-3.26c3.37,0,6.02,1.01,7.85,3c3.13,3.4,2.83,8.41,2.8,8.82c0.05,0.69,0.68,11.51-4.3,16.84
					C34.92,41.34,32.64,42.3,29.91,42.3z M30.33,11.31c-3.62,0-6.44,1.04-8.39,3.09C18.8,17.7,19,22.54,19,22.59
					c-0.01,0.14-0.5,11.26,4.47,16.49c1.7,1.79,3.87,2.69,6.44,2.69c2.57,0,4.72-0.9,6.38-2.69c4.87-5.22,4.16-16.35,4.15-16.46
					l0-0.02l0-0.02c0-0.05,0.38-5.15-2.66-8.44C36.06,12.27,33.54,11.31,30.33,11.31z"/>
			</g>
			<g>
				<path class="st1" d="M30.17,31.55c-0.5,0-0.95-0.28-1.13-0.74c-0.06-0.15-0.09-0.31-0.09-0.47v-1.87c0-0.14,0.11-0.25,0.25-0.25
					c0.14,0,0.25,0.11,0.25,0.25v1.87c0,0.1,0.02,0.19,0.05,0.28c0.13,0.32,0.51,0.49,0.87,0.39l0.55-0.15
					c0.13-0.04,0.28,0.04,0.31,0.18c0.04,0.14-0.04,0.28-0.18,0.31l-0.55,0.15C30.39,31.54,30.28,31.55,30.17,31.55z"/>
				<circle class="st1" cx="25.31" cy="26.15" r="1.01"/>
				<circle class="st1" cx="34.7" cy="26.15" r="1.01"/>
				<path class="st1" d="M30.12,34.54c-2.06,0-3.6-0.95-3.66-0.99c-0.12-0.07-0.16-0.23-0.08-0.35c0.07-0.12,0.23-0.16,0.35-0.08
					c0.01,0.01,1.49,0.91,3.39,0.91c1.9,0,3.38-0.9,3.39-0.91c0.12-0.08,0.28-0.04,0.35,0.08c0.07,0.12,0.04,0.28-0.08,0.35
					C33.72,33.59,32.18,34.54,30.12,34.54z"/>
			</g>
			<g>
				<path class="st1" d="M18.63,26.41c0,0-3.34-11.64,5.5-16.07s15.85,3.28,16.31,6.41l-12.51-3.29l-5.23,2.75
					c0,0-1.19,3.16-3.18,4.04L18.63,26.41"/>
				<path class="st1" d="M18.63,26.41c0,0,4.65-5.85,1.71-11.71C20.34,14.7,18.2,21.87,18.63,26.41z"/>
				<path class="st1" d="M40.69,26.69c0,0-4.01-4.54-2.02-11.99C38.67,14.7,41.12,22.15,40.69,26.69z"/>
				<path class="st1" d="M21.66,13.76c0,0,9.23,14.16,20.47,9.92C42.13,23.69,32.89,9.01,21.66,13.76z"/>
				<path class="st1" d="M24.7,15.5c-0.02,0.14,0.85,5.85,6.29,8.02c0,0-7.82-0.39-10.03-7.43L24.7,15.5z"/>
				<g>
					<path class="st2" d="M41.89,18.5v4.02c0,0.16-0.21,0.24-0.31,0.1c-1.12-1.46-5.21-6.07-12.06-5.82
						c-6.8,0.25-10.28,4.64-11.23,6.06c-0.08,0.12-0.27,0.06-0.27-0.08v-3.86c0-0.42,0.11-0.83,0.32-1.19
						c1.06-1.79,4.73-6.14,11.18-6.14c7.96,0,11.64,4.76,12.27,6.02C41.85,17.75,41.89,18.36,41.89,18.5z"/>
					<path class="st1" d="M18.17,23.2c-0.04,0-0.08-0.01-0.12-0.02c-0.18-0.05-0.29-0.21-0.29-0.39v-3.86
						c0-0.47,0.12-0.93,0.36-1.33c0.38-0.64,3.92-6.27,11.4-6.27c7.74,0,11.65,4.45,12.51,6.17c0.11,0.23,0.13,1,0.13,1v4.02
						c0,0.19-0.12,0.35-0.3,0.41c-0.18,0.06-0.37,0-0.49-0.15c-1.08-1.4-5.11-5.96-11.84-5.71c-6.7,0.24-10.13,4.61-11.02,5.95
						C18.43,23.13,18.3,23.2,18.17,23.2z M29.52,11.86c-7.19,0-10.58,5.39-10.95,6.01c-0.19,0.32-0.29,0.68-0.29,1.06v3.49
						c1.19-1.65,4.72-5.64,11.23-5.88c6.68-0.25,10.8,4.07,12.11,5.71V18.5c0-0.18-0.04-0.68-0.07-0.78
						C41.52,17.68,38.37,11.86,29.52,11.86z"/>
				</g>
			</g>
		</g>
	</g>
</g>
</svg>
