<?xml version="1.0" encoding="utf-8"?>
<!-- Generator: Adobe Illustrator 24.0.1, SVG Export Plug-In . SVG Version: 6.00 Build 0)  -->
<svg version="1.1" id="Capa_1" xmlns="http://www.w3.org/2000/svg" xmlns:xlink="http://www.w3.org/1999/xlink" x="0px" y="0px"
	 viewBox="0 0 60 60" style="enable-background:new 0 0 60 60;" xml:space="preserve">
<style type="text/css">
	.st0{fill:#6F93AD;}
	.st1{fill:#1A1A1A;}
	.st2{fill:#B52C40;}
	.st3{fill:#F0DED2;}
	.st4{fill:#F4EAE2;}
	.st5{fill-rule:evenodd;clip-rule:evenodd;fill:#997156;}
	.st6{fill-rule:evenodd;clip-rule:evenodd;fill:#FFFFFF;}
	.st7{clip-path:url(#SVGID_3_);}
	.st8{fill-rule:evenodd;clip-rule:evenodd;fill:#1B1529;}
	.st9{fill:#997156;}
	.st10{fill:#256A67;}
	.st11{fill:#AF9114;}
	.st12{fill:#E8D1C2;}
	.st13{fill:none;stroke:#1A1A1A;stroke-width:1.1434;stroke-linecap:round;stroke-linejoin:round;stroke-miterlimit:10;}
	.st14{fill-rule:evenodd;clip-rule:evenodd;fill:#F0DED2;}
	.st15{fill:#FFFFFF;}
	.st16{clip-path:url(#SVGID_6_);}
	.st17{clip-path:url(#SVGID_8_);}
	.st18{clip-path:url(#SVGID_10_);}
	.st19{clip-path:url(#SVGID_12_);}
	.st20{clip-path:url(#SVGID_14_);}
	.st21{clip-path:url(#SVGID_16_);}
	.st22{clip-path:url(#SVGID_18_);}
	.st23{clip-path:url(#SVGID_20_);}
	.st24{clip-path:url(#SVGID_22_);}
	.st25{clip-path:url(#SVGID_24_);}
	.st26{clip-path:url(#SVGID_26_);}
	.st27{fill-rule:evenodd;clip-rule:evenodd;fill:#D8778A;}
	.st28{clip-path:url(#SVGID_28_);}
	.st29{clip-path:url(#SVGID_31_);}
</style>
<g>
	<defs>
		<rect id="SVGID_15_" width="60" height="60"/>
	</defs>
	<clipPath id="SVGID_3_">
		<use xlink:href="#SVGID_15_"  style="overflow:visible;"/>
	</clipPath>
	<g class="st7">
		<g>
			<g>
				<path class="st11" d="M48.9,21.87c-2.22-2.61-4-5.66-5.51-9.93c-1.62-4.59-6.93-2.72-6.93-2.72s-4.42-5.69-11.08-3.71
					c-6.65,1.98-8.97,6.72-9.1,12.35c-0.14,5.63-4.56,6.51-7.97,13.02c-6.02,11.5,4.12,21.18,22.57,18.5l0.02-0.18
					c1.82,0.55,4.04,0.79,6.76,0.63C59.83,48.51,57.69,32.21,48.9,21.87z"/>
				<path class="st1" d="M36.07,50.14c-1.84,0-3.5-0.2-4.94-0.61l-0.01,0.07l-0.2,0.03c-10.38,1.51-18.85-0.79-22.66-6.16
					c-2.54-3.58-2.6-8.1-0.18-12.72c1.44-2.75,3.04-4.49,4.45-6.02c1.91-2.07,3.41-3.7,3.49-6.89c0.16-6.57,3.28-10.81,9.29-12.59
					c6.15-1.83,10.48,2.78,11.24,3.66c0.96-0.28,5.57-1.35,7.09,2.94c1.43,4.05,3.12,7.09,5.46,9.85l0,0
					c5.59,6.57,7.69,14.34,5.36,19.8c-1.52,3.56-5.66,7.94-16.78,8.6C37.13,50.13,36.59,50.14,36.07,50.14z M30.69,48.85l0.3,0.09
					c1.86,0.56,4.1,0.77,6.67,0.62c8.59-0.51,14.23-3.37,16.33-8.28c2.25-5.27,0.18-12.83-5.28-19.25
					c-2.35-2.77-4.12-5.95-5.55-10.01c-1.51-4.28-6.38-2.63-6.59-2.56l-0.18,0.06l-0.12-0.15c-0.04-0.06-4.39-5.52-10.79-3.62
					c-5.84,1.74-8.76,5.7-8.91,12.1c-0.08,3.38-1.65,5.08-3.63,7.23C11.53,26.6,9.96,28.32,8.55,31c-2.32,4.44-2.27,8.76,0.15,12.17
					c3.66,5.17,11.86,7.39,21.95,5.97L30.69,48.85z"/>
			</g>
			<g>
				<g>
					<path class="st0" d="M17.23,49.88c0,0-12.17,6.16-12.17,16.68h24.9h2.26h24.43c0-10.52-12.64-16.68-12.64-16.68"/>
					<path class="st1" d="M56.91,66.82H4.79v-0.26c0-10.56,12.19-16.85,12.31-16.91l0.24,0.47c-0.12,0.06-11.82,6.1-12.02,16.18
						h51.05c-0.21-10.07-12.36-16.11-12.48-16.18l0.23-0.48c0.13,0.06,12.78,6.35,12.78,16.92V66.82z"/>
				</g>
				<g>
					<g>
						<path class="st12" d="M25.59,38.57v7.05c0,0-2.28,3.2-8.36,4.26c0,0,3.65,2.39,13.69,2.39c7.01,0,13.13-2.39,13.13-2.39
							s-7.79-1.62-8.35-4.26v-7.03"/>
						<path class="st1" d="M30.92,52.53c-10.01,0-13.69-2.33-13.84-2.43l-0.56-0.37l0.66-0.11c5.41-0.94,7.78-3.64,8.14-4.09v-6.96
							h0.53v7.14l-0.05,0.07c-0.09,0.13-2.22,3.04-7.77,4.22C19.47,50.64,23.4,52,30.92,52c5.37,0,10.28-1.43,12.19-2.07
							c-2.1-0.52-7.18-2.01-7.66-4.25l-0.01-0.06v-7.03h0.53v7c0.48,2.01,6.03,3.59,8.14,4.03l0.87,0.18l-0.83,0.32
							C44.09,50.15,37.9,52.53,30.92,52.53z"/>
					</g>
					<g>
						<path class="st1" d="M25.79,38.9c0,0,2.1,4.7,6.36,4.4c0,0,3.04-0.03,3.76-3.05l-0.3-1.35C35.61,38.9,31.78,41.62,25.79,38.9z
							"/>
						<path class="st1" d="M31.75,43.57c-4.11,0-6.18-4.52-6.2-4.57l-0.29-0.64l0.64,0.29c5.78,2.63,9.51,0.05,9.55,0.03l0.33-0.23
							l0.4,1.8l-0.01,0.06c-0.76,3.19-3.98,3.25-4.01,3.25C32.02,43.57,31.88,43.57,31.75,43.57z M26.39,39.44
							c0.75,1.24,2.67,3.81,5.75,3.59c0.13,0,2.82-0.07,3.5-2.79l-0.21-0.93C34.41,39.89,31.13,41.33,26.39,39.44z"/>
					</g>
				</g>
			</g>
		</g>
		<g>
			<g>
				<path class="st12" d="M41.47,20.61c0,0,1.35,19.43-10.8,19.43c-12.15,0-11.18-19.43-11.18-19.43S18.91,9.05,31.08,9.05
					C42.42,9.05,41.47,20.61,41.47,20.61z"/>
				<path class="st1" d="M30.67,40.3c-2.73,0-5.02-0.96-6.83-2.86c-5.13-5.39-4.64-16.39-4.61-16.85c-0.01-0.18-0.22-5.09,3.07-8.55
					c2.05-2.16,5.01-3.26,8.78-3.26c3.37,0,6.02,1.01,7.85,3c3.13,3.4,2.83,8.41,2.8,8.82c0.05,0.69,0.68,11.51-4.3,16.84
					C35.68,39.34,33.4,40.3,30.67,40.3z M31.08,9.31c-3.62,0-6.44,1.04-8.39,3.09c-3.14,3.3-2.93,8.14-2.93,8.19
					c-0.01,0.14-0.5,11.26,4.47,16.49c1.7,1.79,3.87,2.69,6.44,2.69c2.57,0,4.72-0.9,6.38-2.69c4.87-5.22,4.16-16.35,4.15-16.46
					l0-0.02l0-0.02c0-0.05,0.38-5.15-2.66-8.44C36.81,10.27,34.3,9.31,31.08,9.31z"/>
			</g>
			<g>
				<path class="st1" d="M30.93,29.55c-0.5,0-0.95-0.28-1.13-0.74c-0.06-0.15-0.09-0.31-0.09-0.47v-1.87c0-0.14,0.11-0.25,0.25-0.25
					c0.14,0,0.25,0.11,0.25,0.25v1.87c0,0.1,0.02,0.19,0.05,0.28c0.13,0.32,0.51,0.49,0.87,0.39l0.55-0.15
					c0.13-0.04,0.28,0.04,0.31,0.18c0.04,0.14-0.04,0.28-0.18,0.31l-0.55,0.15C31.15,29.54,31.04,29.55,30.93,29.55z"/>
				<circle class="st1" cx="26.07" cy="24.15" r="1.01"/>
				<circle class="st1" cx="35.46" cy="24.15" r="1.01"/>
				<g>
					<path class="st1" d="M31.19,34.08c0.12,0,0.24-0.02,0.36-0.05c1.47-0.45,3.2-2.84,3.27-2.94c0.03-0.04,0.03-0.11-0.01-0.15
						c-0.04-0.04-0.1-0.05-0.15-0.02c-3,1.72-6.92,0.51-6.95,0.49c-0.05-0.02-0.1,0-0.13,0.05c-0.03,0.04-0.03,0.1,0.01,0.14
						C27.67,31.71,29.69,34.08,31.19,34.08z M34.3,31.36c-0.57,0.71-1.79,2.12-2.83,2.44c-1.09,0.33-2.8-1.36-3.45-2.06
						C29.04,31.98,31.87,32.5,34.3,31.36z"/>
					<path class="st1" d="M31.18,34.19c-1.55,0-3.61-2.42-3.69-2.52c-0.07-0.08-0.07-0.2-0.02-0.28c0.06-0.09,0.17-0.12,0.27-0.09
						c0.04,0.01,3.91,1.2,6.86-0.48c0.09-0.05,0.22-0.04,0.29,0.05c0.07,0.08,0.08,0.21,0.02,0.29c-0.07,0.1-1.82,2.52-3.33,2.98
						C31.46,34.17,31.32,34.19,31.18,34.19z M27.67,31.52c0.08,0.1,2.07,2.44,3.51,2.44c0.12,0,0.22-0.02,0.32-0.05
						c0.19-0.06,0.38-0.15,0.57-0.26c-0.19,0.11-0.39,0.21-0.57,0.26c-1.14,0.35-2.88-1.35-3.57-2.1c-0.04-0.04-0.04-0.09-0.02-0.14
						c0.03-0.04,0.08-0.07,0.13-0.05c1.07,0.26,3.83,0.74,6.21-0.37c0.05-0.02,0.11-0.01,0.14,0.03c0.03,0.04,0.03,0.1,0,0.15
						c-0.23,0.29-0.55,0.67-0.9,1.04c0.7-0.72,1.22-1.44,1.23-1.45C31.68,32.75,27.71,31.53,27.67,31.52z M28.37,31.93
						c0.71,0.72,2.16,2.03,3.07,1.75c0.86-0.26,1.87-1.33,2.47-2.03C31.83,32.45,29.57,32.18,28.37,31.93z"/>
				</g>
			</g>
			<g>
				<g>
					<path class="st12" d="M40.63,30.43c0.82,1.13,2.41,0.39,3.33-1.08c0.92-1.47,1.35-4.42,0-5.22c-1.35-0.8-2.49,0.85-2.49,0.85
						s-0.33,2.98-0.57,4.09L40.63,30.43z"/>
					<path class="st1" d="M41.66,31.24c-0.5,0-0.94-0.23-1.25-0.66l-0.07-0.09l0.3-1.47c0.23-1.09,0.56-4.04,0.56-4.07l0.01-0.07
						l0.04-0.05c0.44-0.64,1.6-1.65,2.84-0.92c0.43,0.26,0.73,0.7,0.88,1.32c0.33,1.35-0.14,3.23-0.79,4.27
						c-0.65,1.04-1.61,1.72-2.46,1.75C41.7,31.24,41.68,31.24,41.66,31.24z M40.91,30.36c0.21,0.24,0.48,0.36,0.79,0.35
						c0.67-0.02,1.48-0.63,2.03-1.51c0.59-0.94,1.02-2.65,0.72-3.86c-0.12-0.47-0.33-0.8-0.63-0.98c-1.01-0.6-1.9,0.46-2.1,0.72
						c-0.05,0.47-0.34,3.02-0.56,4.05L40.91,30.36z"/>
				</g>
				<g>
					<g>
						<g>
							<path class="st12" d="M41.11,27.72c1.08-2.24,2.7-1.74,2.7-1.74"/>
							<path class="st1" d="M41.35,27.83l-0.48-0.23c1.16-2.42,3-1.89,3.02-1.88l-0.15,0.51C43.68,26.21,42.31,25.84,41.35,27.83z"
								/>
						</g>
					</g>
					<g>
						<path class="st12" d="M41.95,26.61c0,0,1.66,0.89,0.56,2.22"/>
						<path class="st1" d="M42.72,28.99l-0.41-0.34c0.25-0.31,0.35-0.61,0.3-0.89c-0.11-0.56-0.77-0.92-0.78-0.93l0.25-0.47
							c0.04,0.02,0.89,0.48,1.05,1.29C43.21,28.11,43.07,28.56,42.72,28.99z"/>
					</g>
				</g>
			</g>
			<g>
				<g>
					<path class="st12" d="M20.44,30.43c-0.82,1.13-2.41,0.39-3.33-1.08c-0.92-1.47-1.35-4.42,0-5.22c1.35-0.8,2.49,0.85,2.49,0.85
						s0.33,2.98,0.57,4.09L20.44,30.43z"/>
					<path class="st1" d="M19.41,31.24c-0.02,0-0.04,0-0.06,0c-0.85-0.03-1.81-0.72-2.46-1.75s-1.12-2.92-0.79-4.27
						c0.15-0.62,0.45-1.06,0.88-1.32c1.23-0.73,2.4,0.28,2.84,0.92l0.04,0.05l0.01,0.07c0,0.03,0.33,2.98,0.56,4.06l0.3,1.48
						l-0.07,0.09C20.34,31.02,19.91,31.24,19.41,31.24z M17.88,24.18c-0.2,0-0.41,0.05-0.63,0.18c-0.31,0.18-0.52,0.51-0.64,0.99
						c-0.3,1.22,0.14,2.92,0.73,3.86c0.55,0.88,1.36,1.48,2.03,1.51c0.31,0.01,0.58-0.11,0.79-0.35l-0.25-1.24
						c-0.22-1.03-0.51-3.58-0.56-4.04C19.19,24.88,18.61,24.18,17.88,24.18z"/>
				</g>
				<g>
					<g>
						<g>
							<path class="st12" d="M19.96,27.72c-1.08-2.24-2.7-1.74-2.7-1.74"/>
							<path class="st1" d="M19.73,27.83c-0.96-1.99-2.33-1.62-2.39-1.61l-0.15-0.51c0.02-0.01,1.85-0.53,3.02,1.88L19.73,27.83z"/>
						</g>
					</g>
					<g>
						<path class="st12" d="M19.12,26.61c0,0-1.66,0.89-0.56,2.22"/>
						<path class="st1" d="M18.36,28.99c-0.36-0.44-0.5-0.88-0.41-1.33c0.16-0.8,1.01-1.27,1.05-1.29l0.25,0.47
							c-0.01,0-0.67,0.37-0.78,0.93c-0.06,0.28,0.05,0.58,0.3,0.89L18.36,28.99z"/>
					</g>
				</g>
			</g>
			<path class="st11" d="M41.79,19.68c-0.03-0.9-0.15-2.33-0.56-3.66c-0.08-0.34-0.17-0.65-0.26-0.94l0.55,0.14
				c-0.46-3.12-7.57-10.83-16.53-6.41c-8.97,4.42-5.58,16.07-5.58,16.07l0.08-0.58c0.38-0.51,1.97-2.76,2.48-5.68
				c6.22,1.02,10.96-2.44,13.4-4.82c0.33,1.2,1.3,3.71,3.92,5.53c0.8,3.32,2.48,5.37,2.48,5.37C41.9,22.77,41.89,21.11,41.79,19.68z
				"/>
		</g>
	</g>
</g>
</svg>
