<?xml version="1.0" encoding="utf-8"?>
<!-- Generator: Adobe Illustrator 24.0.1, SVG Export Plug-In . SVG Version: 6.00 Build 0)  -->
<svg version="1.1" id="Capa_1" xmlns="http://www.w3.org/2000/svg" xmlns:xlink="http://www.w3.org/1999/xlink" x="0px" y="0px"
	 viewBox="0 0 60 60" style="enable-background:new 0 0 60 60;" xml:space="preserve">
<style type="text/css">
	.st0{fill:#6F93AD;}
	.st1{fill:#1A1A1A;}
	.st2{fill:#B52C40;}
	.st3{fill:#F0DED2;}
	.st4{fill:#F4EAE2;}
	.st5{fill-rule:evenodd;clip-rule:evenodd;fill:#997156;}
	.st6{fill-rule:evenodd;clip-rule:evenodd;fill:#FFFFFF;}
	.st7{clip-path:url(#SVGID_3_);}
	.st8{fill-rule:evenodd;clip-rule:evenodd;fill:#1B1529;}
	.st9{fill:#997156;}
	.st10{fill:#256A67;}
	.st11{fill:#AF9114;}
	.st12{fill:#E8D1C2;}
	.st13{fill:none;stroke:#1A1A1A;stroke-width:1.1434;stroke-linecap:round;stroke-linejoin:round;stroke-miterlimit:10;}
	.st14{fill-rule:evenodd;clip-rule:evenodd;fill:#F0DED2;}
	.st15{fill:#FFFFFF;}
	.st16{clip-path:url(#SVGID_6_);}
	.st17{clip-path:url(#SVGID_8_);}
	.st18{clip-path:url(#SVGID_10_);}
	.st19{clip-path:url(#SVGID_12_);}
	.st20{clip-path:url(#SVGID_14_);}
	.st21{clip-path:url(#SVGID_16_);}
	.st22{clip-path:url(#SVGID_18_);}
	.st23{clip-path:url(#SVGID_20_);}
	.st24{clip-path:url(#SVGID_22_);}
	.st25{clip-path:url(#SVGID_24_);}
	.st26{clip-path:url(#SVGID_26_);}
	.st27{fill-rule:evenodd;clip-rule:evenodd;fill:#D8778A;}
	.st28{clip-path:url(#SVGID_28_);}
	.st29{clip-path:url(#SVGID_31_);}
</style>
<g>
	<defs>
		<rect id="SVGID_25_" width="60" height="60"/>
	</defs>
	<clipPath id="SVGID_3_">
		<use xlink:href="#SVGID_25_"  style="overflow:visible;"/>
	</clipPath>
	<g class="st7">
		<g>
			<g>
				<path class="st9" d="M18.41,34.42c-0.82,1.13-2.31,0.4-3.23-1.07c-0.92-1.47-1.35-4.42,0-5.22c1.35-0.8,2.49,0.85,2.49,0.85"/>
				<path class="st1" d="M17.39,35.23c-0.02,0-0.04,0-0.06,0c-0.81-0.03-1.73-0.7-2.38-1.75c-0.65-1.04-1.12-2.92-0.79-4.27
					c0.15-0.62,0.45-1.06,0.88-1.32c1.23-0.73,2.4,0.28,2.84,0.92l-0.44,0.3c-0.04-0.06-1.02-1.43-2.14-0.77
					c-0.31,0.18-0.52,0.51-0.64,0.99c-0.3,1.22,0.14,2.92,0.72,3.86c0.55,0.89,1.32,1.48,1.95,1.5c0.33,0.01,0.62-0.14,0.84-0.44
					l0.43,0.31C18.31,35.01,17.88,35.23,17.39,35.23z"/>
			</g>
			<g>
				<g>
					<path class="st1" d="M17.93,31.84c-0.05,0-0.1-0.03-0.12-0.08c-1.01-2.1-2.38-1.68-2.44-1.66c-0.07,0.02-0.15-0.02-0.17-0.09
						c-0.02-0.07,0.01-0.15,0.09-0.17c0.02-0.01,1.65-0.52,2.76,1.8c0.03,0.07,0,0.15-0.06,0.18
						C17.97,31.84,17.95,31.84,17.93,31.84z"/>
				</g>
				<path class="st1" d="M16.63,32.96c-0.04,0-0.08-0.02-0.1-0.05c-0.33-0.41-0.46-0.82-0.38-1.22c0.15-0.74,0.95-1.18,0.98-1.2
					c0.07-0.04,0.15-0.01,0.18,0.05c0.04,0.07,0.01,0.15-0.05,0.18c-0.01,0-0.72,0.4-0.85,1.02c-0.06,0.32,0.05,0.66,0.33,1
					c0.05,0.06,0.04,0.14-0.02,0.19C16.69,32.95,16.66,32.96,16.63,32.96z"/>
			</g>
		</g>
		<g>
			<g>
				<g>
					<path class="st9" d="M38.72,34.43c0.82,1.13,2.41,0.39,3.33-1.08c0.92-1.47,1.35-4.42,0-5.22c-1.35-0.8-2.49,0.85-2.49,0.85
						s-0.33,2.98-0.57,4.09L38.72,34.43z"/>
					<path class="st1" d="M39.75,35.24c-0.5,0-0.94-0.23-1.25-0.66l-0.07-0.09l0.3-1.47c0.23-1.09,0.56-4.04,0.56-4.07l0.01-0.07
						l0.04-0.05c0.44-0.64,1.6-1.65,2.84-0.92c0.43,0.26,0.73,0.7,0.88,1.32c0.33,1.35-0.14,3.23-0.79,4.27
						c-0.65,1.04-1.61,1.72-2.46,1.75C39.79,35.24,39.77,35.24,39.75,35.24z M39,34.36c0.21,0.24,0.47,0.36,0.79,0.35
						c0.67-0.02,1.48-0.63,2.03-1.51c0.59-0.94,1.02-2.65,0.72-3.86c-0.12-0.47-0.33-0.8-0.63-0.99c-1.01-0.6-1.9,0.46-2.1,0.72
						c-0.05,0.47-0.34,3.02-0.56,4.05L39,34.36z"/>
				</g>
				<g>
					<g>
						<g>
							<path class="st9" d="M39.2,31.72c1.08-2.24,2.7-1.74,2.7-1.74"/>
							<path class="st1" d="M39.44,31.83l-0.48-0.23c1.16-2.42,3-1.89,3.02-1.88l-0.15,0.51C41.77,30.21,40.4,29.84,39.44,31.83z"/>
						</g>
					</g>
					<g>
						<path class="st9" d="M40.04,30.61c0,0,1.66,0.89,0.56,2.22"/>
						<path class="st1" d="M40.8,32.99l-0.41-0.34c0.25-0.31,0.35-0.61,0.3-0.89c-0.11-0.56-0.77-0.92-0.78-0.93l0.25-0.47
							c0.04,0.02,0.89,0.48,1.05,1.29C41.3,32.11,41.16,32.56,40.8,32.99z"/>
					</g>
				</g>
			</g>
			<g>
				<path class="st1" d="M34.33,12.1c-2.06-1.03-4-1.41-5.76-1.34c-1.77-0.07-3.7,0.3-5.76,1.34c-9.13,4.57-5.32,16.78-5.32,16.78
					l0.04-0.53c0.27-0.36,1.75-2.41,2.37-5.17h17.24c0.62,3.34,2.34,5.33,2.4,5.51c0.02-0.23,0.03-0.48,0.04-0.73l0.21,0.91
					C39.78,28.88,43.46,16.67,34.33,12.1z"/>
			</g>
			<g>
				<path class="st9" d="M22.94,41.93l0.53,7.26c0,0-2.3,3.58-8.41,4.6c0,0,11.93,12.6,27.03,0.02c0,0-7.85-1.34-8.79-4.62
					l0.44-7.03C33.75,42.16,28.04,42.64,22.94,41.93z"/>
				<path class="st1" d="M28.44,59.62c-8.07,0-13.49-5.57-13.57-5.66l-0.34-0.36l0.49-0.08c5.44-0.91,7.82-3.92,8.18-4.41
					l-0.55-7.49l0.32,0.05c5,0.7,10.69,0.23,10.74,0.23l0.31-0.03l-0.45,7.29c0.94,3.05,8.49,4.38,8.56,4.39l0.57,0.1l-0.44,0.37
					C37.21,58.22,32.49,59.62,28.44,59.62z M15.62,53.95c2.08,1.9,12.79,10.53,25.87,0.01c-1.85-0.38-7.6-1.79-8.44-4.7l-0.01-0.04
					l0.42-6.77c-1.23,0.08-5.92,0.35-10.23-0.21l0.51,7.02l-0.05,0.07C23.6,49.47,21.39,52.82,15.62,53.95z"/>
			</g>
			<g>
				<path class="st1" d="M54.41,70.33c0-9.03-8.82-14.87-11.44-16.41c-0.42-0.25-0.94-0.24-1.36,0.02
					c-2.75,1.74-14.08,7.87-26.25-0.17c-0.23-0.15-0.52-0.17-0.76-0.03c-2.09,1.18-11.77,7.14-11.77,16.6"/>
				<path class="st1" d="M23.4,42.25c0,0,2.11,4.7,6.38,4.4c0,0,3.05-0.03,3.77-3.05l-0.3-1.35C33.24,42.25,29.4,44.98,23.4,42.25z"
					/>
			</g>
			<g>
				<path class="st9" d="M39.56,24.61c0,0,1.35,19.43-10.8,19.43c-12.15,0-11.18-19.43-11.18-19.43S17,13.05,29.17,13.05
					C40.51,13.05,39.56,24.61,39.56,24.61z"/>
				<path class="st1" d="M28.76,44.3c-2.73,0-5.02-0.96-6.83-2.86c-5.13-5.39-4.64-16.39-4.61-16.85c-0.01-0.18-0.22-5.09,3.07-8.55
					c2.05-2.16,5.01-3.26,8.78-3.26c3.37,0,6.02,1.01,7.85,3c3.13,3.4,2.83,8.41,2.8,8.82c0.05,0.69,0.68,11.51-4.3,16.84
					C33.76,43.34,31.49,44.3,28.76,44.3z M29.17,13.31c-3.62,0-6.44,1.04-8.39,3.09c-3.14,3.3-2.93,8.14-2.93,8.19
					c-0.01,0.14-0.5,11.26,4.47,16.49c1.7,1.79,3.87,2.69,6.44,2.69c2.57,0,4.72-0.9,6.38-2.69c4.87-5.22,4.16-16.35,4.15-16.46
					l0-0.02l0-0.02c0-0.05,0.38-5.15-2.66-8.44C34.9,14.27,32.39,13.31,29.17,13.31z"/>
			</g>
			<path class="st1" d="M29.01,33.86c-0.5,0-0.95-0.28-1.13-0.74c-0.06-0.15-0.09-0.31-0.09-0.47v-1.87c0-0.14,0.11-0.25,0.25-0.25
				c0.14,0,0.25,0.11,0.25,0.25v1.87c0,0.1,0.02,0.19,0.05,0.28c0.13,0.32,0.51,0.49,0.87,0.39l0.55-0.15
				c0.13-0.04,0.28,0.04,0.31,0.18c0.04,0.14-0.04,0.28-0.18,0.31l-0.55,0.15C29.24,33.84,29.13,33.86,29.01,33.86z"/>
			<path class="st1" d="M25.17,28.46c0,0.56-0.45,1.01-1.01,1.01c-0.56,0-1.01-0.45-1.01-1.01c0-0.56,0.45-1.01,1.01-1.01
				C24.72,27.45,25.17,27.9,25.17,28.46z"/>
			<path class="st1" d="M34.56,28.46c0,0.56-0.45,1.01-1.01,1.01c-0.56,0-1.01-0.45-1.01-1.01c0-0.56,0.45-1.01,1.01-1.01
				C34.11,27.45,34.56,27.9,34.56,28.46z"/>
			<g>
				<path class="st1" d="M31.9,36.15c-1.75,0.72-3.91,0.72-5.66,0c-0.05-0.02-0.11-0.01-0.15,0.03c-0.04,0.04-0.06,0.09-0.04,0.14
					c0.31,1.11,1.56,2.31,3.02,2.31c1.46,0,2.7-1.2,3.02-2.31c0.01-0.05,0-0.11-0.04-0.14C32.01,36.14,31.95,36.13,31.9,36.15z
					 M29.07,38.35c-1.21,0-2.25-0.9-2.65-1.82c1.66,0.6,3.63,0.6,5.3,0C31.33,37.45,30.28,38.35,29.07,38.35z"/>
				<path class="st1" d="M29.07,38.75c-1.52,0-2.81-1.24-3.13-2.39c-0.03-0.1,0-0.2,0.08-0.26c0.08-0.07,0.18-0.08,0.27-0.05
					c1.72,0.71,3.85,0.71,5.57,0c0.09-0.04,0.19-0.02,0.27,0.05c0.08,0.07,0.1,0.17,0.08,0.26C31.88,37.5,30.59,38.75,29.07,38.75z
					 M26.17,36.29c0.3,1.07,1.5,2.22,2.91,2.22s2.6-1.15,2.91-2.22l0,0l-0.03-0.03c-1.77,0.73-3.98,0.73-5.75,0l-0.14,0.06
					L26.17,36.29z M29.07,38.46c-1.28,0-2.35-0.95-2.76-1.89l-0.11-0.25l0.25,0.09c1.63,0.59,3.58,0.59,5.22,0l0.25-0.09l-0.11,0.25
					C31.43,37.51,30.35,38.46,29.07,38.46z M26.66,36.72c0.44,0.78,1.35,1.5,2.42,1.5c1.06,0,1.98-0.72,2.42-1.5
					C29.96,37.21,28.19,37.21,26.66,36.72z"/>
			</g>
			<path class="st1" d="M42.17,15.54c0.11,0.75-0.11,1.53-0.59,2.12c-0.82,1.02-2.34,1.16-3.4,0.49c0.18,0.48,0.24,1.01,0.17,1.52
				c-0.21,1.45-1.56,2.49-3.01,2.41c-1.25-0.06-2.3-1.01-2.61-2.19c-0.26,0.73-0.68,1.4-1.24,1.92c-0.61,0.57-1.37,0.93-2.21,1.01
				c-0.8,0.07-1.64-0.12-2.28-0.61c-1.05-0.8-1.39-2.41-0.71-3.53c-0.76,0.34-1.53,0.64-2.36,0.74c-0.76,0.1-1.53,0-2.21-0.36
				c-0.6-0.32-1.12-0.84-1.32-1.5c-0.23-0.75,0.01-1.56,0.48-2.16c0.4-0.52,0.95-0.87,1.53-1.14c-0.56-0.13-1.07-0.43-1.45-0.86
				c-0.89-1.01-0.83-2.56,0.07-3.55c0.83-0.91,2.24-1.04,3.28-0.45c-0.29-0.86-0.51-1.76-0.46-2.67c0.05-0.76,0.29-1.53,0.76-2.14
				c0.48-0.6,1.18-0.97,1.95-1.06c1.37-0.14,2.6,0.77,2.97,2.04c0.23-0.6,0.48-1.2,0.86-1.71c0.74-1.01,2.19-1.74,3.35-0.95
				c1.09,0.74,1.22,2.08,1.18,3.3c0.32-0.45,0.78-0.8,1.29-1.01c1.26-0.51,2.72,0.02,3.42,1.16c0.63,1.01,0.49,2.35-0.24,3.25
				c0.76-0.18,1.56-0.29,2.3,0.01c0.67,0.27,1.13,0.84,1.19,1.58c0.06,0.79-0.33,1.52-0.85,2.1c-0.23,0.25-0.48,0.48-0.75,0.7
				C41.76,14.4,42.08,14.93,42.17,15.54z"/>
		</g>
	</g>
</g>
</svg>
