<?xml version="1.0" encoding="utf-8"?>
<!-- Generator: Adobe Illustrator 24.0.1, SVG Export Plug-In . SVG Version: 6.00 Build 0)  -->
<svg version="1.1" id="Capa_1" xmlns="http://www.w3.org/2000/svg" xmlns:xlink="http://www.w3.org/1999/xlink" x="0px" y="0px"
	 viewBox="0 0 60 60" style="enable-background:new 0 0 60 60;" xml:space="preserve">
<style type="text/css">
	.st0{fill:#6F93AD;}
	.st1{fill:#1A1A1A;}
	.st2{fill:#B52C40;}
	.st3{fill:#F0DED2;}
	.st4{fill:#F4EAE2;}
	.st5{fill-rule:evenodd;clip-rule:evenodd;fill:#997156;}
	.st6{fill-rule:evenodd;clip-rule:evenodd;fill:#FFFFFF;}
	.st7{clip-path:url(#SVGID_3_);}
	.st8{fill-rule:evenodd;clip-rule:evenodd;fill:#1B1529;}
	.st9{fill:#997156;}
	.st10{fill:#256A67;}
	.st11{fill:#AF9114;}
	.st12{fill:#E8D1C2;}
	.st13{fill:none;stroke:#1A1A1A;stroke-width:1.1434;stroke-linecap:round;stroke-linejoin:round;stroke-miterlimit:10;}
	.st14{fill-rule:evenodd;clip-rule:evenodd;fill:#F0DED2;}
	.st15{fill:#FFFFFF;}
	.st16{clip-path:url(#SVGID_6_);}
	.st17{clip-path:url(#SVGID_8_);}
	.st18{clip-path:url(#SVGID_10_);}
	.st19{clip-path:url(#SVGID_12_);}
	.st20{clip-path:url(#SVGID_14_);}
	.st21{clip-path:url(#SVGID_16_);}
	.st22{clip-path:url(#SVGID_18_);}
	.st23{clip-path:url(#SVGID_20_);}
	.st24{clip-path:url(#SVGID_22_);}
	.st25{clip-path:url(#SVGID_24_);}
	.st26{clip-path:url(#SVGID_26_);}
	.st27{fill-rule:evenodd;clip-rule:evenodd;fill:#D8778A;}
	.st28{clip-path:url(#SVGID_28_);}
	.st29{clip-path:url(#SVGID_31_);}
</style>
<g>
	<path class="st2" d="M9.07,16.83c0,2.69,0,5.3,0,7.86c-1.63-0.23-2.93-1.7-3.02-3.67C5.95,18.9,7.17,17.28,9.07,16.83z"/>
	<path class="st1" d="M9.33,25l-0.3-0.04c-1.82-0.25-3.15-1.86-3.25-3.92c-0.1-2.22,1.16-3.97,3.23-4.46l0.33-0.08V25z M8.8,17.18
		c-1.61,0.53-2.58,2-2.49,3.83c0.08,1.68,1.09,3.02,2.49,3.36V17.18z"/>
</g>
<g>
	<path class="st2" d="M50.63,16.83c0,2.69,0,5.3,0,7.86c1.63-0.23,2.93-1.7,3.02-3.67C53.75,18.9,52.53,17.28,50.63,16.83z"/>
	<path class="st1" d="M50.36,25v-8.5l0.33,0.08c2.06,0.49,3.33,2.24,3.23,4.46c-0.1,2.06-1.43,3.67-3.25,3.92L50.36,25z
		 M50.89,17.18v7.19c1.41-0.34,2.41-1.68,2.49-3.36C53.47,19.18,52.5,17.71,50.89,17.18z"/>
</g>
<g>
	<defs>
		<rect id="SVGID_7_" width="60" height="60"/>
	</defs>
	<clipPath id="SVGID_3_">
		<use xlink:href="#SVGID_7_"  style="overflow:visible;"/>
	</clipPath>
	<g class="st7">
		<g>
			<rect x="27.68" y="30.17" class="st2" width="5.15" height="9.74"/>
			<path class="st1" d="M33.1,40.17h-5.68V29.9h5.68V40.17z M27.94,39.64h4.62v-9.21h-4.62V39.64z"/>
		</g>
		<g>
			<path class="st2" d="M30.03,9.89c3.12,0,6.24-0.03,9.35,0.01c5.11,0.05,9.17,4.38,9.39,9.97c0.22,5.72-3.45,10.41-8.62,10.91
				c-0.85,0.08-1.11,0.45-1.08,1.35c0.04,1.11,0.07,2.23-0.02,3.34c-0.04,0.5-0.27,1.24-0.59,1.39c-0.33,0.16-0.99-0.12-1.31-0.45
				c-1.49-1.53-2.87-3.19-4.37-4.68c-0.49-0.48-1.25-0.84-1.9-0.86c-3.59-0.09-7.17,0.01-10.76-0.07c-4.5-0.1-8.33-4.06-8.83-9
				c-0.54-5.37,2.23-10.22,6.73-11.47c1.43-0.4,2.96-0.38,4.44-0.41C24.99,9.84,27.51,9.89,30.03,9.89z"/>
			<path class="st1" d="M38.23,37.15c-0.43,0-0.95-0.28-1.23-0.56c-0.68-0.69-1.34-1.43-1.98-2.13c-0.77-0.85-1.57-1.73-2.39-2.55
				c-0.46-0.45-1.18-0.78-1.76-0.79c-1.82-0.04-3.67-0.04-5.46-0.04c-1.74,0-3.53,0.01-5.3-0.03c-4.56-0.1-8.53-4.16-9.05-9.23
				c-0.56-5.54,2.34-10.49,6.9-11.76c1.28-0.36,2.64-0.38,3.95-0.41l0.54-0.01c1.78-0.04,3.59-0.03,5.34-0.02
				c0.77,0,1.54,0.01,2.3,0.01c0.95,0,1.9,0,2.85,0c2.11-0.01,4.28-0.01,6.42,0.01c5.25,0.06,9.39,4.45,9.61,10.22
				c0.23,5.87-3.57,10.67-8.82,11.19c-0.71,0.07-0.9,0.3-0.87,1.07c0.04,1.08,0.07,2.22-0.02,3.37c-0.04,0.51-0.27,1.39-0.73,1.61
				C38.45,37.13,38.35,37.15,38.23,37.15z M26.94,30.55c1.31,0,2.63,0.01,3.95,0.04c0.68,0.02,1.5,0.39,2.04,0.92
				c0.83,0.82,1.63,1.71,2.41,2.57c0.64,0.7,1.3,1.43,1.97,2.12c0.29,0.29,0.86,0.51,1.08,0.4c0.19-0.09,0.41-0.67,0.45-1.17
				c0.09-1.11,0.06-2.24,0.02-3.3c-0.04-1.06,0.33-1.53,1.28-1.62c5.01-0.49,8.63-5.06,8.41-10.64c-0.21-5.48-4.15-9.66-9.16-9.71
				c-2.14-0.02-4.31-0.02-6.41-0.01c-0.98,0-1.96,0.01-2.94,0.01l0,0c-0.74,0-1.48,0-2.22-0.01c-1.75-0.01-3.56-0.02-5.33,0.02
				l-0.54,0.01c-1.29,0.03-2.63,0.05-3.86,0.4c-4.34,1.21-7.1,5.91-6.56,11.18c0.49,4.82,4.27,8.67,8.61,8.76
				c1.76,0.04,3.56,0.03,5.29,0.03C25.92,30.55,26.43,30.55,26.94,30.55z"/>
		</g>
		<path class="st15" d="M29.99,27.45c3.07,0,6.15,0,9.22,0c0.09,0,0.17,0,0.26,0c3.29-0.08,5.74-2.92,5.74-6.64
			c0-3.79-2.5-6.7-5.82-6.71c-6.23-0.02-12.46-0.02-18.7,0c-3.41,0.01-5.98,2.95-5.95,6.74c0.03,3.75,2.52,6.57,5.91,6.61
			C23.76,27.48,26.88,27.45,29.99,27.45z"/>
		<g>
			<path class="st15" d="M29.74,27.45c-3.12,0-6.23,0.03-9.35-0.01c-3.39-0.04-5.88-2.85-5.91-6.61c-0.03-3.79,2.54-6.73,5.95-6.74
				c6.23-0.02,12.46-0.02,18.7,0c3.32,0.01,5.82,2.92,5.82,6.71c0,3.72-2.45,6.55-5.74,6.64c-0.09,0-0.17,0-0.26,0
				C35.88,27.45,32.81,27.45,29.74,27.45z"/>
			<path class="st1" d="M24.04,27.72c-1.21,0-2.44,0-3.65-0.02c-3.52-0.04-6.1-2.93-6.13-6.87c-0.01-1.85,0.57-3.57,1.66-4.86
				c1.16-1.38,2.76-2.14,4.52-2.14c6.56-0.02,12.68-0.02,18.7,0c3.44,0.01,6.04,3.01,6.04,6.98c0,3.85-2.56,6.82-5.96,6.9
				c-0.07,0-0.14,0-0.22,0l-9.26,0c-0.98,0-1.96,0-2.94,0C25.89,27.72,24.97,27.72,24.04,27.72z M29.59,14.35
				c-2.97,0-6.01,0-9.15,0.01c-1.64,0.01-3.13,0.71-4.2,1.99c-1,1.19-1.54,2.78-1.52,4.48c0.03,3.64,2.42,6.31,5.68,6.34
				c2.14,0.02,4.31,0.02,6.41,0.01c0.98,0,1.96-0.01,2.94,0l9.26,0l0.21,0c3.15-0.08,5.52-2.82,5.52-6.37c0-3.66-2.41-6.43-5.6-6.45
				C35.99,14.36,32.83,14.35,29.59,14.35z"/>
		</g>
		<circle class="st1" cx="24.86" cy="19.58" r="1.01"/>
		<circle class="st1" cx="34.25" cy="19.58" r="1.01"/>
		<g>
			<path class="st1" d="M30.36,23.96c1.25-0.25,2.33-1.83,2.38-1.89l0.12-0.17l-5.36,0.09l0.09,0.16c0.05,0.08,1.06,1.85,2.45,1.85
				C30.14,24,30.25,23.99,30.36,23.96z M27.87,22.2l4.57-0.07c-0.32,0.41-1.18,1.44-2.12,1.63C29.15,23.98,28.17,22.66,27.87,22.2z"
				/>
			<path class="st1" d="M30.03,24.11c-1.46,0-2.51-1.83-2.56-1.91l-0.09-0.16c-0.02-0.04-0.02-0.08,0-0.12
				c0.02-0.04,0.06-0.06,0.1-0.06l5.36-0.09c0,0,0,0,0,0c0.04,0,0.08,0.02,0.1,0.06c0.02,0.04,0.02,0.09-0.01,0.12l-0.12,0.17
				c-0.05,0.07-1.15,1.68-2.45,1.94l0,0C30.27,24.1,30.15,24.11,30.03,24.11z M28.08,22.31c0.37,0.52,1.24,1.52,2.21,1.33
				c0.77-0.15,1.5-0.92,1.89-1.39L28.08,22.31z M27.69,22.1c0.01,0.02,0.03,0.05,0.06,0.1c0-0.02,0-0.04,0.01-0.06
				c0.01-0.02,0.02-0.03,0.04-0.04L27.69,22.1z M32.49,22.02c0.02,0.01,0.03,0.03,0.04,0.05c0.01,0.02,0.01,0.04,0.01,0.06
				c0.04-0.05,0.07-0.09,0.08-0.11L32.49,22.02z"/>
		</g>
		<g>
			<g>
				<g>
					<path class="st2" d="M7.36,61.19c-0.05,0.28-0.28,0.48-0.51,0.44l-3.54-0.62c-0.23-0.04-0.37-0.36-0.3-0.71
						c0.08-0.35,0.33-0.59,0.56-0.53l3.5,0.82C7.3,60.64,7.43,60.92,7.36,61.19z"/>
					<path class="st1" d="M6.91,61.9c-0.03,0-0.07,0-0.1-0.01l-3.54-0.62c-0.15-0.02-0.29-0.11-0.38-0.25
						c-0.14-0.2-0.19-0.48-0.14-0.77c0.07-0.3,0.23-0.54,0.43-0.67c0.14-0.09,0.3-0.11,0.45-0.08l3.49,0.82
						c0.37,0.09,0.59,0.5,0.5,0.91C7.55,61.63,7.25,61.9,6.91,61.9z M3.5,60.02c-0.01,0-0.03,0.01-0.04,0.02
						c-0.06,0.04-0.15,0.15-0.19,0.32c-0.03,0.16,0.01,0.3,0.05,0.36c0.01,0.02,0.03,0.03,0.04,0.03l3.54,0.62
						c0.08,0.02,0.18-0.08,0.21-0.23l0-0.01c0.03-0.14-0.03-0.27-0.1-0.29L3.5,60.02C3.51,60.02,3.51,60.02,3.5,60.02z"/>
				</g>
			</g>
			<g>
				<g>
					<path class="st2" d="M7.61,60.18c-0.08,0.27-0.31,0.46-0.54,0.4l-3.5-0.82c-0.23-0.05-0.36-0.38-0.26-0.73
						c0.1-0.34,0.36-0.57,0.58-0.5l3.44,1.03C7.56,59.63,7.68,59.91,7.61,60.18z"/>
					<path class="st1" d="M7.15,60.86c-0.05,0-0.09-0.01-0.14-0.02l-3.5-0.82c-0.15-0.04-0.29-0.14-0.38-0.29
						c-0.12-0.21-0.15-0.5-0.07-0.77c0.08-0.28,0.25-0.51,0.46-0.63c0.15-0.08,0.31-0.1,0.45-0.06l3.44,1.03
						c0.36,0.11,0.56,0.53,0.45,0.94l0,0C7.75,60.62,7.46,60.86,7.15,60.86z M3.82,58.79c-0.01,0-0.03,0.01-0.04,0.01
						c-0.06,0.04-0.16,0.14-0.2,0.31c-0.05,0.16-0.02,0.29,0.02,0.35c0.02,0.03,0.04,0.04,0.04,0.05l3.5,0.82
						c0.08,0.02,0.18-0.08,0.22-0.22c0.04-0.14-0.02-0.27-0.09-0.29L3.82,58.79C3.82,58.79,3.82,58.79,3.82,58.79z"/>
				</g>
			</g>
			<g>
				<g>
					<path class="st2" d="M7.91,59.19c-0.1,0.27-0.34,0.44-0.57,0.37L3.9,58.53c-0.23-0.07-0.33-0.4-0.21-0.74
						c0.12-0.34,0.39-0.55,0.61-0.47l3.38,1.23C7.89,58.63,8,58.92,7.91,59.19z"/>
					<path class="st1" d="M7.44,59.84c-0.06,0-0.11-0.01-0.17-0.02l-3.45-1.03c-0.15-0.04-0.28-0.15-0.36-0.31
						c-0.11-0.22-0.12-0.5-0.03-0.77c0.09-0.28,0.27-0.5,0.49-0.6c0.15-0.07,0.31-0.08,0.46-0.03l3.38,1.23
						c0.35,0.13,0.53,0.57,0.39,0.97l0,0C8.03,59.62,7.74,59.84,7.44,59.84z M4.2,57.57c-0.01,0-0.02,0-0.04,0.01
						c-0.07,0.03-0.16,0.13-0.22,0.3c-0.06,0.16-0.04,0.29,0,0.36c0.01,0.03,0.03,0.04,0.04,0.04l3.45,1.03
						c0.07,0.02,0.19-0.06,0.24-0.21c0.05-0.14,0-0.27-0.08-0.3L4.2,57.57C4.2,57.57,4.2,57.57,4.2,57.57z"/>
				</g>
			</g>
			<g>
				<g>
					<path class="st2" d="M8.26,58.22c-0.1,0.26-0.37,0.41-0.59,0.33L4.3,57.32C4.07,57.24,4,56.91,4.13,56.58
						c0.13-0.34,0.42-0.53,0.64-0.43l3.3,1.43C8.28,57.66,8.36,57.95,8.26,58.22z"/>
					<path class="st1" d="M7.79,58.84c-0.07,0-0.14-0.01-0.21-0.04L4.2,57.57c-0.15-0.05-0.26-0.17-0.33-0.32
						c-0.1-0.22-0.1-0.5,0.01-0.77C3.99,56.21,4.18,56,4.4,55.9c0.16-0.07,0.32-0.07,0.47-0.01l3.3,1.43
						c0.34,0.15,0.49,0.58,0.34,0.99l0,0.01C8.38,58.63,8.08,58.84,7.79,58.84z M4.65,56.38c-0.01,0-0.03,0-0.04,0.01
						c-0.07,0.03-0.17,0.12-0.23,0.28c-0.06,0.17-0.05,0.3-0.02,0.36c0.01,0.02,0.02,0.03,0.03,0.04l3.38,1.23
						c0.07,0.03,0.2-0.05,0.25-0.18c0.05-0.14,0.01-0.28-0.05-0.31l-3.3-1.43C4.66,56.38,4.65,56.38,4.65,56.38z"/>
				</g>
			</g>
			<g>
				<g>
					<path class="st2" d="M8.67,57.26c-0.12,0.26-0.39,0.4-0.61,0.3l-3.3-1.43c-0.22-0.09-0.27-0.43-0.12-0.76
						c0.14-0.33,0.46-0.5,0.66-0.39l3.21,1.62C8.73,56.71,8.78,57,8.67,57.26z"/>
					<path class="st1" d="M8.2,57.86c-0.08,0-0.17-0.02-0.24-0.05l-3.3-1.43c-0.14-0.06-0.25-0.18-0.31-0.34
						c-0.09-0.23-0.07-0.51,0.06-0.77c0.1-0.25,0.31-0.45,0.54-0.54c0.17-0.06,0.34-0.06,0.49,0.02l3.21,1.61
						c0.33,0.17,0.45,0.6,0.28,1l0,0C8.78,57.67,8.49,57.86,8.2,57.86z M5.17,55.22c-0.01,0-0.03,0-0.05,0.01
						c-0.07,0.03-0.17,0.11-0.23,0.25c-0.08,0.17-0.07,0.3-0.05,0.37c0.01,0.02,0.02,0.04,0.03,0.04l3.3,1.43
						c0.07,0.03,0.2-0.03,0.26-0.17c0.06-0.14,0.04-0.28-0.03-0.32l-3.21-1.61C5.19,55.22,5.18,55.22,5.17,55.22z"/>
				</g>
			</g>
			<g>
				<g>
					<path class="st2" d="M9.13,56.33C9,56.59,8.73,56.71,8.52,56.6l-3.21-1.62c-0.21-0.1-0.25-0.45-0.08-0.77
						c0.17-0.31,0.49-0.47,0.69-0.35l3.11,1.8C9.23,55.79,9.27,56.08,9.13,56.33z"/>
					<path class="st1" d="M8.67,56.9c-0.09,0-0.19-0.02-0.27-0.06l-3.21-1.62c-0.13-0.06-0.24-0.19-0.29-0.35
						c-0.08-0.23-0.04-0.51,0.09-0.78c0.14-0.26,0.37-0.45,0.6-0.51c0.16-0.04,0.33-0.02,0.46,0.05l3.11,1.8
						c0.33,0.19,0.42,0.65,0.21,1.02C9.22,56.74,8.95,56.9,8.67,56.9z M5.76,54.1c-0.01,0-0.02,0-0.03,0
						c-0.07,0.02-0.19,0.1-0.27,0.25c-0.08,0.15-0.08,0.29-0.06,0.36c0.01,0.02,0.02,0.04,0.02,0.04l3.21,1.62
						c0.07,0.03,0.19-0.02,0.26-0.15L8.9,56.2c0.07-0.13,0.05-0.27-0.01-0.3l-3.11-1.8C5.78,54.1,5.77,54.1,5.76,54.1z"/>
				</g>
			</g>
			<g>
				<g>
					<path class="st2" d="M9.66,55.44c-0.16,0.24-0.43,0.35-0.63,0.23l-3.11-1.8c-0.2-0.12-0.23-0.47-0.04-0.77
						c0.19-0.3,0.51-0.44,0.71-0.31l3,1.98C9.77,54.89,9.81,55.19,9.66,55.44z"/>
					<path class="st1" d="M9.2,55.98c-0.11,0-0.21-0.03-0.31-0.08l-3.11-1.8c-0.14-0.08-0.23-0.21-0.28-0.38
						c-0.06-0.24,0-0.52,0.15-0.76c0.16-0.25,0.39-0.42,0.63-0.47c0.16-0.03,0.32,0,0.45,0.08l3,1.97c0.32,0.21,0.38,0.67,0.16,1.03
						l0,0.01C9.71,55.84,9.46,55.98,9.2,55.98z M6.41,53c-0.01,0-0.02,0-0.03,0c-0.07,0.02-0.19,0.09-0.29,0.24
						c-0.09,0.14-0.1,0.27-0.08,0.35c0.01,0.03,0.02,0.05,0.03,0.05l3.11,1.8c0.07,0.04,0.2-0.02,0.28-0.14
						c0.08-0.13,0.06-0.27,0-0.31l-3-1.97C6.43,53,6.42,53,6.41,53z"/>
				</g>
			</g>
			<g>
				<g>
					<path class="st2" d="M10.23,54.57c-0.17,0.23-0.45,0.32-0.65,0.19l-3-1.98c-0.2-0.13-0.2-0.48,0.01-0.77
						c0.21-0.29,0.53-0.41,0.72-0.27l2.88,2.14C10.38,54.03,10.4,54.34,10.23,54.57z"/>
					<path class="st1" d="M9.78,55.09c-0.12,0-0.24-0.03-0.34-0.1l-3-1.98c-0.13-0.09-0.23-0.23-0.26-0.4
						c-0.04-0.24,0.03-0.52,0.2-0.74c0.17-0.24,0.4-0.39,0.64-0.43c0.16-0.03,0.32,0.01,0.45,0.1l2.88,2.14
						c0.31,0.24,0.35,0.7,0.1,1.05l0,0C10.27,54.96,10.02,55.09,9.78,55.09z M7.12,51.95c-0.01,0-0.01,0-0.02,0
						c-0.07,0.01-0.19,0.08-0.3,0.22c-0.1,0.14-0.12,0.27-0.11,0.34c0,0.03,0.01,0.05,0.03,0.06l3,1.98c0.06,0.04,0.19,0,0.29-0.13
						c0.09-0.12,0.08-0.27,0.01-0.32l-2.88-2.14C7.15,51.95,7.14,51.95,7.12,51.95z"/>
				</g>
			</g>
			<g>
				<g>
					<path class="st2" d="M10.85,53.74c-0.18,0.23-0.47,0.29-0.66,0.15l-2.88-2.14c-0.19-0.14-0.17-0.48,0.06-0.77
						c0.11-0.14,0.25-0.24,0.38-0.28c0.13-0.04,0.26-0.02,0.35,0.05l2.75,2.31c0.09,0.08,0.13,0.19,0.13,0.31
						C10.98,53.49,10.94,53.62,10.85,53.74z"/>
					<path class="st1" d="M10.42,54.23c-0.14,0-0.27-0.04-0.39-0.12l-2.88-2.14c-0.12-0.09-0.21-0.23-0.23-0.4
						c-0.03-0.24,0.05-0.51,0.23-0.74c0.14-0.18,0.33-0.31,0.51-0.37c0.22-0.07,0.44-0.03,0.6,0.1l2.76,2.31
						c0.15,0.13,0.23,0.31,0.23,0.52c0,0.18-0.07,0.37-0.19,0.52C10.89,54.11,10.65,54.23,10.42,54.23z M7.89,50.94
						c-0.02,0-0.04,0-0.06,0.01c-0.08,0.03-0.18,0.1-0.25,0.19c-0.11,0.14-0.13,0.27-0.12,0.34c0,0.02,0.01,0.04,0.02,0.05
						l2.88,2.14c0.06,0.05,0.21,0.01,0.3-0.1l0,0c0.05-0.06,0.07-0.13,0.07-0.2c0-0.05-0.01-0.09-0.04-0.11l-2.75-2.31
						C7.92,50.94,7.91,50.94,7.89,50.94z"/>
				</g>
			</g>
			<g>
				<g>
					<path class="st2" d="M11.52,52.94c-0.19,0.22-0.48,0.27-0.67,0.12L8.1,50.75c-0.18-0.15-0.14-0.49,0.1-0.76
						c0.23-0.28,0.58-0.34,0.75-0.18l2.61,2.47C11.73,52.43,11.7,52.72,11.52,52.94z"/>
					<path class="st1" d="M11.1,53.41c-0.15,0-0.3-0.05-0.42-0.15l-2.75-2.31c-0.12-0.09-0.19-0.24-0.2-0.4
						C7.7,50.3,7.8,50.04,8,49.81c0.18-0.21,0.43-0.34,0.67-0.36c0.18,0,0.34,0.04,0.46,0.16l2.61,2.47
						c0.27,0.26,0.26,0.7-0.02,1.04l0,0C11.55,53.31,11.32,53.41,11.1,53.41z M8.71,49.98c0,0-0.01,0-0.01,0
						c-0.08,0-0.2,0.05-0.3,0.17c-0.12,0.14-0.15,0.27-0.15,0.34l0.02,0.05l2.75,2.31c0.06,0.05,0.2,0.02,0.29-0.09
						c0.1-0.11,0.12-0.25,0.06-0.31l-2.61-2.46C8.76,49.99,8.74,49.98,8.71,49.98z"/>
				</g>
			</g>
			<g>
				<g>
					<path class="st2" d="M12.23,52.18c-0.2,0.21-0.5,0.24-0.67,0.08L8.95,49.8c-0.17-0.16-0.11-0.5,0.14-0.76
						c0.26-0.25,0.6-0.31,0.76-0.14l2.47,2.61C12.47,51.69,12.43,51.98,12.23,52.18z"/>
					<path class="st1" d="M11.83,52.63c-0.16,0-0.32-0.06-0.45-0.17l-2.61-2.47c-0.11-0.1-0.18-0.25-0.18-0.42
						c-0.01-0.24,0.1-0.5,0.31-0.72c0.23-0.21,0.47-0.33,0.73-0.32c0.17,0.01,0.31,0.07,0.42,0.18l2.46,2.61
						c0.26,0.28,0.22,0.74-0.09,1.04C12.25,52.54,12.03,52.63,11.83,52.63z M9.6,49.07c-0.08,0-0.2,0.04-0.33,0.16
						c-0.11,0.12-0.15,0.25-0.15,0.33c0,0.02,0.01,0.04,0.01,0.05l2.61,2.47c0.06,0.05,0.19,0.03,0.29-0.07l0.01-0.01
						c0.11-0.1,0.13-0.24,0.07-0.3l-2.46-2.61C9.64,49.07,9.63,49.07,9.6,49.07C9.6,49.07,9.6,49.07,9.6,49.07z"/>
				</g>
			</g>
			<g>
				<g>
					<path class="st2" d="M12.98,51.47c-0.22,0.18-0.51,0.21-0.67,0.04L9.85,48.9c-0.16-0.17-0.09-0.52,0.18-0.75
						c0.27-0.24,0.61-0.28,0.76-0.1l2.31,2.75C13.26,50.99,13.2,51.28,12.98,51.47z"/>
					<path class="st1" d="M12.59,51.89c-0.18,0-0.35-0.07-0.47-0.2l-2.47-2.61c-0.11-0.12-0.17-0.28-0.15-0.46
						c0.02-0.24,0.15-0.49,0.36-0.67c0.22-0.19,0.48-0.29,0.73-0.27c0.17,0.01,0.31,0.09,0.41,0.21l2.31,2.75
						c0.25,0.29,0.18,0.75-0.15,1.04l0,0C12.98,51.82,12.78,51.89,12.59,51.89z M10.53,48.21c-0.07,0-0.2,0.04-0.32,0.15
						c-0.13,0.1-0.17,0.22-0.18,0.3c0,0.04,0.01,0.06,0.01,0.07l2.47,2.61c0.06,0.06,0.2,0.03,0.31-0.06
						c0.11-0.1,0.14-0.24,0.09-0.29l-2.31-2.75c-0.01-0.01-0.04-0.02-0.05-0.02C10.54,48.21,10.53,48.21,10.53,48.21z"/>
				</g>
			</g>
			<g>
				<g>
					<path class="st2" d="M13.78,50.81c-0.11,0.09-0.25,0.13-0.37,0.13c-0.12,0-0.23-0.04-0.31-0.13l-2.31-2.75
						c-0.08-0.09-0.09-0.22-0.05-0.36c0.04-0.13,0.14-0.27,0.28-0.38c0.28-0.22,0.62-0.25,0.76-0.06l2.15,2.88
						C14.07,50.33,14.01,50.63,13.78,50.81z"/>
					<path class="st1" d="M13.4,51.2c-0.19,0-0.37-0.08-0.49-0.22l-2.31-2.75c-0.13-0.16-0.17-0.37-0.11-0.6
						c0.07-0.2,0.2-0.38,0.38-0.52c0.23-0.18,0.5-0.27,0.74-0.24c0.17,0.02,0.31,0.11,0.4,0.23l2.14,2.88
						c0.22,0.3,0.13,0.76-0.2,1.03l0,0C13.79,51.14,13.59,51.2,13.4,51.2z M11.5,47.4c-0.07,0-0.19,0.03-0.31,0.13
						c-0.1,0.07-0.17,0.17-0.2,0.26c-0.01,0.04-0.01,0.09,0.01,0.1l2.31,2.75c0.03,0.03,0.07,0.03,0.1,0.03
						c0.06,0,0.13-0.01,0.21-0.07c0.12-0.09,0.15-0.23,0.1-0.3l-2.15-2.88c-0.01-0.01-0.03-0.02-0.05-0.02
						C11.52,47.4,11.51,47.4,11.5,47.4z"/>
				</g>
			</g>
			<g>
				<g>
					<path class="st2" d="M14.61,50.18c-0.23,0.17-0.54,0.15-0.68-0.04l-2.15-2.88c-0.14-0.19-0.02-0.51,0.28-0.72
						c0.29-0.21,0.64-0.21,0.77-0.01l1.98,3C14.94,49.73,14.85,50.01,14.61,50.18z"/>
					<path class="st1" d="M14.27,50.56c-0.22,0-0.42-0.09-0.55-0.26l-2.15-2.88c-0.09-0.13-0.13-0.29-0.1-0.45
						c0.04-0.24,0.2-0.47,0.44-0.64c0.22-0.16,0.5-0.23,0.74-0.19c0.17,0.03,0.32,0.12,0.4,0.25l1.98,3
						c0.2,0.32,0.09,0.75-0.26,1.01l0,0C14.62,50.51,14.44,50.56,14.27,50.56z M12.51,46.65c-0.08,0-0.18,0.03-0.29,0.11
						c-0.15,0.1-0.21,0.22-0.22,0.3c0,0.02,0,0.04,0,0.05l2.15,2.88c0.05,0.06,0.19,0.07,0.31-0.02c0.13-0.09,0.17-0.23,0.13-0.29
						l-1.97-3c-0.01-0.01-0.03-0.02-0.06-0.03C12.54,46.65,12.53,46.65,12.51,46.65z"/>
				</g>
			</g>
			<g>
				<g>
					<path class="st2" d="M15.17,49.53v-1.5l-1.26-2.17c-0.11-0.2-0.47-0.23-0.77-0.04c-0.3,0.19-0.44,0.51-0.31,0.7l1.98,3
						c0.13,0.2,0.43,0.23,0.67,0.08c0.04-0.02,0.07-0.05,0.1-0.08H15.17z"/>
					<path class="st1" d="M15.16,49.97c-0.23,0-0.45-0.1-0.57-0.29l-1.98-3c-0.08-0.12-0.11-0.28-0.08-0.45
						c0.05-0.24,0.22-0.47,0.47-0.63c0.24-0.15,0.52-0.21,0.75-0.15c0.17,0.04,0.31,0.14,0.39,0.28l1.29,2.23v1.3h0.82l-0.5,0.46
						c-0.04,0.04-0.08,0.07-0.13,0.1C15.48,49.93,15.32,49.97,15.16,49.97z M13.57,45.96c-0.07,0-0.17,0.02-0.28,0.09
						c-0.15,0.1-0.22,0.21-0.24,0.29l0,0l0,0.05l1.85,2.81v-1.09L13.69,46c0-0.01-0.02-0.02-0.05-0.03
						C13.61,45.97,13.59,45.96,13.57,45.96z"/>
				</g>
			</g>
			<g>
				<g>
					<path class="st2" d="M15.17,45.54l-0.14-0.27c-0.11-0.21-0.45-0.25-0.77-0.08c-0.31,0.17-0.47,0.49-0.35,0.69l1.26,2.17V45.54z
						"/>
					<path class="st1" d="M15.44,49.02L13.69,46c-0.08-0.13-0.1-0.29-0.05-0.46c0.06-0.23,0.25-0.45,0.5-0.59
						c0.27-0.14,0.55-0.17,0.78-0.1c0.16,0.05,0.29,0.16,0.35,0.29l0.17,0.33V49.02z M14.66,45.34c-0.07,0-0.17,0.02-0.27,0.07
						c-0.15,0.08-0.22,0.19-0.24,0.27c-0.01,0.03-0.01,0.04,0,0.05l0.76,1.32V45.6l-0.11-0.22c-0.01-0.01-0.02-0.02-0.05-0.03
						C14.73,45.35,14.7,45.34,14.66,45.34z"/>
				</g>
			</g>
		</g>
		<g>
			<g>
				<g>
					<path class="st2" d="M54.56,61.19c0.05,0.28,0.28,0.48,0.51,0.44l3.54-0.62c0.23-0.04,0.37-0.36,0.3-0.71
						c-0.08-0.35-0.33-0.59-0.56-0.53l-3.5,0.82C54.63,60.64,54.5,60.92,54.56,61.19z"/>
					<path class="st1" d="M55.02,61.9c-0.34,0-0.64-0.27-0.71-0.65c-0.09-0.42,0.13-0.83,0.49-0.92l3.5-0.82
						c0.15-0.04,0.31-0.01,0.45,0.08c0.21,0.13,0.36,0.37,0.43,0.65c0.06,0.3,0.01,0.58-0.13,0.78c-0.1,0.14-0.23,0.23-0.39,0.25
						l-3.54,0.62C55.09,61.9,55.05,61.9,55.02,61.9z M58.43,60.02C58.43,60.02,58.42,60.02,58.43,60.02l-3.5,0.83
						c-0.07,0.02-0.13,0.14-0.1,0.29l0,0.01c0.03,0.15,0.14,0.24,0.21,0.23l3.53-0.62c0.01,0,0.03-0.02,0.04-0.04
						c0.04-0.06,0.08-0.19,0.05-0.37c-0.04-0.17-0.12-0.27-0.19-0.31C58.45,60.03,58.44,60.02,58.43,60.02z"/>
				</g>
			</g>
			<g>
				<g>
					<path class="st2" d="M54.32,60.18c0.08,0.27,0.31,0.46,0.54,0.4l3.5-0.82c0.23-0.05,0.36-0.38,0.26-0.73
						c-0.1-0.34-0.36-0.57-0.58-0.5l-3.44,1.03C54.36,59.63,54.25,59.91,54.32,60.18z"/>
					<path class="st1" d="M54.78,60.86c-0.31,0-0.61-0.24-0.71-0.6l0,0c-0.12-0.42,0.09-0.84,0.45-0.95l3.44-1.03
						c0.15-0.04,0.31-0.02,0.45,0.06c0.21,0.12,0.38,0.34,0.46,0.63c0.08,0.27,0.05,0.55-0.07,0.77c-0.09,0.15-0.22,0.26-0.38,0.29
						l-3.49,0.82C54.88,60.86,54.83,60.86,54.78,60.86z M54.58,60.11c0.04,0.14,0.14,0.24,0.23,0.22l3.49-0.82
						c0.01,0,0.03-0.01,0.04-0.04c0.04-0.06,0.07-0.2,0.02-0.35c-0.05-0.17-0.14-0.27-0.21-0.31c-0.02-0.01-0.03-0.02-0.05-0.01
						l-3.44,1.03C54.59,59.84,54.54,59.97,54.58,60.11z"/>
				</g>
			</g>
			<g>
				<g>
					<path class="st2" d="M54.03,59.19c0.1,0.27,0.34,0.44,0.57,0.37l3.44-1.03c0.23-0.07,0.33-0.4,0.21-0.74
						c-0.12-0.34-0.39-0.55-0.61-0.47l-3.38,1.23C54.04,58.63,53.93,58.92,54.03,59.19z"/>
					<path class="st1" d="M54.5,59.84c-0.31,0-0.6-0.22-0.72-0.56l0,0c-0.14-0.41,0.03-0.84,0.39-0.97l3.38-1.23
						c0.14-0.05,0.31-0.04,0.46,0.03c0.22,0.1,0.4,0.32,0.49,0.6c0.09,0.27,0.08,0.56-0.03,0.77c-0.08,0.15-0.21,0.26-0.36,0.31
						l-3.44,1.03C54.61,59.83,54.55,59.84,54.5,59.84z M54.28,59.1c0.05,0.15,0.17,0.23,0.24,0.21l3.44-1.03
						c0.01,0,0.03-0.02,0.04-0.04c0.03-0.06,0.05-0.2,0-0.36c-0.06-0.17-0.16-0.27-0.22-0.3c-0.01,0-0.03-0.02-0.05-0.01l-3.38,1.23
						C54.28,58.83,54.23,58.96,54.28,59.1z"/>
				</g>
			</g>
			<g>
				<g>
					<path class="st2" d="M53.67,58.22c0.1,0.26,0.37,0.41,0.59,0.33l3.38-1.23c0.22-0.08,0.3-0.42,0.17-0.75
						c-0.13-0.34-0.42-0.53-0.64-0.43l-3.3,1.43C53.65,57.66,53.57,57.95,53.67,58.22z"/>
					<path class="st1" d="M54.14,58.84c-0.3,0-0.59-0.2-0.71-0.53l0,0c-0.15-0.41,0-0.84,0.34-0.99l3.3-1.43
						c0.14-0.06,0.31-0.06,0.47,0.01c0.23,0.09,0.41,0.3,0.52,0.58c0.11,0.27,0.11,0.55,0.01,0.77c-0.07,0.15-0.19,0.27-0.33,0.32
						l-3.38,1.23C54.28,58.83,54.21,58.84,54.14,58.84z M53.92,58.12c0.05,0.13,0.18,0.21,0.25,0.18l3.38-1.23
						c0.02-0.01,0.03-0.03,0.03-0.04c0.03-0.06,0.04-0.2-0.02-0.36c-0.06-0.16-0.16-0.25-0.23-0.28c-0.02-0.01-0.04-0.01-0.05-0.01
						l-3.3,1.43C53.9,57.84,53.86,57.98,53.92,58.12z"/>
				</g>
			</g>
			<g>
				<g>
					<path class="st2" d="M53.26,57.26c0.12,0.26,0.39,0.4,0.61,0.3l3.3-1.43c0.22-0.09,0.27-0.43,0.12-0.76
						c-0.14-0.33-0.46-0.5-0.66-0.39l-3.21,1.62C53.2,56.71,53.15,57,53.26,57.26z"/>
					<path class="st1" d="M53.72,57.86c-0.28,0-0.57-0.19-0.71-0.49l0-0.01c-0.17-0.41-0.05-0.83,0.28-1l3.21-1.62
						c0.14-0.07,0.31-0.08,0.48-0.02c0.23,0.08,0.44,0.29,0.55,0.54c0.12,0.26,0.14,0.55,0.05,0.77c-0.06,0.16-0.17,0.28-0.31,0.34
						l-3.3,1.43C53.89,57.84,53.81,57.86,53.72,57.86z M53.5,57.16c0.06,0.13,0.19,0.2,0.26,0.17l3.3-1.43
						c0.02-0.01,0.03-0.03,0.03-0.04c0.03-0.07,0.03-0.2-0.04-0.37c-0.07-0.15-0.17-0.23-0.24-0.26c-0.04-0.01-0.06-0.01-0.06-0.01
						l-3.21,1.62C53.46,56.88,53.45,57.02,53.5,57.16z"/>
				</g>
			</g>
			<g>
				<g>
					<path class="st2" d="M52.8,56.33c0.13,0.25,0.4,0.37,0.62,0.27l3.21-1.62c0.21-0.1,0.25-0.45,0.08-0.77
						c-0.17-0.31-0.49-0.47-0.69-0.35l-3.11,1.8C52.7,55.79,52.66,56.08,52.8,56.33z"/>
					<path class="st1" d="M53.25,56.9c-0.27,0-0.54-0.17-0.69-0.45c-0.21-0.37-0.12-0.83,0.21-1.02l3.11-1.8
						c0.13-0.08,0.29-0.1,0.46-0.05c0.23,0.06,0.46,0.25,0.6,0.5c0.14,0.27,0.17,0.56,0.09,0.79c-0.05,0.16-0.16,0.28-0.29,0.35
						l-3.21,1.61C53.44,56.88,53.35,56.9,53.25,56.9z M56.17,54.09c-0.01,0-0.01,0-0.02,0l-3.11,1.8c-0.07,0.04-0.09,0.18-0.01,0.3
						l0.01,0.01c0.07,0.13,0.19,0.19,0.26,0.15l3.21-1.61l0.03-0.04c0.02-0.07,0.02-0.21-0.06-0.37c-0.08-0.14-0.19-0.22-0.27-0.24
						C56.19,54.1,56.18,54.09,56.17,54.09z"/>
				</g>
			</g>
			<g>
				<g>
					<path class="st2" d="M52.27,55.44c0.15,0.24,0.43,0.35,0.63,0.23l3.11-1.8c0.2-0.12,0.23-0.47,0.04-0.77
						c-0.19-0.3-0.51-0.44-0.7-0.31l-3,1.98C52.15,54.89,52.12,55.19,52.27,55.44z"/>
					<path class="st1" d="M52.72,55.98c-0.25,0-0.51-0.14-0.67-0.4l0,0c-0.23-0.37-0.16-0.83,0.16-1.04l3-1.98
						c0.12-0.08,0.28-0.11,0.45-0.08c0.23,0.05,0.47,0.22,0.62,0.47c0.15,0.24,0.21,0.52,0.15,0.76c-0.04,0.17-0.14,0.31-0.28,0.38
						l-3.11,1.8C52.94,55.95,52.83,55.98,52.72,55.98z M52.5,55.3c0.08,0.12,0.2,0.18,0.28,0.14l3.11-1.8
						c0.01-0.01,0.02-0.02,0.03-0.05c0.02-0.07,0.01-0.21-0.08-0.35c-0.1-0.15-0.21-0.22-0.28-0.23c-0.02,0-0.04,0-0.05,0l-3,1.98
						C52.43,55.03,52.42,55.17,52.5,55.3z"/>
				</g>
			</g>
			<g>
				<g>
					<path class="st2" d="M51.7,54.57c0.17,0.23,0.45,0.32,0.65,0.19l3-1.98c0.2-0.13,0.2-0.48-0.01-0.77
						c-0.21-0.29-0.53-0.41-0.72-0.27l-2.88,2.14C51.55,54.03,51.54,54.34,51.7,54.57z"/>
					<path class="st1" d="M52.15,55.09c-0.24,0-0.49-0.13-0.66-0.36l0-0.01c-0.25-0.35-0.21-0.81,0.09-1.04l2.89-2.15
						c0.12-0.09,0.28-0.13,0.44-0.1c0.24,0.04,0.48,0.19,0.65,0.43c0.17,0.23,0.24,0.5,0.2,0.74c-0.03,0.17-0.12,0.32-0.26,0.4
						l-3,1.97C52.39,55.05,52.27,55.09,52.15,55.09z M51.92,54.42c0.09,0.13,0.23,0.17,0.29,0.13l3-1.97
						c0.01-0.01,0.02-0.03,0.03-0.06c0.01-0.07-0.01-0.2-0.1-0.34c-0.11-0.15-0.23-0.21-0.3-0.22l0,0l-0.05,0L51.9,54.1
						C51.84,54.15,51.83,54.29,51.92,54.42z"/>
				</g>
			</g>
			<g>
				<g>
					<path class="st2" d="M51.08,53.74c0.18,0.23,0.48,0.29,0.66,0.15l2.88-2.14c0.19-0.14,0.16-0.48-0.06-0.77
						c-0.11-0.14-0.25-0.24-0.38-0.28c-0.14-0.04-0.26-0.02-0.35,0.05l-2.75,2.31c-0.09,0.08-0.13,0.19-0.13,0.31
						C50.95,53.49,50.99,53.62,51.08,53.74z"/>
					<path class="st1" d="M51.51,54.23c-0.23,0-0.48-0.11-0.64-0.33c-0.13-0.16-0.19-0.35-0.19-0.54c-0.01-0.18,0.07-0.38,0.22-0.5
						l2.75-2.31c0.16-0.13,0.38-0.17,0.6-0.1c0.19,0.06,0.37,0.19,0.51,0.37c0.18,0.23,0.27,0.5,0.24,0.74
						c-0.02,0.17-0.1,0.31-0.23,0.4L51.9,54.1C51.79,54.19,51.65,54.23,51.51,54.23z M54.04,50.94c-0.02,0-0.04,0-0.05,0.01
						l-2.75,2.31c-0.02,0.02-0.04,0.05-0.03,0.1c0,0.08,0.03,0.16,0.07,0.21l0,0c0.1,0.13,0.24,0.15,0.29,0.11l2.89-2.15
						c0.01-0.01,0.01-0.02,0.02-0.05c0.01-0.07-0.02-0.2-0.13-0.34c-0.07-0.1-0.17-0.17-0.25-0.19
						C54.08,50.95,54.06,50.94,54.04,50.94z"/>
				</g>
			</g>
			<g>
				<g>
					<path class="st2" d="M50.41,52.94c0.19,0.22,0.49,0.27,0.67,0.12l2.75-2.31c0.18-0.15,0.14-0.49-0.1-0.76
						c-0.23-0.28-0.58-0.34-0.75-0.18l-2.61,2.47C50.2,52.43,50.23,52.72,50.41,52.94z"/>
					<path class="st1" d="M50.83,53.41c-0.22,0-0.45-0.1-0.62-0.3l0,0c-0.28-0.33-0.29-0.78-0.02-1.04l2.62-2.47
						c0.12-0.11,0.28-0.16,0.46-0.16c0.25,0.01,0.49,0.15,0.67,0.36c0.19,0.22,0.29,0.49,0.27,0.73c-0.01,0.17-0.09,0.31-0.21,0.41
						l-2.75,2.31C51.13,53.36,50.99,53.41,50.83,53.41z M50.61,52.77c0.1,0.11,0.23,0.14,0.29,0.09l2.75-2.31l0.02-0.05
						c0.01-0.07-0.03-0.21-0.15-0.34c-0.1-0.12-0.22-0.17-0.3-0.18c-0.04-0.01-0.06,0.01-0.06,0.01l-2.61,2.47
						C50.49,52.52,50.52,52.65,50.61,52.77z"/>
				</g>
			</g>
			<g>
				<g>
					<path class="st2" d="M49.7,52.18c0.2,0.21,0.5,0.24,0.67,0.08l2.61-2.47c0.17-0.16,0.11-0.5-0.14-0.76
						c-0.26-0.25-0.6-0.31-0.76-0.14l-2.47,2.61C49.46,51.69,49.5,51.98,49.7,52.18z"/>
					<path class="st1" d="M50.1,52.63c-0.21,0-0.42-0.09-0.59-0.26c-0.31-0.3-0.35-0.76-0.09-1.04l2.47-2.61
						c0.1-0.11,0.25-0.18,0.42-0.18c0.24-0.02,0.5,0.1,0.71,0.31c0.21,0.22,0.32,0.48,0.32,0.72c0,0.17-0.07,0.32-0.18,0.42
						l-2.62,2.47C50.43,52.57,50.27,52.63,50.1,52.63z M52.33,49.07c-0.01,0-0.04,0-0.06,0.01l-2.47,2.61
						c-0.05,0.06-0.03,0.19,0.08,0.3L49.89,52c0.1,0.11,0.24,0.13,0.29,0.07l2.61-2.47c0.01-0.01,0.01-0.03,0.01-0.05
						c0-0.07-0.04-0.21-0.16-0.34C52.54,49.11,52.41,49.07,52.33,49.07z"/>
				</g>
			</g>
			<g>
				<g>
					<path class="st2" d="M48.94,51.47c0.22,0.18,0.51,0.21,0.67,0.04l2.47-2.61c0.16-0.17,0.09-0.52-0.19-0.75
						c-0.27-0.24-0.61-0.28-0.76-0.1l-2.31,2.75C48.68,50.99,48.73,51.28,48.94,51.47z"/>
					<path class="st1" d="M49.33,51.89c-0.19,0-0.39-0.07-0.56-0.21l-0.01-0.01c-0.32-0.29-0.39-0.74-0.15-1.03l2.31-2.75
						c0.1-0.12,0.24-0.19,0.41-0.21c0.24-0.02,0.51,0.08,0.73,0.28c0.21,0.17,0.35,0.43,0.36,0.67c0.01,0.18-0.05,0.34-0.16,0.46
						l-2.47,2.61C49.68,51.83,49.51,51.89,49.33,51.89z M49.12,51.27c0.11,0.09,0.25,0.12,0.31,0.06l2.47-2.61
						c0.01-0.01,0.01-0.03,0.01-0.06c0-0.08-0.05-0.2-0.18-0.3c-0.14-0.12-0.28-0.16-0.34-0.15c-0.02,0-0.04,0.01-0.05,0.02
						l-2.31,2.75C48.98,51.03,49.01,51.17,49.12,51.27z"/>
				</g>
			</g>
			<g>
				<g>
					<path class="st2" d="M48.15,50.81c0.12,0.09,0.24,0.13,0.37,0.13c0.12,0,0.23-0.04,0.31-0.13l2.31-2.75
						c0.08-0.09,0.09-0.22,0.05-0.36c-0.04-0.13-0.14-0.27-0.28-0.38c-0.29-0.22-0.63-0.25-0.77-0.06l-2.15,2.88
						C47.85,50.33,47.92,50.63,48.15,50.81z"/>
					<path class="st1" d="M48.53,51.2c-0.01,0-0.02,0-0.02,0c-0.18,0-0.37-0.06-0.52-0.18l0,0c-0.34-0.27-0.43-0.73-0.2-1.03
						l2.15-2.88c0.09-0.12,0.23-0.21,0.4-0.23c0.24-0.03,0.51,0.05,0.74,0.24c0.18,0.14,0.31,0.32,0.37,0.51
						c0.07,0.23,0.03,0.45-0.1,0.61l-2.31,2.75C48.91,51.12,48.72,51.2,48.53,51.2z M48.31,50.6c0.06,0.05,0.12,0.07,0.21,0.07
						c0.03,0,0.07,0,0.1-0.04l2.31-2.75c0.01-0.01,0.02-0.05,0-0.11c-0.03-0.08-0.1-0.17-0.19-0.25c-0.14-0.11-0.27-0.14-0.34-0.13
						c-0.02,0-0.04,0.01-0.05,0.02L48.2,50.3C48.16,50.36,48.19,50.51,48.31,50.6z"/>
				</g>
			</g>
			<g>
				<g>
					<path class="st2" d="M47.31,50.18c0.23,0.17,0.54,0.15,0.68-0.04l2.15-2.88c0.14-0.19,0.02-0.51-0.27-0.72
						c-0.29-0.21-0.64-0.21-0.77-0.01l-1.98,3C46.99,49.73,47.09,50.01,47.31,50.18z"/>
					<path class="st1" d="M47.66,50.56c-0.17,0-0.34-0.05-0.5-0.16l0,0c-0.35-0.26-0.46-0.69-0.26-1l1.98-3
						c0.09-0.13,0.23-0.22,0.4-0.25c0.24-0.04,0.52,0.03,0.75,0.19c0.24,0.17,0.4,0.4,0.43,0.64c0.03,0.17-0.01,0.33-0.1,0.45
						L48.2,50.3C48.08,50.47,47.87,50.56,47.66,50.56z M47.47,49.97c0.12,0.09,0.26,0.08,0.31,0.01l2.15-2.88
						c0.01-0.01,0.01-0.03,0-0.05c-0.01-0.07-0.08-0.19-0.22-0.29c-0.14-0.1-0.27-0.12-0.34-0.1c-0.03,0.01-0.05,0.02-0.05,0.02
						l-1.98,3C47.3,49.74,47.34,49.87,47.47,49.97z"/>
				</g>
			</g>
			<g>
				<g>
					<path class="st2" d="M46.45,49.61c0.24,0.15,0.54,0.12,0.67-0.08l1.98-3c0.13-0.19-0.01-0.51-0.31-0.7
						c-0.3-0.19-0.66-0.16-0.77,0.04l-1.8,3.11C46.09,49.18,46.21,49.46,46.45,49.61z"/>
					<path class="st1" d="M46.77,49.97c-0.15,0-0.31-0.04-0.46-0.14l0,0c-0.37-0.24-0.51-0.66-0.32-0.99l1.8-3.11
						c0.08-0.14,0.22-0.24,0.39-0.28c0.24-0.06,0.51,0,0.75,0.15c0.25,0.16,0.42,0.39,0.47,0.63c0.03,0.16,0.01,0.32-0.08,0.45
						l-1.98,3C47.21,49.87,47,49.97,46.77,49.97z M48.37,45.96c-0.03,0-0.05,0-0.07,0.01c-0.04,0.01-0.05,0.02-0.06,0.03l-1.79,3.11
						c-0.04,0.07,0.02,0.2,0.15,0.28l0,0c0.12,0.08,0.26,0.07,0.31,0l1.98-3c0.01-0.01,0.01-0.03,0-0.05
						c-0.01-0.07-0.09-0.19-0.24-0.29C48.54,45.99,48.44,45.96,48.37,45.96z"/>
				</g>
			</g>
			<g>
				<g>
					<path class="st2" d="M45.55,49.09c0.25,0.14,0.55,0.09,0.67-0.11l1.8-3.11c0.12-0.2-0.03-0.51-0.35-0.69
						c-0.32-0.17-0.66-0.13-0.77,0.08l-1.61,3.21C45.18,48.68,45.3,48.96,45.55,49.09z"/>
					<path class="st1" d="M45.84,49.43c-0.14,0-0.28-0.04-0.42-0.11c-0.38-0.2-0.55-0.63-0.38-0.97l1.62-3.21
						c0.07-0.14,0.19-0.24,0.35-0.29c0.23-0.07,0.51-0.04,0.77,0.09c0.26,0.14,0.45,0.37,0.51,0.6c0.04,0.16,0.02,0.33-0.06,0.46
						l-1.79,3.11C46.32,49.32,46.09,49.43,45.84,49.43z M47.27,45.34c-0.04,0-0.07,0-0.09,0.01c-0.02,0.01-0.04,0.02-0.04,0.03
						l-1.61,3.21c-0.03,0.07,0.02,0.2,0.15,0.26l0.01,0c0.13,0.07,0.27,0.05,0.31-0.02l1.79-3.11c0.01-0.01,0.01-0.03,0-0.05
						c-0.02-0.07-0.1-0.18-0.25-0.27C47.43,45.36,47.34,45.34,47.27,45.34z"/>
				</g>
			</g>
			<g>
				<g>
					<path class="st2" d="M44.62,48.63c0.26,0.11,0.55,0.06,0.66-0.16l1.61-3.21c0.11-0.21-0.06-0.52-0.39-0.66
						c-0.33-0.15-0.67-0.09-0.76,0.12l-1.43,3.3C44.23,48.24,44.36,48.51,44.62,48.63z"/>
					<path class="st1" d="M44.89,48.95c-0.12,0-0.25-0.02-0.37-0.08l-0.01,0c-0.39-0.18-0.59-0.6-0.44-0.95l1.43-3.3
						c0.06-0.14,0.18-0.25,0.33-0.31c0.23-0.09,0.51-0.07,0.78,0.05c0.25,0.11,0.45,0.31,0.54,0.54c0.06,0.17,0.05,0.34-0.02,0.48
						l-1.61,3.21C45.4,48.82,45.16,48.95,44.89,48.95z M44.73,48.38c0.14,0.05,0.28,0.04,0.31-0.03l1.61-3.21
						c0-0.01,0.01-0.03-0.01-0.07c-0.03-0.07-0.11-0.17-0.25-0.24c-0.17-0.08-0.3-0.07-0.37-0.04l0,0l-0.04,0.03l-1.43,3.3
						C44.53,48.2,44.59,48.32,44.73,48.38z"/>
				</g>
			</g>
			<g>
				<g>
					<path class="st2" d="M45.31,44.09c-0.33-0.13-0.67-0.06-0.75,0.16l-0.9,2.47v1.49c0,0,0,0,0.01,0c0.27,0.1,0.56,0.02,0.65-0.2
						l1.43-3.3C45.84,44.51,45.64,44.21,45.31,44.09z"/>
					<path class="st1" d="M43.9,48.52c-0.09,0-0.18-0.01-0.27-0.04l-0.23,0l0.02-1.85l0.9-2.47c0.05-0.15,0.17-0.26,0.32-0.33
						c0.22-0.1,0.5-0.09,0.78,0.01c0.27,0.1,0.48,0.3,0.58,0.52c0.07,0.16,0.07,0.32,0,0.47l-1.42,3.3
						C44.45,48.38,44.19,48.52,43.9,48.52z M43.93,46.76v1.23c0.07-0.01,0.13-0.04,0.15-0.08l1.43-3.3c0-0.01,0-0.03-0.01-0.05
						c-0.03-0.07-0.12-0.17-0.28-0.23l0,0c-0.17-0.07-0.3-0.05-0.36-0.02c-0.02,0.01-0.03,0.02-0.04,0.03L43.93,46.76z"/>
				</g>
			</g>
			<g>
				<g>
					<path class="st2" d="M44.09,43.64c-0.15-0.05-0.3-0.06-0.43-0.03v3.11l0.9-2.47C44.64,44.03,44.43,43.76,44.09,43.64z"/>
					<path class="st1" d="M43.4,48.22V43.4l0.21-0.05c0.18-0.04,0.39-0.03,0.58,0.04c0.28,0.09,0.5,0.27,0.6,0.49
						c0.07,0.15,0.08,0.31,0.03,0.46L43.4,48.22z M43.93,43.87v1.35l0.39-1.06c0-0.01,0-0.03-0.01-0.05
						c-0.03-0.07-0.13-0.16-0.3-0.22l-0.01,0C43.98,43.88,43.95,43.87,43.93,43.87z"/>
				</g>
			</g>
		</g>
		<g>
			<path class="st2" d="M23.52,46.93c0,3.14-2.54,5.68-5.68,5.68c-3.14,0-5.68-2.54-5.68-5.68c0-3.14,2.54-5.68,5.68-5.68
				C20.98,41.25,23.52,43.8,23.52,46.93z"/>
			<path class="st1" d="M17.84,52.88c-3.28,0-5.95-2.67-5.95-5.95c0-3.28,2.67-5.95,5.95-5.95c3.28,0,5.95,2.67,5.95,5.95
				C23.79,50.21,21.12,52.88,17.84,52.88z M17.84,41.52c-2.99,0-5.42,2.43-5.42,5.42c0,2.99,2.43,5.42,5.42,5.42
				c2.99,0,5.42-2.43,5.42-5.42C23.26,43.95,20.83,41.52,17.84,41.52z"/>
		</g>
		<g>
			<path class="st2" d="M49.77,46.93c0,3.14-2.54,5.68-5.68,5.68c-3.14,0-5.68-2.54-5.68-5.68c0-3.14,2.54-5.68,5.68-5.68
				C47.23,41.25,49.77,43.8,49.77,46.93z"/>
			<path class="st1" d="M44.09,52.88c-3.28,0-5.95-2.67-5.95-5.95c0-3.28,2.67-5.95,5.95-5.95c3.28,0,5.95,2.67,5.95,5.95
				C50.04,50.21,47.37,52.88,44.09,52.88z M44.09,41.52c-2.99,0-5.42,2.43-5.42,5.42c0,2.99,2.43,5.42,5.42,5.42
				c2.99,0,5.42-2.43,5.42-5.42C49.51,43.95,47.08,41.52,44.09,41.52z"/>
		</g>
		<g>
			<path class="st2" d="M42.95,70.23c-0.12,2.02-1.46,3.66-2.99,3.66H23.28c-1.53,0-2.87-1.65-2.99-3.66l-1.58-27.34
				c-0.12-2.01,1.04-3.66,2.57-3.66h20.69c1.53,0,2.68,1.65,2.57,3.66L42.95,70.23z"/>
			<path class="st1" d="M39.96,74.16H23.28c-1.67,0-3.13-1.76-3.26-3.91L18.44,42.9c-0.07-1.22,0.3-2.36,1.01-3.11
				c0.51-0.54,1.14-0.83,1.82-0.83h20.69c0.68,0,1.31,0.28,1.82,0.82c0.71,0.75,1.08,1.89,1.01,3.11l-1.58,27.34
				C43.09,72.4,41.63,74.16,39.96,74.16z M21.28,39.49c-0.53,0-1.03,0.23-1.44,0.66c-0.6,0.64-0.93,1.66-0.86,2.72l1.58,27.34
				c0.11,1.88,1.33,3.41,2.73,3.41h16.69c1.4,0,2.62-1.53,2.73-3.41l1.58-27.34c0.06-1.06-0.26-2.08-0.87-2.72
				c-0.41-0.43-0.9-0.66-1.44-0.66H21.28z"/>
		</g>
	</g>
</g>
</svg>
