<?xml version="1.0" encoding="utf-8"?>
<!-- Generator: Adobe Illustrator 24.0.1, SVG Export Plug-In . SVG Version: 6.00 Build 0)  -->
<svg version="1.1" id="Capa_1" xmlns="http://www.w3.org/2000/svg" xmlns:xlink="http://www.w3.org/1999/xlink" x="0px" y="0px"
	 viewBox="0 0 60 60" style="enable-background:new 0 0 60 60;" xml:space="preserve">
<style type="text/css">
	.st0{fill:#6F93AD;}
	.st1{fill:#1A1A1A;}
	.st2{fill:#B52C40;}
	.st3{fill:#F0DED2;}
	.st4{fill:#F4EAE2;}
	.st5{fill-rule:evenodd;clip-rule:evenodd;fill:#997156;}
	.st6{fill-rule:evenodd;clip-rule:evenodd;fill:#FFFFFF;}
	.st7{clip-path:url(#SVGID_3_);}
	.st8{fill-rule:evenodd;clip-rule:evenodd;fill:#1B1529;}
	.st9{fill:#997156;}
	.st10{fill:#256A67;}
	.st11{fill:#AF9114;}
	.st12{fill:#E8D1C2;}
	.st13{fill:none;stroke:#1A1A1A;stroke-width:1.1434;stroke-linecap:round;stroke-linejoin:round;stroke-miterlimit:10;}
	.st14{fill-rule:evenodd;clip-rule:evenodd;fill:#F0DED2;}
	.st15{fill:#FFFFFF;}
	.st16{clip-path:url(#SVGID_6_);}
	.st17{clip-path:url(#SVGID_8_);}
	.st18{clip-path:url(#SVGID_10_);}
	.st19{clip-path:url(#SVGID_12_);}
	.st20{clip-path:url(#SVGID_14_);}
	.st21{clip-path:url(#SVGID_16_);}
	.st22{clip-path:url(#SVGID_18_);}
	.st23{clip-path:url(#SVGID_20_);}
	.st24{clip-path:url(#SVGID_22_);}
	.st25{clip-path:url(#SVGID_24_);}
	.st26{clip-path:url(#SVGID_26_);}
	.st27{fill-rule:evenodd;clip-rule:evenodd;fill:#D8778A;}
	.st28{clip-path:url(#SVGID_28_);}
	.st29{clip-path:url(#SVGID_31_);}
</style>
<g>
	<defs>
		<rect id="SVGID_9_" width="60" height="60"/>
	</defs>
	<clipPath id="SVGID_3_">
		<use xlink:href="#SVGID_9_"  style="overflow:visible;"/>
	</clipPath>
	<g class="st7">
		<g>
			<g>
				<g>
					<path class="st0" d="M9.48,61.58c-0.1,0.27-0.34,0.44-0.57,0.37l-3.44-1.03c-0.23-0.07-0.33-0.4-0.21-0.74
						c0.12-0.34,0.39-0.55,0.61-0.47l3.38,1.23C9.46,61.02,9.57,61.31,9.48,61.58z"/>
					<path class="st1" d="M9.01,62.23c-0.06,0-0.11-0.01-0.17-0.02l-3.45-1.03c-0.15-0.04-0.28-0.15-0.36-0.31
						c-0.11-0.22-0.12-0.5-0.03-0.77c0.09-0.28,0.27-0.5,0.49-0.6c0.15-0.07,0.31-0.08,0.46-0.03l3.38,1.23
						c0.35,0.13,0.53,0.57,0.39,0.97l0,0C9.6,62.01,9.31,62.23,9.01,62.23z M5.77,59.96c-0.01,0-0.02,0-0.04,0.01
						C5.66,60,5.56,60.1,5.51,60.26c-0.06,0.16-0.04,0.29,0,0.36c0.01,0.03,0.03,0.04,0.04,0.04l3.45,1.03
						c0.07,0.02,0.19-0.06,0.24-0.21c0.05-0.14,0-0.27-0.08-0.3L5.77,59.96C5.77,59.96,5.77,59.96,5.77,59.96z"/>
				</g>
			</g>
			<g>
				<g>
					<path class="st0" d="M9.83,60.6c-0.1,0.26-0.37,0.41-0.59,0.33l-3.38-1.23c-0.23-0.08-0.29-0.42-0.17-0.75
						c0.13-0.34,0.42-0.53,0.64-0.43l3.3,1.43C9.85,60.05,9.93,60.34,9.83,60.6z"/>
					<path class="st1" d="M9.36,61.22c-0.07,0-0.14-0.01-0.21-0.04l-3.38-1.23c-0.15-0.05-0.26-0.17-0.33-0.32
						c-0.1-0.22-0.1-0.5,0.01-0.77c0.1-0.27,0.29-0.48,0.52-0.58c0.16-0.07,0.33-0.07,0.47,0l3.3,1.42
						c0.34,0.15,0.49,0.58,0.34,0.99l0,0.01C9.95,61.02,9.65,61.22,9.36,61.22z M6.22,58.77c-0.01,0-0.03,0-0.04,0.01
						c-0.07,0.03-0.17,0.12-0.23,0.28c-0.06,0.17-0.05,0.3-0.02,0.36c0.01,0.02,0.02,0.03,0.03,0.04l3.38,1.23
						c0.07,0.03,0.2-0.05,0.25-0.18c0.05-0.14,0.01-0.28-0.05-0.31l-3.3-1.43C6.23,58.77,6.22,58.77,6.22,58.77z"/>
				</g>
			</g>
			<g>
				<g>
					<path class="st0" d="M10.24,59.65c-0.12,0.26-0.39,0.4-0.61,0.3l-3.3-1.43c-0.22-0.09-0.27-0.43-0.12-0.76
						c0.14-0.33,0.46-0.5,0.66-0.39l3.21,1.62C10.3,59.1,10.35,59.39,10.24,59.65z"/>
					<path class="st1" d="M9.77,60.25c-0.08,0-0.17-0.02-0.24-0.05l-3.3-1.43c-0.14-0.06-0.25-0.18-0.31-0.34
						c-0.09-0.23-0.07-0.51,0.06-0.77c0.1-0.25,0.31-0.45,0.54-0.54c0.17-0.06,0.34-0.06,0.49,0.02l3.21,1.61
						c0.33,0.17,0.45,0.6,0.28,1l0,0C10.34,60.06,10.06,60.25,9.77,60.25z M6.74,57.61c-0.01,0-0.03,0-0.05,0.01
						c-0.07,0.03-0.17,0.11-0.23,0.25c-0.08,0.17-0.07,0.3-0.05,0.37c0.01,0.02,0.02,0.04,0.03,0.04l3.3,1.43
						c0.07,0.03,0.2-0.04,0.26-0.17c0.06-0.14,0.04-0.28-0.03-0.32l-3.21-1.61C6.76,57.61,6.75,57.61,6.74,57.61z"/>
				</g>
			</g>
			<g>
				<g>
					<path class="st0" d="M10.7,58.72c-0.13,0.25-0.4,0.37-0.62,0.27l-3.21-1.62c-0.21-0.1-0.25-0.45-0.08-0.77
						c0.17-0.31,0.49-0.47,0.69-0.35l3.11,1.8C10.8,58.17,10.84,58.47,10.7,58.72z"/>
					<path class="st1" d="M10.24,59.29c-0.09,0-0.19-0.02-0.28-0.06l-3.21-1.62c-0.13-0.06-0.24-0.19-0.29-0.35
						c-0.08-0.23-0.04-0.52,0.09-0.78c0.14-0.26,0.37-0.45,0.6-0.51c0.16-0.04,0.33-0.02,0.46,0.05l3.11,1.8
						c0.33,0.19,0.42,0.65,0.21,1.02C10.79,59.13,10.52,59.29,10.24,59.29z M7.33,56.48c-0.01,0-0.02,0-0.03,0
						c-0.07,0.02-0.19,0.1-0.27,0.25c-0.08,0.15-0.08,0.29-0.06,0.36l0,0L7,57.14l3.21,1.62c0.07,0.03,0.19-0.02,0.26-0.15
						l0.01-0.01c0.07-0.13,0.05-0.27-0.01-0.3l-3.11-1.8C7.35,56.48,7.34,56.48,7.33,56.48z"/>
				</g>
			</g>
			<g>
				<g>
					<path class="st0" d="M11.23,57.83c-0.16,0.24-0.43,0.35-0.63,0.23l-3.11-1.8c-0.2-0.12-0.23-0.47-0.04-0.77
						c0.19-0.3,0.51-0.44,0.71-0.31l3,1.98C11.34,57.28,11.38,57.58,11.23,57.83z"/>
					<path class="st1" d="M10.77,58.37c-0.11,0-0.21-0.03-0.31-0.08l-3.11-1.8c-0.14-0.08-0.23-0.21-0.28-0.38
						c-0.06-0.24,0-0.52,0.15-0.76c0.16-0.25,0.39-0.42,0.63-0.47c0.16-0.03,0.32-0.01,0.45,0.08l3,1.97
						c0.32,0.21,0.38,0.67,0.16,1.04l0,0.01C11.28,58.23,11.03,58.37,10.77,58.37z M7.98,55.39c-0.01,0-0.02,0-0.03,0
						c-0.07,0.02-0.19,0.09-0.29,0.24c-0.09,0.14-0.1,0.27-0.08,0.35c0.01,0.03,0.02,0.05,0.03,0.05l3.11,1.8
						c0.07,0.04,0.2-0.02,0.28-0.14c0.08-0.13,0.06-0.27,0-0.31l-3-1.97C8,55.39,7.99,55.39,7.98,55.39z"/>
				</g>
			</g>
			<g>
				<g>
					<path class="st0" d="M11.8,56.96c-0.17,0.23-0.45,0.32-0.65,0.19l-3-1.98c-0.2-0.13-0.2-0.48,0.01-0.77
						c0.21-0.29,0.53-0.41,0.72-0.27l2.88,2.14C11.95,56.42,11.96,56.73,11.8,56.96z"/>
					<path class="st1" d="M11.35,57.47c-0.12,0-0.24-0.03-0.34-0.1l-3-1.98c-0.13-0.09-0.23-0.23-0.26-0.4
						c-0.04-0.24,0.03-0.52,0.2-0.74c0.17-0.24,0.4-0.39,0.64-0.43c0.16-0.02,0.32,0.01,0.45,0.1l2.88,2.14
						c0.31,0.24,0.35,0.7,0.1,1.05l0,0C11.84,57.35,11.59,57.47,11.35,57.47z M8.69,54.34c-0.01,0-0.01,0-0.02,0
						c-0.07,0.01-0.19,0.08-0.3,0.22c-0.1,0.13-0.12,0.27-0.11,0.34c0.01,0.03,0.01,0.05,0.03,0.06l3,1.98
						c0.06,0.04,0.19,0,0.29-0.13c0.09-0.12,0.08-0.27,0.01-0.32l-2.88-2.14C8.72,54.34,8.71,54.34,8.69,54.34z"/>
				</g>
			</g>
			<g>
				<g>
					<path class="st0" d="M12.42,56.12c-0.18,0.23-0.47,0.29-0.66,0.15l-2.88-2.14c-0.19-0.14-0.17-0.48,0.06-0.77
						c0.11-0.14,0.25-0.24,0.38-0.28c0.13-0.04,0.26-0.02,0.35,0.05l2.75,2.31c0.09,0.08,0.13,0.19,0.13,0.31
						C12.55,55.88,12.51,56.01,12.42,56.12z"/>
					<path class="st1" d="M11.99,56.61c-0.14,0-0.27-0.04-0.39-0.12l-2.88-2.14c-0.12-0.09-0.21-0.23-0.23-0.4
						c-0.03-0.24,0.05-0.51,0.23-0.74c0.14-0.18,0.33-0.31,0.51-0.37c0.22-0.07,0.44-0.03,0.6,0.1l2.76,2.31
						c0.15,0.13,0.23,0.31,0.23,0.52c0,0.18-0.07,0.37-0.19,0.52C12.46,56.5,12.22,56.61,11.99,56.61z M9.46,53.33
						c-0.02,0-0.04,0-0.06,0.01c-0.08,0.03-0.18,0.1-0.25,0.19c-0.11,0.14-0.13,0.27-0.12,0.34c0,0.02,0.01,0.04,0.02,0.05
						l2.88,2.14c0.06,0.05,0.21,0.01,0.3-0.1l0,0c0.05-0.06,0.07-0.13,0.07-0.2c0-0.05-0.01-0.09-0.04-0.11L9.5,53.34
						C9.49,53.33,9.48,53.33,9.46,53.33z"/>
				</g>
			</g>
			<g>
				<g>
					<path class="st0" d="M13.09,55.33c-0.19,0.22-0.48,0.27-0.67,0.12l-2.75-2.31c-0.18-0.15-0.14-0.49,0.1-0.76
						c0.23-0.28,0.58-0.34,0.75-0.18l2.61,2.47C13.3,54.82,13.27,55.11,13.09,55.33z"/>
					<path class="st1" d="M12.67,55.8c-0.15,0-0.3-0.05-0.42-0.15L9.5,53.34c-0.12-0.09-0.19-0.24-0.2-0.4
						c-0.02-0.24,0.08-0.51,0.27-0.74c0.18-0.21,0.43-0.34,0.67-0.36c0.17-0.01,0.34,0.04,0.46,0.16l2.61,2.46
						c0.27,0.26,0.26,0.7-0.02,1.04l0,0C13.12,55.69,12.89,55.8,12.67,55.8z M10.28,52.37c0,0-0.01,0-0.01,0
						c-0.08,0-0.2,0.05-0.3,0.17c-0.12,0.14-0.15,0.27-0.15,0.35l0,0l0.01,0.04l2.75,2.31c0.06,0.05,0.2,0.02,0.29-0.09
						c0.1-0.11,0.12-0.25,0.06-0.31l-2.61-2.46C10.33,52.38,10.31,52.37,10.28,52.37z"/>
				</g>
			</g>
			<g>
				<g>
					<path class="st0" d="M13.8,54.57c-0.2,0.21-0.5,0.24-0.67,0.08l-2.61-2.47c-0.17-0.16-0.11-0.5,0.14-0.76
						c0.26-0.25,0.6-0.31,0.76-0.14l2.47,2.61C14.04,54.07,14,54.37,13.8,54.57z"/>
					<path class="st1" d="M13.4,55.02c-0.16,0-0.32-0.06-0.45-0.17l-2.61-2.47c-0.11-0.1-0.18-0.25-0.18-0.42
						c-0.01-0.24,0.1-0.5,0.31-0.72c0.23-0.21,0.5-0.32,0.73-0.32c0.17,0.01,0.31,0.07,0.42,0.18l2.46,2.61
						c0.26,0.28,0.22,0.74-0.09,1.04C13.82,54.93,13.6,55.02,13.4,55.02z M11.17,51.46c-0.08,0-0.2,0.04-0.33,0.16
						c-0.11,0.12-0.15,0.25-0.15,0.33c0,0.02,0.01,0.04,0.01,0.05l2.61,2.47c0.06,0.05,0.19,0.03,0.29-0.07l0.01-0.01
						c0.11-0.1,0.13-0.24,0.07-0.3l-2.46-2.61C11.21,51.46,11.19,51.45,11.17,51.46z"/>
				</g>
			</g>
			<g>
				<g>
					<path class="st0" d="M14.55,53.86c-0.22,0.18-0.51,0.21-0.67,0.04l-2.47-2.61c-0.16-0.17-0.09-0.52,0.18-0.75
						c0.27-0.24,0.61-0.28,0.76-0.1l2.31,2.75C14.83,53.37,14.77,53.67,14.55,53.86z"/>
					<path class="st1" d="M14.16,54.28c-0.18,0-0.35-0.07-0.47-0.2l-2.47-2.61c-0.11-0.12-0.17-0.28-0.15-0.46
						c0.02-0.24,0.15-0.49,0.36-0.67c0.22-0.19,0.48-0.29,0.73-0.27c0.17,0.01,0.31,0.09,0.41,0.21l2.31,2.75
						c0.24,0.29,0.18,0.75-0.15,1.04l0,0C14.55,54.21,14.35,54.28,14.16,54.28z M12.1,50.59c-0.07,0-0.2,0.04-0.32,0.15
						c-0.13,0.1-0.17,0.22-0.18,0.3c0,0.04,0.01,0.06,0.01,0.07l2.47,2.61c0.06,0.06,0.2,0.03,0.31-0.06
						c0.11-0.1,0.14-0.24,0.09-0.29l-2.31-2.75c-0.01-0.01-0.04-0.02-0.05-0.02C12.11,50.59,12.1,50.59,12.1,50.59z"/>
				</g>
			</g>
			<g>
				<g>
					<path class="st0" d="M15.35,53.19c-0.11,0.09-0.25,0.13-0.37,0.13c-0.12,0-0.23-0.04-0.31-0.13l-2.31-2.75
						c-0.08-0.09-0.09-0.22-0.05-0.36c0.04-0.13,0.14-0.27,0.28-0.38c0.28-0.22,0.62-0.25,0.76-0.06l2.15,2.88
						C15.64,52.72,15.58,53.02,15.35,53.19z"/>
					<path class="st1" d="M14.97,53.59c-0.19,0-0.37-0.08-0.49-0.22l-2.31-2.75c-0.13-0.15-0.17-0.37-0.11-0.6
						c0.07-0.2,0.2-0.38,0.38-0.52c0.23-0.18,0.5-0.27,0.74-0.24c0.17,0.02,0.31,0.1,0.4,0.23l2.14,2.88
						c0.22,0.3,0.13,0.76-0.2,1.03l0,0C15.36,53.53,15.16,53.59,14.97,53.59z M13.07,49.79c-0.07,0-0.19,0.03-0.31,0.13
						c-0.1,0.07-0.17,0.17-0.2,0.26c-0.01,0.04-0.01,0.09,0.01,0.1l2.31,2.75c0.03,0.03,0.08,0.04,0.1,0.03
						c0.06,0,0.13-0.01,0.21-0.07c0.12-0.09,0.15-0.23,0.1-0.3l-2.15-2.88c-0.01-0.02-0.04-0.02-0.05-0.02
						C13.09,49.79,13.08,49.79,13.07,49.79z"/>
				</g>
			</g>
			<g>
				<g>
					<path class="st0" d="M16.18,52.57c-0.23,0.17-0.54,0.15-0.68-0.04l-2.15-2.88c-0.14-0.19-0.02-0.51,0.28-0.72
						c0.29-0.21,0.64-0.21,0.77-0.01l1.98,3C16.51,52.12,16.42,52.4,16.18,52.57z"/>
					<path class="st1" d="M15.84,52.95c-0.22,0-0.42-0.09-0.55-0.26l-2.15-2.88c-0.09-0.13-0.13-0.29-0.1-0.45
						c0.04-0.24,0.2-0.47,0.44-0.64c0.22-0.16,0.5-0.23,0.74-0.19c0.17,0.03,0.32,0.12,0.4,0.25l1.98,3
						c0.2,0.32,0.09,0.75-0.26,1.01l0,0C16.18,52.89,16.01,52.95,15.84,52.95z M14.08,49.04c-0.08,0-0.18,0.03-0.29,0.11
						c-0.15,0.1-0.21,0.22-0.22,0.3c0,0.02,0,0.04,0,0.05l2.15,2.88c0.05,0.06,0.19,0.07,0.31-0.02c0.13-0.09,0.17-0.23,0.13-0.29
						l-1.97-3c-0.01-0.01-0.03-0.02-0.06-0.03C14.11,49.04,14.1,49.04,14.08,49.04z"/>
				</g>
			</g>
			<g>
				<g>
					<path class="st0" d="M16.74,51.92v-1.5l-1.26-2.17c-0.11-0.2-0.47-0.23-0.77-0.04c-0.3,0.19-0.44,0.51-0.31,0.7l1.98,3
						c0.13,0.2,0.43,0.23,0.67,0.08c0.04-0.02,0.07-0.05,0.1-0.08H16.74z"/>
					<path class="st1" d="M16.73,52.36c-0.23,0-0.45-0.1-0.57-0.29l-1.98-3c-0.08-0.12-0.11-0.28-0.08-0.45
						c0.05-0.24,0.22-0.47,0.47-0.63c0.24-0.15,0.52-0.21,0.75-0.15c0.17,0.04,0.31,0.14,0.39,0.28l1.29,2.23v1.3h0.82l-0.5,0.46
						c-0.04,0.04-0.08,0.07-0.13,0.1C17.05,52.31,16.89,52.36,16.73,52.36z M15.14,48.35c-0.07,0-0.17,0.02-0.28,0.09
						c-0.15,0.1-0.22,0.21-0.24,0.29l0,0l0,0.05l1.85,2.81V50.5l-1.22-2.11c0-0.01-0.02-0.02-0.05-0.03
						C15.18,48.35,15.16,48.35,15.14,48.35z"/>
				</g>
			</g>
			<g>
				<g>
					<path class="st0" d="M16.74,47.92l-0.14-0.27c-0.11-0.21-0.45-0.25-0.77-0.08c-0.31,0.17-0.47,0.49-0.35,0.69l1.26,2.17V47.92z
						"/>
					<path class="st1" d="M17.01,51.41l-1.75-3.03c-0.08-0.13-0.1-0.29-0.05-0.46c0.06-0.23,0.25-0.45,0.5-0.59
						c0.27-0.14,0.55-0.17,0.78-0.1c0.16,0.05,0.28,0.16,0.35,0.29l0.17,0.33V51.41z M16.23,47.73c-0.07,0-0.17,0.02-0.27,0.07
						c-0.15,0.08-0.22,0.19-0.24,0.27c-0.01,0.03-0.01,0.04,0,0.05l0.76,1.32v-1.46l-0.11-0.22c-0.01-0.01-0.02-0.02-0.05-0.03
						C16.3,47.73,16.27,47.73,16.23,47.73z"/>
				</g>
			</g>
		</g>
		<g>
			<g>
				<g>
					<path class="st0" d="M50.89,60.98c0.05,0.28,0.28,0.48,0.51,0.45l3.55-0.53c0.23-0.03,0.37-0.35,0.31-0.7
						c-0.05-0.36-0.32-0.6-0.54-0.55l-3.52,0.74C50.98,60.44,50.86,60.7,50.89,60.98z"/>
					<path class="st1" d="M51.35,61.7c-0.34,0-0.65-0.28-0.72-0.67l0-0.01c-0.06-0.44,0.16-0.82,0.52-0.89l3.52-0.74
						c0.15-0.03,0.32,0,0.47,0.1c0.2,0.14,0.35,0.39,0.39,0.67c0.05,0.29-0.01,0.56-0.15,0.76c-0.1,0.14-0.24,0.22-0.39,0.24
						l-3.55,0.53C51.41,61.7,51.38,61.7,51.35,61.7z M51.16,60.94c0.03,0.14,0.14,0.25,0.21,0.23l3.55-0.53
						c0.02,0,0.03-0.03,0.04-0.03c0.04-0.06,0.08-0.19,0.05-0.36c-0.02-0.16-0.1-0.27-0.17-0.31c-0.03-0.02-0.05-0.02-0.06-0.02
						l-3.52,0.74C51.19,60.66,51.14,60.8,51.16,60.94z"/>
				</g>
			</g>
			<g>
				<g>
					<path class="st0" d="M50.69,59.97c0.06,0.28,0.29,0.47,0.52,0.42l3.52-0.74c0.23-0.04,0.35-0.37,0.28-0.72
						c-0.09-0.35-0.35-0.58-0.58-0.52l-3.47,0.94C50.74,59.41,50.61,59.69,50.69,59.97z"/>
					<path class="st1" d="M51.14,60.66c-0.33,0-0.63-0.26-0.71-0.63c-0.11-0.42,0.1-0.83,0.46-0.93l3.47-0.94
						c0.15-0.04,0.31-0.02,0.46,0.07c0.21,0.12,0.38,0.36,0.45,0.64c0.06,0.3,0.02,0.59-0.11,0.79c-0.09,0.14-0.22,0.23-0.37,0.26
						l-3.51,0.74C51.23,60.65,51.18,60.66,51.14,60.66z M54.51,58.67C54.51,58.67,54.5,58.67,54.51,58.67l-3.48,0.94
						c-0.07,0.02-0.13,0.15-0.09,0.29l0,0.01c0.03,0.14,0.15,0.22,0.21,0.21l3.52-0.74l0.04-0.03c0.04-0.06,0.08-0.2,0.04-0.38
						c-0.04-0.16-0.13-0.26-0.2-0.3C54.53,58.67,54.52,58.67,54.51,58.67z"/>
				</g>
			</g>
			<g>
				<g>
					<path class="st0" d="M50.41,58.97c0.09,0.27,0.32,0.45,0.55,0.39l3.47-0.94c0.23-0.06,0.34-0.39,0.23-0.74
						c-0.11-0.34-0.38-0.56-0.6-0.48l-3.4,1.14C50.43,58.41,50.33,58.69,50.41,58.97z"/>
					<path class="st1" d="M50.87,59.63c-0.31,0-0.6-0.23-0.71-0.58l0,0c-0.13-0.42,0.05-0.84,0.42-0.96l3.4-1.14
						c0.14-0.05,0.3-0.04,0.45,0.04c0.21,0.11,0.39,0.34,0.48,0.61c0.09,0.27,0.07,0.56-0.05,0.77c-0.08,0.15-0.21,0.26-0.37,0.3
						l-3.47,0.94C50.98,59.62,50.92,59.63,50.87,59.63z M50.66,58.89c0.04,0.13,0.15,0.23,0.23,0.21l3.47-0.94
						c0.01,0,0.03-0.02,0.04-0.04c0.04-0.07,0.06-0.2,0.01-0.36c-0.05-0.17-0.15-0.27-0.22-0.3c-0.02-0.01-0.04-0.01-0.05-0.01
						l-3.41,1.14C50.67,58.61,50.62,58.74,50.66,58.89z"/>
				</g>
			</g>
			<g>
				<g>
					<path class="st0" d="M50.08,57.98c0.1,0.27,0.35,0.43,0.58,0.35l3.4-1.14c0.22-0.07,0.32-0.41,0.19-0.75
						c-0.13-0.34-0.41-0.54-0.62-0.45l-3.34,1.33C50.08,57.42,49.98,57.71,50.08,57.98z"/>
					<path class="st1" d="M50.55,58.62c-0.3,0-0.58-0.21-0.71-0.54l0-0.01c-0.15-0.4,0.01-0.84,0.36-0.98l3.34-1.33
						c0.14-0.06,0.3-0.05,0.45,0.01c0.22,0.1,0.41,0.31,0.51,0.59c0.1,0.26,0.1,0.55,0,0.77c-0.08,0.16-0.2,0.27-0.35,0.32
						l-3.4,1.14C50.68,58.61,50.61,58.62,50.55,58.62z M50.33,57.89c0.06,0.15,0.18,0.22,0.25,0.2l3.4-1.14
						c0.01,0,0.03-0.02,0.04-0.05c0.03-0.07,0.05-0.2-0.01-0.35c-0.06-0.17-0.16-0.26-0.23-0.29l0,0l-0.05-0.01l-3.34,1.33
						C50.32,57.61,50.28,57.75,50.33,57.89z"/>
				</g>
			</g>
			<g>
				<g>
					<path class="st0" d="M49.69,57.01c0.11,0.26,0.39,0.41,0.6,0.32L53.63,56c0.22-0.09,0.28-0.43,0.14-0.76
						c-0.07-0.16-0.18-0.29-0.29-0.37c-0.12-0.07-0.25-0.09-0.35-0.04l-3.25,1.53c-0.11,0.05-0.18,0.15-0.2,0.27
						C49.63,56.74,49.64,56.88,49.69,57.01z"/>
					<path class="st1" d="M50.16,57.62c-0.29,0-0.57-0.19-0.71-0.5l0,0c-0.08-0.19-0.1-0.39-0.04-0.57
						c0.04-0.18,0.17-0.35,0.35-0.43l3.25-1.53c0.19-0.08,0.41-0.06,0.61,0.06c0.17,0.1,0.31,0.28,0.4,0.49
						c0.12,0.27,0.13,0.55,0.04,0.78c-0.06,0.16-0.18,0.27-0.32,0.33l-3.34,1.33C50.32,57.61,50.24,57.62,50.16,57.62z M53.25,55.07
						c-0.01,0-0.02,0-0.02,0l-3.25,1.52c-0.01,0.01-0.04,0.02-0.06,0.08c-0.02,0.08-0.02,0.16,0.01,0.23l0,0
						c0.06,0.14,0.19,0.2,0.25,0.18l3.34-1.33c0.01,0,0.02-0.02,0.03-0.04c0.03-0.07,0.04-0.2-0.03-0.37
						c-0.05-0.11-0.12-0.2-0.19-0.25C53.3,55.08,53.27,55.07,53.25,55.07z"/>
				</g>
			</g>
			<g>
				<g>
					<path class="st0" d="M49.25,56.07c0.13,0.26,0.4,0.39,0.61,0.29l3.25-1.53c0.21-0.1,0.26-0.44,0.1-0.76
						c-0.15-0.33-0.47-0.48-0.68-0.37l-3.16,1.71C49.18,55.53,49.13,55.81,49.25,56.07z"/>
					<path class="st1" d="M49.71,56.66c-0.27,0-0.55-0.18-0.7-0.47l0,0c-0.19-0.39-0.08-0.83,0.24-1.01l3.16-1.71
						c0.14-0.08,0.31-0.09,0.48-0.03c0.23,0.08,0.44,0.27,0.56,0.52c0.13,0.26,0.16,0.55,0.07,0.78c-0.06,0.16-0.17,0.28-0.31,0.34
						l-3.25,1.52C49.9,56.64,49.8,56.66,49.71,56.66z M49.49,55.96c0.06,0.13,0.19,0.19,0.26,0.16l3.26-1.53l0.03-0.04
						c0.03-0.07,0.03-0.21-0.05-0.37c-0.07-0.15-0.17-0.22-0.25-0.25c-0.04-0.01-0.06-0.01-0.07-0.01l-3.16,1.71
						C49.44,55.68,49.43,55.83,49.49,55.96z"/>
				</g>
			</g>
			<g>
				<g>
					<path class="st0" d="M48.76,55.16c0.14,0.25,0.42,0.36,0.62,0.25l3.16-1.71c0.21-0.11,0.24-0.46,0.06-0.77
						c-0.19-0.31-0.5-0.45-0.7-0.33l-3.05,1.89C48.65,54.62,48.61,54.92,48.76,55.16z"/>
					<path class="st1" d="M49.21,55.72c-0.26,0-0.53-0.16-0.68-0.43c-0.22-0.36-0.14-0.82,0.18-1.03l3.06-1.89
						c0.13-0.08,0.29-0.11,0.45-0.07c0.23,0.06,0.46,0.23,0.61,0.48c0.15,0.27,0.19,0.55,0.12,0.78c-0.05,0.16-0.15,0.29-0.28,0.36
						l-3.16,1.71C49.42,55.7,49.32,55.72,49.21,55.72z M52.07,52.82c-0.01,0-0.02,0-0.02,0.01l-3.05,1.89
						c-0.06,0.04-0.08,0.18,0,0.31l0.01,0.01c0.07,0.13,0.2,0.18,0.26,0.15l3.16-1.71c0.01,0,0.02-0.02,0.03-0.05
						c0.02-0.07,0.01-0.21-0.07-0.37c-0.09-0.14-0.2-0.21-0.27-0.23C52.09,52.82,52.08,52.82,52.07,52.82z"/>
				</g>
			</g>
			<g>
				<g>
					<path class="st0" d="M48.21,54.28c0.16,0.23,0.44,0.34,0.64,0.21l3.05-1.89c0.2-0.12,0.22-0.48,0.01-0.77
						c-0.2-0.3-0.52-0.43-0.71-0.29l-2.94,2.06C48.08,53.74,48.05,54.04,48.21,54.28z"/>
					<path class="st1" d="M48.66,54.81c-0.24,0-0.5-0.13-0.67-0.37l0-0.01c-0.24-0.36-0.19-0.82,0.12-1.04l2.94-2.07
						c0.12-0.09,0.29-0.12,0.45-0.09c0.24,0.04,0.47,0.21,0.64,0.45c0.16,0.22,0.22,0.5,0.18,0.74c-0.04,0.18-0.13,0.32-0.27,0.4
						l-3.05,1.89C48.89,54.78,48.78,54.81,48.66,54.81z M48.43,54.13c0.09,0.12,0.21,0.18,0.28,0.14l3.05-1.89
						c0.01-0.01,0.02-0.03,0.03-0.06c0.02-0.08,0-0.2-0.09-0.33c-0.1-0.15-0.22-0.22-0.29-0.23c-0.01,0-0.04-0.01-0.05,0l-2.94,2.07
						C48.36,53.86,48.35,54.01,48.43,54.13z"/>
				</g>
			</g>
			<g>
				<g>
					<path class="st0" d="M47.61,53.43c0.09,0.12,0.2,0.19,0.32,0.22c0.11,0.03,0.24,0.02,0.33-0.05l2.94-2.06
						c0.1-0.07,0.14-0.19,0.14-0.33c-0.01-0.14-0.07-0.3-0.17-0.44c-0.22-0.29-0.54-0.4-0.73-0.25l-2.81,2.23
						C47.45,52.89,47.44,53.2,47.61,53.43z"/>
					<path class="st1" d="M48.06,53.93c-0.06,0-0.13-0.01-0.19-0.03c-0.18-0.05-0.34-0.16-0.46-0.31l0,0
						c-0.26-0.34-0.23-0.81,0.07-1.05l2.81-2.23c0.12-0.1,0.28-0.14,0.45-0.12c0.24,0.03,0.48,0.18,0.66,0.42
						c0.14,0.18,0.22,0.39,0.23,0.59c0.01,0.24-0.09,0.44-0.25,0.56l-2.94,2.06C48.31,53.89,48.19,53.93,48.06,53.93z M47.82,53.27
						c0.05,0.06,0.11,0.11,0.18,0.12c0.05,0.01,0.09,0.01,0.11-0.01l2.94-2.06c0.02-0.01,0.03-0.05,0.03-0.11
						c0-0.08-0.05-0.19-0.12-0.29c-0.11-0.14-0.23-0.2-0.3-0.21c-0.02,0-0.04,0-0.05,0.01l-2.81,2.23
						C47.74,53,47.73,53.15,47.82,53.27z"/>
				</g>
			</g>
			<g>
				<g>
					<path class="st0" d="M46.97,52.61c0.18,0.22,0.48,0.28,0.67,0.13l2.81-2.23c0.19-0.15,0.15-0.49-0.08-0.77
						c-0.23-0.28-0.57-0.36-0.74-0.21l-2.68,2.39C46.77,52.09,46.79,52.39,46.97,52.61z"/>
					<path class="st1" d="M47.39,53.09c-0.23,0-0.46-0.11-0.63-0.31l0,0c-0.27-0.34-0.27-0.79,0.01-1.04l2.68-2.39
						c0.12-0.11,0.28-0.16,0.45-0.14c0.24,0.02,0.49,0.16,0.67,0.38c0.19,0.22,0.28,0.49,0.25,0.73c-0.02,0.17-0.09,0.31-0.22,0.41
						l-2.81,2.23C47.68,53.05,47.54,53.09,47.39,53.09z M47.17,52.45c0.1,0.11,0.24,0.14,0.3,0.09l2.81-2.23
						c0.01-0.01,0.02-0.03,0.02-0.05c0.01-0.07-0.02-0.21-0.14-0.34c-0.11-0.13-0.23-0.18-0.3-0.19c-0.03,0-0.05,0-0.06,0.01
						l-2.68,2.39C47.07,52.18,47.08,52.32,47.17,52.45z"/>
				</g>
			</g>
			<g>
				<g>
					<path class="st0" d="M46.28,51.84c0.19,0.21,0.49,0.26,0.67,0.1l2.68-2.39c0.18-0.15,0.12-0.5-0.12-0.76
						c-0.24-0.27-0.59-0.33-0.76-0.16l-2.53,2.54C46.05,51.34,46.09,51.63,46.28,51.84z"/>
					<path class="st1" d="M46.69,52.29c-0.21,0-0.44-0.09-0.61-0.28c-0.3-0.32-0.32-0.77-0.05-1.04l2.53-2.54
						c0.12-0.11,0.28-0.17,0.45-0.17c0.25,0.01,0.5,0.13,0.69,0.34c0.2,0.22,0.31,0.48,0.29,0.73c-0.01,0.17-0.08,0.31-0.19,0.41
						l-2.68,2.39C47,52.24,46.85,52.29,46.69,52.29z M48.99,48.8c-0.03,0-0.05,0.01-0.06,0.01l-2.53,2.54
						c-0.06,0.06-0.03,0.2,0.07,0.31l0,0c0.1,0.11,0.24,0.13,0.3,0.08l2.68-2.39c0.01-0.01,0.01-0.02,0.01-0.05
						c0-0.07-0.03-0.21-0.15-0.34C49.2,48.84,49.08,48.8,48.99,48.8C49,48.8,49,48.8,48.99,48.8z"/>
				</g>
			</g>
			<g>
				<g>
					<path class="st0" d="M45.54,51.1c0.21,0.2,0.5,0.23,0.67,0.06l2.53-2.54c0.17-0.16,0.1-0.5-0.16-0.75
						c-0.27-0.24-0.61-0.29-0.77-0.12l-2.38,2.69C45.29,50.61,45.33,50.91,45.54,51.1z"/>
					<path class="st1" d="M45.94,51.54c-0.2,0-0.41-0.08-0.58-0.24c-0.31-0.29-0.37-0.75-0.12-1.03l2.39-2.69
						c0.1-0.11,0.25-0.18,0.42-0.19c0.24-0.02,0.5,0.09,0.72,0.29c0.21,0.21,0.34,0.47,0.34,0.71c0,0.17-0.06,0.32-0.17,0.43
						l-2.53,2.54C46.28,51.48,46.11,51.54,45.94,51.54z M48.08,47.91c0,0-0.01,0-0.01,0c-0.02,0-0.04,0.01-0.05,0.02l-2.38,2.69
						c-0.05,0.06-0.03,0.2,0.08,0.3l0.01,0.01c0.11,0.11,0.25,0.12,0.31,0.06l2.53-2.54c0.01-0.01,0.01-0.03,0.01-0.05
						c0-0.07-0.04-0.2-0.17-0.32C48.29,47.95,48.16,47.91,48.08,47.91z"/>
				</g>
			</g>
			<g>
				<g>
					<path class="st0" d="M44.77,50.42c0.23,0.17,0.51,0.2,0.67,0.02l2.38-2.69c0.16-0.17,0.08-0.52-0.21-0.74
						c-0.28-0.23-0.62-0.26-0.76-0.08l-2.23,2.82C44.49,49.94,44.54,50.23,44.77,50.42z"/>
					<path class="st1" d="M45.15,50.83c-0.18,0-0.37-0.07-0.54-0.2l-0.01-0.01c-0.34-0.27-0.41-0.73-0.18-1.03l2.23-2.82
						c0.09-0.12,0.24-0.2,0.4-0.21c0.24-0.03,0.51,0.06,0.74,0.25c0.21,0.17,0.36,0.42,0.38,0.66c0.02,0.18-0.04,0.34-0.14,0.46
						l-2.38,2.68C45.51,50.75,45.34,50.83,45.15,50.83z M44.93,50.21c0.12,0.09,0.26,0.11,0.31,0.05l2.38-2.69
						c0.01-0.01,0.01-0.03,0.01-0.07c-0.01-0.08-0.06-0.2-0.18-0.29c-0.14-0.12-0.28-0.14-0.35-0.14l0,0l-0.04,0.02l-2.22,2.82
						C44.79,49.98,44.82,50.11,44.93,50.21z"/>
				</g>
			</g>
			<g>
				<g>
					<path class="st0" d="M46.6,46.21c-0.29-0.21-0.63-0.23-0.77-0.03l-1.5,2.15l-0.38,1.44c0,0,0,0,0.01,0.01
						c0.23,0.17,0.53,0.16,0.68-0.02l2.23-2.82C47,46.75,46.89,46.42,46.6,46.21z"/>
					<path class="st1" d="M44.3,50.16c-0.16,0-0.32-0.05-0.47-0.15l-0.21-0.05l0.49-1.79l1.5-2.15c0.09-0.13,0.23-0.21,0.39-0.24
						c0.24-0.04,0.51,0.04,0.75,0.21c0.23,0.17,0.39,0.41,0.42,0.65c0.02,0.17-0.02,0.33-0.12,0.45l-2.22,2.82
						C44.71,50.08,44.51,50.16,44.3,50.16z M44.26,49.63c0.07,0.01,0.14,0,0.17-0.04l2.22-2.82c0.01-0.01,0.01-0.03,0.01-0.05
						c-0.01-0.07-0.07-0.19-0.21-0.29l0,0c-0.14-0.1-0.28-0.13-0.35-0.12c-0.02,0-0.04,0.01-0.05,0.02l-1.48,2.12L44.26,49.63z"/>
				</g>
			</g>
			<g>
				<g>
					<path class="st0" d="M45.53,45.46c-0.13-0.09-0.28-0.14-0.41-0.14l-0.8,3l1.5-2.15C45.97,45.98,45.83,45.66,45.53,45.46z"/>
					<path class="st1" d="M43.69,49.71l1.24-4.66l0.21,0.01c0.19,0.01,0.38,0.07,0.55,0.19c0.24,0.16,0.41,0.39,0.45,0.63
						c0.03,0.16,0,0.33-0.09,0.45L43.69,49.71z M45.32,45.64l-0.35,1.3l0.64-0.92c0.01-0.01,0.01-0.03,0-0.05
						c-0.01-0.07-0.08-0.19-0.23-0.29l-0.01,0C45.36,45.66,45.34,45.65,45.32,45.64z"/>
				</g>
			</g>
		</g>
		<g>
			<g>
				<path class="st0" d="M21.07,47.68c0,1.91-1.54,3.45-3.45,3.45c-1.9,0-3.45-1.54-3.45-3.45c0-1.9,1.54-3.45,3.45-3.45
					C19.52,44.23,21.07,45.78,21.07,47.68z"/>
				<path class="st1" d="M17.62,51.39c-2.05,0-3.71-1.67-3.71-3.72c0-2.05,1.67-3.71,3.71-3.71c2.05,0,3.71,1.67,3.71,3.71
					C21.33,49.73,19.67,51.39,17.62,51.39z M17.62,44.5c-1.76,0-3.18,1.43-3.18,3.18c0,1.76,1.43,3.19,3.18,3.19
					c1.76,0,3.18-1.43,3.18-3.19C20.8,45.92,19.37,44.5,17.62,44.5z"/>
			</g>
			<g>
				<path class="st0" d="M46.33,47.68c0,1.91-1.54,3.45-3.45,3.45c-1.9,0-3.45-1.54-3.45-3.45c0-1.9,1.54-3.45,3.45-3.45
					C44.79,44.23,46.33,45.78,46.33,47.68z"/>
				<path class="st1" d="M42.88,51.39c-2.05,0-3.71-1.67-3.71-3.72c0-2.05,1.67-3.71,3.71-3.71c2.05,0,3.72,1.67,3.72,3.71
					C46.59,49.73,44.93,51.39,42.88,51.39z M42.88,44.5c-1.76,0-3.18,1.43-3.18,3.18c0,1.76,1.43,3.19,3.18,3.19
					c1.76,0,3.19-1.43,3.19-3.19C46.06,45.92,44.63,44.5,42.88,44.5z"/>
			</g>
			<g>
				<g>
					<g>
						<path class="st0" d="M26.3,35.26c0-0.41,0.33-0.75,0.75-0.75h6.28c0.41,0,0.75,0.33,0.75,0.75c0,0.41-0.33,0.75-0.75,0.75
							h-6.28C26.63,36.01,26.3,35.68,26.3,35.26z"/>
						<path class="st1" d="M33.32,36.27h-6.28c-0.56,0-1.01-0.45-1.01-1.01s0.45-1.01,1.01-1.01h6.28c0.56,0,1.01,0.45,1.01,1.01
							S33.88,36.27,33.32,36.27z M27.04,34.78c-0.27,0-0.48,0.22-0.48,0.48c0,0.27,0.22,0.48,0.48,0.48h6.28
							c0.27,0,0.48-0.22,0.48-0.48c0-0.27-0.22-0.48-0.48-0.48H27.04z"/>
					</g>
				</g>
				<g>
					<g>
						<path class="st0" d="M26.3,36.75c0-0.41,0.33-0.74,0.75-0.74h6.28c0.41,0,0.75,0.33,0.75,0.74c0,0.41-0.33,0.75-0.75,0.75
							h-6.28C26.63,37.5,26.3,37.16,26.3,36.75z"/>
						<path class="st1" d="M33.32,37.76h-6.28c-0.56,0-1.01-0.45-1.01-1.01c0-0.56,0.45-1.01,1.01-1.01h6.28
							c0.56,0,1.01,0.45,1.01,1.01C34.33,37.31,33.88,37.76,33.32,37.76z M27.04,36.27c-0.27,0-0.48,0.21-0.48,0.48
							c0,0.26,0.22,0.48,0.48,0.48h6.28c0.27,0,0.48-0.22,0.48-0.48c0-0.26-0.22-0.48-0.48-0.48H27.04z"/>
					</g>
				</g>
				<g>
					<g>
						<path class="st0" d="M26.3,38.24c0-0.41,0.33-0.75,0.75-0.75h6.28c0.41,0,0.75,0.33,0.75,0.75c0,0.41-0.33,0.74-0.75,0.74
							h-6.28C26.63,38.99,26.3,38.66,26.3,38.24z"/>
						<path class="st1" d="M33.32,39.25h-6.28c-0.56,0-1.01-0.45-1.01-1.01c0-0.56,0.45-1.01,1.01-1.01h6.28
							c0.56,0,1.01,0.45,1.01,1.01C34.33,38.8,33.88,39.25,33.32,39.25z M27.04,37.76c-0.27,0-0.48,0.22-0.48,0.48
							c0,0.26,0.22,0.48,0.48,0.48h6.28c0.27,0,0.48-0.21,0.48-0.48c0-0.27-0.22-0.48-0.48-0.48H27.04z"/>
					</g>
				</g>
				<g>
					<g>
						<path class="st0" d="M26.3,39.73c0-0.41,0.33-0.75,0.75-0.75h6.28c0.41,0,0.75,0.33,0.75,0.75c0,0.41-0.33,0.75-0.75,0.75
							h-6.28C26.63,40.48,26.3,40.15,26.3,39.73z"/>
						<path class="st1" d="M33.32,40.74h-6.28c-0.56,0-1.01-0.45-1.01-1.01s0.45-1.01,1.01-1.01h6.28c0.56,0,1.01,0.45,1.01,1.01
							S33.88,40.74,33.32,40.74z M27.04,39.25c-0.27,0-0.48,0.22-0.48,0.48c0,0.27,0.22,0.48,0.48,0.48h6.28
							c0.27,0,0.48-0.22,0.48-0.48c0-0.27-0.22-0.48-0.48-0.48H27.04z"/>
					</g>
				</g>
				<g>
					<g>
						<path class="st0" d="M26.3,41.22c0-0.41,0.33-0.74,0.75-0.74h6.28c0.41,0,0.75,0.33,0.75,0.74c0,0.41-0.33,0.75-0.75,0.75
							h-6.28C26.63,41.97,26.3,41.64,26.3,41.22z"/>
						<path class="st1" d="M33.32,42.23h-6.28c-0.56,0-1.01-0.45-1.01-1.01c0-0.56,0.45-1.01,1.01-1.01h6.28
							c0.56,0,1.01,0.45,1.01,1.01C34.33,41.78,33.88,42.23,33.32,42.23z M27.04,40.74c-0.27,0-0.48,0.21-0.48,0.48
							c0,0.27,0.22,0.48,0.48,0.48h6.28c0.27,0,0.48-0.22,0.48-0.48c0-0.26-0.22-0.48-0.48-0.48H27.04z"/>
					</g>
				</g>
				<g>
					<g>
						<path class="st0" d="M26.3,42.71c0-0.41,0.33-0.75,0.75-0.75h6.28c0.41,0,0.75,0.33,0.75,0.75c0,0.41-0.33,0.74-0.75,0.74
							h-6.28C26.63,43.46,26.3,43.13,26.3,42.71z"/>
						<path class="st1" d="M33.32,43.72h-6.28c-0.56,0-1.01-0.45-1.01-1.01c0-0.56,0.45-1.01,1.01-1.01h6.28
							c0.56,0,1.01,0.45,1.01,1.01C34.33,43.27,33.88,43.72,33.32,43.72z M27.04,42.23c-0.27,0-0.48,0.22-0.48,0.48
							c0,0.26,0.22,0.48,0.48,0.48h6.28c0.27,0,0.48-0.21,0.48-0.48c0-0.27-0.22-0.48-0.48-0.48H27.04z"/>
					</g>
				</g>
				<g>
					<g>
						<path class="st0" d="M26.3,44.2c0-0.41,0.33-0.75,0.75-0.75h6.28c0.41,0,0.75,0.33,0.75,0.75c0,0.41-0.33,0.74-0.75,0.74
							h-6.28C26.63,44.95,26.3,44.62,26.3,44.2z"/>
						<path class="st1" d="M33.32,45.21h-6.28c-0.56,0-1.01-0.45-1.01-1.01c0-0.56,0.45-1.01,1.01-1.01h6.28
							c0.56,0,1.01,0.45,1.01,1.01C34.33,44.76,33.88,45.21,33.32,45.21z M27.04,43.72c-0.27,0-0.48,0.22-0.48,0.48
							c0,0.26,0.22,0.48,0.48,0.48h6.28c0.27,0,0.48-0.21,0.48-0.48c0-0.27-0.22-0.48-0.48-0.48H27.04z"/>
					</g>
				</g>
				<g>
					<g>
						<path class="st0" d="M26.3,45.69c0-0.41,0.33-0.75,0.75-0.75h6.28c0.41,0,0.75,0.34,0.75,0.75c0,0.41-0.33,0.75-0.75,0.75
							h-6.28C26.63,46.44,26.3,46.1,26.3,45.69z"/>
						<path class="st1" d="M33.32,46.7h-6.28c-0.56,0-1.01-0.45-1.01-1.01c0-0.56,0.45-1.01,1.01-1.01h6.28
							c0.56,0,1.01,0.45,1.01,1.01C34.33,46.25,33.88,46.7,33.32,46.7z M27.04,45.21c-0.27,0-0.48,0.22-0.48,0.48
							c0,0.27,0.22,0.48,0.48,0.48h6.28c0.27,0,0.48-0.22,0.48-0.48c0-0.27-0.22-0.48-0.48-0.48H27.04z"/>
					</g>
				</g>
			</g>
			<g>
				<g>
					<path class="st0" d="M18.09,44.2v13.17c0,6.97,5.66,12.63,12.63,12.63c6.98,0,12.63-5.66,12.63-12.63V44.2H18.09z"/>
					<path class="st1" d="M30.72,70.27c-7.11,0-12.9-5.79-12.9-12.9V43.94h25.79v13.43C43.61,64.48,37.83,70.27,30.72,70.27z
						 M18.35,44.47v12.9c0,6.82,5.55,12.37,12.37,12.37c6.82,0,12.36-5.55,12.36-12.37v-12.9H18.35z"/>
				</g>
			</g>
		</g>
		<g>
			<g>
				<path d="M13.07,30.29c0,0.35-0.37,0.64-0.83,0.64h-0.31c-0.46,0-0.83-0.29-0.83-0.64v-11c0-0.35,0.37-0.64,0.83-0.64h0.31
					c0.46,0,0.83,0.29,0.83,0.64V30.29z"/>
				<path d="M47.62,30.29c0,0.35-0.37,0.64-0.83,0.64h-0.31c-0.46,0-0.83-0.29-0.83-0.64v-11c0-0.35,0.37-0.64,0.83-0.64h0.31
					c0.46,0,0.83,0.29,0.83,0.64V30.29z"/>
			</g>
			<g>
				<path class="st0" d="M46.51,18.54c-0.3-6.01-7.86-10.82-17.15-10.82S12.51,12.53,12.2,18.54c-0.01,0.06-0.01,0.12-0.01,0.18
					v17.23c0,1.19,1.25,2.15,2.78,2.15h14.38h14.38c1.54,0,2.78-0.96,2.78-2.15V18.72C46.52,18.66,46.51,18.6,46.51,18.54z"/>
				<path class="st1" d="M43.73,38.37H14.98c-1.68,0-3.05-1.09-3.05-2.42V18.72c0-0.07,0.01-0.14,0.01-0.21
					c0.31-6.19,7.96-11.06,17.41-11.06c9.45,0,17.1,4.86,17.41,11.06c0.01,0.07,0.01,0.13,0.01,0.2v17.23
					C46.78,37.28,45.41,38.37,43.73,38.37z M29.36,7.99c-9.17,0-16.59,4.64-16.89,10.57c-0.01,0.07-0.01,0.12-0.01,0.17v17.23
					c0,1.04,1.13,1.89,2.52,1.89h28.75c1.39,0,2.52-0.85,2.52-1.89V18.72c0-0.05,0-0.1-0.01-0.15l0-0.02
					C45.95,12.63,38.53,7.99,29.36,7.99z"/>
			</g>
			<g>
				<path class="st15" d="M42.2,34.27V23.51c0-0.06,0-0.12-0.01-0.17c-0.23-5.82-5.89-10.48-12.84-10.48
					c-6.95,0-12.62,4.66-12.84,10.48c0,0.06-0.01,0.12-0.01,0.17v10.76H42.2z"/>
				<path class="st1" d="M42.47,34.53H16.24V23.5c0-0.07,0-0.13,0.01-0.2c0.23-6.01,5.99-10.72,13.1-10.72s12.87,4.71,13.11,10.73
					c0,0.05,0.01,0.12,0.01,0.18V34.53z M16.77,34h25.17V23.5c0-0.05,0-0.1-0.01-0.15c-0.22-5.74-5.75-10.23-12.58-10.23
					S17,17.61,16.78,23.34c0,0.06-0.01,0.11-0.01,0.16V34z"/>
			</g>
			<path class="st1" d="M25.44,21.9c0,0.68-0.55,1.24-1.24,1.24c-0.68,0-1.24-0.55-1.24-1.24c0-0.68,0.55-1.24,1.24-1.24
				C24.89,20.66,25.44,21.21,25.44,21.9z"/>
			<g>
				<path class="st1" d="M36.04,21.9c0,0.68-0.55,1.24-1.24,1.24c-0.68,0-1.24-0.55-1.24-1.24c0-0.68,0.55-1.24,1.24-1.24
					C35.49,20.66,36.04,21.21,36.04,21.9z"/>
			</g>
		</g>
		<path class="st1" d="M29.29,26.18c-2.05,0-3.72-1.15-3.79-1.2c-0.11-0.08-0.14-0.24-0.06-0.35c0.08-0.11,0.24-0.14,0.35-0.06
			c0.02,0.01,1.61,1.1,3.5,1.1c1.87,0,3.2-1.08,3.21-1.09c0.11-0.09,0.27-0.07,0.36,0.03c0.09,0.11,0.08,0.27-0.03,0.36
			C32.77,25.02,31.35,26.18,29.29,26.18z"/>
	</g>
</g>
</svg>
