<?xml version="1.0" encoding="utf-8"?>
<!-- Generator: Adobe Illustrator 24.0.1, SVG Export Plug-In . SVG Version: 6.00 Build 0)  -->
<svg version="1.1" id="Capa_1" xmlns="http://www.w3.org/2000/svg" xmlns:xlink="http://www.w3.org/1999/xlink" x="0px" y="0px"
	 viewBox="0 0 60 60" style="enable-background:new 0 0 60 60;" xml:space="preserve">
<style type="text/css">
	.st0{fill:#6F93AD;}
	.st1{fill:#1A1A1A;}
	.st2{fill:#B52C40;}
	.st3{fill:#F0DED2;}
	.st4{fill:#F4EAE2;}
	.st5{fill-rule:evenodd;clip-rule:evenodd;fill:#997156;}
	.st6{fill-rule:evenodd;clip-rule:evenodd;fill:#FFFFFF;}
	.st7{clip-path:url(#SVGID_3_);}
	.st8{fill-rule:evenodd;clip-rule:evenodd;fill:#1B1529;}
	.st9{fill:#997156;}
	.st10{fill:#256A67;}
	.st11{fill:#AF9114;}
	.st12{fill:#E8D1C2;}
	.st13{fill:none;stroke:#1A1A1A;stroke-width:1.1434;stroke-linecap:round;stroke-linejoin:round;stroke-miterlimit:10;}
	.st14{fill-rule:evenodd;clip-rule:evenodd;fill:#F0DED2;}
	.st15{fill:#FFFFFF;}
	.st16{clip-path:url(#SVGID_6_);}
	.st17{clip-path:url(#SVGID_8_);}
	.st18{clip-path:url(#SVGID_10_);}
	.st19{clip-path:url(#SVGID_12_);}
	.st20{clip-path:url(#SVGID_14_);}
	.st21{clip-path:url(#SVGID_16_);}
	.st22{clip-path:url(#SVGID_18_);}
	.st23{clip-path:url(#SVGID_20_);}
	.st24{clip-path:url(#SVGID_22_);}
	.st25{clip-path:url(#SVGID_24_);}
	.st26{clip-path:url(#SVGID_26_);}
	.st27{fill-rule:evenodd;clip-rule:evenodd;fill:#D8778A;}
	.st28{clip-path:url(#SVGID_28_);}
	.st29{clip-path:url(#SVGID_31_);}
</style>
<g>
	<defs>
		<rect id="SVGID_5_" width="60" height="60"/>
	</defs>
	<clipPath id="SVGID_3_">
		<use xlink:href="#SVGID_5_"  style="overflow:visible;"/>
	</clipPath>
	<g class="st7">
		<g>
			<g>
				<g>
					<g>
						<path class="st10" d="M1.94,60.86c-0.02,0.29-0.23,0.51-0.46,0.49l-3.59-0.21c-0.23-0.01-0.4-0.31-0.38-0.67
							c0.02-0.36,0.25-0.62,0.49-0.59l3.57,0.41C1.8,60.33,1.96,60.58,1.94,60.86z"/>
						<path class="st1" d="M1.49,61.62c-0.01,0-0.02,0-0.03,0l-3.59-0.21c-0.15-0.01-0.3-0.08-0.41-0.21
							c-0.16-0.18-0.24-0.45-0.21-0.75c0.02-0.28,0.14-0.54,0.33-0.69c0.14-0.11,0.3-0.16,0.46-0.14l3.56,0.41
							c0.37,0.05,0.63,0.41,0.61,0.84l0,0C2.18,61.29,1.86,61.62,1.49,61.62z M-2.03,60.15c-0.02,0-0.04,0.01-0.06,0.03
							c-0.06,0.05-0.13,0.16-0.14,0.32c-0.01,0.18,0.04,0.31,0.09,0.36c0.02,0.02,0.03,0.03,0.04,0.03l3.59,0.21
							c0.09,0.02,0.17-0.1,0.18-0.25c0.01-0.16-0.06-0.28-0.14-0.29L-2.03,60.15C-2.03,60.15-2.03,60.15-2.03,60.15z"/>
					</g>
				</g>
				<g>
					<g>
						<path class="st10" d="M2.06,59.83c-0.03,0.28-0.25,0.49-0.49,0.47L-2,59.88c-0.24-0.03-0.39-0.34-0.34-0.69
							c0.05-0.36,0.3-0.61,0.53-0.57l3.54,0.62C1.96,59.28,2.1,59.55,2.06,59.83z"/>
						<path class="st1" d="M1.61,60.56c-0.02,0-0.05,0-0.07,0l-3.57-0.41c-0.15-0.02-0.3-0.1-0.4-0.23
							c-0.15-0.19-0.21-0.47-0.18-0.76c0.04-0.28,0.18-0.53,0.37-0.68c0.14-0.1,0.31-0.15,0.46-0.12l3.53,0.62
							c0.37,0.06,0.61,0.44,0.55,0.88C2.27,60.26,1.96,60.56,1.61,60.56z M-1.86,58.88c-0.01,0-0.03,0.01-0.05,0.02
							c-0.06,0.04-0.14,0.15-0.16,0.32c-0.02,0.18,0.02,0.31,0.07,0.36c0.01,0.01,0.03,0.03,0.04,0.03l3.57,0.41
							c0.08,0.01,0.18-0.09,0.2-0.23l0,0c0.02-0.14-0.03-0.28-0.12-0.29L-1.86,58.88C-1.86,58.89-1.86,58.88-1.86,58.88z"/>
					</g>
				</g>
				<g>
					<g>
						<path class="st10" d="M2.24,58.81c-0.05,0.28-0.28,0.48-0.51,0.44l-3.54-0.62c-0.23-0.04-0.37-0.36-0.3-0.71
							c0.08-0.35,0.33-0.59,0.56-0.53l3.5,0.82C2.17,58.26,2.3,58.53,2.24,58.81z"/>
						<path class="st1" d="M1.78,59.51c-0.03,0-0.07,0-0.1-0.01l-3.54-0.62c-0.15-0.02-0.29-0.11-0.38-0.25
							c-0.14-0.2-0.19-0.48-0.14-0.77c0.07-0.3,0.23-0.54,0.43-0.67c0.14-0.09,0.3-0.11,0.45-0.08L2,57.94
							c0.37,0.09,0.59,0.5,0.5,0.91C2.42,59.24,2.12,59.51,1.78,59.51z M-1.63,57.63c-0.01,0-0.03,0.01-0.04,0.02
							c-0.06,0.04-0.15,0.15-0.19,0.32c-0.03,0.16,0.01,0.3,0.05,0.36c0.01,0.02,0.03,0.03,0.04,0.03l3.54,0.62
							c0.08,0.01,0.18-0.08,0.21-0.23l0-0.01c0.03-0.14-0.03-0.27-0.1-0.29L-1.63,57.63C-1.62,57.63-1.62,57.63-1.63,57.63z"/>
					</g>
				</g>
				<g>
					<g>
						<path class="st10" d="M2.48,57.8c-0.08,0.27-0.31,0.46-0.54,0.4l-3.5-0.82c-0.23-0.05-0.36-0.38-0.26-0.73
							c0.1-0.34,0.36-0.57,0.58-0.5l3.44,1.03C2.44,57.24,2.55,57.52,2.48,57.8z"/>
						<path class="st1" d="M2.02,58.48c-0.05,0-0.09-0.01-0.14-0.02l-3.5-0.82C-1.77,57.6-1.91,57.5-2,57.34
							c-0.12-0.21-0.15-0.5-0.07-0.77c0.08-0.28,0.25-0.51,0.46-0.63c0.15-0.08,0.31-0.1,0.45-0.06l3.44,1.03
							c0.36,0.11,0.56,0.53,0.45,0.94l0,0C2.62,58.24,2.33,58.48,2.02,58.48z M-1.31,56.4c-0.01,0-0.03,0.01-0.04,0.01
							c-0.06,0.04-0.16,0.14-0.2,0.31c-0.05,0.16-0.02,0.29,0.02,0.35c0.02,0.03,0.04,0.04,0.04,0.05L2,57.94
							c0.08,0.02,0.18-0.08,0.22-0.22c0.04-0.14-0.02-0.27-0.09-0.29L-1.31,56.4C-1.31,56.4-1.31,56.4-1.31,56.4z"/>
					</g>
				</g>
				<g>
					<g>
						<path class="st10" d="M2.78,56.8c-0.1,0.27-0.34,0.44-0.57,0.37l-3.44-1.03c-0.23-0.07-0.33-0.4-0.21-0.74
							c0.12-0.34,0.39-0.55,0.61-0.47l3.38,1.23C2.76,56.25,2.87,56.53,2.78,56.8z"/>
						<path class="st1" d="M2.31,57.46c-0.06,0-0.11-0.01-0.17-0.02l-3.45-1.03c-0.15-0.04-0.28-0.15-0.36-0.31
							c-0.11-0.22-0.12-0.5-0.03-0.77c0.09-0.28,0.27-0.5,0.49-0.6c0.15-0.07,0.31-0.08,0.46-0.03l3.38,1.23
							c0.35,0.13,0.53,0.57,0.39,0.97l0,0C2.9,57.24,2.61,57.46,2.31,57.46z M-0.93,55.18c-0.01,0-0.02,0-0.04,0.01
							c-0.07,0.03-0.16,0.13-0.22,0.3c-0.06,0.16-0.04,0.29,0,0.36c0.01,0.03,0.03,0.04,0.04,0.04l3.45,1.03
							c0.07,0.02,0.19-0.06,0.24-0.21c0.05-0.14,0-0.27-0.08-0.3L-0.93,55.18C-0.93,55.18-0.93,55.18-0.93,55.18z"/>
					</g>
				</g>
				<g>
					<g>
						<path class="st10" d="M3.13,55.83c-0.1,0.26-0.37,0.41-0.59,0.33l-3.38-1.23c-0.23-0.08-0.29-0.42-0.17-0.75
							c0.13-0.34,0.42-0.53,0.64-0.43l3.3,1.43C3.15,55.27,3.23,55.56,3.13,55.83z"/>
						<path class="st1" d="M2.66,56.45c-0.07,0-0.14-0.01-0.21-0.04l-3.38-1.23c-0.15-0.05-0.26-0.17-0.33-0.32
							c-0.1-0.22-0.1-0.5,0.01-0.77c0.1-0.27,0.29-0.48,0.52-0.58c0.16-0.07,0.32-0.07,0.47-0.01l3.3,1.43
							c0.34,0.15,0.49,0.58,0.34,0.99l0,0.01C3.25,56.25,2.96,56.45,2.66,56.45z M-0.48,54c-0.01,0-0.03,0-0.04,0.01
							c-0.07,0.03-0.17,0.12-0.23,0.28c-0.06,0.17-0.05,0.3-0.02,0.36c0.01,0.02,0.02,0.03,0.03,0.04l3.38,1.23
							c0.07,0.03,0.2-0.05,0.25-0.18c0.05-0.14,0.01-0.28-0.05-0.31L-0.47,54C-0.47,54-0.48,54-0.48,54z"/>
					</g>
				</g>
				<g>
					<g>
						<path class="st10" d="M3.54,54.88c-0.12,0.26-0.39,0.4-0.61,0.3l-3.3-1.43c-0.22-0.09-0.27-0.43-0.12-0.76
							c0.14-0.33,0.46-0.5,0.66-0.39l3.21,1.62C3.6,54.33,3.65,54.61,3.54,54.88z"/>
						<path class="st1" d="M3.07,55.47c-0.08,0-0.17-0.02-0.24-0.05L-0.47,54c-0.14-0.06-0.25-0.18-0.31-0.34
							c-0.09-0.23-0.07-0.51,0.06-0.77c0.1-0.25,0.31-0.45,0.54-0.54c0.17-0.06,0.34-0.06,0.49,0.02l3.21,1.61
							c0.33,0.17,0.45,0.6,0.28,1l0,0C3.65,55.29,3.36,55.47,3.07,55.47z M0.04,52.84c-0.01,0-0.03,0-0.05,0.01
							c-0.07,0.03-0.17,0.11-0.23,0.25c-0.08,0.17-0.07,0.3-0.05,0.37c0.01,0.02,0.02,0.04,0.03,0.04l3.3,1.43
							c0.07,0.03,0.2-0.03,0.26-0.17c0.06-0.14,0.04-0.28-0.03-0.32l-3.21-1.61C0.06,52.84,0.05,52.84,0.04,52.84z"/>
					</g>
				</g>
				<g>
					<g>
						<path class="st10" d="M4,53.95c-0.13,0.25-0.4,0.37-0.62,0.27L0.18,52.6c-0.21-0.1-0.25-0.45-0.08-0.77
							c0.17-0.31,0.49-0.47,0.69-0.35l3.11,1.8C4.1,53.4,4.14,53.7,4,53.95z"/>
						<path class="st1" d="M3.55,54.52c-0.09,0-0.19-0.02-0.27-0.06l-3.21-1.62c-0.13-0.06-0.24-0.19-0.29-0.35
							c-0.08-0.23-0.04-0.51,0.09-0.78c0.14-0.26,0.37-0.45,0.6-0.51c0.16-0.04,0.33-0.02,0.46,0.05l3.11,1.8
							c0.33,0.19,0.42,0.65,0.21,1.02C4.09,54.35,3.82,54.52,3.55,54.52z M0.63,51.71c-0.01,0-0.02,0-0.03,0
							c-0.07,0.02-0.19,0.1-0.27,0.25c-0.08,0.15-0.08,0.29-0.06,0.36c0.01,0.02,0.02,0.04,0.02,0.04l3.21,1.62
							c0.07,0.03,0.19-0.02,0.26-0.15l0.01-0.01c0.07-0.13,0.05-0.27-0.01-0.3l-3.11-1.8C0.65,51.71,0.64,51.71,0.63,51.71z"/>
					</g>
				</g>
				<g>
					<g>
						<path class="st10" d="M4.53,53.05c-0.16,0.24-0.43,0.35-0.63,0.23l-3.11-1.8c-0.2-0.12-0.23-0.47-0.04-0.77
							c0.19-0.3,0.51-0.44,0.71-0.31l3,1.98C4.64,52.51,4.68,52.81,4.53,53.05z"/>
						<path class="st1" d="M4.08,53.6c-0.11,0-0.21-0.03-0.31-0.08l-3.11-1.8c-0.14-0.08-0.23-0.21-0.28-0.38
							c-0.06-0.24,0-0.52,0.15-0.76c0.16-0.25,0.39-0.42,0.63-0.47c0.16-0.03,0.32-0.01,0.45,0.08l3,1.97
							c0.32,0.21,0.38,0.67,0.16,1.03l0,0.01C4.58,53.45,4.33,53.6,4.08,53.6z M1.28,50.62c-0.01,0-0.02,0-0.03,0
							c-0.07,0.02-0.19,0.09-0.29,0.24c-0.09,0.14-0.1,0.27-0.08,0.35c0.01,0.03,0.02,0.05,0.03,0.05l3.11,1.8
							c0.07,0.04,0.2-0.02,0.28-0.14c0.08-0.13,0.06-0.27,0-0.31l-3-1.97C1.3,50.62,1.29,50.62,1.28,50.62z"/>
					</g>
				</g>
				<g>
					<g>
						<path class="st10" d="M5.1,52.18c-0.17,0.23-0.45,0.32-0.65,0.19l-3-1.98c-0.2-0.13-0.2-0.48,0.01-0.77
							c0.21-0.29,0.53-0.41,0.72-0.27l2.88,2.14C5.25,51.65,5.27,51.95,5.1,52.18z"/>
						<path class="st1" d="M4.65,52.7c-0.12,0-0.24-0.03-0.34-0.1l-3-1.98c-0.13-0.09-0.23-0.23-0.26-0.4
							c-0.04-0.24,0.03-0.52,0.2-0.74c0.17-0.24,0.4-0.39,0.64-0.43c0.16-0.03,0.32,0.01,0.45,0.1l2.88,2.14
							c0.31,0.24,0.35,0.7,0.1,1.05l0,0C5.14,52.57,4.89,52.7,4.65,52.7z M1.99,49.57c-0.01,0-0.01,0-0.02,0
							c-0.07,0.01-0.19,0.08-0.3,0.22c-0.1,0.14-0.12,0.27-0.11,0.34c0,0.03,0.01,0.05,0.03,0.06l3,1.98c0.06,0.04,0.19,0,0.29-0.13
							c0.09-0.12,0.08-0.27,0.01-0.32l-2.88-2.14C2.02,49.57,2.01,49.57,1.99,49.57z"/>
					</g>
				</g>
				<g>
					<g>
						<path class="st10" d="M5.72,51.35c-0.18,0.23-0.47,0.29-0.66,0.15l-2.88-2.14c-0.19-0.14-0.17-0.48,0.06-0.77
							c0.11-0.14,0.25-0.24,0.38-0.28c0.13-0.04,0.26-0.02,0.35,0.05l2.75,2.31c0.09,0.08,0.13,0.19,0.13,0.31
							C5.85,51.11,5.81,51.24,5.72,51.35z"/>
						<path class="st1" d="M5.29,51.84c-0.14,0-0.27-0.04-0.39-0.12l-2.88-2.14c-0.12-0.09-0.21-0.23-0.23-0.4
							c-0.03-0.24,0.05-0.51,0.23-0.74c0.14-0.18,0.33-0.31,0.51-0.37c0.22-0.07,0.44-0.03,0.6,0.1l2.76,2.31
							c0.15,0.13,0.23,0.31,0.23,0.52c0,0.18-0.07,0.37-0.19,0.52C5.76,51.73,5.52,51.84,5.29,51.84z M2.76,48.56
							c-0.02,0-0.04,0-0.06,0.01c-0.08,0.03-0.18,0.1-0.25,0.19c-0.11,0.14-0.13,0.27-0.12,0.34c0,0.02,0.01,0.04,0.02,0.05
							l2.88,2.14c0.06,0.05,0.21,0.01,0.3-0.1l0,0c0.05-0.06,0.07-0.13,0.07-0.2c0-0.05-0.01-0.09-0.04-0.11L2.8,48.57
							C2.79,48.56,2.78,48.56,2.76,48.56z"/>
					</g>
				</g>
				<g>
					<g>
						<path class="st10" d="M6.39,50.55c-0.19,0.22-0.48,0.27-0.67,0.12l-2.75-2.31c-0.18-0.15-0.14-0.49,0.1-0.76
							c0.23-0.28,0.58-0.34,0.75-0.18l2.61,2.47C6.6,50.05,6.57,50.33,6.39,50.55z"/>
						<path class="st1" d="M5.97,51.02c-0.15,0-0.3-0.05-0.42-0.15L2.8,48.57c-0.12-0.09-0.19-0.24-0.2-0.4
							c-0.02-0.24,0.08-0.51,0.27-0.73c0.18-0.21,0.43-0.34,0.67-0.36c0.18-0.01,0.34,0.05,0.46,0.16l2.61,2.47
							c0.27,0.26,0.26,0.7-0.02,1.04l0,0C6.42,50.92,6.19,51.02,5.97,51.02z M3.58,47.6c0,0-0.01,0-0.01,0
							c-0.08,0-0.2,0.05-0.3,0.17c-0.12,0.14-0.15,0.27-0.15,0.34l0.02,0.05l2.75,2.31c0.06,0.05,0.2,0.02,0.29-0.09
							c0.1-0.11,0.12-0.25,0.06-0.31l-2.61-2.46C3.63,47.6,3.61,47.6,3.58,47.6z"/>
					</g>
				</g>
				<g>
					<g>
						<path class="st10" d="M7.1,49.8C6.9,50,6.6,50.04,6.43,49.88l-2.61-2.47c-0.17-0.16-0.11-0.5,0.14-0.76
							c0.26-0.25,0.6-0.31,0.76-0.14l2.47,2.61C7.34,49.3,7.31,49.6,7.1,49.8z"/>
						<path class="st1" d="M6.7,50.24c-0.16,0-0.32-0.06-0.45-0.17l-2.61-2.47c-0.11-0.1-0.18-0.25-0.18-0.42
							c-0.01-0.24,0.1-0.5,0.31-0.72c0.23-0.21,0.47-0.33,0.73-0.32c0.17,0.01,0.31,0.07,0.42,0.18l2.46,2.61
							c0.26,0.28,0.22,0.74-0.09,1.04C7.12,50.15,6.9,50.24,6.7,50.24z M4.47,46.68c-0.08,0-0.2,0.04-0.33,0.16
							c-0.11,0.12-0.15,0.25-0.15,0.33c0,0.02,0.01,0.04,0.01,0.05l2.61,2.47c0.06,0.05,0.19,0.03,0.29-0.07l0.01-0.01
							c0.11-0.1,0.13-0.24,0.07-0.3L4.52,46.7C4.52,46.69,4.5,46.68,4.47,46.68C4.47,46.68,4.47,46.68,4.47,46.68z"/>
					</g>
				</g>
				<g>
					<g>
						<path class="st10" d="M7.86,49.09c-0.22,0.18-0.51,0.21-0.67,0.04l-2.47-2.61C4.56,46.35,4.63,46,4.9,45.77
							c0.27-0.24,0.61-0.28,0.76-0.1l2.31,2.75C8.13,48.6,8.07,48.9,7.86,49.09z"/>
						<path class="st1" d="M7.46,49.51c-0.18,0-0.35-0.07-0.47-0.2L4.52,46.7c-0.11-0.12-0.17-0.28-0.15-0.46
							c0.02-0.24,0.15-0.49,0.36-0.67c0.22-0.19,0.48-0.29,0.73-0.27c0.17,0.01,0.31,0.09,0.41,0.21l2.31,2.75
							c0.25,0.29,0.18,0.75-0.15,1.04l0,0C7.85,49.43,7.65,49.51,7.46,49.51z M5.4,45.82c-0.07,0-0.2,0.04-0.32,0.15
							c-0.13,0.1-0.17,0.22-0.18,0.3c0,0.04,0.01,0.06,0.01,0.07l2.47,2.61c0.06,0.06,0.2,0.03,0.31-0.06
							c0.11-0.1,0.14-0.24,0.09-0.29l-2.31-2.75c-0.01-0.01-0.04-0.02-0.05-0.02C5.41,45.82,5.4,45.82,5.4,45.82z"/>
					</g>
				</g>
				<g>
					<g>
						<path class="st10" d="M8.65,48.42c-0.11,0.09-0.25,0.13-0.37,0.13c-0.12,0-0.23-0.04-0.31-0.13l-2.31-2.75
							c-0.08-0.09-0.09-0.22-0.05-0.36c0.04-0.13,0.14-0.27,0.28-0.38c0.28-0.22,0.62-0.25,0.76-0.06l2.15,2.88
							C8.94,47.94,8.88,48.24,8.65,48.42z"/>
						<path class="st1" d="M8.27,48.81c-0.19,0-0.37-0.08-0.49-0.22l-2.31-2.75c-0.13-0.16-0.17-0.37-0.11-0.6
							c0.07-0.2,0.2-0.38,0.38-0.52c0.23-0.18,0.5-0.27,0.74-0.24c0.17,0.02,0.31,0.11,0.4,0.23l2.14,2.88
							c0.22,0.3,0.13,0.76-0.2,1.03l0,0C8.66,48.75,8.46,48.81,8.27,48.81z M6.37,45.01c-0.07,0-0.19,0.03-0.31,0.13
							c-0.1,0.07-0.17,0.17-0.2,0.26c-0.01,0.04-0.01,0.09,0.01,0.1l2.31,2.75c0.03,0.03,0.07,0.03,0.1,0.03
							c0.06,0,0.13-0.01,0.21-0.07c0.12-0.09,0.15-0.23,0.1-0.3l-2.15-2.88c-0.01-0.01-0.03-0.02-0.05-0.02
							C6.39,45.01,6.38,45.01,6.37,45.01z"/>
					</g>
				</g>
				<g>
					<g>
						<path class="st10" d="M9.48,47.8c-0.23,0.17-0.54,0.15-0.68-0.04l-2.15-2.88c-0.14-0.19-0.02-0.51,0.28-0.72
							c0.29-0.21,0.64-0.21,0.77-0.01l1.98,3C9.81,47.35,9.72,47.63,9.48,47.8z"/>
						<path class="st1" d="M9.14,48.17c-0.22,0-0.42-0.09-0.55-0.26l-2.15-2.88c-0.09-0.13-0.13-0.29-0.1-0.45
							c0.04-0.24,0.2-0.47,0.44-0.64c0.22-0.16,0.5-0.23,0.74-0.19c0.17,0.03,0.32,0.12,0.4,0.25l1.98,3
							c0.2,0.32,0.09,0.75-0.26,1.01l0,0C9.49,48.12,9.31,48.17,9.14,48.17z M7.38,44.27c-0.08,0-0.18,0.03-0.29,0.11
							c-0.15,0.1-0.21,0.22-0.22,0.3c0,0.02,0,0.04,0,0.05l2.15,2.88c0.05,0.06,0.19,0.07,0.31-0.02c0.13-0.09,0.17-0.23,0.13-0.29
							l-1.97-3c-0.01-0.01-0.03-0.02-0.06-0.03C7.41,44.27,7.4,44.27,7.38,44.27z"/>
					</g>
				</g>
				<g>
					<g>
						<path class="st10" d="M10.04,47.15v-1.5l-1.26-2.17c-0.11-0.2-0.47-0.23-0.77-0.04c-0.3,0.19-0.44,0.51-0.31,0.7l1.98,3
							c0.13,0.2,0.43,0.23,0.67,0.08c0.04-0.02,0.07-0.05,0.1-0.08H10.04z"/>
						<path class="st1" d="M10.03,47.58c-0.23,0-0.45-0.1-0.57-0.29l-1.98-3c-0.08-0.12-0.11-0.28-0.08-0.45
							c0.05-0.24,0.22-0.47,0.47-0.63c0.24-0.15,0.52-0.21,0.75-0.15c0.17,0.04,0.31,0.14,0.39,0.28l1.29,2.23v1.3h0.82l-0.5,0.46
							c-0.04,0.04-0.08,0.07-0.13,0.1C10.35,47.54,10.19,47.58,10.03,47.58z M8.44,43.58c-0.07,0-0.17,0.02-0.28,0.09
							c-0.15,0.1-0.22,0.21-0.24,0.29l0,0l0,0.05l1.85,2.81v-1.09l-1.22-2.11c0-0.01-0.02-0.02-0.05-0.03
							C8.49,43.58,8.46,43.58,8.44,43.58z"/>
					</g>
				</g>
				<g>
					<g>
						<path class="st10" d="M10.04,43.15l-0.14-0.27c-0.11-0.21-0.45-0.25-0.77-0.08c-0.31,0.17-0.47,0.49-0.35,0.69l1.26,2.17
							V43.15z"/>
						<path class="st1" d="M10.31,46.64l-1.75-3.03c-0.08-0.13-0.1-0.29-0.05-0.46c0.06-0.23,0.25-0.45,0.5-0.59
							c0.27-0.14,0.55-0.17,0.78-0.1c0.16,0.05,0.29,0.16,0.35,0.29l0.17,0.33V46.64z M9.53,42.95c-0.07,0-0.17,0.02-0.27,0.07
							c-0.15,0.08-0.22,0.19-0.24,0.27c-0.01,0.03-0.01,0.04,0,0.05l0.76,1.32v-1.46L9.67,43c-0.01-0.01-0.02-0.02-0.05-0.03
							C9.6,42.96,9.57,42.95,9.53,42.95z"/>
					</g>
				</g>
			</g>
			<g>
				<g>
					<g>
						<path class="st10" d="M58.16,60.86c0.02,0.29,0.23,0.51,0.46,0.49l3.59-0.21c0.23-0.01,0.4-0.31,0.38-0.67
							c-0.02-0.36-0.26-0.62-0.49-0.59l-3.57,0.41C58.29,60.33,58.14,60.58,58.16,60.86z"/>
						<path class="st1" d="M58.61,61.62c-0.37,0-0.68-0.33-0.71-0.74v0c-0.03-0.44,0.23-0.8,0.6-0.84l3.57-0.41
							c0.16-0.02,0.32,0.03,0.45,0.14c0.19,0.15,0.31,0.41,0.33,0.7c0.02,0.29-0.06,0.56-0.22,0.74c-0.11,0.13-0.26,0.2-0.41,0.21
							l-3.59,0.21C58.63,61.62,58.62,61.62,58.61,61.62z M58.43,60.84c0.01,0.14,0.1,0.25,0.18,0.25c0,0,0,0,0,0l3.59-0.21
							c0.01,0,0.03-0.01,0.04-0.03c0.05-0.05,0.1-0.18,0.09-0.36c-0.01-0.17-0.08-0.28-0.14-0.33c-0.02-0.02-0.04-0.03-0.05-0.03
							l-3.57,0.41C58.48,60.57,58.42,60.7,58.43,60.84z"/>
					</g>
				</g>
				<g>
					<g>
						<path class="st10" d="M58.04,59.83c0.03,0.28,0.25,0.49,0.49,0.47l3.57-0.41c0.23-0.03,0.39-0.34,0.34-0.69
							c-0.05-0.36-0.3-0.61-0.52-0.57l-3.54,0.62C58.14,59.28,58.01,59.55,58.04,59.83z"/>
						<path class="st1" d="M58.49,60.56c-0.35,0-0.66-0.3-0.71-0.7c-0.05-0.44,0.18-0.82,0.55-0.88l3.54-0.62
							c0.16-0.03,0.32,0.01,0.46,0.12c0.2,0.14,0.34,0.4,0.37,0.68c0.04,0.29-0.03,0.57-0.18,0.76c-0.1,0.13-0.24,0.21-0.4,0.23
							l-3.57,0.41C58.54,60.56,58.51,60.56,58.49,60.56z M61.96,58.88C61.96,58.88,61.96,58.88,61.96,58.88l-3.54,0.62
							c-0.08,0.01-0.13,0.15-0.12,0.29l0,0c0.02,0.14,0.11,0.24,0.2,0.23l3.57-0.41c0.01,0,0.03-0.01,0.04-0.03
							c0.05-0.06,0.09-0.19,0.07-0.37c-0.02-0.16-0.1-0.27-0.16-0.32C61.99,58.89,61.97,58.88,61.96,58.88z"/>
					</g>
				</g>
				<g>
					<g>
						<path class="st10" d="M57.87,58.81c0.05,0.28,0.28,0.48,0.51,0.44l3.54-0.62c0.23-0.04,0.37-0.36,0.3-0.71
							c-0.08-0.35-0.33-0.59-0.56-0.53l-3.5,0.82C57.94,58.26,57.8,58.53,57.87,58.81z"/>
						<path class="st1" d="M58.32,59.51c-0.34,0-0.64-0.27-0.71-0.65c-0.09-0.42,0.13-0.83,0.49-0.92l3.5-0.82
							c0.15-0.04,0.31-0.01,0.45,0.08c0.21,0.13,0.36,0.37,0.43,0.65c0.06,0.3,0.01,0.58-0.13,0.78c-0.1,0.14-0.23,0.23-0.39,0.25
							l-3.54,0.62C58.39,59.51,58.35,59.51,58.32,59.51z M61.73,57.63C61.73,57.63,61.73,57.63,61.73,57.63l-3.5,0.83
							c-0.07,0.02-0.13,0.14-0.1,0.29l0,0.01c0.03,0.15,0.14,0.24,0.21,0.23l3.53-0.62c0.01,0,0.03-0.02,0.04-0.04
							c0.04-0.06,0.08-0.19,0.05-0.37c-0.04-0.17-0.12-0.27-0.19-0.31C61.76,57.64,61.74,57.63,61.73,57.63z"/>
					</g>
				</g>
				<g>
					<g>
						<path class="st10" d="M57.62,57.8c0.08,0.27,0.31,0.46,0.54,0.4l3.5-0.82c0.23-0.05,0.36-0.38,0.26-0.73
							c-0.1-0.34-0.36-0.57-0.58-0.5l-3.44,1.03C57.67,57.24,57.55,57.52,57.62,57.8z"/>
						<path class="st1" d="M58.09,58.48c-0.31,0-0.61-0.24-0.71-0.6l0,0c-0.12-0.42,0.09-0.84,0.45-0.95l3.44-1.03
							c0.15-0.04,0.31-0.02,0.45,0.06c0.21,0.12,0.38,0.34,0.46,0.63c0.08,0.27,0.05,0.55-0.07,0.77c-0.09,0.15-0.22,0.26-0.38,0.29
							l-3.49,0.82C58.18,58.47,58.13,58.48,58.09,58.48z M57.88,57.72c0.04,0.14,0.14,0.24,0.23,0.22l3.49-0.82
							c0.01,0,0.03-0.01,0.04-0.04c0.04-0.06,0.07-0.2,0.02-0.35c-0.05-0.17-0.14-0.27-0.21-0.31c-0.02-0.01-0.04-0.02-0.05-0.01
							l-3.44,1.03C57.89,57.45,57.84,57.58,57.88,57.72z"/>
					</g>
				</g>
				<g>
					<g>
						<path class="st10" d="M57.33,56.8c0.1,0.27,0.34,0.44,0.57,0.37l3.44-1.03c0.23-0.07,0.33-0.4,0.21-0.74
							c-0.12-0.34-0.39-0.55-0.61-0.47l-3.38,1.23C57.34,56.25,57.24,56.53,57.33,56.8z"/>
						<path class="st1" d="M57.8,57.45c-0.31,0-0.6-0.22-0.72-0.56l0,0c-0.14-0.41,0.03-0.84,0.39-0.97l3.38-1.23
							c0.14-0.05,0.31-0.04,0.46,0.03c0.22,0.1,0.4,0.32,0.49,0.6c0.09,0.27,0.08,0.56-0.03,0.77c-0.08,0.15-0.21,0.26-0.36,0.31
							l-3.44,1.03C57.91,57.45,57.86,57.45,57.8,57.45z M57.58,56.72c0.05,0.15,0.17,0.23,0.24,0.21l3.44-1.03
							c0.01,0,0.03-0.02,0.04-0.04c0.03-0.06,0.05-0.2,0-0.36c-0.06-0.17-0.16-0.27-0.22-0.3c-0.01,0-0.03-0.02-0.05-0.01
							l-3.38,1.23C57.58,56.44,57.53,56.58,57.58,56.72z"/>
					</g>
				</g>
				<g>
					<g>
						<path class="st10" d="M56.97,55.83c0.1,0.26,0.37,0.41,0.59,0.33l3.38-1.23c0.22-0.08,0.3-0.42,0.17-0.75
							c-0.13-0.34-0.42-0.53-0.64-0.43l-3.3,1.43C56.95,55.27,56.87,55.56,56.97,55.83z"/>
						<path class="st1" d="M57.44,56.45c-0.3,0-0.59-0.2-0.71-0.53l0,0c-0.15-0.41,0-0.84,0.34-0.99l3.3-1.43
							c0.14-0.06,0.31-0.06,0.47,0.01c0.23,0.09,0.41,0.3,0.52,0.58c0.11,0.27,0.11,0.55,0.01,0.77c-0.07,0.15-0.19,0.27-0.33,0.32
							l-3.38,1.23C57.58,56.44,57.51,56.45,57.44,56.45z M57.22,55.74c0.05,0.13,0.18,0.21,0.25,0.18l3.38-1.23
							c0.02-0.01,0.03-0.03,0.03-0.04c0.03-0.06,0.04-0.2-0.02-0.36c-0.06-0.16-0.16-0.25-0.23-0.28C60.6,54,60.58,53.99,60.57,54
							l-3.3,1.43C57.2,55.45,57.17,55.59,57.22,55.74z"/>
					</g>
				</g>
				<g>
					<g>
						<path class="st10" d="M56.56,54.88c0.12,0.26,0.39,0.4,0.61,0.3l3.3-1.43c0.22-0.09,0.27-0.43,0.12-0.76
							c-0.14-0.33-0.46-0.5-0.66-0.39l-3.21,1.62C56.5,54.33,56.45,54.61,56.56,54.88z"/>
						<path class="st1" d="M57.03,55.47c-0.28,0-0.57-0.19-0.71-0.49l0-0.01c-0.17-0.41-0.05-0.83,0.28-1l3.21-1.62
							c0.14-0.07,0.31-0.08,0.48-0.02c0.23,0.08,0.44,0.29,0.55,0.54c0.12,0.26,0.14,0.55,0.05,0.77c-0.06,0.16-0.17,0.28-0.31,0.34
							l-3.3,1.43C57.19,55.46,57.11,55.47,57.03,55.47z M56.8,54.77c0.06,0.13,0.19,0.2,0.26,0.17l3.3-1.43
							c0.02-0.01,0.03-0.03,0.03-0.04c0.03-0.07,0.03-0.2-0.04-0.37c-0.07-0.15-0.17-0.23-0.24-0.26c-0.04-0.01-0.06-0.01-0.06-0.01
							l-3.21,1.62C56.76,54.49,56.75,54.63,56.8,54.77z"/>
					</g>
				</g>
				<g>
					<g>
						<path class="st10" d="M56.1,53.95c0.13,0.25,0.4,0.37,0.62,0.27l3.21-1.62c0.21-0.1,0.25-0.45,0.08-0.77
							c-0.17-0.31-0.49-0.47-0.69-0.35l-3.11,1.8C56.01,53.4,55.96,53.7,56.1,53.95z"/>
						<path class="st1" d="M56.55,54.52c-0.27,0-0.54-0.17-0.69-0.45c-0.21-0.37-0.12-0.83,0.21-1.02l3.11-1.8
							c0.13-0.08,0.29-0.1,0.46-0.05c0.23,0.06,0.46,0.25,0.6,0.5c0.14,0.27,0.17,0.56,0.09,0.79c-0.05,0.16-0.16,0.28-0.29,0.35
							l-3.21,1.61C56.74,54.5,56.65,54.52,56.55,54.52z M59.47,51.71c-0.01,0-0.01,0-0.02,0l-3.11,1.8
							c-0.07,0.04-0.09,0.18-0.01,0.3l0.01,0.01c0.07,0.13,0.19,0.19,0.26,0.15l3.21-1.61l0.03-0.04c0.02-0.07,0.02-0.21-0.06-0.37
							c-0.08-0.14-0.19-0.22-0.27-0.24C59.49,51.71,59.48,51.71,59.47,51.71z"/>
					</g>
				</g>
				<g>
					<g>
						<path class="st10" d="M55.58,53.05c0.15,0.24,0.43,0.35,0.63,0.23l3.11-1.8c0.2-0.12,0.23-0.47,0.04-0.77
							c-0.19-0.3-0.51-0.44-0.7-0.31l-3,1.98C55.45,52.51,55.42,52.81,55.58,53.05z"/>
						<path class="st1" d="M56.03,53.6c-0.25,0-0.51-0.14-0.67-0.4l0,0c-0.23-0.37-0.16-0.83,0.16-1.04l3-1.98
							c0.12-0.08,0.28-0.11,0.45-0.08c0.23,0.05,0.47,0.22,0.62,0.47c0.15,0.24,0.21,0.52,0.15,0.76c-0.04,0.17-0.14,0.31-0.28,0.38
							l-3.11,1.8C56.24,53.57,56.13,53.6,56.03,53.6z M55.8,52.91c0.08,0.12,0.2,0.18,0.28,0.14l3.11-1.8
							c0.01-0.01,0.02-0.02,0.03-0.05c0.02-0.07,0.01-0.21-0.08-0.35c-0.1-0.15-0.21-0.22-0.28-0.23c-0.02,0-0.04,0-0.05,0l-3,1.98
							C55.73,52.64,55.72,52.78,55.8,52.91z"/>
					</g>
				</g>
				<g>
					<g>
						<path class="st10" d="M55,52.18c0.17,0.23,0.45,0.32,0.65,0.19l3-1.98c0.2-0.13,0.2-0.48-0.01-0.77
							c-0.21-0.29-0.53-0.41-0.72-0.27l-2.88,2.14C54.86,51.65,54.84,51.95,55,52.18z"/>
						<path class="st1" d="M55.45,52.7c-0.24,0-0.49-0.13-0.66-0.36l0-0.01c-0.25-0.35-0.21-0.81,0.09-1.04l2.89-2.15
							c0.12-0.09,0.28-0.13,0.44-0.1c0.24,0.04,0.48,0.19,0.65,0.43c0.17,0.23,0.24,0.5,0.2,0.74c-0.03,0.17-0.12,0.32-0.26,0.4
							l-3,1.97C55.69,52.67,55.57,52.7,55.45,52.7z M55.22,52.03c0.09,0.13,0.23,0.17,0.29,0.13l3-1.97
							c0.01-0.01,0.02-0.03,0.03-0.06c0.01-0.07-0.01-0.2-0.1-0.34c-0.11-0.15-0.23-0.21-0.3-0.22l0,0l-0.05,0l-2.88,2.14
							C55.14,51.76,55.13,51.91,55.22,52.03z"/>
					</g>
				</g>
				<g>
					<g>
						<path class="st10" d="M54.38,51.35c0.18,0.23,0.48,0.29,0.66,0.15l2.88-2.14c0.19-0.14,0.16-0.48-0.06-0.77
							c-0.11-0.14-0.25-0.24-0.38-0.28c-0.14-0.04-0.26-0.02-0.35,0.05l-2.75,2.31c-0.09,0.08-0.13,0.19-0.13,0.31
							C54.25,51.11,54.29,51.24,54.38,51.35z"/>
						<path class="st1" d="M54.82,51.84c-0.23,0-0.48-0.11-0.64-0.33c-0.13-0.16-0.19-0.35-0.19-0.54c-0.01-0.18,0.07-0.38,0.22-0.5
							l2.75-2.31c0.16-0.13,0.38-0.17,0.6-0.1c0.19,0.06,0.37,0.19,0.51,0.37c0.18,0.23,0.27,0.5,0.24,0.74
							c-0.02,0.17-0.1,0.31-0.23,0.4l-2.88,2.14C55.09,51.8,54.95,51.84,54.82,51.84z M57.35,48.56c-0.02,0-0.04,0-0.05,0.01
							l-2.75,2.31c-0.02,0.02-0.04,0.05-0.03,0.1c0,0.08,0.03,0.16,0.07,0.21l0,0c0.1,0.12,0.24,0.15,0.29,0.11l2.89-2.15
							c0.01-0.01,0.01-0.02,0.02-0.05c0.01-0.07-0.02-0.2-0.13-0.34c-0.07-0.1-0.17-0.17-0.25-0.19
							C57.39,48.56,57.36,48.56,57.35,48.56z"/>
					</g>
				</g>
				<g>
					<g>
						<path class="st10" d="M53.71,50.55c0.19,0.22,0.49,0.27,0.67,0.12l2.75-2.31c0.18-0.15,0.14-0.49-0.1-0.76
							c-0.23-0.28-0.58-0.34-0.75-0.18l-2.61,2.47C53.5,50.05,53.53,50.33,53.71,50.55z"/>
						<path class="st1" d="M54.14,51.02c-0.22,0-0.45-0.1-0.62-0.3l0,0c-0.28-0.33-0.29-0.78-0.02-1.04l2.62-2.47
							c0.12-0.11,0.28-0.16,0.46-0.16c0.25,0.01,0.49,0.15,0.67,0.36c0.19,0.22,0.29,0.49,0.27,0.73c-0.01,0.17-0.09,0.31-0.21,0.41
							l-2.75,2.31C54.43,50.98,54.29,51.02,54.14,51.02z M53.92,50.38c0.1,0.11,0.23,0.14,0.29,0.09l2.75-2.31l0.02-0.05
							c0.01-0.07-0.03-0.21-0.15-0.34c-0.1-0.12-0.22-0.17-0.3-0.18c-0.04-0.01-0.06,0.01-0.06,0.01l-2.61,2.47
							C53.79,50.13,53.82,50.27,53.92,50.38z"/>
					</g>
				</g>
				<g>
					<g>
						<path class="st10" d="M53,49.8c0.2,0.21,0.5,0.24,0.67,0.08l2.61-2.47c0.17-0.16,0.11-0.5-0.14-0.76
							c-0.26-0.25-0.6-0.31-0.76-0.14l-2.47,2.61C52.76,49.3,52.8,49.6,53,49.8z"/>
						<path class="st1" d="M53.41,50.24c-0.21,0-0.42-0.09-0.59-0.26c-0.31-0.3-0.35-0.76-0.09-1.04l2.47-2.61
							c0.1-0.11,0.25-0.18,0.42-0.18c0.24-0.02,0.5,0.1,0.71,0.31c0.21,0.22,0.32,0.48,0.32,0.72c0,0.17-0.07,0.32-0.18,0.42
							l-2.62,2.47C53.73,50.19,53.57,50.24,53.41,50.24z M55.63,46.68c-0.02,0-0.04,0-0.06,0.01l-2.47,2.61
							c-0.05,0.06-0.03,0.19,0.08,0.3l0.01,0.01c0.1,0.11,0.24,0.13,0.29,0.07l2.61-2.47c0.01-0.01,0.01-0.03,0.01-0.05
							c0-0.07-0.04-0.21-0.16-0.34C55.84,46.72,55.71,46.68,55.63,46.68z"/>
					</g>
				</g>
				<g>
					<g>
						<path class="st10" d="M52.25,49.09c0.22,0.18,0.51,0.21,0.67,0.04l2.47-2.61c0.16-0.17,0.09-0.52-0.19-0.75
							c-0.27-0.24-0.61-0.28-0.76-0.1l-2.31,2.75C51.98,48.6,52.03,48.9,52.25,49.09z"/>
						<path class="st1" d="M52.64,49.5c-0.19,0-0.39-0.07-0.56-0.21l-0.01-0.01c-0.32-0.29-0.39-0.74-0.15-1.03l2.31-2.75
							c0.1-0.12,0.24-0.19,0.41-0.21c0.24-0.02,0.51,0.08,0.73,0.28c0.21,0.17,0.35,0.43,0.36,0.67c0.01,0.18-0.05,0.34-0.16,0.46
							l-2.47,2.61C52.99,49.44,52.82,49.5,52.64,49.5z M52.42,48.89c0.11,0.09,0.25,0.12,0.31,0.06l2.47-2.61
							c0.01-0.01,0.01-0.03,0.01-0.06c0-0.08-0.05-0.2-0.18-0.3c-0.14-0.12-0.28-0.16-0.34-0.15c-0.02,0-0.04,0.01-0.05,0.02
							l-2.31,2.75C52.28,48.65,52.31,48.79,52.42,48.89z"/>
					</g>
				</g>
				<g>
					<g>
						<path class="st10" d="M51.45,48.42c0.12,0.09,0.24,0.13,0.37,0.13c0.12,0,0.23-0.04,0.31-0.13l2.31-2.75
							c0.08-0.09,0.09-0.22,0.05-0.36c-0.04-0.13-0.14-0.27-0.28-0.38c-0.29-0.22-0.63-0.25-0.77-0.06l-2.15,2.88
							C51.15,47.94,51.22,48.24,51.45,48.42z"/>
						<path class="st1" d="M51.83,48.81c-0.01,0-0.02,0-0.02,0c-0.18,0-0.37-0.06-0.52-0.18l0,0c-0.34-0.27-0.43-0.73-0.2-1.03
							l2.15-2.88c0.09-0.12,0.23-0.21,0.4-0.23c0.24-0.03,0.51,0.05,0.74,0.24c0.18,0.14,0.31,0.32,0.37,0.51
							c0.07,0.23,0.03,0.45-0.1,0.61l-2.31,2.75C52.21,48.73,52.03,48.81,51.83,48.81z M51.61,48.21c0.06,0.05,0.11,0.08,0.21,0.07
							c0.03,0,0.07,0,0.1-0.04l2.31-2.75c0.01-0.01,0.02-0.05,0-0.11c-0.03-0.08-0.1-0.17-0.19-0.25c-0.14-0.11-0.28-0.14-0.34-0.13
							c-0.02,0-0.04,0.01-0.05,0.02l-2.15,2.88C51.46,47.98,51.5,48.12,51.61,48.21z"/>
					</g>
				</g>
				<g>
					<g>
						<path class="st10" d="M50.62,47.8c0.23,0.17,0.54,0.15,0.68-0.04l2.15-2.88c0.14-0.19,0.02-0.51-0.27-0.72
							c-0.29-0.21-0.64-0.21-0.77-0.01l-1.98,3C50.29,47.35,50.39,47.63,50.62,47.8z"/>
						<path class="st1" d="M50.96,48.18c-0.17,0-0.34-0.05-0.5-0.16l0,0c-0.35-0.26-0.46-0.69-0.26-1l1.98-3
							c0.09-0.13,0.23-0.22,0.4-0.25c0.24-0.04,0.52,0.03,0.75,0.19c0.24,0.17,0.4,0.4,0.43,0.64c0.03,0.17-0.01,0.33-0.1,0.45
							l-2.15,2.88C51.38,48.09,51.18,48.18,50.96,48.18z M50.77,47.58c0.12,0.09,0.26,0.08,0.31,0.01l2.15-2.88
							c0.01-0.01,0.01-0.03,0-0.05c-0.01-0.07-0.08-0.19-0.22-0.29c-0.14-0.1-0.27-0.12-0.34-0.1c-0.03,0.01-0.05,0.02-0.05,0.02
							l-1.98,3C50.6,47.35,50.65,47.49,50.77,47.58z"/>
					</g>
				</g>
				<g>
					<g>
						<path class="st10" d="M49.75,47.22c0.24,0.15,0.54,0.12,0.67-0.08l1.98-3c0.13-0.19-0.01-0.51-0.31-0.7
							c-0.3-0.19-0.66-0.16-0.77,0.04l-1.8,3.11C49.4,46.8,49.51,47.07,49.75,47.22z"/>
						<path class="st1" d="M50.07,47.58c-0.15,0-0.31-0.04-0.46-0.14l0,0c-0.37-0.24-0.51-0.66-0.32-0.99l1.8-3.11
							c0.08-0.14,0.22-0.24,0.39-0.28c0.24-0.06,0.51,0,0.75,0.15c0.25,0.16,0.42,0.39,0.47,0.63c0.03,0.16,0.01,0.32-0.08,0.45
							l-1.98,3C50.52,47.48,50.3,47.58,50.07,47.58z M51.67,43.58c-0.03,0-0.05,0-0.07,0.01c-0.04,0.01-0.05,0.02-0.06,0.03
							l-1.79,3.11c-0.04,0.07,0.02,0.2,0.15,0.28l0,0c0.12,0.08,0.26,0.07,0.31,0l1.98-3c0.01-0.01,0.01-0.03,0-0.05
							c-0.01-0.07-0.09-0.19-0.24-0.29C51.84,43.6,51.74,43.58,51.67,43.58z"/>
					</g>
				</g>
				<g>
					<g>
						<path class="st10" d="M48.85,46.7c0.25,0.14,0.55,0.09,0.67-0.11l1.8-3.11c0.12-0.2-0.03-0.51-0.35-0.69
							c-0.32-0.17-0.66-0.13-0.77,0.08l-1.61,3.21C48.48,46.3,48.6,46.57,48.85,46.7z"/>
						<path class="st1" d="M49.14,47.05c-0.14,0-0.28-0.04-0.42-0.11c-0.38-0.2-0.55-0.63-0.38-0.97l1.62-3.21
							c0.07-0.14,0.19-0.24,0.35-0.29c0.23-0.07,0.51-0.04,0.77,0.09c0.26,0.14,0.45,0.37,0.51,0.6c0.04,0.16,0.02,0.33-0.06,0.46
							l-1.79,3.11C49.62,46.93,49.39,47.05,49.14,47.05z M50.57,42.95c-0.04,0-0.07,0-0.09,0.01c-0.02,0.01-0.04,0.02-0.04,0.03
							l-1.61,3.21c-0.03,0.07,0.02,0.2,0.15,0.26l0.01,0c0.13,0.07,0.27,0.05,0.31-0.02l1.79-3.11c0.01-0.01,0.01-0.03,0-0.05
							c-0.02-0.07-0.1-0.18-0.25-0.27C50.74,42.97,50.64,42.95,50.57,42.95z"/>
					</g>
				</g>
				<g>
					<g>
						<path class="st10" d="M47.92,46.24c0.26,0.11,0.55,0.06,0.66-0.16l1.61-3.21c0.11-0.21-0.06-0.52-0.39-0.66
							c-0.33-0.15-0.67-0.09-0.76,0.12l-1.43,3.3C47.53,45.85,47.66,46.12,47.92,46.24z"/>
						<path class="st1" d="M48.19,46.56c-0.12,0-0.25-0.02-0.37-0.08l-0.01,0c-0.39-0.18-0.59-0.6-0.44-0.95l1.43-3.3
							c0.06-0.14,0.18-0.25,0.33-0.31c0.22-0.09,0.51-0.07,0.78,0.05c0.25,0.11,0.45,0.31,0.54,0.54c0.06,0.17,0.05,0.34-0.02,0.48
							l-1.61,3.21C48.7,46.43,48.46,46.56,48.19,46.56z M48.03,46c0.14,0.06,0.28,0.04,0.31-0.03l1.61-3.21
							c0-0.01,0.01-0.03-0.01-0.07c-0.03-0.07-0.11-0.17-0.25-0.24c-0.17-0.08-0.3-0.07-0.37-0.04l0,0l-0.04,0.03l-1.43,3.3
							C47.83,45.81,47.89,45.93,48.03,46z"/>
					</g>
				</g>
				<g>
					<g>
						<path class="st10" d="M48.61,41.7c-0.33-0.13-0.67-0.06-0.75,0.16l-0.9,2.47v1.49c0,0,0,0,0.01,0c0.27,0.1,0.56,0.02,0.65-0.2
							l1.43-3.3C49.14,42.12,48.95,41.83,48.61,41.7z"/>
						<path class="st1" d="M47.2,46.14c-0.09,0-0.18-0.01-0.27-0.04l-0.23,0l0.02-1.85l0.9-2.47c0.05-0.15,0.17-0.26,0.32-0.33
							c0.22-0.1,0.5-0.09,0.78,0.01c0.27,0.1,0.48,0.3,0.58,0.52c0.07,0.16,0.07,0.32,0,0.47l-1.42,3.3
							C47.75,45.99,47.49,46.14,47.2,46.14z M47.23,44.38v1.23c0.07-0.01,0.13-0.04,0.15-0.08l1.43-3.3c0-0.01,0-0.03-0.01-0.05
							c-0.03-0.07-0.12-0.17-0.28-0.23l0,0c-0.17-0.07-0.3-0.05-0.36-0.02c-0.02,0.01-0.03,0.02-0.04,0.03L47.23,44.38z"/>
					</g>
				</g>
				<g>
					<g>
						<path class="st10" d="M47.39,41.25c-0.15-0.05-0.3-0.06-0.43-0.03v3.11l0.9-2.47C47.94,41.64,47.73,41.37,47.39,41.25z"/>
						<path class="st1" d="M46.7,45.83v-4.82l0.21-0.05c0.18-0.04,0.39-0.03,0.58,0.04c0.28,0.09,0.5,0.27,0.6,0.49
							c0.07,0.15,0.08,0.31,0.03,0.46L46.7,45.83z M47.23,41.48v1.35l0.39-1.06c0-0.01,0-0.03-0.01-0.05
							c-0.03-0.07-0.13-0.16-0.3-0.22l-0.01,0C47.28,41.49,47.25,41.49,47.23,41.48z"/>
					</g>
				</g>
			</g>
		</g>
		<g>
			<g>
				<path class="st10" d="M18.39,44.55c0,3.14-2.54,5.68-5.68,5.68c-3.14,0-5.68-2.54-5.68-5.68c0-3.14,2.54-5.68,5.68-5.68
					C15.85,38.87,18.39,41.41,18.39,44.55z"/>
				<path class="st1" d="M12.71,50.5c-3.28,0-5.95-2.67-5.95-5.95c0-3.28,2.67-5.95,5.95-5.95c3.28,0,5.95,2.67,5.95,5.95
					C18.66,47.83,15.99,50.5,12.71,50.5z M12.71,39.13c-2.99,0-5.42,2.43-5.42,5.42c0,2.99,2.43,5.42,5.42,5.42
					c2.99,0,5.42-2.43,5.42-5.42C18.13,41.56,15.7,39.13,12.71,39.13z"/>
			</g>
			<g>
				<path class="st10" d="M53.07,44.55c0,3.14-2.54,5.68-5.68,5.68c-3.14,0-5.68-2.54-5.68-5.68c0-3.14,2.54-5.68,5.68-5.68
					C50.53,38.87,53.07,41.41,53.07,44.55z"/>
				<path class="st1" d="M47.39,50.5c-3.28,0-5.95-2.67-5.95-5.95c0-3.28,2.67-5.95,5.95-5.95c3.28,0,5.95,2.67,5.95,5.95
					C53.34,47.83,50.67,50.5,47.39,50.5z M47.39,39.13c-2.99,0-5.42,2.43-5.42,5.42c0,2.99,2.43,5.42,5.42,5.42
					c2.99,0,5.42-2.43,5.42-5.42C52.81,41.56,50.38,39.13,47.39,39.13z"/>
			</g>
		</g>
		<g>
			<g>
				<g>
					<g>
						<polygon class="st10" points="13.08,19.26 14.4,16.92 9.19,14.79 8.56,15.89 						"/>
						<path class="st1" d="M13.16,19.65l-4.94-3.69l0.85-1.51l5.71,2.34L13.16,19.65z M8.91,15.81L13,18.87l1.03-1.82L9.3,15.12
							L8.91,15.81z"/>
					</g>
					<g>
						<g>
							<path class="st10" d="M7.63,16.46c0.76,0.43,1.74,0.17,2.17-0.6c0.44-0.76,0.17-1.73-0.6-2.17c-0.77-0.43-1.74-0.17-2.17,0.6
								C6.59,15.06,6.86,16.03,7.63,16.46z"/>
							<path class="st1" d="M8.41,16.93c-0.32,0-0.63-0.08-0.91-0.24c-0.89-0.5-1.2-1.64-0.7-2.53c0.5-0.89,1.64-1.21,2.53-0.7
								c0.89,0.51,1.2,1.65,0.7,2.53c-0.24,0.43-0.64,0.74-1.12,0.88C8.74,16.91,8.57,16.93,8.41,16.93z M8.41,13.75
								c-0.46,0-0.92,0.24-1.16,0.67c-0.36,0.64-0.13,1.45,0.5,1.81h0c0.31,0.18,0.66,0.22,1.01,0.12c0.34-0.09,0.63-0.32,0.8-0.63
								c0.36-0.63,0.14-1.45-0.5-1.81C8.86,13.8,8.64,13.75,8.41,13.75z"/>
						</g>
					</g>
				</g>
				<g>
					<path class="st10" d="M21.88,17.52l-5.65-3.2c-0.98-0.55-2.22-0.21-2.77,0.77l-2.45,4.32c-0.55,0.98-0.21,2.22,0.77,2.78
						l5.65,3.2L21.88,17.52z"/>
					<path class="st1" d="M17.53,25.74l-5.88-3.33c-1.1-0.62-1.49-2.03-0.87-3.14l2.45-4.32c0.63-1.1,2.03-1.49,3.14-0.87l5.89,3.33
						L17.53,25.74z M15.23,14.32c-0.62,0-1.22,0.32-1.54,0.9l-2.45,4.32c-0.48,0.85-0.18,1.94,0.67,2.42l5.42,3.07l4.19-7.4
						l-5.42-3.07C15.82,14.39,15.52,14.32,15.23,14.32z"/>
				</g>
			</g>
			<g>
				<g>
					<g>
						<polygon class="st10" points="47.02,19.26 45.7,16.92 50.92,14.79 51.54,15.89 						"/>
						<path class="st1" d="M46.94,19.65l-1.62-2.86l5.71-2.34l0.86,1.51L46.94,19.65z M46.08,17.06l1.03,1.82l4.09-3.06l-0.4-0.7
							L46.08,17.06z"/>
					</g>
					<g>
						<g>
							<path class="st10" d="M52.48,16.46c-0.77,0.43-1.74,0.17-2.17-0.6c-0.43-0.76-0.17-1.73,0.6-2.17
								c0.77-0.43,1.74-0.17,2.17,0.6C53.51,15.06,53.24,16.03,52.48,16.46z"/>
							<path class="st1" d="M51.69,16.93c-0.17,0-0.33-0.02-0.5-0.07c-0.48-0.13-0.88-0.44-1.12-0.88c-0.5-0.89-0.19-2.02,0.7-2.53
								c0.89-0.5,2.03-0.19,2.53,0.7c0.5,0.89,0.19,2.02-0.7,2.53l0,0C52.32,16.85,52.01,16.93,51.69,16.93z M51.69,13.75
								c-0.22,0-0.45,0.06-0.65,0.17c-0.64,0.36-0.86,1.17-0.5,1.81c0.17,0.31,0.46,0.53,0.8,0.63c0.34,0.1,0.7,0.05,1.01-0.12l0,0
								c0.64-0.36,0.86-1.17,0.5-1.81C52.6,13.99,52.15,13.75,51.69,13.75z"/>
						</g>
					</g>
				</g>
				<g>
					<path class="st10" d="M38.22,17.52l5.65-3.2c0.98-0.55,2.22-0.21,2.78,0.77l2.44,4.32c0.56,0.98,0.21,2.22-0.77,2.78l-5.65,3.2
						L38.22,17.52z"/>
					<path class="st1" d="M42.57,25.74l-4.72-8.32l5.89-3.33c1.11-0.63,2.51-0.24,3.14,0.87l2.44,4.32c0.3,0.54,0.38,1.16,0.22,1.75
						c-0.16,0.59-0.55,1.09-1.08,1.39L42.57,25.74z M38.58,17.62l4.19,7.4l5.42-3.07c0.41-0.23,0.71-0.61,0.83-1.07
						c0.13-0.46,0.07-0.93-0.17-1.35l-2.44-4.32c-0.48-0.85-1.56-1.15-2.42-0.67L38.58,17.62z"/>
				</g>
			</g>
		</g>
		<g>
			<rect x="24.11" y="31.06" class="st10" width="11.88" height="9.74"/>
			<path class="st1" d="M36.25,41.07H23.85V30.8h12.41V41.07z M24.38,40.54h11.35v-9.21H24.38V40.54z"/>
		</g>
		<g>
			<path class="st10" d="M47.26,55.06c0,10.37-7.71,18.78-17.21,18.78c-9.51,0-17.21-8.41-17.21-18.78
				c0-10.37,7.71-18.78,17.21-18.78C39.56,36.28,47.26,44.69,47.26,55.06z"/>
			<path class="st1" d="M30.05,74.11c-9.64,0-17.48-8.55-17.48-19.05c0-10.5,7.84-19.05,17.48-19.05c9.64,0,17.48,8.54,17.48,19.05
				C47.53,65.57,39.69,74.11,30.05,74.11z M30.05,36.55c-9.35,0-16.95,8.31-16.95,18.52c0,10.21,7.6,18.52,16.95,18.52
				C39.4,73.58,47,65.28,47,55.06C47,44.85,39.4,36.55,30.05,36.55z"/>
		</g>
		<g>
			<path class="st10" d="M30.05,8.66c-11.71,0-17.16,12.82-17.16,17.04c0,4.22,3.63,7.68,8.08,7.68h1c4.44,0,11.71,0,16.16,0h1
				c4.44,0,8.08-3.46,8.08-7.68C47.21,21.47,41.91,8.66,30.05,8.66z"/>
			<path class="st1" d="M39.13,33.65H20.97c-4.6,0-8.34-3.57-8.34-7.95c0-4.03,5.43-17.31,17.42-17.31
				c12.18,0,17.42,13.14,17.42,17.31C47.47,30.08,43.73,33.65,39.13,33.65z M30.05,8.92c-11.63,0-16.89,12.87-16.89,16.78
				c0,4.09,3.51,7.42,7.81,7.42h18.16c4.31,0,7.81-3.33,7.81-7.42C46.94,21.66,41.86,8.92,30.05,8.92z"/>
		</g>
		<g>
			<path class="st15" d="M30.05,14.68c-9.19,0-13.46,8.32-13.46,11.06c0,2.74,2.85,4.99,6.34,4.99h0.78c3.49,0,9.19,0,12.68,0h0.78
				c3.49,0,6.34-2.24,6.34-4.99C43.52,23,39.36,14.68,30.05,14.68z"/>
			<path class="st1" d="M37.18,30.99H22.93c-3.64,0-6.6-2.36-6.6-5.25c0-2.64,4.28-11.33,13.73-11.33c9.6,0,13.73,8.6,13.73,11.33
				C43.78,28.64,40.82,30.99,37.18,30.99z M30.05,14.94c-9.08,0-13.2,8.28-13.2,10.8c0,2.6,2.72,4.72,6.07,4.72h14.25
				c3.35,0,6.08-2.12,6.08-4.72C43.25,23.14,39.28,14.94,30.05,14.94z"/>
		</g>
		<path d="M25.89,20.84c0,0.61-0.49,1.1-1.1,1.1c-0.61,0-1.1-0.49-1.1-1.1s0.49-1.1,1.1-1.1C25.4,19.74,25.89,20.23,25.89,20.84z"/>
		<circle cx="35.05" cy="20.84" r="1.1"/>
		<g>
			<path class="st10" d="M29.86,27.77c0.02,0,0.04,0,0.06,0c3.34-0.04,4.46-3.56,4.47-3.6c0.01-0.05,0.01-0.1-0.02-0.14
				c-0.03-0.04-0.08-0.06-0.13-0.06h-8.38c-0.05,0-0.09,0.02-0.12,0.05c-0.03,0.03-0.04,0.08-0.04,0.13
				C25.71,24.18,26.2,27.77,29.86,27.77z M34.02,24.28c-0.29,0.73-1.45,3.13-4.09,3.16c-0.02,0-0.04,0-0.06,0
				c-2.96,0-3.67-2.46-3.81-3.16H34.02z"/>
			<path class="st1" d="M29.86,28.03c-3.89,0-4.42-3.82-4.42-3.85c-0.01-0.12,0.02-0.24,0.1-0.33c0.08-0.09,0.2-0.14,0.32-0.14h8.38
				c0.13,0,0.26,0.06,0.34,0.17c0.08,0.11,0.1,0.25,0.06,0.38c-0.01,0.04-1.21,3.74-4.72,3.78L29.86,28.03z M26.39,24.55
				c0.26,0.89,1.07,2.63,3.47,2.63h0.06c2.14-0.02,3.25-1.72,3.69-2.63H26.39z"/>
		</g>
	</g>
</g>
</svg>
